<?xml version="1.0" encoding="UTF-8"?>
<svg id="minel" xmlns="http://www.w3.org/2000/svg" viewBox="0 0 400 400">
  <g id="corps">
    <rect id="corps-2" data-name="corps" x="66.43" y="295.31" width="268.6" height="108.53" rx="7.08" ry="7.08" fill="#f2f2f2"/>
    <path id="col" d="M140.56,295.31s65.37,46.89,119.85,0h-119.85Z" fill="#a67d52"/>
    <rect id="cou" x="140.94" y="277.92" width="118.96" height="17.77" rx=".98" ry=".98" fill="#a67d52"/>
  </g>
  <g id="visage">
    <g id="visage-2" data-name="visage">
      <path d="M263.14,281.81c-17.16,3.48-39.37,6.54-65.33,6.54s-48.18-3.06-65.33-6.54c-6.7-1.06-23.78-4.6-38.29-17.83-11.32-10.32-15.56-21.51-16.75-24.94-1.97-5.72-3.04-11.8-3.04-18.1v-90.86c0-33.62,30.24-60.87,67.55-60.87h111.71c37.31,0,67.55,27.25,67.55,60.87v90.86c-.1,4.8-1.11,25.89-19.79,43.04-14.74,13.54-32.06,16.9-38.29,17.83Z" fill="#fac181"/>
    </g>
    <path id="bouche" d="M161.02,228.46s32.42,11.69,76,0c0,0-37.73,17.54-76,0Z" fill="#010101"/>
    <ellipse id="oeil_droit" cx="237.02" cy="172.46" rx="14.52" ry="17.39" fill="#010101"/>
    <ellipse id="oeil_gauche" cx="157.75" cy="172.46" rx="14.52" ry="17.39" fill="#010101"/>
    <ellipse id="pup_droit" cx="235.38" cy="166.43" rx="5.9" ry="5.73" fill="#fff"/>
    <ellipse id="pup_gauche" cx="159.44" cy="164.27" rx="5.9" ry="5.73" fill="#fff"/>
    <path id="sourcil_droit" d="M265.39,152.58s-8.21-10.76-45.18-3.59c0,0-8.21-5.45,0-6.31,0,0,41.07-8.04,45.18,9.9Z" fill="#4f2411"/>
    <path id="sourcil_gauche" d="M128.87,152.46s8.36-10.76,45.98-3.59c0,0,8.36-5.45,0-6.31,0,0-41.8-8.04-45.98,9.9Z" fill="#4f2411"/>
    <g>
      <path d="M75.96,225.54s6.86-80.68,27.44-100.85c0,0,20.58,6.72,34.3-26.89,0,0,62.08-18.25,133.09,3.12,3.63,1.09,7.29,2.29,10.96,3.6,0,0,27.44,40.34,34.3,114.29,0,0,27.44-33.62,6.86-107.57,0,0-41.16-87.4-130.33-87.4l-68.6,20.17-54.88,60.51s-27.44,40.34,6.86,121.02Z" fill="#4f2411"/>
      <path d="M185.72,77.63s41.16-40.34,75.45-13.45c0,0,26.68,24.26,16.77,39.02,0,0-49.93-22.78-123.86-8.95l31.63-16.62Z" fill="#3d2313"/>
    </g>
    <path d="M143.48,184.62h29.23s-16.24,19.73-29.23,0Z" fill="#fac181"/>
    <path d="M222.84,184.62h29.23s-16.24,19.73-29.23,0Z" fill="#fac181"/>
    <path d="M173.24,157.97l-29.22,.67s15.79-20.1,29.22-.67Z" fill="#fac181"/>
    <path d="M252.17,157.3l-29.22,.67s15.79-20.1,29.22-.67Z" fill="#fac181"/>
  </g>
  <g id="presentation">
    <rect id="feuille" x="79.18" y="307.38" width="236.77" height="70.15" fill="#f2f2f2"/>
    <text transform="translate(135.56 366.73) scale(.88 1)" fill="#010101" font-family="Legothick, Legothick" font-size="63.61"><tspan x="0" y="0">MINEL</tspan></text>
    <path id="main_droite" d="M313.02,310.31h55.45c1.66,0,3.01,1.35,3.01,3.01v61.21c0,1.66-1.35,3.01-3.01,3.01h-55.45v-67.23h0Z" transform="translate(684.5 687.85) rotate(180)" fill="#fac181"/>
    <path id="main_gauche" d="M29.48,310.31h55.45c1.66,0,3.01,1.35,3.01,3.01v61.21c0,1.66-1.35,3.01-3.01,3.01H29.48v-67.23h0Z" fill="#fac181"/>
  </g>
</svg>