<?xml version="1.0" encoding="UTF-8"?>
<svg id="enes" xmlns="http://www.w3.org/2000/svg" viewBox="0 0 400 400">
  <g id="corps">
    <rect id="cou" x="140.37" y="275.22" width="121.05" height="18.09" rx=".98" ry=".98" fill="#cf9060"/>
    <path id="col_habit" data-name="col habit" d="M121.15,292.92h6.94s83.29,106.7,148.73,0h9.05s-66.56,121.96-164.72,0Z" fill="#f2f2f2"/>
    <rect id="corps-2" data-name="corps" x="64.55" y="292.92" width="273.33" height="110.44" rx="7.08" ry="7.08" fill="#e7e6e6"/>
    <path id="col" d="M128.09,292.92s81.12,106.19,148.73,0H128.09Z" fill="#cf9060"/>
  </g>
  <g id="visage">
    <g id="visage-2" data-name="visage">
      <path d="M267.7,279.18c-17.46,3.54-40.06,6.66-66.48,6.66s-49.02-3.12-66.48-6.66c-6.81-1.08-24.2-4.68-38.96-18.14-11.52-10.5-15.84-21.89-17.04-25.38-2.01-5.82-3.09-12.01-3.09-18.42V124.78c0-34.21,30.78-61.94,68.74-61.94h113.68c37.97,0,68.74,27.73,68.74,61.94v92.45c-.1,4.88-1.13,26.35-20.13,43.8-15,13.78-32.63,17.19-38.96,18.14Z" fill="#cf9060"/>
    </g>
    <path id="barbe" d="M74.55,198.12s108.5,178.47,252.83,0c0,0,21.65,92.25-125.35,87.72-143.67-4.43-125.56-55-127.48-87.72Z" fill="#1b1b1b" opacity=".75"/>
    <rect id="bouc" x="181.63" y="236.79" width="32.72" height="11.9" rx="2" ry="2" fill="#1b1b1b" opacity=".75"/>
    <path id="moustache" d="M248.99,210.19c-7.36-7.39-25.64-6.81-32.23-6.33,.09-2.92,2.94-5.8,2.94-5.8l-18.78,.07h-19.29s2.86,2.87,2.96,5.79c-6.59-.45-24.87-.97-32.2,6.44-9.02,9.12,.07,20.66,.07,20.66l6.35-5.97s25.77-12.01,37.69-6.1l4.2-1.46,4.72,1.46c11.9-5.95,37.19,5.95,37.19,5.95l6.37,5.95s9.06-11.57,0-20.66Z" fill="#1b1b1b" opacity=".75"/>
    <ellipse id="oeil_droit" cx="238.15" cy="167.9" rx="14.77" ry="17.7" fill="#010101"/>
    <ellipse id="oeil_gauche" cx="157.48" cy="167.9" rx="14.77" ry="17.7" fill="#010101"/>
    <ellipse id="pup_droit" cx="236.48" cy="161.77" rx="6.01" ry="5.83" fill="#fff"/>
    <ellipse id="pup_gauche" cx="159.2" cy="159.57" rx="6.01" ry="5.83" fill="#fff"/>
    <path id="bouche" d="M159.2,224.89h77.28s-37.25,10.25-77.28,0Z" fill="#010101"/>
    <path id="sourcil_droit" d="M126.77,146.46c6.87-1.55,15.61-2.89,25.78-2.97,11.06-.09,20.5,1.34,27.76,2.97-3.44-3.31-12.17-10.74-24.79-11.9-2.37-.22-7.19-.61-13.04,1.19-8.48,2.61-13.6,8.13-15.71,10.71Z" fill="#010101" opacity=".75"/>
    <path id="sourcil_gauche" d="M215.34,147.55c6.87-1.55,15.61-2.89,25.78-2.97,11.06-.09,20.5,1.34,27.76,2.97-3.44-3.31-12.17-10.74-24.79-11.9-2.37-.22-7.19-.61-13.04,1.19-8.48,2.61-13.6,8.13-15.71,10.71Z" fill="#010101" opacity=".75"/>
    <path id="cheveux" d="M77.52,189.2s.09-79.26,13.65-79.26,13.57,11.02,13.57,11.02c0,0,6.78-49.6,47.48-5.51,0,0,88.18,11.02,67.83-27.56,0,0,40.7-11.02,67.83,5.51,0,0,13.57,0,27.13,49.6,0,0,6.78,16.53,0,55.12,0,0,13.57-16.53,13.57-11.02s0-49.6,0-49.6c0,0,27.13-44.09-20.35-60.63,0,0,0-66.14-115.32-66.14,0,0-67.83,11.02-101.75,38.58,0,0-54.27,34.09-20.35,85.94,0,0-.09,26.39,6.7,53.95Z" fill="#1d160e"/>
  </g>
  <g id="presentation">
    <rect id="feuille" x="77.52" y="305.21" width="240.94" height="71.39" fill="#f2f2f2"/>
    <text transform="translate(140.85 365.6) scale(.88 1)" fill="#010101" font-family="Legothick, Legothick" font-size="64.73"><tspan x="0" y="0">ENES</tspan></text>
    <path id="main_droite" d="M315.48,308.18h56.48c1.66,0,3.01,1.35,3.01,3.01v62.39c0,1.66-1.35,3.01-3.01,3.01h-56.48v-68.41h0Z" transform="translate(690.46 684.77) rotate(180)" fill="#cf9060"/>
    <path id="main_gauche" d="M26.95,308.18h56.48c1.66,0,3.01,1.35,3.01,3.01v62.39c0,1.66-1.35,3.01-3.01,3.01H26.95v-68.41h0Z" fill="#cf9060"/>
  </g>
</svg>