<?xml version="1.0" encoding="UTF-8"?>
<svg id="jael" xmlns="http://www.w3.org/2000/svg" viewBox="0 0 400 400">
  <g id="corps">
    <rect id="corps-2" data-name="corps" x="57.72" y="296.94" width="294.75" height="103.06" rx="7.08" ry="7.08" fill="#1b1b1b"/>
    <path id="col" d="M153.31,296.94s54.31,114.51,99.58,0h-99.58Z" fill="#d69468"/>
    <path id="veste_gauche" d="M64.11,296.94h75.98c9.49,0,17.2,7.71,17.2,17.2v84.04c0,1-.81,1.81-1.81,1.81H59.53c-1,0-1.81-.81-1.81-1.81v-94.86c0-3.53,2.86-6.39,6.39-6.39Z" fill="#cdcccc"/>
    <path id="veste_droit" d="M255.41,296.94h94.54c1.39,0,2.52,1.13,2.52,2.52v82.64c0,9.88-8.02,17.91-17.91,17.91h-74.58c-3.91,0-7.09-3.18-7.09-7.09v-93.45c0-1.39,1.13-2.52,2.52-2.52Z" transform="translate(605.36 696.94) rotate(180)" fill="#cdcccc"/>
    <rect id="cou" x="139.49" y="277.85" width="130.54" height="19.5" rx=".98" ry=".98" fill="#d69468"/>
  </g>
  <g id="visage">
    <g id="visage-2" data-name="visage">
      <path d="M273.58,282.13c-18.83,3.82-43.2,7.18-71.7,7.18s-52.87-3.36-71.7-7.18c-7.35-1.16-26.1-5.05-42.02-19.57-12.42-11.32-17.08-23.6-18.38-27.37-2.17-6.27-3.33-12.95-3.33-19.86V115.62c0-36.89,33.19-66.8,74.13-66.8h122.59c40.94,0,74.13,29.91,74.13,66.8v99.7c-.11,5.27-1.22,28.41-21.71,47.23-16.17,14.86-35.18,18.54-42.02,19.57Z" fill="#d69468"/>
    </g>
    <path id="bouche" d="M152.68,219.38s47.93,19.09,83.88,7.63" fill="#010101"/>
    <path id="levre_bas" d="M164.49,223.33s31.96,24.08,61,6.24l-61-6.24Z" fill="#eb5b9c"/>
    <path id="levre_haut" d="M164.66,220.49s47.93-1.12,62.91,6.52l-62.91-6.52Z" fill="#eb5b9c"/>
    <ellipse id="oeil_droit" cx="244.92" cy="162.12" rx="15.93" ry="19.09" fill="#010101"/>
    <ellipse id="oeil_gauche" cx="157.93" cy="162.12" rx="15.93" ry="19.09" fill="#010101"/>
    <ellipse id="pup_droit" cx="243.13" cy="155.51" rx="6.48" ry="6.29" fill="#fff"/>
    <ellipse id="pup_gauche" cx="159.79" cy="153.14" rx="6.48" ry="6.29" fill="#fff"/>
    <path id="cil_droit" d="M266.49,143.67c-1.01,2.56-3.53,4.02-5.95,3.3-4.11-1.21-12.98-1.53-32.14,2.76,0,0,.16,.54,.92-1.84,.41-1.27,1.22-2.32,2.27-2.99,4.05-2.57,14.48-8.23,23.49-4.75,2.04,.79,4.3-.08,5.68-1.93l3.32-4.46-2.97,8.02,5.65-8.02-3.11,7.98,6.38-7.98-2.78,7.98-.76,1.93Z" fill="#010101"/>
    <path id="cil_gauche" d="M136.14,141.12c.96,2.56,3.33,4.02,5.62,3.3,3.88-1.21,12.26-1.53,30.35,2.76,0,0-.15,.54-.87-1.84-.39-1.27-1.15-2.32-2.14-2.99-3.82-2.57-13.67-8.23-22.18-4.75-1.92,.79-4.06-.08-5.36-1.93l-3.14-4.46,2.81,8.02-5.33-8.02,2.94,7.98-6.03-7.98,2.62,7.98,.72,1.93Z" fill="#010101"/>
    <path id="contour_oeil_gauche" d="M117.44,181.95s19.92-15.27,51.78,0" fill="#d69468"/>
    <path id="contour_oeil_droit" d="M225.01,185.02s18.6-15.27,48.37,0" fill="#d69468"/>
    <path id="sourcil_droit" d="M221.66,133.76s4.27-6.4,8.54-6.4c0,0,25.61-6.4,51.21,3.2,0,0-46.94-3.2-59.75,3.2Z" fill="#412413"/>
    <path id="sourcil_gauche" d="M175.22,129.64s-43.81-11.65-63.73,1.94c0,0,19.47-5.83,61.52,0" fill="#412413"/>
    <path id="cheveux" d="M345.67,221.07c9.01,10.41,18.33,29.1-2.29,50.71-1.06,1.11-1.95,2.37-2.6,3.76-2.51,5.29,7.73,29.57-12.46,31.43-2.84,.26-24.33-8.64-26.45-6.75h0c-7.98,7.07-30.94,1.27-31.29-9.29-.12-3.65,5.72-11.87,3.21-12.83-8.09-3.09,39.33-13.13,45.66-84.62,5.56-62.72-20.13-66.63-29.62-75.76-1.33-1.28-22.45-32.08-17.32-39.93,10.21-15.62-133.71-28.99-165.51,30.31-34.84,64.96-20.65,160.74,6.42,166.8,3.14,.7,17.34,7.06,19.25,9.62,3.97,5.35,3.39,13.81-.59,17.58-5.81,5.5-82.81,17.71-86.02-23.99-1.19-15.48,35.28-25.66,11.38-94.22-.51-1.45-8.11-38.96-8.14-40.5-.26-14.44,8.66-61.84,38.89-83.4,37.78-26.95,79.37-31.63,89.17-34.32,.92-.25,19.48-6.82,20.44-6.86,10.53-.43,72.95-6.73,126.52,39.61,1.07,.92,1.97,2.02,2.69,3.22,8.56,14.39,57.37,100.98,18.71,142.53-4.4,4.73-4.25,12.03-.02,16.91Z" fill="#412413"/>
  </g>
  <g id="presentation">
    <rect id="feuille" x="71.71" y="306.98" width="259.82" height="76.98" fill="#f2f2f2"/>
    <text transform="translate(140 372.1) scale(.88 1)" fill="#010101" font-family="Legothick, Legothick" font-size="69.81"><tspan x="0" y="0">JAEL</tspan></text>
    <path id="main_droite" d="M328.32,310.19h61.14c1.66,0,3.01,1.35,3.01,3.01v67.75c0,1.66-1.35,3.01-3.01,3.01h-61.14v-73.78h0Z" transform="translate(720.8 694.15) rotate(180)" fill="#d69468"/>
    <path id="main_gauche" d="M17.18,310.19h61.14c1.66,0,3.01,1.35,3.01,3.01v67.75c0,1.66-1.35,3.01-3.01,3.01H17.18v-73.78h0Z" fill="#d69468"/>
  </g>
</svg>