<?xml version="1.0" encoding="UTF-8"?>
<svg id="thomas" xmlns="http://www.w3.org/2000/svg" viewBox="0 0 400 400">
  <g id="corps">
    <rect id="corps-2" data-name="corps" x="55.46" y="284.99" width="284.35" height="114.9" rx="7.08" ry="7.08" fill="#58c4ef"/>
    <path id="col_habit" data-name="col habit" d="M114.34,284.99h7.22s86.65,111,154.72,0h9.41s-69.24,126.87-171.36,0Z" fill="#cbe8f4"/>
    <path id="col" d="M121.56,284.99s84.4,110.47,154.72,0H121.56Z" fill="#fac181"/>
    <rect id="cou" x="134.34" y="266.58" width="125.93" height="18.81" rx=".98" ry=".98" fill="#fac181"/>
  </g>
  <g id="visage">
    <g id="visage-2" data-name="visage">
      <path d="M266.8,270.7c-18.16,3.68-41.67,6.93-69.17,6.93s-51-3.24-69.17-6.93c-7.09-1.12-25.17-4.87-40.53-18.87-11.98-10.92-16.48-22.77-17.73-26.41-2.09-6.05-3.21-12.49-3.21-19.16V110.07c0-35.59,32.02-64.44,71.51-64.44h118.27c39.5,0,71.51,28.85,71.51,64.44v96.18c-.1,5.08-1.18,27.41-20.95,45.57-15.6,14.33-33.94,17.89-40.53,18.87Z" fill="#fac181"/>
    </g>
    <path id="barbe" d="M194.28,277.61s83.54-1.74,101.34-17.09c0,0-113.52,12.95-200.3-2.82,0,0,7.67,15.23,98.96,19.92Z" fill="#1b1b1b"/>
    <g id="moustache">
      <path d="M143.38,217.31s22.02-10.85,47.72-8.13c0,0,3.67-8.13,0-10.85,0,0-7.34-8.13-29.37,2.71l-14.68,5.42s-7.34,8.13-3.67,10.85Z" fill="#1b1b1b"/>
      <path d="M244.4,217.01s-21.67-10.85-46.96-8.13c0,0-3.61-8.13,0-10.85,0,0,7.22-8.13,28.9,2.71l14.45,5.42s7.22,8.13,3.61,10.85Z" fill="#1b1b1b"/>
    </g>
    <ellipse id="oeil_droit" cx="236.06" cy="154.93" rx="15.37" ry="18.41" fill="#010101"/>
    <ellipse id="oeil_gauche" cx="152.14" cy="154.93" rx="15.37" ry="18.41" fill="#010101"/>
    <ellipse id="pup_droit" cx="234.32" cy="148.54" rx="6.25" ry="6.07" fill="#fff"/>
    <ellipse id="pup_gauche" cx="153.93" cy="146.26" rx="6.25" ry="6.07" fill="#fff"/>
    <path id="bouche" d="M153.93,214.22h80.4s-38.75,10.66-80.4,0Z" fill="#010101"/>
    <path id="sourcil_droit" d="M214.38,135s27.43-4.95,45.72,4.95c0,0,15.24-9.9-15.24-14.85,0,0-21.33-2.48-27.43,2.48,0,0-6.1,2.48-3.05,7.43Z" fill="#1b1b1b"/>
    <path id="sourcil_gauche" d="M170.24,134.28s-26.91-4.95-44.84,4.95c0,0-14.95-9.9,14.95-14.85,0,0,20.93-2.48,26.91,2.48,0,0,5.98,2.48,2.99,7.43Z" fill="#1b1b1b"/>
    <path id="contour_oeil_gauche" d="M137.03,143.04h30.94s-15.47-15.47-30.94,0Z" fill="#fac181"/>
    <path id="contour_oeil_droit" d="M251.53,143.04s-15.47-15.47-30.94,0h30.94" fill="#fac181"/>
    <path id="cheveux" d="M65.86,204.93s9.54-59.63,4.37-63.89c0,0,5.17-42.6,15.5-42.6,0,0,15.5-4.26,5.17-17.04l5.17-4.26s25.84,21.3,36.17-12.78c0,0,15.5,42.6,85.27,0,0,0,7.75,17.04,54.26,0,0,0,15.5,21.3,36.17,25.56,0,0,5.17,42.6,15.5,55.37l2.86,59.63s7.48-68.15,7.48-80.93,5.17-17.04-5.17-34.08c0,0,25.84-29.82-31.01-42.6,0,0-46.51-59.63-134.36-34.08,0,0-25.84-12.78-46.51,21.3,0,0-33.33,19.52-38.5,28.04,0,0-15.47,37.13-13.18,44.38,0,0-4.37,80.93,.8,97.97Z" fill="#1d160e"/>
  </g>
  <g id="presentation">
    <rect id="feuille" x="72.05" y="303.96" width="250.65" height="74.27" fill="#f2f2f2"/>
    <text transform="translate(103.89 366.78) scale(.88 1)" fill="#010101" font-family="Legothick, Legothick" font-size="67.34"><tspan x="0" y="0">THOMAS</tspan></text>
    <path id="main_droite" d="M319.61,307.05h58.88c1.66,0,3.01,1.35,3.01,3.01v65.15c0,1.66-1.35,3.01-3.01,3.01h-58.88v-71.17h0Z" transform="translate(701.11 685.28) rotate(180)" fill="#fac181"/>
    <path id="main_gauche" d="M19.44,307.05h58.88c1.66,0,3.01,1.35,3.01,3.01v65.15c0,1.66-1.35,3.01-3.01,3.01H19.44v-71.17h0Z" fill="#fac181"/>
  </g>
</svg>