<?xml version="1.0" encoding="UTF-8"?>
<svg id="lisa" xmlns="http://www.w3.org/2000/svg" viewBox="0 0 400 400">
  <g id="corps">
    <rect id="corps-2" data-name="corps" x="65.8" y="295.3" width="276.07" height="96.53" rx="7.08" ry="7.08" fill="#f2f2f2"/>
    <path id="col" d="M155.34,295.3s50.87,54.96,93.27,0h-93.27Z" fill="#fac181"/>
    <path id="veste_gauche" d="M72.19,295.3h100.67c9.49,0,17.2,7.71,17.2,17.2v89.53c0,1-.81,1.81-1.81,1.81H67.62c-1,0-1.81-.81-1.81-1.81v-100.34c0-3.53,2.86-6.39,6.39-6.39Z" fill="#791526"/>
    <path id="veste_droit" d="M219.63,295.3h119.73c1.39,0,2.52,1.13,2.52,2.52v88.12c0,9.88-8.02,17.91-17.91,17.91h-99.76c-3.91,0-7.09-3.18-7.09-7.09v-98.94c0-1.39,1.13-2.52,2.52-2.52Z" transform="translate(558.98 699.14) rotate(180)" fill="#791526"/>
    <rect id="cou" x="142.39" y="277.42" width="122.26" height="18.27" rx=".98" ry=".98" fill="#fac181"/>
  </g>
  <g id="visage">
    <g id="visage-2" data-name="visage">
      <path d="M267.98,281.42c-17.64,3.58-40.46,6.72-67.15,6.72s-49.52-3.15-67.15-6.72c-6.88-1.09-24.44-4.73-39.35-18.33-11.63-10.61-16-22.11-17.21-25.64-2.03-5.88-3.12-12.13-3.12-18.6V125.48c0-34.55,31.09-62.57,69.43-62.57h114.82c38.35,0,69.43,28.01,69.43,62.57v93.38c-.1,4.93-1.14,26.61-20.34,44.24-15.15,13.92-32.95,17.37-39.35,18.33Z" fill="#fac181"/>
    </g>
    <path id="lèvres_bas" d="M172.04,238.61s35.69,21.03,56.19,0h-56.19Z" fill="#ee7bac"/>
    <path id="bouche" d="M166.03,238.61s2.69-2.09,9.01-3c13.01-1.89,38.04-2.66,63.09,3h-72.1Z" fill="#010101"/>
    <path id="lèvres_haut" d="M172.04,235.6h57.08s-10.7-13.52-24.97-6.76c0,0-17.84-6.76-32.11,6.76Z" fill="#ee7bac"/>
    <ellipse id="oeil_droit" cx="241.14" cy="169.02" rx="14.92" ry="17.88" fill="#010101"/>
    <ellipse id="oeil_gauche" cx="159.66" cy="169.02" rx="14.92" ry="17.88" fill="#010101"/>
    <ellipse id="pup_droit" cx="239.46" cy="162.83" rx="6.07" ry="5.89" fill="#fff"/>
    <ellipse id="pup_gauche" cx="161.4" cy="160.61" rx="6.07" ry="5.89" fill="#fff"/>
    <path id="cil_droit" d="M261.34,151.75c-.95,2.39-3.3,3.76-5.57,3.09-3.85-1.14-12.16-1.43-30.1,2.58,0,0,.15,.5,.86-1.72,.38-1.19,1.14-2.17,2.12-2.8,3.79-2.41,13.56-7.71,22-4.45,1.91,.74,4.03-.08,5.32-1.81l3.11-4.18-2.79,7.51,5.29-7.51-2.91,7.48,5.98-7.48-2.6,7.48-.72,1.8Z" fill="#010101"/>
    <path id="cil_gauche" d="M139.25,149.36c.9,2.39,3.12,3.76,5.26,3.09,3.63-1.14,11.48-1.43,28.43,2.58,0,0-.14,.5-.82-1.72-.36-1.19-1.08-2.17-2.01-2.8-3.58-2.41-12.81-7.71-20.78-4.45-1.8,.74-3.81-.08-5.02-1.81l-2.94-4.18,2.63,7.51-5-7.51,2.75,7.48-5.64-7.48,2.45,7.48,.68,1.8Z" fill="#010101"/>
    <path id="sourcil_droit" d="M219.35,142.47s4-6,7.99-6c0,0,23.98-6,47.97,3,0,0-43.97-3-55.96,3Z" fill="#412413"/>
    <path id="sourcil_gauche" d="M175.86,138.6s-41.04-10.92-59.69,1.82c0,0,18.24-5.46,57.62,0" fill="#412413"/>
    <path id="cheveux" d="M60.88,175.51s3,12.02,14.31,48.94c0,0,0-118.5,31.77-130.35,0,0,3.18,20.74,15.88,26.66,0,0-12.71-35.55,19.06-53.32,0,0-12.71,41.47-6.35,53.32,0,0,38.12,11.85,63.53,0,0,0-6.35-17.77,6.35-47.4,0,0,6.35-17.77,38.12,53.32,0,0,12.71,11.85,63.53,11.85,0,0,12.71-5.92,12.71-11.85,0,0,0,71.1,6.35,71.1,0,0,12.71-47.4,6.35-59.25,0,0-6.35-130.35-127.06-118.5,0,0-150.91-16.36-144.55,155.47Z" fill="#8c633a"/>
    <path id="queue_de_cheval" d="M74.37,225.42s-52.55,46.23-34.52,91.3c0,0,55.54-19.8,48.8-59.47l-14.28-31.82Z" fill="#8c633a"/>
  </g>
  <g id="presentation">
    <rect id="feuille" x="78.91" y="307.71" width="243.35" height="72.1" fill="#f2f2f2"/>
    <text transform="translate(148.88 368.7) scale(.88 1)" fill="#010101" font-family="Legothick, Legothick" font-size="65.38"><tspan x="0" y="0">LISA</tspan></text>
    <path id="main_droite" d="M319.26,310.71h57.08c1.66,0,3.01,1.35,3.01,3.01v63.08c0,1.66-1.35,3.01-3.01,3.01h-57.08v-69.1h0Z" transform="translate(698.6 690.52) rotate(180)" fill="#fac181"/>
    <path id="main_gauche" d="M27.83,310.71h57.08c1.66,0,3.01,1.35,3.01,3.01v63.08c0,1.66-1.35,3.01-3.01,3.01H27.83v-69.1h0Z" fill="#fac181"/>
  </g>
</svg>