<?xml version="1.0" encoding="UTF-8"?>
<svg id="lucas" xmlns="http://www.w3.org/2000/svg" viewBox="0 0 400 400">
  <g id="corps">
    <rect id="corps-2" data-name="corps" x="58.65" y="298.74" width="284.15" height="114.82" rx="21.9" ry="21.9" fill="#343434"/>
    <path id="col" d="M137.08,298.74s69.16,28.74,126.78,0h-126.78Z" fill="#fac181"/>
    <rect id="cou" x="137.48" y="280.34" width="125.84" height="18.8" rx=".98" ry=".98" fill="#fac181"/>
  </g>
  <g id="visage">
    <g id="visage-2" data-name="visage">
      <path d="M266.75,284.46c-18.15,3.68-41.64,6.92-69.12,6.92s-50.97-3.24-69.12-6.92c-7.08-1.12-25.16-4.87-40.51-18.86-11.97-10.92-16.46-22.75-17.72-26.39-2.09-6.05-3.21-12.48-3.21-19.15V123.95c0-35.57,32-64.4,71.46-64.4h118.18c39.47,0,71.46,28.83,71.46,64.4v96.12c-.1,5.08-1.18,27.39-20.93,45.54-15.59,14.32-33.92,17.88-40.51,18.86Z" fill="#fac181"/>
    </g>
    <path id="bouche" d="M171.09,237.88s26.99,12.61,49.48,0" fill="#010101"/>
    <ellipse id="oeil_droit" cx="239.12" cy="168.77" rx="15.36" ry="18.4" fill="#010101"/>
    <ellipse id="oeil_gauche" cx="155.26" cy="168.77" rx="15.36" ry="18.4" fill="#010101"/>
    <ellipse id="pup_droit" cx="237.39" cy="162.4" rx="6.24" ry="6.06" fill="#fff"/>
    <ellipse id="pup_gauche" cx="157.05" cy="160.12" rx="6.24" ry="6.06" fill="#fff"/>
    <g id="lunettes">
      <rect x="110.79" y="141.44" width="74.22" height="55.66" rx="3.21" ry="3.21" fill="none" stroke="#412413" stroke-miterlimit="10" stroke-width=".75"/>
      <rect x="209.75" y="142.98" width="74.22" height="55.66" rx="3.21" ry="3.21" fill="none" stroke="#412413" stroke-miterlimit="10" stroke-width=".75"/>
      <path d="M185.01,155.35h24.74" fill="none" stroke="#412413" stroke-miterlimit="10" stroke-width=".75"/>
    </g>
    <path id="cheveux" d="M65.96,212.56s17.28-59.54,23.25-64.76c0,0,0-41.76,29.86-46.98,0,0,17.91,20.88,41.8,10.44,0,0,5.97,15.66,29.86,0,0,0,5.97,15.66,41.8,15.66,0,0,23.89,41.76,77.63,5.22l-11.94,10.44s39.44,35.57,27.5,66.89c0,0,38.92-41.54,3.09-98.95,0,0,.43-12.37,12.37-12.37,0,0,22.73-12.98,4.81-28.64,0,0-5.97,15.66-29.86,20.88,0,0-5.97-52.19-35.83-41.76,0,0,29.86-5.22,29.86-10.44s1.14,0,1.14,0c0,0-25.03,5.22-42.95,0,0,0-53.74-52.19-83.6-10.44,0,0-53.74-15.66-119.43,46.98l-17.91,67.85s-5.33,17.79,18.55,69.98Z" fill="#8e5b15"/>
  </g>
  <g id="presentation">
    <rect id="feuille" x="72.14" y="311.52" width="250.48" height="74.22" fill="#f2f2f2"/>
    <text transform="translate(125.61 374.3) scale(.88 1)" fill="#010101" font-family="Legothick, Legothick" font-size="67.3"><tspan x="0" y="0">LUCAS</tspan></text>
    <path id="main_droite" d="M319.52,314.61h58.84c1.66,0,3.01,1.35,3.01,3.01v65.1c0,1.66-1.35,3.01-3.01,3.01h-58.84v-71.12h0Z" transform="translate(700.9 700.34) rotate(180)" fill="#fac181"/>
    <path id="main_gauche" d="M19.57,314.61h58.84c1.66,0,3.01,1.35,3.01,3.01v65.1c0,1.66-1.35,3.01-3.01,3.01H19.57v-71.12h0Z" fill="#fac181"/>
  </g>
</svg>