<?xml version="1.0" encoding="UTF-8"?>
<svg xmlns="http://www.w3.org/2000/svg" viewBox="0 0 400 400">
  <g id="avatar">
    <g id="vetements">
      <rect id="corps" x="63.3" y="290.58" width="270.79" height="109.42" rx="7.08" ry="7.08" fill="#ffec99"/>
      <path id="col" d="M126.25,290.58s80.37,40.65,147.35,0H126.25Z" fill="#fac181"/>
    </g>
    <rect id="cou" x="138.42" y="273.04" width="119.93" height="17.92" rx=".98" ry=".98" fill="#fac181"/>
    <g id="visage">
      <path d="M264.56,276.97c-17.3,3.51-39.69,6.6-65.87,6.6s-48.57-3.09-65.87-6.6c-6.75-1.07-23.97-4.64-38.6-17.98-11.41-10.4-15.69-21.68-16.89-25.15-1.99-5.76-3.06-11.89-3.06-18.25V124c0-33.89,30.49-61.37,68.1-61.37h112.63c37.61,0,68.1,27.48,68.1,61.37v91.6c-.1,4.84-1.12,26.1-19.95,43.4-14.86,13.65-32.32,17.03-38.6,17.98Z" fill="#fac181"/>
    </g>
    <path id="barbe" d="M76.15,214.34s-26.52,67.78,118.23,70.73c0,0,126.37,5.89,129.32-70.73,0,0-58.94,53.05-91.36,47.15,0,0,8.84-14.73-35.36-2.95,0,0-38.31-11.79-41.26,2.95,0,0-76.62-11.79-79.57-47.15Z" fill="#42210b" opacity=".7"/>
    <path id="bouche" d="M158.67,220.23s37.48,19.89,73.67,0c0,0-34.69,11.94-73.67,0Z"/>
    <path id="moustache" d="M143.93,223.18s14.73-2.95,38.31-5.89l14.73-2.95,11.79,2.95s27.2,2.01,33.67,5.89c0,0,26.09-10.15-48.41-17.68,0,0-64.83,2.95-50.1,17.68Z" fill="#42210b" opacity=".9"/>
    <ellipse id="oeil_droit" cx="235.29" cy="166.72" rx="14.64" ry="17.53"/>
    <ellipse id="oeil_gauche" cx="155.37" cy="166.72" rx="14.64" ry="17.53"/>
    <path id="contour_bas_oeil_gauche" d="M169.58,179.07h-29.47s14.73,13.05,29.47,0Z" fill="#fac181"/>
    <path id="contour_bas_oeil_gauche-2" data-name="contour_bas_oeil_gauche" d="M249.27,178.98h-29.47s14.73,14.73,29.47,0Z" fill="#fac181"/>
    <ellipse id="pup_droit" cx="233.64" cy="160.64" rx="5.95" ry="5.78" fill="#fff"/>
    <ellipse id="pup_gauche" cx="157.07" cy="158.47" rx="5.95" ry="5.78" fill="#fff"/>
    <path id="contour_oeil_gauche" d="M140.98,155.4h29.47s-14.73-14.73-29.47,0Z" fill="#fac181"/>
    <path id="contour_oeil_droit" d="M250.02,155.4s-14.73-14.73-29.47,0h29.47" fill="#fac181"/>
    <path id="sourcil_gauche" d="M129.2,155.4s11.33-17.05,49.1-6.82c0,0,6.89-10.86-19.63-10.86,0,0-29.47-2.78-29.47,17.68Z" fill="#42210b"/>
    <path id="sourcil_gauche-2" data-name="sourcil_gauche" d="M261.9,157.2s-10.73-17.05-46.48-6.82c0,0-6.53-10.86,18.58-10.86,0,0,27.9-2.78,27.9,17.68Z" fill="#42210b"/>
    <path id="cheveux" d="M80.49,186.58s-5.73-37.63,0-62.72c0,0,5.73,16.73,34.4,4.18,0,0-5.73-12.54,34.4-4.18,0,0,11.47-4.18,22.93,8.36,0,0,28.67,33.45,51.6,4.18,22.93-29.27,11.47-4.18,11.47-4.18,0,0,5.73,8.36,22.93,0,0,0,5.73-12.54,17.2-8.36,0,0,5.73,16.73,22.93-4.18,0,0,5.73,0,5.73,4.18,0,0,5.73,0,5.73,4.18s11.47,29.27,11.47,62.72c0,0,34.4-79.45,5.73-108.72,0,0,17.2-12.54-17.2-29.27,0,0,0-16.73-22.93-12.54,0,0-5.73-16.73-28.67-8.36,0,0-11.47-16.73-28.67-8.36,0,0-40.13-25.09-40.13-4.18,0,0-34.4-8.36-51.6,8.36,0,0-17.2-4.18-28.67,16.73,0,0-17.2,12.54-11.47,0,0,0-45.87-16.73-45.87,20.91,0,0-51.6,29.27,11.47,50.18,0,0-5.73,54.36,17.2,71.09Z" fill="#42210b"/>
  </g>
  <g id="presentation">
    <rect id="feuille" x="79.1" y="302.75" width="238.7" height="70.73" fill="#f2f2f2"/>
    <text transform="translate(141.84 362.58) scale(.88 1)" font-family="Legothick, Legothick" font-size="64.13"><tspan x="0" y="0">DANY</tspan></text>
    <path id="main_droite" d="M314.86,305.7h55.93c1.66,0,3.01,1.35,3.01,3.01v61.76c0,1.66-1.35,3.01-3.01,3.01h-55.93v-67.78h0Z" transform="translate(688.65 679.17) rotate(180)" fill="#fac181"/>
    <path id="main_gauche" d="M29,305.7h55.93c1.66,0,3.01,1.35,3.01,3.01v61.76c0,1.66-1.35,3.01-3.01,3.01H29v-67.78h0Z" fill="#fac181"/>
  </g>
</svg>