<?xml version="1.0" encoding="UTF-8"?>
<svg id="julia" xmlns="http://www.w3.org/2000/svg" viewBox="0 0 400 400">
  <g id="corps">
    <rect id="corps-2" data-name="corps" x="59.17" y="289.73" width="282.18" height="117.09" rx="7.08" ry="7.08" fill="#1b1b1b"/>
    <path id="col" d="M150.68,289.73s52,56.17,95.33,0h-95.33Z" fill="#fac181"/>
    <path id="sweat" d="M139.46,290.13c3.96-.76,56.05,74.49,120.42,0h21.5s-72.13,131.65-162.76,0" fill="#066938"/>
    <rect id="cou" x="137.45" y="271.46" width="124.97" height="18.67" rx=".98" ry=".98" fill="#fac181"/>
  </g>
  <g id="visage">
    <g id="visage-2" data-name="visage">
      <path d="M265.82,275.55c-18.03,3.65-41.36,6.87-68.64,6.87s-50.61-3.22-68.64-6.87c-7.04-1.11-24.98-4.83-40.23-18.73-11.89-10.84-16.35-22.59-17.6-26.2-2.07-6.01-3.19-12.39-3.19-19.02V116.15c0-35.32,31.77-63.95,70.97-63.95h117.36c39.19,0,70.97,28.63,70.97,63.95v95.45c-.1,5.04-1.17,27.2-20.79,45.22-15.48,14.23-33.68,17.75-40.23,18.73Z" fill="#fac181"/>
    </g>
    <path id="lèvres_bas" d="M161.61,216.43s30.71,25.33,76.77,0c0,0-40.94,50.67-76.77,0Z" fill="#c1292e"/>
    <path id="lèvres_haut" d="M161.61,216.43h76.77s-33.92-9.6-39.28-4.8c0,0-16.07-4.8-37.49,4.8Z" fill="#c1292e"/>
    <g id="bouche">
      <path id="bouche-2" data-name="bouche" d="M158.54,216.43h82.91s-44.22,27.64-82.91,0Z" fill="#010101"/>
      <path id="dents" d="M167.76,216.43h61.42v5.71s-30.71,14.78-61.42,0v-5.71Z" fill="#fff"/>
      <path d="M167.76,219.5c8.3,1.68,18.7,3.07,30.71,3.07,8.46,0,18.94-.69,30.71-3.07" fill="none" stroke="#010101" stroke-miterlimit="10" stroke-width=".25"/>
    </g>
    <ellipse id="oeil_droit" cx="238.39" cy="160.66" rx="15.25" ry="18.27" fill="#010101"/>
    <ellipse id="oeil_gauche" cx="155.1" cy="160.66" rx="15.25" ry="18.27" fill="#010101"/>
    <ellipse id="pup_droit" cx="236.66" cy="154.33" rx="6.2" ry="6.02" fill="#fff"/>
    <ellipse id="pup_gauche" cx="156.88" cy="152.06" rx="6.2" ry="6.02" fill="#fff"/>
    <path id="cil_droit" d="M265.62,156.44c-1.97,1.74-4.75,1.9-6.51,.24-2.98-2.82-10.41-6.94-28.63-11.59,0,0-.1,.53,1.59-1.17,.9-.91,2.04-1.45,3.23-1.57,4.57-.44,15.93-.74,22.11,6.14,1.4,1.56,3.71,1.79,5.69,.81l4.77-2.36-6.02,5.56,8.3-4.4-6.12,5.47,8.91-4.05-5.83,5.61-1.49,1.31Z" fill="#010101"/>
    <path id="cil_gauche" d="M131.28,155.03c1.89,1.79,4.46,2.05,6.03,.49,2.66-2.64,9.39-6.39,26.07-10.22,0,0,.11,.52-1.51-1.21-.87-.92-1.94-1.51-3.05-1.67-4.24-.61-14.76-1.36-20.23,5.14-1.24,1.47-3.37,1.61-5.23,.57l-4.5-2.51,5.77,5.69-7.84-4.64,5.86,5.6-8.39-4.32,5.6,5.73,1.42,1.35Z" fill="#010101"/>
    <path id="contour_oeil_droit" d="M259.57,173.73s-18.25,14.07-46.28-1.41" fill="#fac181"/>
    <path id="contour_oeil_gauche" d="M184.33,173.15s-19.07,14.62-49.57,0" fill="#fac181"/>
    <path id="sourcil_droit" d="M216.89,136.58s30.98-11.24,55,1.91c0,0,.21-6.15-17.91-12.93,0,0-30.34-7.21-37.09,11.03Z" fill="#412413"/>
    <path id="sourcil_gauche" d="M118.62,136.58s10.34-12.28,55.03,0c0,0,4.8-12.28-28.44-12.28,0,0-26.59,0-26.59,12.28Z" fill="#412413"/>
    <g id="lunettes">
      <ellipse cx="253.23" cy="164.65" rx="48.11" ry="40.09" fill="none" stroke="#cdcccc" stroke-miterlimit="10" stroke-width=".5"/>
      <ellipse cx="133.98" cy="163.31" rx="48.11" ry="40.09" fill="none" stroke="#cdcccc" stroke-miterlimit="10" stroke-width=".5"/>
      <path d="M176.97,155.01c1.25-1.08,7.36-6.14,16.89-6.14,1.73,0,9.99,.17,16.89,6.14" fill="none" stroke="#9a9999" stroke-miterlimit="10"/>
    </g>
    <path id="cheveux" d="M57.87,192.97s-1.43,97.81,39.26,118.65c0,0,39.92-46.06-6.71-99.93,0,0-24.41-55.2-8.14-96.9,0,0,0,15.63,8.14,26.06,0,0,40.65-13.2,65.06-28.84,0,0-48.78-33.7,40.72-49.34,0,0,48.82,10.42,40.68,57.33,0,0,16.27,10.42,24.41,5.21,0,0,8.14-5.21,8.14-31.27,0,0,32.55,20.85,40.68,72.96,0,0,11.95,29.32-28.73,71.01,0,0-43.6,30.15,21.5,61.42,0,0,39.14-2.97,24.57-104.41,0,0,12.32-21.6,13.38-82.56,.36-20.73-18.29-31.9-29.71-49.2-14.37-21.78-79.21-52.68-118.78-46.34,0,0-158.86,25.01-126.32,124.03l-8.14,52.12Z" fill="#412413"/>
  </g>
  <g id="presentation">
    <rect id="feuille" x="72.56" y="302.41" width="248.74" height="73.7" fill="#f2f2f2"/>
    <text transform="translate(125.66 364.76) scale(.88 1)" fill="#010101" font-family="Legothick, Legothick" font-size="66.83"><tspan x="0" y="0">JULIA</tspan></text>
    <path id="main_droite" d="M318.23,305.48h58.41c1.66,0,3.01,1.35,3.01,3.01v64.61c0,1.66-1.35,3.01-3.01,3.01h-58.41v-70.63h0Z" transform="translate(697.87 681.59) rotate(180)" fill="#fac181"/>
    <path id="main_gauche" d="M20.35,305.48h58.41c1.66,0,3.01,1.35,3.01,3.01v64.61c0,1.66-1.35,3.01-3.01,3.01H20.35v-70.63h0Z" fill="#fac181"/>
  </g>
</svg>