<?xml version="1.0" encoding="UTF-8"?>
<svg id="viktor" xmlns="http://www.w3.org/2000/svg" viewBox="0 0 400 400">
  <g id="corps">
    <rect id="corps-2" data-name="corps" x="64.67" y="288.44" width="284.69" height="115.04" rx="7.08" ry="7.08" fill="#998675"/>
    <path id="col" d="M143.24,288.44s69.29,49.7,127.03,0h-127.03Z" fill="#fac181"/>
    <rect id="cou" x="143.65" y="270" width="126.08" height="18.84" rx=".98" ry=".98" fill="#fac181"/>
  </g>
  <g id="visage">
    <g id="visage-2" data-name="visage">
      <path d="M273.16,274.13c-18.19,3.69-41.72,6.93-69.25,6.93s-51.06-3.25-69.25-6.93c-7.1-1.12-25.2-4.88-40.58-18.9-12-10.94-16.5-22.8-17.75-26.44-2.09-6.06-3.22-12.5-3.22-19.18V113.31c0-35.63,32.06-64.52,71.6-64.52h118.41c39.54,0,71.6,28.89,71.6,64.52v96.3c-.1,5.09-1.18,27.44-20.97,45.62-15.62,14.35-33.98,17.91-40.58,18.9Z" fill="#fac181"/>
    </g>
    <path id="bouche" d="M177.32,217.58s24.05,9.68,52.67,0" fill="#010101"/>
    <ellipse id="oeil_droit" cx="245.48" cy="158.22" rx="15.39" ry="18.43" fill="#010101"/>
    <ellipse id="oeil_gauche" cx="161.46" cy="158.22" rx="15.39" ry="18.43" fill="#010101"/>
    <ellipse id="pup_droit" cx="243.75" cy="151.83" rx="6.26" ry="6.07" fill="#fff"/>
    <ellipse id="pup_gauche" cx="163.25" cy="149.55" rx="6.26" ry="6.07" fill="#fff"/>
    <g id="lunettes">
      <circle cx="157.18" cy="166.46" r="34.08" fill="none" stroke="#010101" stroke-miterlimit="10" stroke-width=".5"/>
      <circle cx="247.03" cy="166.46" r="34.08" fill="none" stroke="#010101" stroke-miterlimit="10" stroke-width=".5"/>
      <path d="M188.17,157.17c2.56-1.21,6.86-2.84,12.39-3.1,7.19-.34,12.73,1.8,15.49,3.1" fill="none" stroke="#010101" stroke-miterlimit="10" stroke-width=".75"/>
    </g>
    <path id="cheveux" d="M79.01,195.9s-6.34-65.36,0-70.81c0,0,63.45,32.68,88.83,5.45,0,0-25.38-27.23,6.34-59.91,0,0,69.79,49.02-6.34,76.25,0,0,82.48,21.79,95.17-38.13,0,0,44.41-5.45,31.72,43.57,0,0,19.03-5.45,12.69-10.89,0,0-12.69,27.23,12.69,49.02,0,0,6.34,0,6.34-21.79,0,0,38.07,5.45,19.03-49.02,0,0,12.69-119.83-158.62-108.94,0,0-107.86,0-101.52,43.57,0,0-50.76,21.79-19.03,38.13,0,0-12.69,10.89-12.69-10.89,0,0-31.72,5.45,6.34,27.23,0,0-38.07,21.79-6.34,27.23,0,0-25.38,5.45,25.38,59.91Z" fill="#221610"/>
  </g>
  <g id="presentation">
    <rect id="feuille" x="78.18" y="307.43" width="250.95" height="74.36" fill="#f2f2f2"/>
    <text transform="translate(122.45 370.33) scale(.88 1)" fill="#010101" font-family="Legothick, Legothick" font-size="67.42"><tspan x="0" y="0">VIKTOR</tspan></text>
    <path id="main_droite" d="M326.03,310.53h58.95c1.66,0,3.01,1.35,3.01,3.01v65.24c0,1.66-1.35,3.01-3.01,3.01h-58.95v-71.26h0Z" transform="translate(714.03 692.31) rotate(180)" fill="#fac181"/>
    <path id="main_gauche" d="M25.51,310.53h58.95c1.66,0,3.01,1.35,3.01,3.01v65.24c0,1.66-1.35,3.01-3.01,3.01H25.51v-71.26h0Z" fill="#fac181"/>
  </g>
</svg>