<?xml version="1.0" encoding="UTF-8"?>
<svg id="maxime" xmlns="http://www.w3.org/2000/svg" viewBox="0 0 400 400">
  <g id="corps">
    <rect id="corps-2" data-name="corps" x="51.91" y="283.91" width="296.58" height="119.84" rx="7.08" ry="7.08" fill="#c69706"/>
    <path id="col" d="M133.76,283.91s72.18,22.73,132.33,0H133.76Z" fill="#fac181"/>
    <rect id="cou" x="134.19" y="264.7" width="131.35" height="19.62" rx=".98" ry=".98" fill="#fac181"/>
  </g>
  <g id="visage">
    <g id="visage-2" data-name="visage">
      <path d="M269.11,269c-18.95,3.84-43.47,7.22-72.14,7.22s-53.2-3.38-72.14-7.22c-7.39-1.17-26.26-5.08-42.28-19.69-12.5-11.39-17.18-23.75-18.49-27.54-2.18-6.31-3.35-13.03-3.35-19.99V101.47c0-37.12,33.39-67.21,74.59-67.21h123.35c41.19,0,74.59,30.09,74.59,67.21v100.32c-.11,5.3-1.23,28.59-21.85,47.53-16.27,14.95-35.4,18.66-42.28,19.69Z" fill="#fac181"/>
    </g>
    <path id="barbe" d="M60.29,187.5s-19.54,90.37,140.05,93.6c0,0,143.31,12.91,133.53-96.83,0,0-16.28,64.55-133.53,71.01,0,0-84.68-6.46-140.05-67.78Z" fill="#010101"/>
    <path id="bouc" d="M188.63,220.14s7.75-4.04,19.37,0c0,0-7.75,18.66-9.68,15.39,0,0-9.68-11.35-9.68-15.39Z" fill="#010101"/>
    <path id="bouche" d="M156.35,210.22s57.16,11.09,83.92-.13c0,0-52.33-2.52-83.92,.13Z" fill="#010101"/>
    <path id="moustache" d="M153.13,210.09s19.37-9.68,45.19-6.46c0,0,29.05-3.23,45.19,6.46,0,0,17.1-3.23-.58-12.91,0,0-16.32-6.46-44.61-6.46,0,0-19.37,0-45.19,6.46,0,0-16.14,6.46,0,12.91Z" fill="#010101"/>
    <ellipse id="oeil_droit" cx="240.27" cy="148.25" rx="16.03" ry="19.2" fill="#010101"/>
    <ellipse id="oeil_gauche" cx="152.74" cy="148.25" rx="16.03" ry="19.2" fill="#010101"/>
    <ellipse id="pup_droit" cx="238.47" cy="141.59" rx="6.52" ry="6.33" fill="#fff"/>
    <ellipse id="pup_gauche" cx="154.61" cy="139.21" rx="6.52" ry="6.33" fill="#fff"/>
    <path id="sourcil_droit" d="M275.78,132.63s-6.84-16.14-54.74-9.68c0,0-6.84-3.23,3.42-9.68,0,0,51.32-6.46,51.32,19.37Z" fill="#010101"/>
    <path id="sourcil_gauche" d="M117.63,132.46s6.98-16.14,55.82-9.68c0,0,6.98-3.23-3.49-9.68,0,0-52.33-6.46-52.33,19.37Z" fill="#010101"/>
    <path id="cheveux" d="M60.7,165.59l.06-66.84s5.22-55.79,56.86-62.6c0,0,38.73-16.36,158.15-1.9,0,0,53.24,7.63,57.28,62.69v70.52s-5.64-121.97-141.2-112.29c0,0-109.74-32.28-131.16,110.42Z" fill="#010101"/>
  </g>
  <g id="presentation">
    <rect id="feuille" x="65.99" y="300.46" width="261.43" height="77.46" fill="#f2f2f2"/>
    <text transform="translate(99.59 365.99) scale(.88 1)" fill="#010101" font-family="Legothick, Legothick" font-size="70.24"><tspan x="0" y="0">MAXIME</tspan></text>
    <path id="main_droite" d="M324.19,303.69h61.54c1.66,0,3.01,1.35,3.01,3.01v68.21c0,1.66-1.35,3.01-3.01,3.01h-61.54v-74.23h0Z" transform="translate(712.93 681.62) rotate(180)" fill="#fac181"/>
    <path id="main_gauche" d="M11.12,303.69h61.54c1.66,0,3.01,1.35,3.01,3.01v68.21c0,1.66-1.35,3.01-3.01,3.01H11.12v-74.23h0Z" fill="#fac181"/>
  </g>
</svg>