<?xml version="1.0" encoding="UTF-8"?>
<svg id="mael" xmlns="http://www.w3.org/2000/svg" viewBox="0 0 400 400">
  <g id="corps">
    <rect id="corps-2" data-name="corps" x="53.54" y="281.49" width="293.97" height="118.79" rx="7.08" ry="7.08" fill="#010101"/>
    <path id="col" d="M134.68,281.49s71.55,51.32,131.17,0H134.68Z" fill="#d89a66"/>
    <rect id="cou" x="135.1" y="262.45" width="130.19" height="19.45" rx=".98" ry=".98" fill="#d89a66"/>
  </g>
  <g id="visage">
    <g id="visage-2" data-name="visage">
      <path d="M268.84,266.72c-18.78,3.81-43.08,7.16-71.51,7.16s-52.73-3.35-71.51-7.16c-7.33-1.16-26.03-5.04-41.91-19.51-12.39-11.29-17.03-23.54-18.33-27.3-2.16-6.26-3.32-12.91-3.32-19.81V100.65c0-36.8,33.1-66.62,73.93-66.62h122.27c40.83,0,73.93,29.83,73.93,66.62v99.44c-.11,5.25-1.22,28.34-21.65,47.11-16.13,14.82-35.09,18.49-41.91,19.51Z" fill="#d89a66"/>
    </g>
    <path id="bouche" d="M157.07,208.45s56.66,10.99,83.19-.13c0,0-51.87-2.5-83.19,.13Z" fill="#010101"/>
    <ellipse id="oeil_droit" cx="240.25" cy="147.03" rx="15.89" ry="19.04" fill="#010101"/>
    <ellipse id="oeil_gauche" cx="153.49" cy="147.03" rx="15.89" ry="19.04" fill="#010101"/>
    <ellipse id="pup_droit" cx="238.46" cy="140.43" rx="6.46" ry="6.27" fill="#fff"/>
    <ellipse id="pup_gauche" cx="155.34" cy="138.07" rx="6.46" ry="6.27" fill="#fff"/>
    <path id="sourcil_droit" d="M217.86,121.94s31.41,0,57.59-6.4c0,0-2.62-9.6-48.42,0,0,0-9.16,0-9.16,6.4Z" fill="#010101"/>
    <path id="sourcil_gauche" d="M172.72,120.97s-31.22,0-57.23-6.4c0,0,2.6-9.6,48.13,0,0,0,9.1,0,9.1,6.4Z" fill="#010101"/>
    <path id="cheveux" d="M64.3,189.13s-4.16-54.82,3.2-60.79c0,0,16-6.4,22.39-44.79,0,0,121.51-65.88,217.55,0,0,0,6.4,38.39,16.71,45.96l5.68,56.42s21.2-57.22-3.2-118.37c0,0-39.96-85.37-211.15-38.39,0,0-86.38,16-51.19,159.96Z" fill="#010101"/>
  </g>
  <g id="presentation">
    <rect id="feuille" x="67.5" y="294.7" width="259.14" height="76.78" fill="#f2f2f2"/>
    <text transform="translate(135.61 359.65) scale(.88 1)" fill="#010101" font-family="Legothick, Legothick" font-size="69.62"><tspan x="0" y="0">MAEL</tspan></text>
    <path id="main_droite" d="M323.43,297.9h60.97c1.66,0,3.01,1.35,3.01,3.01v67.56c0,1.66-1.35,3.01-3.01,3.01h-60.97v-73.58h0Z" transform="translate(710.85 669.39) rotate(180)" fill="#d89a66"/>
    <path id="main_gauche" d="M13.11,297.9h60.97c1.66,0,3.01,1.35,3.01,3.01v67.56c0,1.66-1.35,3.01-3.01,3.01H13.11v-73.58h0Z" fill="#d89a66"/>
  </g>
</svg>