<svg width="390" height="184" viewBox="0 0 390 184" fill="none" xmlns="http://www.w3.org/2000/svg">
<g filter="url(#filter0_d_1285_418)">
<rect x="25" y="21" width="340" height="134" fill="white"/>
</g>
<path d="M85.3015 73C85.0882 73 84.8962 72.9253 84.7255 72.776C84.5762 72.6053 84.5015 72.4133 84.5015 72.2V57.224L80.2135 60.52C80.0428 60.6267 79.8828 60.68 79.7335 60.68C79.4775 60.68 79.2535 60.552 79.0615 60.296L77.0775 57.736C76.9922 57.5867 76.9495 57.4267 76.9495 57.256C76.9495 56.9573 77.0668 56.7227 77.3015 56.552L84.7255 50.824C84.9388 50.6747 85.1842 50.6 85.4615 50.6H89.6855C89.9202 50.6 90.1122 50.6747 90.2615 50.824C90.4322 50.9733 90.5175 51.1653 90.5175 51.4V72.2C90.5175 72.4347 90.4322 72.6267 90.2615 72.776C90.1122 72.9253 89.9202 73 89.6855 73H85.3015ZM103.475 73.32C100.531 73.2987 98.2905 72.52 96.7545 70.984C95.2185 69.448 94.3758 67.4213 94.2265 64.904C94.1838 63.752 94.1625 62.7173 94.1625 61.8C94.1625 60.8613 94.1838 59.7947 94.2265 58.6C94.3118 57 94.7065 55.5813 95.4105 54.344C96.1358 53.0853 97.1705 52.0933 98.5145 51.368C99.8798 50.6427 101.533 50.28 103.475 50.28C105.416 50.28 107.069 50.6427 108.435 51.368C109.8 52.0933 110.835 53.0853 111.539 54.344C112.264 55.5813 112.669 57 112.755 58.6C112.797 59.1973 112.819 60.264 112.819 61.8C112.819 63.2933 112.797 64.328 112.755 64.904C112.605 67.4213 111.763 69.448 110.227 70.984C108.691 72.52 106.44 73.2987 103.475 73.32ZM103.475 68.488C104.477 68.488 105.224 68.168 105.715 67.528C106.205 66.8667 106.472 65.9387 106.515 64.744C106.557 64.1253 106.579 63.1227 106.579 61.736C106.579 60.3493 106.557 59.368 106.515 58.792C106.472 57.64 106.205 56.7333 105.715 56.072C105.224 55.3893 104.477 55.048 103.475 55.048C101.555 55.048 100.541 56.296 100.435 58.792C100.413 59.368 100.403 60.3493 100.403 61.736C100.403 63.1227 100.413 64.1253 100.435 64.744C100.541 67.24 101.555 68.488 103.475 68.488ZM124.132 73C123.919 73 123.727 72.9253 123.556 72.776C123.407 72.6053 123.332 72.4133 123.332 72.2V51.432C123.332 51.1973 123.407 51.0053 123.556 50.856C123.706 50.6853 123.898 50.6 124.132 50.6H139.012C139.247 50.6 139.439 50.6853 139.588 50.856C139.759 51.0053 139.844 51.1973 139.844 51.432V54.824C139.844 55.0587 139.759 55.2507 139.588 55.4C139.439 55.5493 139.247 55.624 139.012 55.624H129.22V60.072H138.372C138.607 60.072 138.799 60.1573 138.948 60.328C139.119 60.4773 139.204 60.6693 139.204 60.904V64.296C139.204 64.5307 139.119 64.7227 138.948 64.872C138.799 65.0213 138.607 65.096 138.372 65.096H129.22V72.2C129.22 72.4133 129.146 72.6053 128.996 72.776C128.847 72.9253 128.655 73 128.42 73H124.132ZM150.574 73.32C147.886 73.32 145.817 72.7013 144.366 71.464C142.937 70.2053 142.158 68.424 142.03 66.12C142.009 65.8427 141.998 65.3627 141.998 64.68C141.998 63.9973 142.009 63.5173 142.03 63.24C142.158 60.9787 142.958 59.2187 144.43 57.96C145.923 56.68 147.971 56.04 150.574 56.04C153.177 56.04 155.214 56.68 156.686 57.96C158.179 59.2187 158.99 60.9787 159.118 63.24C159.161 63.7947 159.182 64.2747 159.182 64.68C159.182 65.0853 159.161 65.5653 159.118 66.12C158.99 68.424 158.201 70.2053 156.75 71.464C155.321 72.7013 153.262 73.32 150.574 73.32ZM150.574 69.288C151.449 69.288 152.099 69.0213 152.526 68.488C152.953 67.9333 153.198 67.0907 153.262 65.96C153.283 65.7467 153.294 65.32 153.294 64.68C153.294 64.04 153.283 63.6133 153.262 63.4C153.198 62.2907 152.953 61.4587 152.526 60.904C152.099 60.3493 151.449 60.072 150.574 60.072C149.699 60.072 149.049 60.3493 148.622 60.904C148.195 61.4587 147.95 62.2907 147.886 63.4L147.854 64.68L147.886 65.96C147.95 67.0907 148.195 67.9333 148.622 68.488C149.049 69.0213 149.699 69.288 150.574 69.288ZM168.342 73.32C166.465 73.32 164.95 72.6907 163.798 71.432C162.646 70.1733 162.07 68.392 162.07 66.088V57.16C162.07 56.9253 162.145 56.7333 162.294 56.584C162.465 56.4347 162.657 56.36 162.87 56.36H167.126C167.361 56.36 167.553 56.4347 167.702 56.584C167.873 56.7333 167.958 56.9253 167.958 57.16V65.896C167.958 67.88 168.844 68.872 170.614 68.872C171.468 68.872 172.129 68.616 172.598 68.104C173.089 67.5707 173.334 66.8347 173.334 65.896V57.16C173.334 56.9253 173.409 56.7333 173.558 56.584C173.729 56.4347 173.932 56.36 174.166 56.36H178.39C178.625 56.36 178.817 56.4347 178.966 56.584C179.116 56.7333 179.19 56.9253 179.19 57.16V72.2C179.19 72.4133 179.116 72.6053 178.966 72.776C178.817 72.9253 178.625 73 178.39 73H174.486C174.252 73 174.049 72.9253 173.878 72.776C173.729 72.6267 173.654 72.4347 173.654 72.2V70.984C172.545 72.5413 170.774 73.32 168.342 73.32ZM183.624 73C183.411 73 183.219 72.9253 183.048 72.776C182.899 72.6053 182.824 72.4133 182.824 72.2V57.16C182.824 56.9253 182.899 56.7333 183.048 56.584C183.219 56.4347 183.411 56.36 183.624 56.36H187.56C187.795 56.36 187.987 56.4347 188.136 56.584C188.285 56.7333 188.36 56.9253 188.36 57.16V58.376C188.936 57.672 189.672 57.1067 190.568 56.68C191.485 56.2533 192.531 56.04 193.704 56.04C194.92 56.04 195.997 56.3173 196.936 56.872C197.896 57.4267 198.643 58.248 199.176 59.336C199.731 60.424 200.008 61.736 200.008 63.272V72.2C200.008 72.4133 199.933 72.6053 199.784 72.776C199.635 72.9253 199.443 73 199.208 73H194.952C194.717 73 194.515 72.9253 194.344 72.776C194.195 72.6267 194.12 72.4347 194.12 72.2V63.464C194.12 62.504 193.885 61.768 193.416 61.256C192.968 60.744 192.307 60.488 191.432 60.488C190.579 60.488 189.907 60.7547 189.416 61.288C188.925 61.8 188.68 62.5253 188.68 63.464V72.2C188.68 72.4133 188.605 72.6053 188.456 72.776C188.307 72.9253 188.115 73 187.88 73H183.624ZM209.752 73.32C207.682 73.32 206.05 72.6693 204.856 71.368C203.682 70.0667 203.053 68.2107 202.968 65.8L202.936 64.68L202.968 63.528C203.053 61.2027 203.693 59.3787 204.888 58.056C206.082 56.712 207.704 56.04 209.752 56.04C211.672 56.04 213.218 56.6587 214.392 57.896V51.08C214.392 50.8453 214.466 50.6533 214.616 50.504C214.786 50.3547 214.978 50.28 215.192 50.28H219.319C219.554 50.28 219.746 50.3547 219.896 50.504C220.066 50.6533 220.152 50.8453 220.152 51.08V72.2C220.152 72.4347 220.066 72.6267 219.896 72.776C219.746 72.9253 219.554 73 219.319 73H215.512C215.298 73 215.106 72.9253 214.936 72.776C214.786 72.6053 214.712 72.4133 214.712 72.2V71.208C213.56 72.616 211.906 73.32 209.752 73.32ZM211.608 68.872C212.525 68.872 213.208 68.584 213.656 68.008C214.104 67.4107 214.349 66.664 214.392 65.768C214.434 65.1707 214.456 64.7653 214.456 64.552C214.456 64.3173 214.434 63.9227 214.392 63.368C214.349 62.536 214.093 61.8533 213.624 61.32C213.176 60.7653 212.504 60.488 211.608 60.488C210.648 60.488 209.954 60.776 209.528 61.352C209.122 61.9067 208.888 62.6853 208.824 63.688L208.792 64.68L208.824 65.672C208.888 66.6747 209.122 67.464 209.528 68.04C209.954 68.5947 210.648 68.872 211.608 68.872ZM231.601 73.32C228.998 73.32 226.95 72.6267 225.457 71.24C223.963 69.832 223.195 67.7947 223.153 65.128V64.136C223.238 61.5973 224.027 59.6133 225.521 58.184C227.014 56.7547 229.03 56.04 231.569 56.04C233.403 56.04 234.95 56.4133 236.209 57.16C237.489 57.8853 238.438 58.8987 239.057 60.2C239.697 61.48 240.017 62.9413 240.017 64.584V65.384C240.017 65.6187 239.931 65.8213 239.761 65.992C239.611 66.1413 239.419 66.216 239.185 66.216H229.041V66.408C229.062 67.368 229.286 68.1467 229.713 68.744C230.139 69.32 230.747 69.608 231.537 69.608C232.049 69.608 232.454 69.512 232.753 69.32C233.073 69.1067 233.371 68.84 233.649 68.52C233.841 68.3067 233.99 68.1787 234.097 68.136C234.225 68.072 234.417 68.04 234.673 68.04H238.865C239.057 68.04 239.217 68.104 239.345 68.232C239.494 68.3387 239.569 68.4773 239.569 68.648C239.569 69.2027 239.249 69.8533 238.609 70.6C237.99 71.3467 237.073 71.9867 235.857 72.52C234.662 73.0533 233.243 73.32 231.601 73.32ZM234.129 62.952V62.888C234.129 61.864 233.905 61.0747 233.457 60.52C233.009 59.944 232.379 59.656 231.569 59.656C230.758 59.656 230.129 59.944 229.681 60.52C229.254 61.0747 229.041 61.864 229.041 62.888V62.952H234.129ZM243.687 73C243.473 73 243.281 72.9253 243.111 72.776C242.961 72.6053 242.887 72.4133 242.887 72.2V57.192C242.887 56.9573 242.961 56.7653 243.111 56.616C243.26 56.4453 243.452 56.36 243.687 56.36H247.591C247.825 56.36 248.017 56.4453 248.167 56.616C248.337 56.7653 248.423 56.9573 248.423 57.192V58.408C249.02 57.7467 249.713 57.2453 250.503 56.904C251.313 56.5413 252.209 56.36 253.191 56.36H254.631C254.865 56.36 255.057 56.4347 255.207 56.584C255.356 56.7333 255.431 56.9253 255.431 57.16V60.648C255.431 60.8613 255.356 61.0533 255.207 61.224C255.057 61.3733 254.865 61.448 254.631 61.448H251.399C250.545 61.448 249.884 61.6827 249.415 62.152C248.967 62.6213 248.743 63.2827 248.743 64.136V72.2C248.743 72.4347 248.657 72.6267 248.487 72.776C248.337 72.9253 248.145 73 247.911 73H243.687ZM264.613 73.32C262.863 73.32 261.402 73.0747 260.229 72.584C259.055 72.0933 258.181 71.5067 257.605 70.824C257.05 70.1413 256.773 69.5227 256.773 68.968C256.773 68.7547 256.847 68.584 256.997 68.456C257.167 68.3067 257.349 68.232 257.541 68.232H261.413C261.541 68.232 261.647 68.2747 261.733 68.36C262.095 68.5947 262.298 68.7333 262.341 68.776C262.746 69.0747 263.119 69.3093 263.461 69.48C263.823 69.6293 264.25 69.704 264.741 69.704C265.317 69.704 265.786 69.5973 266.149 69.384C266.533 69.1493 266.725 68.8293 266.725 68.424C266.725 68.0827 266.618 67.8053 266.405 67.592C266.213 67.3787 265.829 67.176 265.253 66.984C264.698 66.7707 263.845 66.5573 262.693 66.344C259.002 65.5973 257.157 63.8907 257.157 61.224C257.157 60.3493 257.434 59.5173 257.989 58.728C258.565 57.9173 259.397 57.2667 260.485 56.776C261.594 56.2853 262.917 56.04 264.453 56.04C266.01 56.04 267.354 56.2853 268.485 56.776C269.637 57.2453 270.511 57.8213 271.109 58.504C271.706 59.1653 272.005 59.7733 272.005 60.328C272.005 60.52 271.93 60.6907 271.781 60.84C271.653 60.9893 271.493 61.064 271.301 61.064H267.781C267.589 61.064 267.439 61.0213 267.333 60.936C267.077 60.808 266.821 60.648 266.565 60.456C266.181 60.2 265.839 60.008 265.541 59.88C265.263 59.7307 264.901 59.656 264.453 59.656C263.919 59.656 263.503 59.7733 263.205 60.008C262.906 60.2427 262.757 60.5413 262.757 60.904C262.757 61.224 262.842 61.4907 263.013 61.704C263.205 61.896 263.578 62.088 264.133 62.28C264.709 62.472 265.573 62.6747 266.725 62.888C268.815 63.2507 270.33 63.9013 271.269 64.84C272.229 65.7573 272.708 66.8347 272.708 68.072C272.708 69.672 271.994 70.952 270.565 71.912C269.157 72.8507 267.173 73.32 264.613 73.32ZM290.168 73.32C287.48 73.32 285.41 72.7013 283.96 71.464C282.53 70.2053 281.752 68.424 281.624 66.12C281.602 65.8427 281.592 65.3627 281.592 64.68C281.592 63.9973 281.602 63.5173 281.624 63.24C281.752 60.9787 282.552 59.2187 284.024 57.96C285.517 56.68 287.565 56.04 290.168 56.04C292.77 56.04 294.808 56.68 296.28 57.96C297.773 59.2187 298.584 60.9787 298.712 63.24C298.754 63.7947 298.776 64.2747 298.776 64.68C298.776 65.0853 298.754 65.5653 298.712 66.12C298.584 68.424 297.794 70.2053 296.344 71.464C294.914 72.7013 292.856 73.32 290.168 73.32ZM290.168 69.288C291.042 69.288 291.693 69.0213 292.12 68.488C292.546 67.9333 292.792 67.0907 292.856 65.96C292.877 65.7467 292.888 65.32 292.888 64.68C292.888 64.04 292.877 63.6133 292.856 63.4C292.792 62.2907 292.546 61.4587 292.12 60.904C291.693 60.3493 291.042 60.072 290.168 60.072C289.293 60.072 288.642 60.3493 288.216 60.904C287.789 61.4587 287.544 62.2907 287.48 63.4L287.448 64.68L287.48 65.96C287.544 67.0907 287.789 67.9333 288.216 68.488C288.642 69.0213 289.293 69.288 290.168 69.288ZM304.42 73C304.185 73 303.982 72.9253 303.812 72.776C303.662 72.6267 303.588 72.4347 303.588 72.2V60.712H301.188C300.953 60.712 300.75 60.6373 300.58 60.488C300.43 60.3387 300.356 60.1467 300.356 59.912V57.16C300.356 56.9253 300.43 56.7333 300.58 56.584C300.75 56.4347 300.953 56.36 301.188 56.36H303.588V55.4C303.588 53.2667 304.206 51.72 305.444 50.76C306.681 49.8 308.452 49.32 310.756 49.32H313.284C313.518 49.32 313.71 49.3947 313.86 49.544C314.03 49.6933 314.116 49.8853 314.116 50.12V52.872C314.116 53.1067 314.03 53.2987 313.86 53.448C313.71 53.5973 313.518 53.672 313.284 53.672H311.012C310.329 53.672 309.838 53.832 309.54 54.152C309.262 54.4507 309.124 54.92 309.124 55.56V56.36H312.964C313.198 56.36 313.39 56.4347 313.54 56.584C313.71 56.7333 313.796 56.9253 313.796 57.16V59.912C313.796 60.1467 313.71 60.3387 313.54 60.488C313.39 60.6373 313.198 60.712 312.964 60.712H309.124V72.2C309.124 72.4133 309.049 72.6053 308.9 72.776C308.75 72.9253 308.558 73 308.324 73H304.42ZM132.476 108C132.263 108 132.071 107.925 131.9 107.776C131.751 107.605 131.676 107.413 131.676 107.2V86.432C131.676 86.1973 131.751 86.0053 131.9 85.856C132.049 85.6853 132.241 85.6 132.476 85.6H147.58C147.815 85.6 148.007 85.6853 148.156 85.856C148.327 86.0053 148.412 86.1973 148.412 86.432V89.6C148.412 89.8347 148.327 90.0267 148.156 90.176C148.007 90.3253 147.815 90.4 147.58 90.4H137.468V94.464H146.876C147.111 94.464 147.303 94.5493 147.452 94.72C147.623 94.8693 147.708 95.0613 147.708 95.296V98.208C147.708 98.4427 147.623 98.6453 147.452 98.816C147.303 98.9653 147.111 99.04 146.876 99.04H137.468V103.2H147.836C148.071 103.2 148.263 103.285 148.412 103.456C148.583 103.605 148.668 103.797 148.668 104.032V107.2C148.668 107.435 148.583 107.627 148.412 107.776C148.263 107.925 148.071 108 147.836 108H132.476ZM152.655 108C152.442 108 152.25 107.925 152.079 107.776C151.93 107.605 151.855 107.413 151.855 107.2V92.16C151.855 91.9253 151.93 91.7333 152.079 91.584C152.25 91.4347 152.442 91.36 152.655 91.36H156.367C156.602 91.36 156.794 91.4347 156.943 91.584C157.093 91.7333 157.167 91.9253 157.167 92.16V93.248C157.679 92.6293 158.341 92.1067 159.151 91.68C159.962 91.2533 160.879 91.04 161.903 91.04C164.25 91.04 165.861 91.9573 166.735 93.792C167.247 92.9813 167.962 92.32 168.879 91.808C169.797 91.296 170.778 91.04 171.823 91.04C173.573 91.04 174.991 91.6373 176.079 92.832C177.189 94.0053 177.743 95.7653 177.743 98.112V107.2C177.743 107.413 177.669 107.605 177.519 107.776C177.37 107.925 177.178 108 176.943 108H173.007C172.773 108 172.57 107.925 172.399 107.776C172.25 107.627 172.175 107.435 172.175 107.2V98.336C172.175 97.3547 171.962 96.64 171.535 96.192C171.13 95.7227 170.575 95.488 169.871 95.488C169.21 95.488 168.666 95.7227 168.239 96.192C167.834 96.64 167.631 97.3547 167.631 98.336V107.2C167.631 107.413 167.557 107.605 167.407 107.776C167.258 107.925 167.066 108 166.831 108H162.895C162.661 108 162.458 107.925 162.287 107.776C162.138 107.627 162.063 107.435 162.063 107.2V98.336C162.063 97.3547 161.85 96.64 161.423 96.192C160.997 95.7227 160.442 95.488 159.759 95.488C159.098 95.488 158.554 95.7227 158.127 96.192C157.701 96.64 157.487 97.344 157.487 98.304V107.2C157.487 107.413 157.413 107.605 157.263 107.776C157.114 107.925 156.922 108 156.687 108H152.655ZM182.062 114.08C181.828 114.08 181.625 114.005 181.454 113.856C181.305 113.707 181.23 113.515 181.23 113.28V92.16C181.23 91.9253 181.305 91.7333 181.454 91.584C181.625 91.4347 181.828 91.36 182.062 91.36H185.87C186.105 91.36 186.297 91.4347 186.446 91.584C186.596 91.7333 186.67 91.9253 186.67 92.16V93.312C187.822 91.7973 189.476 91.04 191.63 91.04C193.7 91.04 195.321 91.6907 196.494 92.992C197.689 94.272 198.329 96.1067 198.414 98.496C198.436 98.7733 198.446 99.168 198.446 99.68C198.446 100.192 198.436 100.597 198.414 100.896C198.329 103.2 197.689 105.013 196.494 106.336C195.3 107.659 193.678 108.32 191.63 108.32C189.561 108.32 188.014 107.616 186.99 106.208V113.28C186.99 113.515 186.916 113.707 186.766 113.856C186.617 114.005 186.425 114.08 186.19 114.08H182.062ZM189.774 103.872C190.734 103.872 191.417 103.595 191.822 103.04C192.249 102.464 192.494 101.675 192.558 100.672C192.58 100.459 192.59 100.128 192.59 99.68C192.59 99.232 192.58 98.9013 192.558 98.688C192.494 97.6853 192.249 96.9067 191.822 96.352C191.417 95.776 190.734 95.488 189.774 95.488C188.857 95.488 188.174 95.7867 187.726 96.384C187.278 96.96 187.033 97.696 186.99 98.592C186.969 98.8693 186.958 99.2747 186.958 99.808C186.958 100.32 186.969 100.715 186.99 100.992C187.033 101.824 187.278 102.517 187.726 103.072C188.196 103.605 188.878 103.872 189.774 103.872ZM202.312 89.056C202.077 89.056 201.885 88.9813 201.736 88.832C201.586 88.6613 201.512 88.4587 201.512 88.224V85.248C201.512 85.0133 201.586 84.8213 201.736 84.672C201.906 84.5013 202.098 84.416 202.312 84.416H206.312C206.546 84.416 206.738 84.5013 206.888 84.672C207.058 84.8213 207.144 85.0133 207.144 85.248V88.224C207.144 88.4587 207.058 88.6613 206.888 88.832C206.738 88.9813 206.546 89.056 206.312 89.056H202.312ZM202.312 108C202.098 108 201.906 107.925 201.736 107.776C201.586 107.605 201.512 107.413 201.512 107.2V92.16C201.512 91.9253 201.586 91.7333 201.736 91.584C201.906 91.4347 202.098 91.36 202.312 91.36H206.312C206.546 91.36 206.738 91.4347 206.888 91.584C207.058 91.7333 207.144 91.9253 207.144 92.16V107.2C207.144 107.435 207.058 107.627 206.888 107.776C206.738 107.925 206.546 108 206.312 108H202.312ZM211.593 108C211.379 108 211.187 107.925 211.017 107.776C210.867 107.605 210.793 107.413 210.793 107.2V92.192C210.793 91.9573 210.867 91.7653 211.017 91.616C211.166 91.4453 211.358 91.36 211.593 91.36H215.497C215.731 91.36 215.923 91.4453 216.073 91.616C216.243 91.7653 216.329 91.9573 216.329 92.192V93.408C216.926 92.7467 217.619 92.2453 218.409 91.904C219.219 91.5413 220.115 91.36 221.097 91.36H222.537C222.771 91.36 222.963 91.4347 223.113 91.584C223.262 91.7333 223.337 91.9253 223.337 92.16V95.648C223.337 95.8613 223.262 96.0533 223.113 96.224C222.963 96.3733 222.771 96.448 222.537 96.448H219.305C218.451 96.448 217.79 96.6827 217.321 97.152C216.873 97.6213 216.649 98.2827 216.649 99.136V107.2C216.649 107.435 216.563 107.627 216.393 107.776C216.243 107.925 216.051 108 215.817 108H211.593ZM233.226 108.32C230.623 108.32 228.575 107.627 227.082 106.24C225.588 104.832 224.82 102.795 224.778 100.128V99.136C224.863 96.5973 225.652 94.6133 227.146 93.184C228.639 91.7547 230.655 91.04 233.194 91.04C235.028 91.04 236.575 91.4133 237.834 92.16C239.114 92.8853 240.063 93.8987 240.682 95.2C241.322 96.48 241.642 97.9413 241.642 99.584V100.384C241.642 100.619 241.556 100.821 241.386 100.992C241.236 101.141 241.044 101.216 240.81 101.216H230.666V101.408C230.687 102.368 230.911 103.147 231.338 103.744C231.764 104.32 232.372 104.608 233.162 104.608C233.674 104.608 234.079 104.512 234.378 104.32C234.698 104.107 234.996 103.84 235.274 103.52C235.466 103.307 235.615 103.179 235.722 103.136C235.85 103.072 236.042 103.04 236.298 103.04H240.49C240.682 103.04 240.842 103.104 240.97 103.232C241.119 103.339 241.194 103.477 241.194 103.648C241.194 104.203 240.874 104.853 240.234 105.6C239.615 106.347 238.698 106.987 237.482 107.52C236.287 108.053 234.868 108.32 233.226 108.32ZM235.754 97.952V97.888C235.754 96.864 235.53 96.0747 235.082 95.52C234.634 94.944 234.004 94.656 233.194 94.656C232.383 94.656 231.754 94.944 231.306 95.52C230.879 96.0747 230.666 96.864 230.666 97.888V97.952H235.754ZM251.488 108.32C249.738 108.32 248.277 108.075 247.104 107.584C245.93 107.093 245.056 106.507 244.48 105.824C243.925 105.141 243.648 104.523 243.648 103.968C243.648 103.755 243.722 103.584 243.872 103.456C244.042 103.307 244.224 103.232 244.416 103.232H248.288C248.416 103.232 248.522 103.275 248.608 103.36C248.97 103.595 249.173 103.733 249.216 103.776C249.621 104.075 249.994 104.309 250.336 104.48C250.698 104.629 251.125 104.704 251.616 104.704C252.192 104.704 252.661 104.597 253.024 104.384C253.408 104.149 253.6 103.829 253.6 103.424C253.6 103.083 253.493 102.805 253.28 102.592C253.088 102.379 252.704 102.176 252.128 101.984C251.573 101.771 250.72 101.557 249.568 101.344C245.877 100.597 244.032 98.8907 244.032 96.224C244.032 95.3493 244.309 94.5173 244.864 93.728C245.44 92.9173 246.272 92.2667 247.36 91.776C248.469 91.2853 249.792 91.04 251.328 91.04C252.885 91.04 254.229 91.2853 255.36 91.776C256.512 92.2453 257.386 92.8213 257.984 93.504C258.581 94.1653 258.88 94.7733 258.88 95.328C258.88 95.52 258.805 95.6907 258.656 95.84C258.528 95.9893 258.368 96.064 258.176 96.064H254.656C254.464 96.064 254.314 96.0213 254.208 95.936C253.952 95.808 253.696 95.648 253.44 95.456C253.056 95.2 252.714 95.008 252.416 94.88C252.138 94.7307 251.776 94.656 251.328 94.656C250.794 94.656 250.378 94.7733 250.08 95.008C249.781 95.2427 249.632 95.5413 249.632 95.904C249.632 96.224 249.717 96.4907 249.888 96.704C250.08 96.896 250.453 97.088 251.008 97.28C251.584 97.472 252.448 97.6747 253.6 97.888C255.69 98.2507 257.205 98.9013 258.144 99.84C259.104 100.757 259.583 101.835 259.583 103.072C259.583 104.672 258.869 105.952 257.44 106.912C256.032 107.851 254.048 108.32 251.488 108.32Z" fill="#940000"/>
<path d="M141.462 139.2C140.422 139.2 139.462 139.027 138.582 138.68C137.702 138.32 136.988 137.793 136.442 137.1C135.908 136.393 135.635 135.553 135.622 134.58C135.622 134.46 135.662 134.36 135.742 134.28C135.822 134.187 135.922 134.14 136.042 134.14H138.902C139.088 134.14 139.235 134.187 139.342 134.28C139.448 134.36 139.535 134.5 139.602 134.7C139.815 135.7 140.468 136.2 141.562 136.2C142.202 136.2 142.688 135.993 143.022 135.58C143.368 135.153 143.542 134.54 143.542 133.74V128.1H137.122C136.988 128.1 136.868 128.053 136.762 127.96C136.668 127.853 136.622 127.733 136.622 127.6V125.5C136.622 125.353 136.668 125.233 136.762 125.14C136.868 125.047 136.988 125 137.122 125H146.902C147.048 125 147.168 125.053 147.262 125.16C147.368 125.253 147.422 125.373 147.422 125.52V133.86C147.422 134.993 147.168 135.967 146.662 136.78C146.168 137.58 145.468 138.187 144.562 138.6C143.668 139 142.635 139.2 141.462 139.2ZM149.964 139C149.818 139 149.691 138.953 149.584 138.86C149.491 138.767 149.444 138.647 149.444 138.5V135.86C149.444 135.713 149.491 135.593 149.584 135.5C149.691 135.393 149.818 135.34 149.964 135.34H152.604C152.751 135.34 152.871 135.393 152.964 135.5C153.058 135.593 153.104 135.713 153.104 135.86V138.5C153.104 138.633 153.058 138.753 152.964 138.86C152.871 138.953 152.751 139 152.604 139H149.964ZM161.17 139.2C159.263 139.2 157.763 138.74 156.67 137.82C155.59 136.9 155.016 135.553 154.95 133.78C154.936 133.42 154.93 132.833 154.93 132.02C154.93 131.193 154.936 130.593 154.95 130.22C155.016 128.487 155.596 127.153 156.69 126.22C157.796 125.273 159.29 124.8 161.17 124.8C162.356 124.8 163.416 124.993 164.35 125.38C165.296 125.767 166.043 126.327 166.59 127.06C167.136 127.793 167.423 128.66 167.45 129.66C167.45 129.78 167.403 129.88 167.31 129.96C167.23 130.04 167.13 130.08 167.01 130.08H164.17C163.983 130.08 163.843 130.047 163.75 129.98C163.67 129.9 163.596 129.76 163.53 129.56C163.343 128.907 163.056 128.453 162.67 128.2C162.296 127.933 161.796 127.8 161.17 127.8C159.663 127.8 158.883 128.64 158.83 130.32C158.816 130.68 158.81 131.233 158.81 131.98C158.81 132.727 158.816 133.293 158.83 133.68C158.883 135.36 159.663 136.2 161.17 136.2C161.783 136.2 162.283 136.067 162.67 135.8C163.07 135.533 163.356 135.08 163.53 134.44C163.583 134.24 163.656 134.107 163.75 134.04C163.843 133.96 163.983 133.92 164.17 133.92H167.01C167.13 133.92 167.23 133.96 167.31 134.04C167.403 134.12 167.45 134.22 167.45 134.34C167.423 135.34 167.136 136.207 166.59 136.94C166.043 137.673 165.296 138.233 164.35 138.62C163.416 139.007 162.356 139.2 161.17 139.2ZM174.19 139C174.057 139 173.937 138.953 173.83 138.86C173.737 138.753 173.69 138.633 173.69 138.5V125.52C173.69 125.373 173.737 125.253 173.83 125.16C173.923 125.053 174.043 125 174.19 125H179.85C181.583 125 182.943 125.393 183.93 126.18C184.917 126.967 185.41 128.12 185.41 129.64C185.41 131.16 184.917 132.3 183.93 133.06C182.943 133.807 181.583 134.18 179.85 134.18H177.57V138.5C177.57 138.633 177.523 138.753 177.43 138.86C177.337 138.953 177.217 139 177.07 139H174.19ZM179.75 131.32C180.297 131.32 180.723 131.18 181.03 130.9C181.35 130.607 181.51 130.18 181.51 129.62C181.51 129.1 181.363 128.68 181.07 128.36C180.79 128.04 180.35 127.88 179.75 127.88H177.51V131.32H179.75ZM189.95 139.2C189.243 139.2 188.597 139.067 188.01 138.8C187.437 138.52 186.983 138.14 186.65 137.66C186.33 137.18 186.17 136.653 186.17 136.08C186.17 135.173 186.543 134.44 187.29 133.88C188.05 133.307 189.09 132.913 190.41 132.7L192.89 132.32V132.08C192.89 131.587 192.79 131.227 192.59 131C192.39 130.773 192.05 130.66 191.57 130.66C191.303 130.66 191.077 130.707 190.89 130.8C190.717 130.893 190.517 131.033 190.29 131.22C190.117 131.367 189.963 131.473 189.83 131.54C189.777 131.633 189.71 131.68 189.63 131.68H187.31C187.177 131.68 187.063 131.64 186.97 131.56C186.89 131.467 186.857 131.36 186.87 131.24C186.883 130.88 187.063 130.48 187.41 130.04C187.757 129.587 188.283 129.2 188.99 128.88C189.697 128.56 190.57 128.4 191.61 128.4C193.263 128.4 194.49 128.767 195.29 129.5C196.09 130.22 196.49 131.2 196.49 132.44V138.5C196.49 138.633 196.443 138.753 196.35 138.86C196.257 138.953 196.137 139 195.99 139H193.53C193.397 139 193.277 138.953 193.17 138.86C193.077 138.753 193.03 138.633 193.03 138.5V137.8C192.737 138.213 192.33 138.553 191.81 138.82C191.29 139.073 190.67 139.2 189.95 139.2ZM190.95 136.84C191.537 136.84 192.01 136.647 192.37 136.26C192.743 135.873 192.93 135.313 192.93 134.58V134.34L191.27 134.62C190.15 134.833 189.59 135.233 189.59 135.82C189.59 136.127 189.717 136.373 189.97 136.56C190.237 136.747 190.563 136.84 190.95 136.84ZM199.185 142.8C199.039 142.8 198.912 142.753 198.805 142.66C198.712 142.567 198.665 142.447 198.665 142.3V129.1C198.665 128.953 198.712 128.833 198.805 128.74C198.912 128.647 199.039 128.6 199.185 128.6H201.565C201.712 128.6 201.832 128.647 201.925 128.74C202.019 128.833 202.065 128.953 202.065 129.1V129.82C202.785 128.873 203.819 128.4 205.165 128.4C206.459 128.4 207.472 128.807 208.205 129.62C208.952 130.42 209.352 131.567 209.405 133.06C209.419 133.233 209.425 133.48 209.425 133.8C209.425 134.12 209.419 134.373 209.405 134.56C209.352 136 208.952 137.133 208.205 137.96C207.459 138.787 206.445 139.2 205.165 139.2C203.872 139.2 202.905 138.76 202.265 137.88V142.3C202.265 142.447 202.219 142.567 202.125 142.66C202.032 142.753 201.912 142.8 201.765 142.8H199.185ZM204.005 136.42C204.605 136.42 205.032 136.247 205.285 135.9C205.552 135.54 205.705 135.047 205.745 134.42C205.759 134.287 205.765 134.08 205.765 133.8C205.765 133.52 205.759 133.313 205.745 133.18C205.705 132.553 205.552 132.067 205.285 131.72C205.032 131.36 204.605 131.18 204.005 131.18C203.432 131.18 203.005 131.367 202.725 131.74C202.445 132.1 202.292 132.56 202.265 133.12C202.252 133.293 202.245 133.547 202.245 133.88C202.245 134.2 202.252 134.447 202.265 134.62C202.292 135.14 202.445 135.573 202.725 135.92C203.019 136.253 203.445 136.42 204.005 136.42ZM211.841 127.16C211.695 127.16 211.575 127.113 211.481 127.02C211.388 126.913 211.341 126.787 211.341 126.64V124.78C211.341 124.633 211.388 124.513 211.481 124.42C211.588 124.313 211.708 124.26 211.841 124.26H214.341C214.488 124.26 214.608 124.313 214.701 124.42C214.808 124.513 214.861 124.633 214.861 124.78V126.64C214.861 126.787 214.808 126.913 214.701 127.02C214.608 127.113 214.488 127.16 214.341 127.16H211.841ZM211.841 139C211.708 139 211.588 138.953 211.481 138.86C211.388 138.753 211.341 138.633 211.341 138.5V129.1C211.341 128.953 211.388 128.833 211.481 128.74C211.588 128.647 211.708 128.6 211.841 128.6H214.341C214.488 128.6 214.608 128.647 214.701 128.74C214.808 128.833 214.861 128.953 214.861 129.1V138.5C214.861 138.647 214.808 138.767 214.701 138.86C214.608 138.953 214.488 139 214.341 139H211.841ZM217.662 139C217.515 139 217.389 138.953 217.282 138.86C217.189 138.767 217.142 138.647 217.142 138.5V125.3C217.142 125.153 217.189 125.033 217.282 124.94C217.389 124.847 217.515 124.8 217.662 124.8H220.162C220.309 124.8 220.429 124.847 220.522 124.94C220.615 125.033 220.662 125.153 220.662 125.3V138.5C220.662 138.633 220.615 138.753 220.522 138.86C220.429 138.953 220.309 139 220.162 139H217.662ZM223.463 139C223.316 139 223.189 138.953 223.083 138.86C222.989 138.767 222.943 138.647 222.943 138.5V125.3C222.943 125.153 222.989 125.033 223.083 124.94C223.189 124.847 223.316 124.8 223.463 124.8H225.963C226.109 124.8 226.229 124.847 226.323 124.94C226.416 125.033 226.463 125.153 226.463 125.3V138.5C226.463 138.633 226.416 138.753 226.323 138.86C226.229 138.953 226.109 139 225.963 139H223.463ZM233.744 139.2C232.064 139.2 230.77 138.813 229.864 138.04C228.97 137.253 228.484 136.14 228.404 134.7C228.39 134.527 228.384 134.227 228.384 133.8C228.384 133.373 228.39 133.073 228.404 132.9C228.484 131.487 228.984 130.387 229.904 129.6C230.837 128.8 232.117 128.4 233.744 128.4C235.37 128.4 236.644 128.8 237.564 129.6C238.497 130.387 239.004 131.487 239.084 132.9C239.11 133.247 239.124 133.547 239.124 133.8C239.124 134.053 239.11 134.353 239.084 134.7C239.004 136.14 238.51 137.253 237.604 138.04C236.71 138.813 235.424 139.2 233.744 139.2ZM233.744 136.68C234.29 136.68 234.697 136.513 234.964 136.18C235.23 135.833 235.384 135.307 235.424 134.6C235.437 134.467 235.444 134.2 235.444 133.8C235.444 133.4 235.437 133.133 235.424 133C235.384 132.307 235.23 131.787 234.964 131.44C234.697 131.093 234.29 130.92 233.744 130.92C233.197 130.92 232.79 131.093 232.524 131.44C232.257 131.787 232.104 132.307 232.064 133L232.044 133.8L232.064 134.6C232.104 135.307 232.257 135.833 232.524 136.18C232.79 136.513 233.197 136.68 233.744 136.68ZM241.529 139C241.395 139 241.275 138.953 241.169 138.86C241.075 138.753 241.029 138.633 241.029 138.5V129.1C241.029 128.953 241.075 128.833 241.169 128.74C241.275 128.647 241.395 128.6 241.529 128.6H243.989C244.135 128.6 244.255 128.647 244.349 128.74C244.442 128.833 244.489 128.953 244.489 129.1V129.86C244.849 129.42 245.309 129.067 245.869 128.8C246.442 128.533 247.095 128.4 247.829 128.4C248.589 128.4 249.262 128.573 249.849 128.92C250.449 129.267 250.915 129.78 251.249 130.46C251.595 131.14 251.769 131.96 251.769 132.92V138.5C251.769 138.633 251.722 138.753 251.629 138.86C251.535 138.953 251.415 139 251.269 139H248.609C248.462 139 248.335 138.953 248.229 138.86C248.135 138.767 248.089 138.647 248.089 138.5V133.04C248.089 132.44 247.942 131.98 247.649 131.66C247.369 131.34 246.955 131.18 246.409 131.18C245.875 131.18 245.455 131.347 245.149 131.68C244.842 132 244.689 132.453 244.689 133.04V138.5C244.689 138.633 244.642 138.753 244.549 138.86C244.455 138.953 244.335 139 244.189 139H241.529Z" fill="#303030"/>
<g filter="url(#filter1_d_1285_418)">
<rect x="25" y="21" width="340" height="10" fill="#940000"/>
</g>
<defs>
<filter id="filter0_d_1285_418" x="0" y="0" width="390" height="184" filterUnits="userSpaceOnUse" color-interpolation-filters="sRGB">
<feFlood flood-opacity="0" result="BackgroundImageFix"/>
<feColorMatrix in="SourceAlpha" type="matrix" values="0 0 0 0 0 0 0 0 0 0 0 0 0 0 0 0 0 0 127 0" result="hardAlpha"/>
<feMorphology radius="15" operator="dilate" in="SourceAlpha" result="effect1_dropShadow_1285_418"/>
<feOffset dy="4"/>
<feGaussianBlur stdDeviation="5"/>
<feComposite in2="hardAlpha" operator="out"/>
<feColorMatrix type="matrix" values="0 0 0 0 0 0 0 0 0 0 0 0 0 0 0 0 0 0 0.25 0"/>
<feBlend mode="normal" in2="BackgroundImageFix" result="effect1_dropShadow_1285_418"/>
<feBlend mode="normal" in="SourceGraphic" in2="effect1_dropShadow_1285_418" result="shape"/>
</filter>
<filter id="filter1_d_1285_418" x="21" y="21" width="348" height="18" filterUnits="userSpaceOnUse" color-interpolation-filters="sRGB">
<feFlood flood-opacity="0" result="BackgroundImageFix"/>
<feColorMatrix in="SourceAlpha" type="matrix" values="0 0 0 0 0 0 0 0 0 0 0 0 0 0 0 0 0 0 127 0" result="hardAlpha"/>
<feOffset dy="4"/>
<feGaussianBlur stdDeviation="2"/>
<feComposite in2="hardAlpha" operator="out"/>
<feColorMatrix type="matrix" values="0 0 0 0 0 0 0 0 0 0 0 0 0 0 0 0 0 0 0.25 0"/>
<feBlend mode="normal" in2="BackgroundImageFix" result="effect1_dropShadow_1285_418"/>
<feBlend mode="normal" in="SourceGraphic" in2="effect1_dropShadow_1285_418" result="shape"/>
</filter>
</defs>
</svg>
