<svg width="375" height="173" viewBox="0 0 375 173" fill="none" xmlns="http://www.w3.org/2000/svg">
<g filter="url(#filter0_d_934_1114)">
<rect x="17" y="21" width="340" height="123" fill="white"/>
</g>
<path d="M36.9186 98C36.7853 98 36.6653 97.9533 36.5586 97.86C36.4653 97.7533 36.4186 97.6333 36.4186 97.5V84.5C36.4186 84.3533 36.4653 84.2333 36.5586 84.14C36.6653 84.0467 36.7853 84 36.9186 84H39.7186C39.8653 84 39.9853 84.0467 40.0786 84.14C40.1719 84.2333 40.2186 84.3533 40.2186 84.5V94.86H46.2186C46.3653 94.86 46.4853 94.9133 46.5786 95.02C46.6853 95.1133 46.7386 95.2333 46.7386 95.38V97.5C46.7386 97.6467 46.6853 97.7667 46.5786 97.86C46.4853 97.9533 46.3653 98 46.2186 98H36.9186ZM52.9927 98.2C51.366 98.2 50.086 97.7667 49.1527 96.9C48.2193 96.02 47.7393 94.7467 47.7127 93.08V92.46C47.766 90.8733 48.2593 89.6333 49.1927 88.74C50.126 87.8467 51.386 87.4 52.9727 87.4C54.1193 87.4 55.086 87.6333 55.8727 88.1C56.6727 88.5533 57.266 89.1867 57.6527 90C58.0527 90.8 58.2527 91.7133 58.2527 92.74V93.24C58.2527 93.3867 58.1993 93.5133 58.0927 93.62C57.9993 93.7133 57.8793 93.76 57.7327 93.76H51.3927V93.88C51.406 94.48 51.546 94.9667 51.8127 95.34C52.0793 95.7 52.4593 95.88 52.9527 95.88C53.2727 95.88 53.526 95.82 53.7127 95.7C53.9127 95.5667 54.0993 95.4 54.2727 95.2C54.3927 95.0667 54.486 94.9867 54.5527 94.96C54.6327 94.92 54.7527 94.9 54.9127 94.9H57.5327C57.6527 94.9 57.7527 94.94 57.8327 95.02C57.926 95.0867 57.9727 95.1733 57.9727 95.28C57.9727 95.6267 57.7727 96.0333 57.3727 96.5C56.986 96.9667 56.4127 97.3667 55.6527 97.7C54.906 98.0333 54.0193 98.2 52.9927 98.2ZM54.5727 91.72V91.68C54.5727 91.04 54.4327 90.5467 54.1527 90.2C53.8727 89.84 53.4793 89.66 52.9727 89.66C52.466 89.66 52.0727 89.84 51.7927 90.2C51.526 90.5467 51.3927 91.04 51.3927 91.68V91.72H54.5727ZM64.7455 98C64.6121 98 64.4921 97.9533 64.3855 97.86C64.2921 97.7533 64.2455 97.6333 64.2455 97.5V88.1C64.2455 87.9533 64.2921 87.8333 64.3855 87.74C64.4921 87.6467 64.6121 87.6 64.7455 87.6H67.0655C67.2121 87.6 67.3321 87.6467 67.4255 87.74C67.5188 87.8333 67.5655 87.9533 67.5655 88.1V88.78C67.8855 88.3933 68.2988 88.0667 68.8055 87.8C69.3121 87.5333 69.8855 87.4 70.5255 87.4C71.9921 87.4 72.9988 87.9733 73.5455 89.12C73.8655 88.6133 74.3121 88.2 74.8855 87.88C75.4588 87.56 76.0721 87.4 76.7255 87.4C77.8188 87.4 78.7055 87.7733 79.3855 88.52C80.0788 89.2533 80.4255 90.3533 80.4255 91.82V97.5C80.4255 97.6333 80.3788 97.7533 80.2855 97.86C80.1921 97.9533 80.0721 98 79.9255 98H77.4655C77.3188 98 77.1921 97.9533 77.0855 97.86C76.9921 97.7667 76.9455 97.6467 76.9455 97.5V91.96C76.9455 91.3467 76.8121 90.9 76.5455 90.62C76.2921 90.3267 75.9455 90.18 75.5055 90.18C75.0921 90.18 74.7521 90.3267 74.4855 90.62C74.2321 90.9 74.1055 91.3467 74.1055 91.96V97.5C74.1055 97.6333 74.0588 97.7533 73.9655 97.86C73.8721 97.9533 73.7521 98 73.6055 98H71.1455C70.9988 98 70.8721 97.9533 70.7655 97.86C70.6721 97.7667 70.6255 97.6467 70.6255 97.5V91.96C70.6255 91.3467 70.4921 90.9 70.2255 90.62C69.9588 90.3267 69.6121 90.18 69.1855 90.18C68.7721 90.18 68.4321 90.3267 68.1655 90.62C67.8988 90.9 67.7655 91.34 67.7655 91.94V97.5C67.7655 97.6333 67.7188 97.7533 67.6255 97.86C67.5321 97.9533 67.4121 98 67.2655 98H64.7455ZM87.6048 98.2C85.9248 98.2 84.6315 97.8133 83.7248 97.04C82.8315 96.2533 82.3448 95.14 82.2648 93.7C82.2515 93.5267 82.2448 93.2267 82.2448 92.8C82.2448 92.3733 82.2515 92.0733 82.2648 91.9C82.3448 90.4867 82.8448 89.3867 83.7648 88.6C84.6982 87.8 85.9782 87.4 87.6048 87.4C89.2315 87.4 90.5048 87.8 91.4248 88.6C92.3582 89.3867 92.8648 90.4867 92.9448 91.9C92.9715 92.2467 92.9848 92.5467 92.9848 92.8C92.9848 93.0533 92.9715 93.3533 92.9448 93.7C92.8648 95.14 92.3715 96.2533 91.4648 97.04C90.5715 97.8133 89.2848 98.2 87.6048 98.2ZM87.6048 95.68C88.1515 95.68 88.5582 95.5133 88.8248 95.18C89.0915 94.8333 89.2448 94.3067 89.2848 93.6C89.2982 93.4667 89.3048 93.2 89.3048 92.8C89.3048 92.4 89.2982 92.1333 89.2848 92C89.2448 91.3067 89.0915 90.7867 88.8248 90.44C88.5582 90.0933 88.1515 89.92 87.6048 89.92C87.0582 89.92 86.6515 90.0933 86.3848 90.44C86.1182 90.7867 85.9648 91.3067 85.9248 92L85.9048 92.8L85.9248 93.6C85.9648 94.3067 86.1182 94.8333 86.3848 95.18C86.6515 95.5133 87.0582 95.68 87.6048 95.68ZM95.39 98C95.2567 98 95.1367 97.9533 95.03 97.86C94.9367 97.7533 94.89 97.6333 94.89 97.5V88.1C94.89 87.9533 94.9367 87.8333 95.03 87.74C95.1367 87.6467 95.2567 87.6 95.39 87.6H97.85C97.9967 87.6 98.1167 87.6467 98.21 87.74C98.3033 87.8333 98.35 87.9533 98.35 88.1V88.86C98.71 88.42 99.17 88.0667 99.73 87.8C100.303 87.5333 100.957 87.4 101.69 87.4C102.45 87.4 103.123 87.5733 103.71 87.92C104.31 88.2667 104.777 88.78 105.11 89.46C105.457 90.14 105.63 90.96 105.63 91.92V97.5C105.63 97.6333 105.583 97.7533 105.49 97.86C105.397 97.9533 105.277 98 105.13 98H102.47C102.323 98 102.197 97.9533 102.09 97.86C101.997 97.7667 101.95 97.6467 101.95 97.5V92.04C101.95 91.44 101.803 90.98 101.51 90.66C101.23 90.34 100.817 90.18 100.27 90.18C99.7367 90.18 99.3167 90.3467 99.01 90.68C98.7033 91 98.55 91.4533 98.55 92.04V97.5C98.55 97.6333 98.5033 97.7533 98.41 97.86C98.3167 97.9533 98.1967 98 98.05 98H95.39ZM111.72 98.2C110.426 98.2 109.406 97.7933 108.66 96.98C107.926 96.1667 107.533 95.0067 107.48 93.5L107.46 92.8L107.48 92.08C107.533 90.6267 107.933 89.4867 108.68 88.66C109.426 87.82 110.44 87.4 111.72 87.4C112.92 87.4 113.886 87.7867 114.62 88.56V84.3C114.62 84.1533 114.666 84.0333 114.76 83.94C114.866 83.8467 114.986 83.8 115.12 83.8H117.7C117.846 83.8 117.966 83.8467 118.06 83.94C118.166 84.0333 118.22 84.1533 118.22 84.3V97.5C118.22 97.6467 118.166 97.7667 118.06 97.86C117.966 97.9533 117.846 98 117.7 98H115.32C115.186 98 115.066 97.9533 114.96 97.86C114.866 97.7533 114.82 97.6333 114.82 97.5V96.88C114.1 97.76 113.066 98.2 111.72 98.2ZM112.88 95.42C113.453 95.42 113.88 95.24 114.16 94.88C114.44 94.5067 114.593 94.04 114.62 93.48C114.646 93.1067 114.66 92.8533 114.66 92.72C114.66 92.5733 114.646 92.3267 114.62 91.98C114.593 91.46 114.433 91.0333 114.14 90.7C113.86 90.3533 113.44 90.18 112.88 90.18C112.28 90.18 111.846 90.36 111.58 90.72C111.326 91.0667 111.18 91.5533 111.14 92.18L111.12 92.8L111.14 93.42C111.18 94.0467 111.326 94.54 111.58 94.9C111.846 95.2467 112.28 95.42 112.88 95.42ZM125.375 98.2C123.749 98.2 122.469 97.7667 121.535 96.9C120.602 96.02 120.122 94.7467 120.095 93.08V92.46C120.149 90.8733 120.642 89.6333 121.575 88.74C122.509 87.8467 123.769 87.4 125.355 87.4C126.502 87.4 127.469 87.6333 128.255 88.1C129.055 88.5533 129.649 89.1867 130.035 90C130.435 90.8 130.635 91.7133 130.635 92.74V93.24C130.635 93.3867 130.582 93.5133 130.475 93.62C130.382 93.7133 130.262 93.76 130.115 93.76H123.775V93.88C123.789 94.48 123.929 94.9667 124.195 95.34C124.462 95.7 124.842 95.88 125.335 95.88C125.655 95.88 125.909 95.82 126.095 95.7C126.295 95.5667 126.482 95.4 126.655 95.2C126.775 95.0667 126.869 94.9867 126.935 94.96C127.015 94.92 127.135 94.9 127.295 94.9H129.915C130.035 94.9 130.135 94.94 130.215 95.02C130.309 95.0867 130.355 95.1733 130.355 95.28C130.355 95.6267 130.155 96.0333 129.755 96.5C129.369 96.9667 128.795 97.3667 128.035 97.7C127.289 98.0333 126.402 98.2 125.375 98.2ZM126.955 91.72V91.68C126.955 91.04 126.815 90.5467 126.535 90.2C126.255 89.84 125.862 89.66 125.355 89.66C124.849 89.66 124.455 89.84 124.175 90.2C123.909 90.5467 123.775 91.04 123.775 91.68V91.72H126.955ZM141.717 98C138.891 98 137.477 96.6733 137.477 94.02V90.32H135.897C135.764 90.32 135.644 90.2733 135.537 90.18C135.444 90.0733 135.397 89.9533 135.397 89.82V88.1C135.397 87.9533 135.444 87.8333 135.537 87.74C135.644 87.6467 135.764 87.6 135.897 87.6H137.477V84.3C137.477 84.1533 137.524 84.0333 137.617 83.94C137.724 83.8467 137.844 83.8 137.977 83.8H140.437C140.584 83.8 140.704 83.8467 140.797 83.94C140.891 84.0333 140.937 84.1533 140.937 84.3V87.6H143.437C143.584 87.6 143.704 87.6467 143.797 87.74C143.904 87.8333 143.957 87.9533 143.957 88.1V89.82C143.957 89.9667 143.904 90.0867 143.797 90.18C143.704 90.2733 143.584 90.32 143.437 90.32H140.937V93.72C140.937 94.1867 141.024 94.54 141.197 94.78C141.371 95.02 141.651 95.14 142.037 95.14H143.617C143.764 95.14 143.884 95.1933 143.977 95.3C144.071 95.3933 144.117 95.5133 144.117 95.66V97.5C144.117 97.6333 144.071 97.7533 143.977 97.86C143.884 97.9533 143.764 98 143.617 98H141.717ZM150.73 98.2C149.05 98.2 147.757 97.8133 146.85 97.04C145.957 96.2533 145.47 95.14 145.39 93.7C145.377 93.5267 145.37 93.2267 145.37 92.8C145.37 92.3733 145.377 92.0733 145.39 91.9C145.47 90.4867 145.97 89.3867 146.89 88.6C147.823 87.8 149.103 87.4 150.73 87.4C152.357 87.4 153.63 87.8 154.55 88.6C155.483 89.3867 155.99 90.4867 156.07 91.9C156.097 92.2467 156.11 92.5467 156.11 92.8C156.11 93.0533 156.097 93.3533 156.07 93.7C155.99 95.14 155.497 96.2533 154.59 97.04C153.697 97.8133 152.41 98.2 150.73 98.2ZM150.73 95.68C151.277 95.68 151.683 95.5133 151.95 95.18C152.217 94.8333 152.37 94.3067 152.41 93.6C152.423 93.4667 152.43 93.2 152.43 92.8C152.43 92.4 152.423 92.1333 152.41 92C152.37 91.3067 152.217 90.7867 151.95 90.44C151.683 90.0933 151.277 89.92 150.73 89.92C150.183 89.92 149.777 90.0933 149.51 90.44C149.243 90.7867 149.09 91.3067 149.05 92L149.03 92.8L149.05 93.6C149.09 94.3067 149.243 94.8333 149.51 95.18C149.777 95.5133 150.183 95.68 150.73 95.68ZM161.835 98.2C160.662 98.2 159.715 97.8067 158.995 97.02C158.275 96.2333 157.915 95.12 157.915 93.68V88.1C157.915 87.9533 157.962 87.8333 158.055 87.74C158.162 87.6467 158.282 87.6 158.415 87.6H161.075C161.222 87.6 161.342 87.6467 161.435 87.74C161.542 87.8333 161.595 87.9533 161.595 88.1V93.56C161.595 94.8 162.148 95.42 163.255 95.42C163.788 95.42 164.202 95.26 164.495 94.94C164.802 94.6067 164.955 94.1467 164.955 93.56V88.1C164.955 87.9533 165.002 87.8333 165.095 87.74C165.202 87.6467 165.328 87.6 165.475 87.6H168.115C168.262 87.6 168.382 87.6467 168.475 87.74C168.568 87.8333 168.615 87.9533 168.615 88.1V97.5C168.615 97.6333 168.568 97.7533 168.475 97.86C168.382 97.9533 168.262 98 168.115 98H165.675C165.528 98 165.402 97.9533 165.295 97.86C165.202 97.7667 165.155 97.6467 165.155 97.5V96.74C164.462 97.7133 163.355 98.2 161.835 98.2ZM171.386 98C171.253 98 171.133 97.9533 171.026 97.86C170.933 97.7533 170.886 97.6333 170.886 97.5V88.12C170.886 87.9733 170.933 87.8533 171.026 87.76C171.119 87.6533 171.239 87.6 171.386 87.6H173.826C173.973 87.6 174.093 87.6533 174.186 87.76C174.293 87.8533 174.346 87.9733 174.346 88.12V88.88C174.719 88.4667 175.153 88.1533 175.646 87.94C176.153 87.7133 176.713 87.6 177.326 87.6H178.226C178.373 87.6 178.493 87.6467 178.586 87.74C178.679 87.8333 178.726 87.9533 178.726 88.1V90.28C178.726 90.4133 178.679 90.5333 178.586 90.64C178.493 90.7333 178.373 90.78 178.226 90.78H176.206C175.673 90.78 175.259 90.9267 174.966 91.22C174.686 91.5133 174.546 91.9267 174.546 92.46V97.5C174.546 97.6467 174.493 97.7667 174.386 97.86C174.293 97.9533 174.173 98 174.026 98H171.386ZM180.605 98C180.472 98 180.352 97.9533 180.245 97.86C180.152 97.7533 180.105 97.6333 180.105 97.5V88.1C180.105 87.9533 180.152 87.8333 180.245 87.74C180.352 87.6467 180.472 87.6 180.605 87.6H183.065C183.212 87.6 183.332 87.6467 183.425 87.74C183.518 87.8333 183.565 87.9533 183.565 88.1V88.86C183.925 88.42 184.385 88.0667 184.945 87.8C185.518 87.5333 186.172 87.4 186.905 87.4C187.665 87.4 188.338 87.5733 188.925 87.92C189.525 88.2667 189.992 88.78 190.325 89.46C190.672 90.14 190.845 90.96 190.845 91.92V97.5C190.845 97.6333 190.798 97.7533 190.705 97.86C190.612 97.9533 190.492 98 190.345 98H187.685C187.538 98 187.412 97.9533 187.305 97.86C187.212 97.7667 187.165 97.6467 187.165 97.5V92.04C187.165 91.44 187.018 90.98 186.725 90.66C186.445 90.34 186.032 90.18 185.485 90.18C184.952 90.18 184.532 90.3467 184.225 90.68C183.918 91 183.765 91.4533 183.765 92.04V97.5C183.765 97.6333 183.718 97.7533 183.625 97.86C183.532 97.9533 183.412 98 183.265 98H180.605ZM197.915 98.2C196.288 98.2 195.008 97.7667 194.075 96.9C193.141 96.02 192.661 94.7467 192.635 93.08V92.46C192.688 90.8733 193.181 89.6333 194.115 88.74C195.048 87.8467 196.308 87.4 197.895 87.4C199.041 87.4 200.008 87.6333 200.795 88.1C201.595 88.5533 202.188 89.1867 202.575 90C202.975 90.8 203.175 91.7133 203.175 92.74V93.24C203.175 93.3867 203.121 93.5133 203.015 93.62C202.921 93.7133 202.801 93.76 202.655 93.76H196.315V93.88C196.328 94.48 196.468 94.9667 196.735 95.34C197.001 95.7 197.381 95.88 197.875 95.88C198.195 95.88 198.448 95.82 198.635 95.7C198.835 95.5667 199.021 95.4 199.195 95.2C199.315 95.0667 199.408 94.9867 199.475 94.96C199.555 94.92 199.675 94.9 199.835 94.9H202.455C202.575 94.9 202.675 94.94 202.755 95.02C202.848 95.0867 202.895 95.1733 202.895 95.28C202.895 95.6267 202.695 96.0333 202.295 96.5C201.908 96.9667 201.335 97.3667 200.575 97.7C199.828 98.0333 198.941 98.2 197.915 98.2ZM199.495 91.72V91.68C199.495 91.04 199.355 90.5467 199.075 90.2C198.795 89.84 198.401 89.66 197.895 89.66C197.388 89.66 196.995 89.84 196.715 90.2C196.448 90.5467 196.315 91.04 196.315 91.68V91.72H199.495ZM196.715 86.1C196.501 86.1 196.395 85.9933 196.395 85.78C196.395 85.6733 196.428 85.5867 196.495 85.52L198.275 83.34C198.408 83.18 198.521 83.08 198.615 83.04C198.721 82.9867 198.855 82.96 199.015 82.96H201.775C201.895 82.96 201.988 83 202.055 83.08C202.121 83.1467 202.155 83.24 202.155 83.36C202.155 83.4533 202.121 83.5333 202.055 83.6L199.375 85.8C199.241 85.9067 199.121 85.9867 199.015 86.04C198.908 86.08 198.768 86.1 198.595 86.1H196.715ZM212.38 98C212.193 98 212.046 97.96 211.94 97.88C211.846 97.7867 211.766 97.66 211.7 97.5L207.9 88.22C207.886 88.18 207.88 88.1267 207.88 88.06C207.88 87.9267 207.92 87.82 208 87.74C208.093 87.6467 208.206 87.6 208.34 87.6H210.72C211 87.6 211.2 87.74 211.32 88.02L213.5 94L215.7 88.02C215.74 87.9133 215.806 87.82 215.9 87.74C215.993 87.6467 216.12 87.6 216.28 87.6H218.68C218.8 87.6 218.906 87.6467 219 87.74C219.093 87.82 219.14 87.9267 219.14 88.06L219.1 88.22L215.32 97.5C215.253 97.66 215.166 97.7867 215.06 97.88C214.953 97.96 214.806 98 214.62 98H212.38ZM225.122 98.2C223.495 98.2 222.215 97.7667 221.282 96.9C220.348 96.02 219.868 94.7467 219.842 93.08V92.46C219.895 90.8733 220.388 89.6333 221.322 88.74C222.255 87.8467 223.515 87.4 225.102 87.4C226.248 87.4 227.215 87.6333 228.002 88.1C228.802 88.5533 229.395 89.1867 229.782 90C230.182 90.8 230.382 91.7133 230.382 92.74V93.24C230.382 93.3867 230.328 93.5133 230.222 93.62C230.128 93.7133 230.008 93.76 229.862 93.76H223.522V93.88C223.535 94.48 223.675 94.9667 223.942 95.34C224.208 95.7 224.588 95.88 225.082 95.88C225.402 95.88 225.655 95.82 225.842 95.7C226.042 95.5667 226.228 95.4 226.402 95.2C226.522 95.0667 226.615 94.9867 226.682 94.96C226.762 94.92 226.882 94.9 227.042 94.9H229.662C229.782 94.9 229.882 94.94 229.962 95.02C230.055 95.0867 230.102 95.1733 230.102 95.28C230.102 95.6267 229.902 96.0333 229.502 96.5C229.115 96.9667 228.542 97.3667 227.782 97.7C227.035 98.0333 226.148 98.2 225.122 98.2ZM226.702 91.72V91.68C226.702 91.04 226.562 90.5467 226.282 90.2C226.002 89.84 225.608 89.66 225.102 89.66C224.595 89.66 224.202 89.84 223.922 90.2C223.655 90.5467 223.522 91.04 223.522 91.68V91.72H226.702ZM232.675 98C232.542 98 232.422 97.9533 232.315 97.86C232.222 97.7533 232.175 97.6333 232.175 97.5V88.12C232.175 87.9733 232.222 87.8533 232.315 87.76C232.408 87.6533 232.528 87.6 232.675 87.6H235.115C235.262 87.6 235.382 87.6533 235.475 87.76C235.582 87.8533 235.635 87.9733 235.635 88.12V88.88C236.008 88.4667 236.442 88.1533 236.935 87.94C237.442 87.7133 238.002 87.6 238.615 87.6H239.515C239.662 87.6 239.782 87.6467 239.875 87.74C239.968 87.8333 240.015 87.9533 240.015 88.1V90.28C240.015 90.4133 239.968 90.5333 239.875 90.64C239.782 90.7333 239.662 90.78 239.515 90.78H237.495C236.962 90.78 236.548 90.9267 236.255 91.22C235.975 91.5133 235.835 91.9267 235.835 92.46V97.5C235.835 97.6467 235.782 97.7667 235.675 97.86C235.582 97.9533 235.462 98 235.315 98H232.675ZM245.754 98.2C244.661 98.2 243.747 98.0467 243.014 97.74C242.281 97.4333 241.734 97.0667 241.374 96.64C241.027 96.2133 240.854 95.8267 240.854 95.48C240.854 95.3467 240.901 95.24 240.994 95.16C241.101 95.0667 241.214 95.02 241.334 95.02H243.754C243.834 95.02 243.901 95.0467 243.954 95.1C244.181 95.2467 244.307 95.3333 244.334 95.36C244.587 95.5467 244.821 95.6933 245.034 95.8C245.261 95.8933 245.527 95.94 245.834 95.94C246.194 95.94 246.487 95.8733 246.714 95.74C246.954 95.5933 247.074 95.3933 247.074 95.14C247.074 94.9267 247.007 94.7533 246.874 94.62C246.754 94.4867 246.514 94.36 246.154 94.24C245.807 94.1067 245.274 93.9733 244.554 93.84C242.247 93.3733 241.094 92.3067 241.094 90.64C241.094 90.0933 241.267 89.5733 241.614 89.08C241.974 88.5733 242.494 88.1667 243.174 87.86C243.867 87.5533 244.694 87.4 245.654 87.4C246.627 87.4 247.467 87.5533 248.174 87.86C248.894 88.1533 249.441 88.5133 249.814 88.94C250.187 89.3533 250.374 89.7333 250.374 90.08C250.374 90.2 250.327 90.3067 250.234 90.4C250.154 90.4933 250.054 90.54 249.934 90.54H247.734C247.614 90.54 247.521 90.5133 247.454 90.46C247.294 90.38 247.134 90.28 246.974 90.16C246.734 90 246.521 89.88 246.334 89.8C246.161 89.7067 245.934 89.66 245.654 89.66C245.321 89.66 245.061 89.7333 244.874 89.88C244.687 90.0267 244.594 90.2133 244.594 90.44C244.594 90.64 244.647 90.8067 244.754 90.94C244.874 91.06 245.107 91.18 245.454 91.3C245.814 91.42 246.354 91.5467 247.074 91.68C248.381 91.9067 249.327 92.3133 249.914 92.9C250.514 93.4733 250.814 94.1467 250.814 94.92C250.814 95.92 250.367 96.72 249.474 97.32C248.594 97.9067 247.354 98.2 245.754 98.2ZM257.446 98C257.313 98 257.193 97.9533 257.086 97.86C256.993 97.7533 256.946 97.6333 256.946 97.5V84.5C256.946 84.3533 256.993 84.2333 257.086 84.14C257.193 84.0467 257.313 84 257.446 84H260.306C260.453 84 260.573 84.0467 260.666 84.14C260.759 84.2333 260.806 84.3533 260.806 84.5V97.5C260.806 97.6333 260.759 97.7533 260.666 97.86C260.573 97.9533 260.453 98 260.306 98H257.446ZM263.808 98C263.675 98 263.555 97.9533 263.448 97.86C263.355 97.7533 263.308 97.6333 263.308 97.5V88.1C263.308 87.9533 263.355 87.8333 263.448 87.74C263.555 87.6467 263.675 87.6 263.808 87.6H266.268C266.415 87.6 266.535 87.6467 266.628 87.74C266.721 87.8333 266.768 87.9533 266.768 88.1V88.86C267.128 88.42 267.588 88.0667 268.148 87.8C268.721 87.5333 269.375 87.4 270.108 87.4C270.868 87.4 271.541 87.5733 272.128 87.92C272.728 88.2667 273.195 88.78 273.528 89.46C273.875 90.14 274.048 90.96 274.048 91.92V97.5C274.048 97.6333 274.001 97.7533 273.908 97.86C273.815 97.9533 273.695 98 273.548 98H270.888C270.741 98 270.615 97.9533 270.508 97.86C270.415 97.7667 270.368 97.6467 270.368 97.5V92.04C270.368 91.44 270.221 90.98 269.928 90.66C269.648 90.34 269.235 90.18 268.688 90.18C268.155 90.18 267.735 90.3467 267.428 90.68C267.121 91 266.968 91.4533 266.968 92.04V97.5C266.968 97.6333 266.921 97.7533 266.828 97.86C266.735 97.9533 266.615 98 266.468 98H263.808ZM281.6 98C278.773 98 277.36 96.6733 277.36 94.02V90.32H275.78C275.647 90.32 275.527 90.2733 275.42 90.18C275.327 90.0733 275.28 89.9533 275.28 89.82V88.1C275.28 87.9533 275.327 87.8333 275.42 87.74C275.527 87.6467 275.647 87.6 275.78 87.6H277.36V84.3C277.36 84.1533 277.407 84.0333 277.5 83.94C277.607 83.8467 277.727 83.8 277.86 83.8H280.32C280.467 83.8 280.587 83.8467 280.68 83.94C280.773 84.0333 280.82 84.1533 280.82 84.3V87.6H283.32C283.467 87.6 283.587 87.6467 283.68 87.74C283.787 87.8333 283.84 87.9533 283.84 88.1V89.82C283.84 89.9667 283.787 90.0867 283.68 90.18C283.587 90.2733 283.467 90.32 283.32 90.32H280.82V93.72C280.82 94.1867 280.907 94.54 281.08 94.78C281.253 95.02 281.533 95.14 281.92 95.14H283.5C283.647 95.14 283.767 95.1933 283.86 95.3C283.953 95.3933 284 95.5133 284 95.66V97.5C284 97.6333 283.953 97.7533 283.86 97.86C283.767 97.9533 283.647 98 283.5 98H281.6ZM290.493 98.2C288.866 98.2 287.586 97.7667 286.653 96.9C285.719 96.02 285.239 94.7467 285.213 93.08V92.46C285.266 90.8733 285.759 89.6333 286.693 88.74C287.626 87.8467 288.886 87.4 290.473 87.4C291.619 87.4 292.586 87.6333 293.373 88.1C294.173 88.5533 294.766 89.1867 295.153 90C295.553 90.8 295.753 91.7133 295.753 92.74V93.24C295.753 93.3867 295.699 93.5133 295.593 93.62C295.499 93.7133 295.379 93.76 295.233 93.76H288.893V93.88C288.906 94.48 289.046 94.9667 289.313 95.34C289.579 95.7 289.959 95.88 290.453 95.88C290.773 95.88 291.026 95.82 291.213 95.7C291.413 95.5667 291.599 95.4 291.773 95.2C291.893 95.0667 291.986 94.9867 292.053 94.96C292.133 94.92 292.253 94.9 292.413 94.9H295.033C295.153 94.9 295.253 94.94 295.333 95.02C295.426 95.0867 295.473 95.1733 295.473 95.28C295.473 95.6267 295.273 96.0333 294.873 96.5C294.486 96.9667 293.913 97.3667 293.153 97.7C292.406 98.0333 291.519 98.2 290.493 98.2ZM292.073 91.72V91.68C292.073 91.04 291.933 90.5467 291.653 90.2C291.373 89.84 290.979 89.66 290.473 89.66C289.966 89.66 289.573 89.84 289.293 90.2C289.026 90.5467 288.893 91.04 288.893 91.68V91.72H292.073ZM298.046 98C297.913 98 297.793 97.9533 297.686 97.86C297.593 97.7533 297.546 97.6333 297.546 97.5V88.12C297.546 87.9733 297.593 87.8533 297.686 87.76C297.78 87.6533 297.9 87.6 298.046 87.6H300.486C300.633 87.6 300.753 87.6533 300.846 87.76C300.953 87.8533 301.006 87.9733 301.006 88.12V88.88C301.38 88.4667 301.813 88.1533 302.306 87.94C302.813 87.7133 303.373 87.6 303.986 87.6H304.886C305.033 87.6 305.153 87.6467 305.246 87.74C305.34 87.8333 305.386 87.9533 305.386 88.1V90.28C305.386 90.4133 305.34 90.5333 305.246 90.64C305.153 90.7333 305.033 90.78 304.886 90.78H302.866C302.333 90.78 301.92 90.9267 301.626 91.22C301.346 91.5133 301.206 91.9267 301.206 92.46V97.5C301.206 97.6467 301.153 97.7667 301.046 97.86C300.953 97.9533 300.833 98 300.686 98H298.046ZM307.265 98C307.132 98 307.012 97.9533 306.905 97.86C306.812 97.7533 306.765 97.6333 306.765 97.5V88.1C306.765 87.9533 306.812 87.8333 306.905 87.74C307.012 87.6467 307.132 87.6 307.265 87.6H309.725C309.872 87.6 309.992 87.6467 310.085 87.74C310.178 87.8333 310.225 87.9533 310.225 88.1V88.86C310.585 88.42 311.045 88.0667 311.605 87.8C312.178 87.5333 312.832 87.4 313.565 87.4C314.325 87.4 314.998 87.5733 315.585 87.92C316.185 88.2667 316.652 88.78 316.985 89.46C317.332 90.14 317.505 90.96 317.505 91.92V97.5C317.505 97.6333 317.458 97.7533 317.365 97.86C317.272 97.9533 317.152 98 317.005 98H314.345C314.198 98 314.072 97.9533 313.965 97.86C313.872 97.7667 313.825 97.6467 313.825 97.5V92.04C313.825 91.44 313.678 90.98 313.385 90.66C313.105 90.34 312.692 90.18 312.145 90.18C311.612 90.18 311.192 90.3467 310.885 90.68C310.578 91 310.425 91.4533 310.425 92.04V97.5C310.425 97.6333 310.378 97.7533 310.285 97.86C310.192 97.9533 310.072 98 309.925 98H307.265ZM324.575 98.2C322.948 98.2 321.668 97.7667 320.735 96.9C319.801 96.02 319.321 94.7467 319.295 93.08V92.46C319.348 90.8733 319.841 89.6333 320.775 88.74C321.708 87.8467 322.968 87.4 324.555 87.4C325.701 87.4 326.668 87.6333 327.455 88.1C328.255 88.5533 328.848 89.1867 329.235 90C329.635 90.8 329.835 91.7133 329.835 92.74V93.24C329.835 93.3867 329.781 93.5133 329.675 93.62C329.581 93.7133 329.461 93.76 329.315 93.76H322.975V93.88C322.988 94.48 323.128 94.9667 323.395 95.34C323.661 95.7 324.041 95.88 324.535 95.88C324.855 95.88 325.108 95.82 325.295 95.7C325.495 95.5667 325.681 95.4 325.855 95.2C325.975 95.0667 326.068 94.9867 326.135 94.96C326.215 94.92 326.335 94.9 326.495 94.9H329.115C329.235 94.9 329.335 94.94 329.415 95.02C329.508 95.0867 329.555 95.1733 329.555 95.28C329.555 95.6267 329.355 96.0333 328.955 96.5C328.568 96.9667 327.995 97.3667 327.235 97.7C326.488 98.0333 325.601 98.2 324.575 98.2ZM326.155 91.72V91.68C326.155 91.04 326.015 90.5467 325.735 90.2C325.455 89.84 325.061 89.66 324.555 89.66C324.048 89.66 323.655 89.84 323.375 90.2C323.108 90.5467 322.975 91.04 322.975 91.68V91.72H326.155ZM337.069 98C334.242 98 332.829 96.6733 332.829 94.02V90.32H331.249C331.115 90.32 330.995 90.2733 330.889 90.18C330.795 90.0733 330.749 89.9533 330.749 89.82V88.1C330.749 87.9533 330.795 87.8333 330.889 87.74C330.995 87.6467 331.115 87.6 331.249 87.6H332.829V84.3C332.829 84.1533 332.875 84.0333 332.969 83.94C333.075 83.8467 333.195 83.8 333.329 83.8H335.789C335.935 83.8 336.055 83.8467 336.149 83.94C336.242 84.0333 336.289 84.1533 336.289 84.3V87.6H338.789C338.935 87.6 339.055 87.6467 339.149 87.74C339.255 87.8333 339.309 87.9533 339.309 88.1V89.82C339.309 89.9667 339.255 90.0867 339.149 90.18C339.055 90.2733 338.935 90.32 338.789 90.32H336.289V93.72C336.289 94.1867 336.375 94.54 336.549 94.78C336.722 95.02 337.002 95.14 337.389 95.14H338.969C339.115 95.14 339.235 95.1933 339.329 95.3C339.422 95.3933 339.469 95.5133 339.469 95.66V97.5C339.469 97.6333 339.422 97.7533 339.329 97.86C339.235 97.9533 339.115 98 338.969 98H337.069ZM41.5573 122C41.4239 122 41.3039 121.953 41.1973 121.86C41.1039 121.753 41.0573 121.633 41.0573 121.5V108.5C41.0573 108.353 41.1039 108.233 41.1973 108.14C41.3039 108.047 41.4239 108 41.5573 108H44.3573C44.5039 108 44.6239 108.047 44.7173 108.14C44.8106 108.233 44.8573 108.353 44.8573 108.5V118.86H50.8573C51.0039 118.86 51.1239 118.913 51.2173 119.02C51.3239 119.113 51.3773 119.233 51.3773 119.38V121.5C51.3773 121.647 51.3239 121.767 51.2173 121.86C51.1239 121.953 51.0039 122 50.8573 122H41.5573ZM50.7015 112.96C50.5815 112.96 50.4815 112.92 50.4015 112.84C50.3348 112.76 50.3082 112.647 50.3215 112.5L50.9415 108.5C50.9815 108.3 51.0615 108.133 51.1815 108C51.3015 107.867 51.4682 107.8 51.6815 107.8H54.1215C54.2282 107.8 54.3148 107.84 54.3815 107.92C54.4615 108 54.5015 108.093 54.5015 108.2C54.5015 108.28 54.4882 108.353 54.4615 108.42L52.9215 112.4C52.8415 112.573 52.7415 112.713 52.6215 112.82C52.5148 112.913 52.3615 112.96 52.1615 112.96H50.7015ZM58.3718 122.2C57.6651 122.2 57.0185 122.067 56.4318 121.8C55.8585 121.52 55.4051 121.14 55.0718 120.66C54.7518 120.18 54.5918 119.653 54.5918 119.08C54.5918 118.173 54.9651 117.44 55.7118 116.88C56.4718 116.307 57.5118 115.913 58.8318 115.7L61.3118 115.32V115.08C61.3118 114.587 61.2118 114.227 61.0118 114C60.8118 113.773 60.4718 113.66 59.9918 113.66C59.7251 113.66 59.4985 113.707 59.3118 113.8C59.1385 113.893 58.9385 114.033 58.7118 114.22C58.5385 114.367 58.3851 114.473 58.2518 114.54C58.1985 114.633 58.1318 114.68 58.0518 114.68H55.7318C55.5985 114.68 55.4851 114.64 55.3918 114.56C55.3118 114.467 55.2785 114.36 55.2918 114.24C55.3051 113.88 55.4851 113.48 55.8318 113.04C56.1785 112.587 56.7051 112.2 57.4118 111.88C58.1185 111.56 58.9918 111.4 60.0318 111.4C61.6851 111.4 62.9118 111.767 63.7118 112.5C64.5118 113.22 64.9118 114.2 64.9118 115.44V121.5C64.9118 121.633 64.8651 121.753 64.7718 121.86C64.6785 121.953 64.5585 122 64.4118 122H61.9518C61.8185 122 61.6985 121.953 61.5918 121.86C61.4985 121.753 61.4518 121.633 61.4518 121.5V120.8C61.1585 121.213 60.7518 121.553 60.2318 121.82C59.7118 122.073 59.0918 122.2 58.3718 122.2ZM59.3718 119.84C59.9585 119.84 60.4318 119.647 60.7918 119.26C61.1651 118.873 61.3518 118.313 61.3518 117.58V117.34L59.6918 117.62C58.5718 117.833 58.0118 118.233 58.0118 118.82C58.0118 119.127 58.1385 119.373 58.3918 119.56C58.6585 119.747 58.9851 119.84 59.3718 119.84ZM70.9073 122.2C69.7339 122.2 68.7873 121.807 68.0673 121.02C67.3473 120.233 66.9873 119.12 66.9873 117.68V112.1C66.9873 111.953 67.0339 111.833 67.1273 111.74C67.2339 111.647 67.3539 111.6 67.4873 111.6H70.1473C70.2939 111.6 70.4139 111.647 70.5073 111.74C70.6139 111.833 70.6673 111.953 70.6673 112.1V117.56C70.6673 118.8 71.2206 119.42 72.3273 119.42C72.8606 119.42 73.2739 119.26 73.5673 118.94C73.8739 118.607 74.0273 118.147 74.0273 117.56V112.1C74.0273 111.953 74.0739 111.833 74.1673 111.74C74.2739 111.647 74.4006 111.6 74.5473 111.6H77.1873C77.3339 111.6 77.4539 111.647 77.5473 111.74C77.6406 111.833 77.6873 111.953 77.6873 112.1V121.5C77.6873 121.633 77.6406 121.753 77.5473 121.86C77.4539 121.953 77.3339 122 77.1873 122H74.7473C74.6006 122 74.4739 121.953 74.3673 121.86C74.2739 121.767 74.2273 121.647 74.2273 121.5V120.74C73.5339 121.713 72.4273 122.2 70.9073 122.2ZM85.1584 126.4C83.8784 126.4 82.8384 126.193 82.0384 125.78C81.2384 125.367 80.665 124.887 80.3184 124.34C79.9717 123.807 79.7984 123.36 79.7984 123C79.7984 122.867 79.8517 122.753 79.9584 122.66C80.065 122.567 80.185 122.52 80.3184 122.52H82.9984C83.1317 122.52 83.2384 122.547 83.3184 122.6C83.3984 122.667 83.4717 122.773 83.5384 122.92C83.6717 123.213 83.845 123.44 84.0584 123.6C84.2717 123.773 84.605 123.86 85.0584 123.86C85.6317 123.86 86.0584 123.713 86.3384 123.42C86.6184 123.14 86.7584 122.667 86.7584 122V120.66C86.0517 121.393 85.085 121.76 83.8584 121.76C82.5117 121.76 81.4784 121.373 80.7584 120.6C80.0517 119.813 79.665 118.66 79.5984 117.14L79.5784 116.6C79.5784 114.973 79.9384 113.7 80.6584 112.78C81.3917 111.86 82.4584 111.4 83.8584 111.4C84.5384 111.4 85.1384 111.533 85.6584 111.8C86.1784 112.053 86.6117 112.4 86.9584 112.84V112.12C86.9584 111.973 87.005 111.853 87.0984 111.76C87.1917 111.653 87.3117 111.6 87.4584 111.6H89.8984C90.045 111.6 90.165 111.653 90.2584 111.76C90.365 111.853 90.4184 111.973 90.4184 112.12V121.7C90.4184 123.233 89.9584 124.4 89.0384 125.2C88.1184 126 86.825 126.4 85.1584 126.4ZM84.9984 119.06C85.5717 119.06 85.9984 118.887 86.2784 118.54C86.5584 118.193 86.7184 117.753 86.7584 117.22C86.7717 117.127 86.7784 116.927 86.7784 116.62C86.7784 116.3 86.7717 116.1 86.7584 116.02C86.7184 115.473 86.5584 115.033 86.2784 114.7C85.9984 114.353 85.5717 114.18 84.9984 114.18C84.4117 114.18 83.985 114.36 83.7184 114.72C83.4517 115.067 83.305 115.553 83.2784 116.18L83.2584 116.62C83.2584 117.38 83.385 117.98 83.6384 118.42C83.8917 118.847 84.345 119.06 84.9984 119.06ZM93.2123 122C93.0789 122 92.9589 121.953 92.8523 121.86C92.7589 121.753 92.7123 121.633 92.7123 121.5V112.1C92.7123 111.953 92.7589 111.833 92.8523 111.74C92.9589 111.647 93.0789 111.6 93.2123 111.6H95.5323C95.6789 111.6 95.7989 111.647 95.8923 111.74C95.9856 111.833 96.0323 111.953 96.0323 112.1V112.78C96.3523 112.393 96.7656 112.067 97.2723 111.8C97.7789 111.533 98.3523 111.4 98.9923 111.4C100.459 111.4 101.466 111.973 102.012 113.12C102.332 112.613 102.779 112.2 103.352 111.88C103.926 111.56 104.539 111.4 105.192 111.4C106.286 111.4 107.172 111.773 107.852 112.52C108.546 113.253 108.892 114.353 108.892 115.82V121.5C108.892 121.633 108.846 121.753 108.752 121.86C108.659 121.953 108.539 122 108.392 122H105.932C105.786 122 105.659 121.953 105.552 121.86C105.459 121.767 105.412 121.647 105.412 121.5V115.96C105.412 115.347 105.279 114.9 105.012 114.62C104.759 114.327 104.412 114.18 103.972 114.18C103.559 114.18 103.219 114.327 102.952 114.62C102.699 114.9 102.572 115.347 102.572 115.96V121.5C102.572 121.633 102.526 121.753 102.432 121.86C102.339 121.953 102.219 122 102.072 122H99.6123C99.4656 122 99.3389 121.953 99.2323 121.86C99.1389 121.767 99.0923 121.647 99.0923 121.5V115.96C99.0923 115.347 98.9589 114.9 98.6923 114.62C98.4256 114.327 98.0789 114.18 97.6523 114.18C97.2389 114.18 96.8989 114.327 96.6323 114.62C96.3656 114.9 96.2323 115.34 96.2323 115.94V121.5C96.2323 121.633 96.1856 121.753 96.0923 121.86C95.9989 121.953 95.8789 122 95.7323 122H93.2123ZM115.952 122.2C114.325 122.2 113.045 121.767 112.112 120.9C111.178 120.02 110.698 118.747 110.672 117.08V116.46C110.725 114.873 111.218 113.633 112.152 112.74C113.085 111.847 114.345 111.4 115.932 111.4C117.078 111.4 118.045 111.633 118.832 112.1C119.632 112.553 120.225 113.187 120.612 114C121.012 114.8 121.212 115.713 121.212 116.74V117.24C121.212 117.387 121.158 117.513 121.052 117.62C120.958 117.713 120.838 117.76 120.692 117.76H114.352V117.88C114.365 118.48 114.505 118.967 114.772 119.34C115.038 119.7 115.418 119.88 115.912 119.88C116.232 119.88 116.485 119.82 116.672 119.7C116.872 119.567 117.058 119.4 117.232 119.2C117.352 119.067 117.445 118.987 117.512 118.96C117.592 118.92 117.712 118.9 117.872 118.9H120.492C120.612 118.9 120.712 118.94 120.792 119.02C120.885 119.087 120.932 119.173 120.932 119.28C120.932 119.627 120.732 120.033 120.332 120.5C119.945 120.967 119.372 121.367 118.612 121.7C117.865 122.033 116.978 122.2 115.952 122.2ZM117.532 115.72V115.68C117.532 115.04 117.392 114.547 117.112 114.2C116.832 113.84 116.438 113.66 115.932 113.66C115.425 113.66 115.032 113.84 114.752 114.2C114.485 114.547 114.352 115.04 114.352 115.68V115.72H117.532ZM123.505 122C123.372 122 123.252 121.953 123.145 121.86C123.052 121.753 123.005 121.633 123.005 121.5V112.1C123.005 111.953 123.052 111.833 123.145 111.74C123.252 111.647 123.372 111.6 123.505 111.6H125.965C126.112 111.6 126.232 111.647 126.325 111.74C126.419 111.833 126.465 111.953 126.465 112.1V112.86C126.825 112.42 127.285 112.067 127.845 111.8C128.419 111.533 129.072 111.4 129.805 111.4C130.565 111.4 131.239 111.573 131.825 111.92C132.425 112.267 132.892 112.78 133.225 113.46C133.572 114.14 133.745 114.96 133.745 115.92V121.5C133.745 121.633 133.699 121.753 133.605 121.86C133.512 121.953 133.392 122 133.245 122H130.585C130.439 122 130.312 121.953 130.205 121.86C130.112 121.767 130.065 121.647 130.065 121.5V116.04C130.065 115.44 129.919 114.98 129.625 114.66C129.345 114.34 128.932 114.18 128.385 114.18C127.852 114.18 127.432 114.347 127.125 114.68C126.819 115 126.665 115.453 126.665 116.04V121.5C126.665 121.633 126.619 121.753 126.525 121.86C126.432 121.953 126.312 122 126.165 122H123.505ZM141.297 122C138.471 122 137.057 120.673 137.057 118.02V114.32H135.477C135.344 114.32 135.224 114.273 135.117 114.18C135.024 114.073 134.977 113.953 134.977 113.82V112.1C134.977 111.953 135.024 111.833 135.117 111.74C135.224 111.647 135.344 111.6 135.477 111.6H137.057V108.3C137.057 108.153 137.104 108.033 137.197 107.94C137.304 107.847 137.424 107.8 137.557 107.8H140.017C140.164 107.8 140.284 107.847 140.377 107.94C140.471 108.033 140.517 108.153 140.517 108.3V111.6H143.017C143.164 111.6 143.284 111.647 143.377 111.74C143.484 111.833 143.537 111.953 143.537 112.1V113.82C143.537 113.967 143.484 114.087 143.377 114.18C143.284 114.273 143.164 114.32 143.017 114.32H140.517V117.72C140.517 118.187 140.604 118.54 140.777 118.78C140.951 119.02 141.231 119.14 141.617 119.14H143.197C143.344 119.14 143.464 119.193 143.557 119.3C143.651 119.393 143.697 119.513 143.697 119.66V121.5C143.697 121.633 143.651 121.753 143.557 121.86C143.464 121.953 143.344 122 143.197 122H141.297ZM148.45 122.2C147.743 122.2 147.097 122.067 146.51 121.8C145.937 121.52 145.483 121.14 145.15 120.66C144.83 120.18 144.67 119.653 144.67 119.08C144.67 118.173 145.043 117.44 145.79 116.88C146.55 116.307 147.59 115.913 148.91 115.7L151.39 115.32V115.08C151.39 114.587 151.29 114.227 151.09 114C150.89 113.773 150.55 113.66 150.07 113.66C149.803 113.66 149.577 113.707 149.39 113.8C149.217 113.893 149.017 114.033 148.79 114.22C148.617 114.367 148.463 114.473 148.33 114.54C148.277 114.633 148.21 114.68 148.13 114.68H145.81C145.677 114.68 145.563 114.64 145.47 114.56C145.39 114.467 145.357 114.36 145.37 114.24C145.383 113.88 145.563 113.48 145.91 113.04C146.257 112.587 146.783 112.2 147.49 111.88C148.197 111.56 149.07 111.4 150.11 111.4C151.763 111.4 152.99 111.767 153.79 112.5C154.59 113.22 154.99 114.2 154.99 115.44V121.5C154.99 121.633 154.943 121.753 154.85 121.86C154.757 121.953 154.637 122 154.49 122H152.03C151.897 122 151.777 121.953 151.67 121.86C151.577 121.753 151.53 121.633 151.53 121.5V120.8C151.237 121.213 150.83 121.553 150.31 121.82C149.79 122.073 149.17 122.2 148.45 122.2ZM149.45 119.84C150.037 119.84 150.51 119.647 150.87 119.26C151.243 118.873 151.43 118.313 151.43 117.58V117.34L149.77 117.62C148.65 117.833 148.09 118.233 148.09 118.82C148.09 119.127 148.217 119.373 148.47 119.56C148.737 119.747 149.063 119.84 149.45 119.84ZM162.547 122C159.721 122 158.307 120.673 158.307 118.02V114.32H156.727C156.594 114.32 156.474 114.273 156.367 114.18C156.274 114.073 156.227 113.953 156.227 113.82V112.1C156.227 111.953 156.274 111.833 156.367 111.74C156.474 111.647 156.594 111.6 156.727 111.6H158.307V108.3C158.307 108.153 158.354 108.033 158.447 107.94C158.554 107.847 158.674 107.8 158.807 107.8H161.267C161.414 107.8 161.534 107.847 161.627 107.94C161.721 108.033 161.767 108.153 161.767 108.3V111.6H164.267C164.414 111.6 164.534 111.647 164.627 111.74C164.734 111.833 164.787 111.953 164.787 112.1V113.82C164.787 113.967 164.734 114.087 164.627 114.18C164.534 114.273 164.414 114.32 164.267 114.32H161.767V117.72C161.767 118.187 161.854 118.54 162.027 118.78C162.201 119.02 162.481 119.14 162.867 119.14H164.447C164.594 119.14 164.714 119.193 164.807 119.3C164.901 119.393 164.947 119.513 164.947 119.66V121.5C164.947 121.633 164.901 121.753 164.807 121.86C164.714 121.953 164.594 122 164.447 122H162.547ZM167.06 110.16C166.913 110.16 166.793 110.113 166.7 110.02C166.607 109.913 166.56 109.787 166.56 109.64V107.78C166.56 107.633 166.607 107.513 166.7 107.42C166.807 107.313 166.927 107.26 167.06 107.26H169.56C169.707 107.26 169.827 107.313 169.92 107.42C170.027 107.513 170.08 107.633 170.08 107.78V109.64C170.08 109.787 170.027 109.913 169.92 110.02C169.827 110.113 169.707 110.16 169.56 110.16H167.06ZM167.06 122C166.927 122 166.807 121.953 166.7 121.86C166.607 121.753 166.56 121.633 166.56 121.5V112.1C166.56 111.953 166.607 111.833 166.7 111.74C166.807 111.647 166.927 111.6 167.06 111.6H169.56C169.707 111.6 169.827 111.647 169.92 111.74C170.027 111.833 170.08 111.953 170.08 112.1V121.5C170.08 121.647 170.027 121.767 169.92 121.86C169.827 121.953 169.707 122 169.56 122H167.06ZM177.361 122.2C175.681 122.2 174.387 121.813 173.481 121.04C172.587 120.253 172.101 119.14 172.021 117.7C172.007 117.527 172.001 117.227 172.001 116.8C172.001 116.373 172.007 116.073 172.021 115.9C172.101 114.487 172.601 113.387 173.521 112.6C174.454 111.8 175.734 111.4 177.361 111.4C178.987 111.4 180.261 111.8 181.181 112.6C182.114 113.387 182.621 114.487 182.701 115.9C182.727 116.247 182.741 116.547 182.741 116.8C182.741 117.053 182.727 117.353 182.701 117.7C182.621 119.14 182.127 120.253 181.221 121.04C180.327 121.813 179.041 122.2 177.361 122.2ZM177.361 119.68C177.907 119.68 178.314 119.513 178.581 119.18C178.847 118.833 179.001 118.307 179.041 117.6C179.054 117.467 179.061 117.2 179.061 116.8C179.061 116.4 179.054 116.133 179.041 116C179.001 115.307 178.847 114.787 178.581 114.44C178.314 114.093 177.907 113.92 177.361 113.92C176.814 113.92 176.407 114.093 176.141 114.44C175.874 114.787 175.721 115.307 175.681 116L175.661 116.8L175.681 117.6C175.721 118.307 175.874 118.833 176.141 119.18C176.407 119.513 176.814 119.68 177.361 119.68ZM185.146 122C185.013 122 184.893 121.953 184.786 121.86C184.693 121.753 184.646 121.633 184.646 121.5V112.1C184.646 111.953 184.693 111.833 184.786 111.74C184.893 111.647 185.013 111.6 185.146 111.6H187.606C187.753 111.6 187.873 111.647 187.966 111.74C188.059 111.833 188.106 111.953 188.106 112.1V112.86C188.466 112.42 188.926 112.067 189.486 111.8C190.059 111.533 190.713 111.4 191.446 111.4C192.206 111.4 192.879 111.573 193.466 111.92C194.066 112.267 194.533 112.78 194.866 113.46C195.213 114.14 195.386 114.96 195.386 115.92V121.5C195.386 121.633 195.339 121.753 195.246 121.86C195.153 121.953 195.033 122 194.886 122H192.226C192.079 122 191.953 121.953 191.846 121.86C191.753 121.767 191.706 121.647 191.706 121.5V116.04C191.706 115.44 191.559 114.98 191.266 114.66C190.986 114.34 190.573 114.18 190.026 114.18C189.493 114.18 189.073 114.347 188.766 114.68C188.459 115 188.306 115.453 188.306 116.04V121.5C188.306 121.633 188.259 121.753 188.166 121.86C188.073 121.953 187.953 122 187.806 122H185.146ZM205.675 122.2C204.381 122.2 203.361 121.793 202.615 120.98C201.881 120.167 201.488 119.007 201.435 117.5L201.415 116.8L201.435 116.08C201.488 114.627 201.888 113.487 202.635 112.66C203.381 111.82 204.395 111.4 205.675 111.4C206.875 111.4 207.841 111.787 208.575 112.56V108.3C208.575 108.153 208.621 108.033 208.715 107.94C208.821 107.847 208.941 107.8 209.075 107.8H211.655C211.801 107.8 211.921 107.847 212.015 107.94C212.121 108.033 212.175 108.153 212.175 108.3V121.5C212.175 121.647 212.121 121.767 212.015 121.86C211.921 121.953 211.801 122 211.655 122H209.275C209.141 122 209.021 121.953 208.915 121.86C208.821 121.753 208.775 121.633 208.775 121.5V120.88C208.055 121.76 207.021 122.2 205.675 122.2ZM206.835 119.42C207.408 119.42 207.835 119.24 208.115 118.88C208.395 118.507 208.548 118.04 208.575 117.48C208.601 117.107 208.615 116.853 208.615 116.72C208.615 116.573 208.601 116.327 208.575 115.98C208.548 115.46 208.388 115.033 208.095 114.7C207.815 114.353 207.395 114.18 206.835 114.18C206.235 114.18 205.801 114.36 205.535 114.72C205.281 115.067 205.135 115.553 205.095 116.18L205.075 116.8L205.095 117.42C205.135 118.047 205.281 118.54 205.535 118.9C205.801 119.247 206.235 119.42 206.835 119.42ZM219.331 122.2C217.704 122.2 216.424 121.767 215.491 120.9C214.557 120.02 214.077 118.747 214.051 117.08V116.46C214.104 114.873 214.597 113.633 215.531 112.74C216.464 111.847 217.724 111.4 219.311 111.4C220.457 111.4 221.424 111.633 222.211 112.1C223.011 112.553 223.604 113.187 223.991 114C224.391 114.8 224.591 115.713 224.591 116.74V117.24C224.591 117.387 224.537 117.513 224.431 117.62C224.337 117.713 224.217 117.76 224.071 117.76H217.731V117.88C217.744 118.48 217.884 118.967 218.151 119.34C218.417 119.7 218.797 119.88 219.291 119.88C219.611 119.88 219.864 119.82 220.051 119.7C220.251 119.567 220.437 119.4 220.611 119.2C220.731 119.067 220.824 118.987 220.891 118.96C220.971 118.92 221.091 118.9 221.251 118.9H223.871C223.991 118.9 224.091 118.94 224.171 119.02C224.264 119.087 224.311 119.173 224.311 119.28C224.311 119.627 224.111 120.033 223.711 120.5C223.324 120.967 222.751 121.367 221.991 121.7C221.244 122.033 220.357 122.2 219.331 122.2ZM220.911 115.72V115.68C220.911 115.04 220.771 114.547 220.491 114.2C220.211 113.84 219.817 113.66 219.311 113.66C218.804 113.66 218.411 113.84 218.131 114.2C217.864 114.547 217.731 115.04 217.731 115.68V115.72H220.911ZM231.103 122C230.957 122 230.83 121.953 230.723 121.86C230.63 121.767 230.583 121.647 230.583 121.5V108.3C230.583 108.153 230.63 108.033 230.723 107.94C230.83 107.847 230.957 107.8 231.103 107.8H233.603C233.75 107.8 233.87 107.847 233.963 107.94C234.057 108.033 234.103 108.153 234.103 108.3V121.5C234.103 121.633 234.057 121.753 233.963 121.86C233.87 121.953 233.75 122 233.603 122H231.103ZM239.524 122.2C238.817 122.2 238.171 122.067 237.584 121.8C237.011 121.52 236.557 121.14 236.224 120.66C235.904 120.18 235.744 119.653 235.744 119.08C235.744 118.173 236.117 117.44 236.864 116.88C237.624 116.307 238.664 115.913 239.984 115.7L242.464 115.32V115.08C242.464 114.587 242.364 114.227 242.164 114C241.964 113.773 241.624 113.66 241.144 113.66C240.877 113.66 240.651 113.707 240.464 113.8C240.291 113.893 240.091 114.033 239.864 114.22C239.691 114.367 239.537 114.473 239.404 114.54C239.351 114.633 239.284 114.68 239.204 114.68H236.884C236.751 114.68 236.637 114.64 236.544 114.56C236.464 114.467 236.431 114.36 236.444 114.24C236.457 113.88 236.637 113.48 236.984 113.04C237.331 112.587 237.857 112.2 238.564 111.88C239.271 111.56 240.144 111.4 241.184 111.4C242.837 111.4 244.064 111.767 244.864 112.5C245.664 113.22 246.064 114.2 246.064 115.44V121.5C246.064 121.633 246.017 121.753 245.924 121.86C245.831 121.953 245.711 122 245.564 122H243.104C242.971 122 242.851 121.953 242.744 121.86C242.651 121.753 242.604 121.633 242.604 121.5V120.8C242.311 121.213 241.904 121.553 241.384 121.82C240.864 122.073 240.244 122.2 239.524 122.2ZM240.524 119.84C241.111 119.84 241.584 119.647 241.944 119.26C242.317 118.873 242.504 118.313 242.504 117.58V117.34L240.844 117.62C239.724 117.833 239.164 118.233 239.164 118.82C239.164 119.127 239.291 119.373 239.544 119.56C239.811 119.747 240.137 119.84 240.524 119.84ZM255.651 122C255.464 122 255.318 121.96 255.211 121.88C255.118 121.787 255.038 121.66 254.971 121.5L251.171 112.22C251.158 112.18 251.151 112.127 251.151 112.06C251.151 111.927 251.191 111.82 251.271 111.74C251.364 111.647 251.478 111.6 251.611 111.6H253.991C254.271 111.6 254.471 111.74 254.591 112.02L256.771 118L258.971 112.02C259.011 111.913 259.078 111.82 259.171 111.74C259.264 111.647 259.391 111.6 259.551 111.6H261.951C262.071 111.6 262.178 111.647 262.271 111.74C262.364 111.82 262.411 111.927 262.411 112.06L262.371 112.22L258.591 121.5C258.524 121.66 258.438 121.787 258.331 121.88C258.224 121.96 258.078 122 257.891 122H255.651ZM264.404 110.16C264.257 110.16 264.137 110.113 264.044 110.02C263.95 109.913 263.904 109.787 263.904 109.64V107.78C263.904 107.633 263.95 107.513 264.044 107.42C264.15 107.313 264.27 107.26 264.404 107.26H266.904C267.05 107.26 267.17 107.313 267.264 107.42C267.37 107.513 267.424 107.633 267.424 107.78V109.64C267.424 109.787 267.37 109.913 267.264 110.02C267.17 110.113 267.05 110.16 266.904 110.16H264.404ZM264.404 122C264.27 122 264.15 121.953 264.044 121.86C263.95 121.753 263.904 121.633 263.904 121.5V112.1C263.904 111.953 263.95 111.833 264.044 111.74C264.15 111.647 264.27 111.6 264.404 111.6H266.904C267.05 111.6 267.17 111.647 267.264 111.74C267.37 111.833 267.424 111.953 267.424 112.1V121.5C267.424 121.647 267.37 121.767 267.264 121.86C267.17 121.953 267.05 122 266.904 122H264.404ZM274.704 122.2C273.024 122.2 271.731 121.813 270.824 121.04C269.931 120.253 269.444 119.14 269.364 117.7C269.351 117.527 269.344 117.227 269.344 116.8C269.344 116.373 269.351 116.073 269.364 115.9C269.444 114.487 269.944 113.387 270.864 112.6C271.798 111.8 273.078 111.4 274.704 111.4C276.331 111.4 277.604 111.8 278.524 112.6C279.458 113.387 279.964 114.487 280.044 115.9C280.071 116.247 280.084 116.547 280.084 116.8C280.084 117.053 280.071 117.353 280.044 117.7C279.964 119.14 279.471 120.253 278.564 121.04C277.671 121.813 276.384 122.2 274.704 122.2ZM274.704 119.68C275.251 119.68 275.658 119.513 275.924 119.18C276.191 118.833 276.344 118.307 276.384 117.6C276.398 117.467 276.404 117.2 276.404 116.8C276.404 116.4 276.398 116.133 276.384 116C276.344 115.307 276.191 114.787 275.924 114.44C275.658 114.093 275.251 113.92 274.704 113.92C274.158 113.92 273.751 114.093 273.484 114.44C273.218 114.787 273.064 115.307 273.024 116L273.004 116.8L273.024 117.6C273.064 118.307 273.218 118.833 273.484 119.18C273.751 119.513 274.158 119.68 274.704 119.68ZM282.51 122C282.363 122 282.236 121.953 282.13 121.86C282.036 121.767 281.99 121.647 281.99 121.5V108.3C281.99 108.153 282.036 108.033 282.13 107.94C282.236 107.847 282.363 107.8 282.51 107.8H285.01C285.156 107.8 285.276 107.847 285.37 107.94C285.463 108.033 285.51 108.153 285.51 108.3V121.5C285.51 121.633 285.463 121.753 285.37 121.86C285.276 121.953 285.156 122 285.01 122H282.51ZM292.67 122.2C291.044 122.2 289.764 121.767 288.83 120.9C287.897 120.02 287.417 118.747 287.39 117.08V116.46C287.444 114.873 287.937 113.633 288.87 112.74C289.804 111.847 291.064 111.4 292.65 111.4C293.797 111.4 294.764 111.633 295.55 112.1C296.35 112.553 296.944 113.187 297.33 114C297.73 114.8 297.93 115.713 297.93 116.74V117.24C297.93 117.387 297.877 117.513 297.77 117.62C297.677 117.713 297.557 117.76 297.41 117.76H291.07V117.88C291.084 118.48 291.224 118.967 291.49 119.34C291.757 119.7 292.137 119.88 292.63 119.88C292.95 119.88 293.204 119.82 293.39 119.7C293.59 119.567 293.777 119.4 293.95 119.2C294.07 119.067 294.164 118.987 294.23 118.96C294.31 118.92 294.43 118.9 294.59 118.9H297.21C297.33 118.9 297.43 118.94 297.51 119.02C297.604 119.087 297.65 119.173 297.65 119.28C297.65 119.627 297.45 120.033 297.05 120.5C296.664 120.967 296.09 121.367 295.33 121.7C294.584 122.033 293.697 122.2 292.67 122.2ZM294.25 115.72V115.68C294.25 115.04 294.11 114.547 293.83 114.2C293.55 113.84 293.157 113.66 292.65 113.66C292.144 113.66 291.75 113.84 291.47 114.2C291.204 114.547 291.07 115.04 291.07 115.68V115.72H294.25ZM300.224 122C300.091 122 299.971 121.953 299.864 121.86C299.771 121.753 299.724 121.633 299.724 121.5V112.1C299.724 111.953 299.771 111.833 299.864 111.74C299.971 111.647 300.091 111.6 300.224 111.6H302.684C302.831 111.6 302.951 111.647 303.044 111.74C303.137 111.833 303.184 111.953 303.184 112.1V112.86C303.544 112.42 304.004 112.067 304.564 111.8C305.137 111.533 305.791 111.4 306.524 111.4C307.284 111.4 307.957 111.573 308.544 111.92C309.144 112.267 309.611 112.78 309.944 113.46C310.291 114.14 310.464 114.96 310.464 115.92V121.5C310.464 121.633 310.417 121.753 310.324 121.86C310.231 121.953 310.111 122 309.964 122H307.304C307.157 122 307.031 121.953 306.924 121.86C306.831 121.767 306.784 121.647 306.784 121.5V116.04C306.784 115.44 306.637 114.98 306.344 114.66C306.064 114.34 305.651 114.18 305.104 114.18C304.571 114.18 304.151 114.347 303.844 114.68C303.537 115 303.384 115.453 303.384 116.04V121.5C303.384 121.633 303.337 121.753 303.244 121.86C303.151 121.953 303.031 122 302.884 122H300.224ZM317.494 122.2C315.974 122.2 314.74 121.8 313.794 121C312.86 120.187 312.36 119.06 312.294 117.62L312.274 116.82L312.294 116C312.347 114.56 312.847 113.433 313.794 112.62C314.74 111.807 315.974 111.4 317.494 111.4C318.654 111.4 319.627 111.607 320.414 112.02C321.2 112.433 321.787 112.927 322.174 113.5C322.56 114.06 322.767 114.573 322.794 115.04C322.807 115.187 322.76 115.313 322.654 115.42C322.547 115.513 322.42 115.56 322.274 115.56H319.594C319.447 115.56 319.334 115.527 319.254 115.46C319.174 115.393 319.1 115.287 319.034 115.14C318.887 114.767 318.694 114.493 318.454 114.32C318.227 114.147 317.934 114.06 317.574 114.06C316.547 114.06 316.014 114.74 315.974 116.1L315.954 116.86L315.974 117.52C315.987 118.213 316.127 118.727 316.394 119.06C316.66 119.38 317.054 119.54 317.574 119.54C317.96 119.54 318.26 119.46 318.474 119.3C318.7 119.127 318.887 118.847 319.034 118.46C319.1 118.313 319.174 118.207 319.254 118.14C319.334 118.073 319.447 118.04 319.594 118.04H322.274C322.407 118.04 322.527 118.087 322.634 118.18C322.74 118.273 322.794 118.387 322.794 118.52C322.794 118.933 322.607 119.433 322.234 120.02C321.874 120.593 321.294 121.1 320.494 121.54C319.694 121.98 318.694 122.2 317.494 122.2ZM329.389 122.2C327.762 122.2 326.482 121.767 325.549 120.9C324.616 120.02 324.136 118.747 324.109 117.08V116.46C324.162 114.873 324.656 113.633 325.589 112.74C326.522 111.847 327.782 111.4 329.369 111.4C330.516 111.4 331.482 111.633 332.269 112.1C333.069 112.553 333.662 113.187 334.049 114C334.449 114.8 334.649 115.713 334.649 116.74V117.24C334.649 117.387 334.596 117.513 334.489 117.62C334.396 117.713 334.276 117.76 334.129 117.76H327.789V117.88C327.802 118.48 327.942 118.967 328.209 119.34C328.476 119.7 328.856 119.88 329.349 119.88C329.669 119.88 329.922 119.82 330.109 119.7C330.309 119.567 330.496 119.4 330.669 119.2C330.789 119.067 330.882 118.987 330.949 118.96C331.029 118.92 331.149 118.9 331.309 118.9H333.929C334.049 118.9 334.149 118.94 334.229 119.02C334.322 119.087 334.369 119.173 334.369 119.28C334.369 119.627 334.169 120.033 333.769 120.5C333.382 120.967 332.809 121.367 332.049 121.7C331.302 122.033 330.416 122.2 329.389 122.2ZM330.969 115.72V115.68C330.969 115.04 330.829 114.547 330.549 114.2C330.269 113.84 329.876 113.66 329.369 113.66C328.862 113.66 328.469 113.84 328.189 114.2C327.922 114.547 327.789 115.04 327.789 115.68V115.72H330.969Z" fill="#303030"/>
<path d="M105.133 71C104.898 71 104.696 70.9253 104.525 70.776C104.376 70.6267 104.301 70.4347 104.301 70.2V49.432C104.301 49.1973 104.376 49.0053 104.525 48.856C104.696 48.6853 104.898 48.6 105.133 48.6H108.749C109.282 48.6 109.666 48.8347 109.901 49.304L115.405 59.16L120.941 49.304C121.176 48.8347 121.56 48.6 122.093 48.6H125.709C125.944 48.6 126.136 48.6853 126.285 48.856C126.456 49.0053 126.541 49.1973 126.541 49.432V70.2C126.541 70.4347 126.456 70.6267 126.285 70.776C126.136 70.9253 125.944 71 125.709 71H121.645C121.432 71 121.24 70.9253 121.069 70.776C120.92 70.6053 120.845 70.4133 120.845 70.2V58.552L117.389 64.888C117.112 65.3787 116.738 65.624 116.269 65.624H114.541C114.114 65.624 113.741 65.3787 113.421 64.888L109.997 58.552V70.2C109.997 70.4347 109.912 70.6267 109.741 70.776C109.592 70.9253 109.4 71 109.165 71H105.133ZM135.567 71.32C134.436 71.32 133.401 71.1067 132.463 70.68C131.545 70.232 130.82 69.624 130.287 68.856C129.775 68.088 129.519 67.2453 129.519 66.328C129.519 64.8773 130.116 63.704 131.311 62.808C132.527 61.8907 134.191 61.2613 136.303 60.92L140.271 60.312V59.928C140.271 59.1387 140.111 58.5627 139.791 58.2C139.471 57.8373 138.927 57.656 138.159 57.656C137.732 57.656 137.369 57.7307 137.071 57.88C136.793 58.0293 136.473 58.2533 136.111 58.552C135.833 58.7867 135.588 58.9573 135.375 59.064C135.289 59.2133 135.183 59.288 135.055 59.288H131.343C131.129 59.288 130.948 59.224 130.799 59.096C130.671 58.9467 130.617 58.776 130.639 58.584C130.66 58.008 130.948 57.368 131.503 56.664C132.057 55.9387 132.9 55.32 134.031 54.808C135.161 54.296 136.559 54.04 138.223 54.04C140.868 54.04 142.831 54.6267 144.111 55.8C145.391 56.952 146.031 58.52 146.031 60.504V70.2C146.031 70.4133 145.956 70.6053 145.807 70.776C145.657 70.9253 145.465 71 145.231 71H141.295C141.081 71 140.889 70.9253 140.719 70.776C140.569 70.6053 140.495 70.4133 140.495 70.2V69.08C140.025 69.7413 139.375 70.2853 138.543 70.712C137.711 71.1173 136.719 71.32 135.567 71.32ZM137.167 67.544C138.105 67.544 138.863 67.2347 139.439 66.616C140.036 65.9973 140.335 65.1013 140.335 63.928V63.544L137.679 63.992C135.887 64.3333 134.991 64.9733 134.991 65.912C134.991 66.4027 135.193 66.7973 135.599 67.096C136.025 67.3947 136.548 67.544 137.167 67.544ZM163.974 71.32C161.542 71.32 159.569 70.68 158.054 69.4C156.561 68.0987 155.761 66.296 155.654 63.992L155.622 62.712L155.654 61.4C155.74 59.096 156.54 57.2933 158.054 55.992C159.569 54.6907 161.542 54.04 163.974 54.04C165.83 54.04 167.388 54.3707 168.646 55.032C169.905 55.6933 170.844 56.4827 171.462 57.4C172.081 58.296 172.412 59.1173 172.454 59.864C172.476 60.0987 172.401 60.3013 172.23 60.472C172.06 60.6213 171.857 60.696 171.622 60.696H167.334C167.1 60.696 166.918 60.6427 166.79 60.536C166.662 60.4293 166.545 60.2587 166.438 60.024C166.204 59.4267 165.894 58.9893 165.51 58.712C165.148 58.4347 164.678 58.296 164.102 58.296C162.46 58.296 161.606 59.384 161.542 61.56L161.51 62.776L161.542 63.832C161.564 64.9413 161.788 65.7627 162.214 66.296C162.641 66.808 163.27 67.064 164.102 67.064C164.721 67.064 165.201 66.936 165.542 66.68C165.905 66.4027 166.204 65.9547 166.438 65.336C166.545 65.1013 166.662 64.9307 166.79 64.824C166.918 64.7173 167.1 64.664 167.334 64.664H171.622C171.836 64.664 172.028 64.7387 172.198 64.888C172.369 65.0373 172.454 65.2187 172.454 65.432C172.454 66.0933 172.156 66.8933 171.558 67.832C170.982 68.7493 170.054 69.56 168.774 70.264C167.494 70.968 165.894 71.32 163.974 71.32ZM175.999 71C175.786 71 175.594 70.9253 175.423 70.776C175.274 70.6053 175.199 70.4133 175.199 70.2V55.192C175.199 54.9573 175.274 54.7653 175.423 54.616C175.572 54.4453 175.764 54.36 175.999 54.36H179.903C180.138 54.36 180.33 54.4453 180.479 54.616C180.65 54.7653 180.735 54.9573 180.735 55.192V56.408C181.332 55.7467 182.026 55.2453 182.815 54.904C183.626 54.5413 184.522 54.36 185.503 54.36H186.943C187.178 54.36 187.37 54.4347 187.519 54.584C187.668 54.7333 187.743 54.9253 187.743 55.16V58.648C187.743 58.8613 187.668 59.0533 187.519 59.224C187.37 59.3733 187.178 59.448 186.943 59.448H183.711C182.858 59.448 182.196 59.6827 181.727 60.152C181.279 60.6213 181.055 61.2827 181.055 62.136V70.2C181.055 70.4347 180.97 70.6267 180.799 70.776C180.65 70.9253 180.458 71 180.223 71H175.999ZM194.692 71.32C193.561 71.32 192.526 71.1067 191.588 70.68C190.67 70.232 189.945 69.624 189.412 68.856C188.9 68.088 188.644 67.2453 188.644 66.328C188.644 64.8773 189.241 63.704 190.436 62.808C191.652 61.8907 193.316 61.2613 195.428 60.92L199.396 60.312V59.928C199.396 59.1387 199.236 58.5627 198.916 58.2C198.596 57.8373 198.052 57.656 197.284 57.656C196.857 57.656 196.494 57.7307 196.196 57.88C195.918 58.0293 195.598 58.2533 195.236 58.552C194.958 58.7867 194.713 58.9573 194.5 59.064C194.414 59.2133 194.308 59.288 194.18 59.288H190.468C190.254 59.288 190.073 59.224 189.924 59.096C189.796 58.9467 189.742 58.776 189.764 58.584C189.785 58.008 190.073 57.368 190.628 56.664C191.182 55.9387 192.025 55.32 193.156 54.808C194.286 54.296 195.684 54.04 197.348 54.04C199.993 54.04 201.956 54.6267 203.236 55.8C204.516 56.952 205.156 58.52 205.156 60.504V70.2C205.156 70.4133 205.081 70.6053 204.932 70.776C204.782 70.9253 204.59 71 204.356 71H200.42C200.206 71 200.014 70.9253 199.844 70.776C199.694 70.6053 199.62 70.4133 199.62 70.2V69.08C199.15 69.7413 198.5 70.2853 197.668 70.712C196.836 71.1173 195.844 71.32 194.692 71.32ZM196.292 67.544C197.23 67.544 197.988 67.2347 198.564 66.616C199.161 65.9973 199.46 65.1013 199.46 63.928V63.544L196.804 63.992C195.012 64.3333 194.116 64.9733 194.116 65.912C194.116 66.4027 194.318 66.7973 194.724 67.096C195.15 67.3947 195.673 67.544 196.292 67.544ZM209.437 52.056C209.202 52.056 209.01 51.9813 208.861 51.832C208.711 51.6613 208.637 51.4587 208.637 51.224V48.248C208.637 48.0133 208.711 47.8213 208.861 47.672C209.031 47.5013 209.223 47.416 209.437 47.416H213.437C213.671 47.416 213.863 47.5013 214.013 47.672C214.183 47.8213 214.269 48.0133 214.269 48.248V51.224C214.269 51.4587 214.183 51.6613 214.013 51.832C213.863 51.9813 213.671 52.056 213.437 52.056H209.437ZM209.437 71C209.223 71 209.031 70.9253 208.861 70.776C208.711 70.6053 208.637 70.4133 208.637 70.2V55.16C208.637 54.9253 208.711 54.7333 208.861 54.584C209.031 54.4347 209.223 54.36 209.437 54.36H213.437C213.671 54.36 213.863 54.4347 214.013 54.584C214.183 54.7333 214.269 54.9253 214.269 55.16V70.2C214.269 70.4347 214.183 70.6267 214.013 70.776C213.863 70.9253 213.671 71 213.437 71H209.437ZM218.718 71C218.504 71 218.312 70.9253 218.142 70.776C217.992 70.6053 217.918 70.4133 217.918 70.2V55.16C217.918 54.9253 217.992 54.7333 218.142 54.584C218.312 54.4347 218.504 54.36 218.718 54.36H222.654C222.888 54.36 223.08 54.4347 223.23 54.584C223.379 54.7333 223.454 54.9253 223.454 55.16V56.376C224.03 55.672 224.766 55.1067 225.662 54.68C226.579 54.2533 227.624 54.04 228.798 54.04C230.014 54.04 231.091 54.3173 232.03 54.872C232.99 55.4267 233.736 56.248 234.27 57.336C234.824 58.424 235.102 59.736 235.102 61.272V70.2C235.102 70.4133 235.027 70.6053 234.878 70.776C234.728 70.9253 234.536 71 234.302 71H230.046C229.811 71 229.608 70.9253 229.438 70.776C229.288 70.6267 229.214 70.4347 229.214 70.2V61.464C229.214 60.504 228.979 59.768 228.51 59.256C228.062 58.744 227.4 58.488 226.526 58.488C225.672 58.488 225 58.7547 224.51 59.288C224.019 59.8 223.774 60.5253 223.774 61.464V70.2C223.774 70.4133 223.699 70.6053 223.55 70.776C223.4 70.9253 223.208 71 222.974 71H218.718ZM247.185 71C242.662 71 240.401 68.8773 240.401 64.632V58.712H237.873C237.66 58.712 237.468 58.6373 237.297 58.488C237.148 58.3173 237.073 58.1253 237.073 57.912V55.16C237.073 54.9253 237.148 54.7333 237.297 54.584C237.468 54.4347 237.66 54.36 237.873 54.36H240.401V49.08C240.401 48.8453 240.476 48.6533 240.625 48.504C240.796 48.3547 240.988 48.28 241.201 48.28H245.137C245.372 48.28 245.564 48.3547 245.713 48.504C245.862 48.6533 245.937 48.8453 245.937 49.08V54.36H249.937C250.172 54.36 250.364 54.4347 250.513 54.584C250.684 54.7333 250.769 54.9253 250.769 55.16V57.912C250.769 58.1467 250.684 58.3387 250.513 58.488C250.364 58.6373 250.172 58.712 249.937 58.712H245.937V64.152C245.937 64.8987 246.076 65.464 246.353 65.848C246.63 66.232 247.078 66.424 247.697 66.424H250.225C250.46 66.424 250.652 66.5093 250.801 66.68C250.95 66.8293 251.025 67.0213 251.025 67.256V70.2C251.025 70.4133 250.95 70.6053 250.801 70.776C250.652 70.9253 250.46 71 250.225 71H247.185ZM261.413 71.32C258.811 71.32 256.763 70.6267 255.269 69.24C253.776 67.832 253.008 65.7947 252.965 63.128V62.136C253.051 59.5973 253.84 57.6133 255.333 56.184C256.827 54.7547 258.843 54.04 261.381 54.04C263.216 54.04 264.763 54.4133 266.021 55.16C267.301 55.8853 268.251 56.8987 268.869 58.2C269.509 59.48 269.829 60.9413 269.829 62.584V63.384C269.829 63.6187 269.744 63.8213 269.573 63.992C269.424 64.1413 269.232 64.216 268.997 64.216H258.853V64.408C258.875 65.368 259.099 66.1467 259.525 66.744C259.952 67.32 260.56 67.608 261.349 67.608C261.861 67.608 262.267 67.512 262.565 67.32C262.885 67.1067 263.184 66.84 263.461 66.52C263.653 66.3067 263.803 66.1787 263.909 66.136C264.037 66.072 264.229 66.04 264.485 66.04H268.677C268.869 66.04 269.029 66.104 269.157 66.232C269.307 66.3387 269.381 66.4773 269.381 66.648C269.381 67.2027 269.061 67.8533 268.421 68.6C267.803 69.3467 266.885 69.9867 265.669 70.52C264.475 71.0533 263.056 71.32 261.413 71.32ZM263.941 60.952V60.888C263.941 59.864 263.717 59.0747 263.269 58.52C262.821 57.944 262.192 57.656 261.381 57.656C260.571 57.656 259.941 57.944 259.493 58.52C259.067 59.0747 258.853 59.864 258.853 60.888V60.952H263.941Z" fill="#940000"/>
<g filter="url(#filter1_d_934_1114)">
<rect x="17" y="21" width="340" height="10" fill="#940000"/>
</g>
<defs>
<filter id="filter0_d_934_1114" x="-8" y="0" width="390" height="173" filterUnits="userSpaceOnUse" color-interpolation-filters="sRGB">
<feFlood flood-opacity="0" result="BackgroundImageFix"/>
<feColorMatrix in="SourceAlpha" type="matrix" values="0 0 0 0 0 0 0 0 0 0 0 0 0 0 0 0 0 0 127 0" result="hardAlpha"/>
<feMorphology radius="15" operator="dilate" in="SourceAlpha" result="effect1_dropShadow_934_1114"/>
<feOffset dy="4"/>
<feGaussianBlur stdDeviation="5"/>
<feComposite in2="hardAlpha" operator="out"/>
<feColorMatrix type="matrix" values="0 0 0 0 0 0 0 0 0 0 0 0 0 0 0 0 0 0 0.25 0"/>
<feBlend mode="normal" in2="BackgroundImageFix" result="effect1_dropShadow_934_1114"/>
<feBlend mode="normal" in="SourceGraphic" in2="effect1_dropShadow_934_1114" result="shape"/>
</filter>
<filter id="filter1_d_934_1114" x="13" y="21" width="348" height="18" filterUnits="userSpaceOnUse" color-interpolation-filters="sRGB">
<feFlood flood-opacity="0" result="BackgroundImageFix"/>
<feColorMatrix in="SourceAlpha" type="matrix" values="0 0 0 0 0 0 0 0 0 0 0 0 0 0 0 0 0 0 127 0" result="hardAlpha"/>
<feOffset dy="4"/>
<feGaussianBlur stdDeviation="2"/>
<feComposite in2="hardAlpha" operator="out"/>
<feColorMatrix type="matrix" values="0 0 0 0 0 0 0 0 0 0 0 0 0 0 0 0 0 0 0.25 0"/>
<feBlend mode="normal" in2="BackgroundImageFix" result="effect1_dropShadow_934_1114"/>
<feBlend mode="normal" in="SourceGraphic" in2="effect1_dropShadow_934_1114" result="shape"/>
</filter>
</defs>
</svg>
