<svg width="390" height="173" viewBox="0 0 390 173" fill="none" xmlns="http://www.w3.org/2000/svg">
<g filter="url(#filter0_d_1235_400)">
<rect x="25" y="21" width="340" height="123" fill="white"/>
</g>
<path d="M104.696 98C104.55 98 104.423 97.9533 104.316 97.86C104.223 97.7667 104.176 97.6467 104.176 97.5V87.26H100.656C100.51 87.26 100.383 87.2133 100.276 87.12C100.183 87.0267 100.136 86.9067 100.136 86.76V84.52C100.136 84.3733 100.183 84.2533 100.276 84.16C100.383 84.0533 100.51 84 100.656 84H111.516C111.663 84 111.783 84.0533 111.876 84.16C111.983 84.2533 112.036 84.3733 112.036 84.52V86.76C112.036 86.9067 111.983 87.0267 111.876 87.12C111.783 87.2133 111.663 87.26 111.516 87.26H107.996V97.5C107.996 97.6467 107.943 97.7667 107.836 97.86C107.743 97.9533 107.623 98 107.476 98H104.696ZM113.799 98C113.652 98 113.525 97.9533 113.419 97.86C113.325 97.7667 113.279 97.6467 113.279 97.5V84.3C113.279 84.1533 113.325 84.0333 113.419 83.94C113.525 83.8467 113.652 83.8 113.799 83.8H116.499C116.645 83.8 116.765 83.8467 116.859 83.94C116.965 84.0333 117.019 84.1533 117.019 84.3V88.76C117.792 87.8533 118.839 87.4 120.159 87.4C120.919 87.4 121.605 87.5733 122.219 87.92C122.832 88.2667 123.312 88.78 123.659 89.46C124.005 90.14 124.179 90.96 124.179 91.92V97.5C124.179 97.6467 124.125 97.7667 124.019 97.86C123.925 97.9533 123.805 98 123.659 98H120.939C120.805 98 120.685 97.9533 120.579 97.86C120.485 97.7533 120.439 97.6333 120.439 97.5V92.04C120.439 91.4533 120.292 91 119.999 90.68C119.705 90.3467 119.285 90.18 118.739 90.18C118.205 90.18 117.785 90.3467 117.479 90.68C117.172 91 117.019 91.4533 117.019 92.04V97.5C117.019 97.6467 116.965 97.7667 116.859 97.86C116.765 97.9533 116.645 98 116.499 98H113.799ZM131.245 98.2C129.618 98.2 128.338 97.7667 127.405 96.9C126.471 96.02 125.991 94.7467 125.965 93.08V92.46C126.018 90.8733 126.511 89.6333 127.445 88.74C128.378 87.8467 129.638 87.4 131.225 87.4C132.371 87.4 133.338 87.6333 134.125 88.1C134.925 88.5533 135.518 89.1867 135.905 90C136.305 90.8 136.505 91.7133 136.505 92.74V93.24C136.505 93.3867 136.451 93.5133 136.345 93.62C136.251 93.7133 136.131 93.76 135.985 93.76H129.645V93.88C129.658 94.48 129.798 94.9667 130.065 95.34C130.331 95.7 130.711 95.88 131.205 95.88C131.525 95.88 131.778 95.82 131.965 95.7C132.165 95.5667 132.351 95.4 132.525 95.2C132.645 95.0667 132.738 94.9867 132.805 94.96C132.885 94.92 133.005 94.9 133.165 94.9H135.785C135.905 94.9 136.005 94.94 136.085 95.02C136.178 95.0867 136.225 95.1733 136.225 95.28C136.225 95.6267 136.025 96.0333 135.625 96.5C135.238 96.9667 134.665 97.3667 133.905 97.7C133.158 98.0333 132.271 98.2 131.245 98.2ZM132.825 91.72V91.68C132.825 91.04 132.685 90.5467 132.405 90.2C132.125 89.84 131.731 89.66 131.225 89.66C130.718 89.66 130.325 89.84 130.045 90.2C129.778 90.5467 129.645 91.04 129.645 91.68V91.72H132.825ZM143.217 98C143.084 98 142.964 97.9533 142.857 97.86C142.764 97.7533 142.717 97.6333 142.717 97.5V84.5C142.717 84.3533 142.764 84.2333 142.857 84.14C142.964 84.0467 143.084 84 143.217 84H146.077C146.224 84 146.344 84.0467 146.437 84.14C146.531 84.2333 146.577 84.3533 146.577 84.5V97.5C146.577 97.6333 146.531 97.7533 146.437 97.86C146.344 97.9533 146.224 98 146.077 98H143.217ZM149.579 98C149.446 98 149.326 97.9533 149.219 97.86C149.126 97.7533 149.079 97.6333 149.079 97.5V88.1C149.079 87.9533 149.126 87.8333 149.219 87.74C149.326 87.6467 149.446 87.6 149.579 87.6H152.039C152.186 87.6 152.306 87.6467 152.399 87.74C152.493 87.8333 152.539 87.9533 152.539 88.1V88.86C152.899 88.42 153.359 88.0667 153.919 87.8C154.493 87.5333 155.146 87.4 155.879 87.4C156.639 87.4 157.313 87.5733 157.899 87.92C158.499 88.2667 158.966 88.78 159.299 89.46C159.646 90.14 159.819 90.96 159.819 91.92V97.5C159.819 97.6333 159.773 97.7533 159.679 97.86C159.586 97.9533 159.466 98 159.319 98H156.659C156.513 98 156.386 97.9533 156.279 97.86C156.186 97.7667 156.139 97.6467 156.139 97.5V92.04C156.139 91.44 155.993 90.98 155.699 90.66C155.419 90.34 155.006 90.18 154.459 90.18C153.926 90.18 153.506 90.3467 153.199 90.68C152.893 91 152.739 91.4533 152.739 92.04V97.5C152.739 97.6333 152.693 97.7533 152.599 97.86C152.506 97.9533 152.386 98 152.239 98H149.579ZM167.371 98C164.545 98 163.131 96.6733 163.131 94.02V90.32H161.551C161.418 90.32 161.298 90.2733 161.191 90.18C161.098 90.0733 161.051 89.9533 161.051 89.82V88.1C161.051 87.9533 161.098 87.8333 161.191 87.74C161.298 87.6467 161.418 87.6 161.551 87.6H163.131V84.3C163.131 84.1533 163.178 84.0333 163.271 83.94C163.378 83.8467 163.498 83.8 163.631 83.8H166.091C166.238 83.8 166.358 83.8467 166.451 83.94C166.545 84.0333 166.591 84.1533 166.591 84.3V87.6H169.091C169.238 87.6 169.358 87.6467 169.451 87.74C169.558 87.8333 169.611 87.9533 169.611 88.1V89.82C169.611 89.9667 169.558 90.0867 169.451 90.18C169.358 90.2733 169.238 90.32 169.091 90.32H166.591V93.72C166.591 94.1867 166.678 94.54 166.851 94.78C167.025 95.02 167.305 95.14 167.691 95.14H169.271C169.418 95.14 169.538 95.1933 169.631 95.3C169.725 95.3933 169.771 95.5133 169.771 95.66V97.5C169.771 97.6333 169.725 97.7533 169.631 97.86C169.538 97.9533 169.418 98 169.271 98H167.371ZM176.264 98.2C174.637 98.2 173.357 97.7667 172.424 96.9C171.491 96.02 171.011 94.7467 170.984 93.08V92.46C171.037 90.8733 171.531 89.6333 172.464 88.74C173.397 87.8467 174.657 87.4 176.244 87.4C177.391 87.4 178.357 87.6333 179.144 88.1C179.944 88.5533 180.537 89.1867 180.924 90C181.324 90.8 181.524 91.7133 181.524 92.74V93.24C181.524 93.3867 181.471 93.5133 181.364 93.62C181.271 93.7133 181.151 93.76 181.004 93.76H174.664V93.88C174.677 94.48 174.817 94.9667 175.084 95.34C175.351 95.7 175.731 95.88 176.224 95.88C176.544 95.88 176.797 95.82 176.984 95.7C177.184 95.5667 177.371 95.4 177.544 95.2C177.664 95.0667 177.757 94.9867 177.824 94.96C177.904 94.92 178.024 94.9 178.184 94.9H180.804C180.924 94.9 181.024 94.94 181.104 95.02C181.197 95.0867 181.244 95.1733 181.244 95.28C181.244 95.6267 181.044 96.0333 180.644 96.5C180.257 96.9667 179.684 97.3667 178.924 97.7C178.177 98.0333 177.291 98.2 176.264 98.2ZM177.844 91.72V91.68C177.844 91.04 177.704 90.5467 177.424 90.2C177.144 89.84 176.751 89.66 176.244 89.66C175.737 89.66 175.344 89.84 175.064 90.2C174.797 90.5467 174.664 91.04 174.664 91.68V91.72H177.844ZM183.818 98C183.684 98 183.564 97.9533 183.458 97.86C183.364 97.7533 183.318 97.6333 183.318 97.5V88.12C183.318 87.9733 183.364 87.8533 183.458 87.76C183.551 87.6533 183.671 87.6 183.818 87.6H186.258C186.404 87.6 186.524 87.6533 186.618 87.76C186.724 87.8533 186.778 87.9733 186.778 88.12V88.88C187.151 88.4667 187.584 88.1533 188.078 87.94C188.584 87.7133 189.144 87.6 189.758 87.6H190.658C190.804 87.6 190.924 87.6467 191.018 87.74C191.111 87.8333 191.158 87.9533 191.158 88.1V90.28C191.158 90.4133 191.111 90.5333 191.018 90.64C190.924 90.7333 190.804 90.78 190.658 90.78H188.638C188.104 90.78 187.691 90.9267 187.398 91.22C187.118 91.5133 186.978 91.9267 186.978 92.46V97.5C186.978 97.6467 186.924 97.7667 186.818 97.86C186.724 97.9533 186.604 98 186.458 98H183.818ZM193.036 98C192.903 98 192.783 97.9533 192.676 97.86C192.583 97.7533 192.536 97.6333 192.536 97.5V88.1C192.536 87.9533 192.583 87.8333 192.676 87.74C192.783 87.6467 192.903 87.6 193.036 87.6H195.496C195.643 87.6 195.763 87.6467 195.856 87.74C195.95 87.8333 195.996 87.9533 195.996 88.1V88.86C196.356 88.42 196.816 88.0667 197.376 87.8C197.95 87.5333 198.603 87.4 199.336 87.4C200.096 87.4 200.77 87.5733 201.356 87.92C201.956 88.2667 202.423 88.78 202.756 89.46C203.103 90.14 203.276 90.96 203.276 91.92V97.5C203.276 97.6333 203.23 97.7533 203.136 97.86C203.043 97.9533 202.923 98 202.776 98H200.116C199.97 98 199.843 97.9533 199.736 97.86C199.643 97.7667 199.596 97.6467 199.596 97.5V92.04C199.596 91.44 199.45 90.98 199.156 90.66C198.876 90.34 198.463 90.18 197.916 90.18C197.383 90.18 196.963 90.3467 196.656 90.68C196.35 91 196.196 91.4533 196.196 92.04V97.5C196.196 97.6333 196.15 97.7533 196.056 97.86C195.963 97.9533 195.843 98 195.696 98H193.036ZM210.346 98.2C208.72 98.2 207.44 97.7667 206.506 96.9C205.573 96.02 205.093 94.7467 205.066 93.08V92.46C205.12 90.8733 205.613 89.6333 206.546 88.74C207.48 87.8467 208.74 87.4 210.326 87.4C211.473 87.4 212.44 87.6333 213.226 88.1C214.026 88.5533 214.62 89.1867 215.006 90C215.406 90.8 215.606 91.7133 215.606 92.74V93.24C215.606 93.3867 215.553 93.5133 215.446 93.62C215.353 93.7133 215.233 93.76 215.086 93.76H208.746V93.88C208.76 94.48 208.9 94.9667 209.166 95.34C209.433 95.7 209.813 95.88 210.306 95.88C210.626 95.88 210.88 95.82 211.066 95.7C211.266 95.5667 211.453 95.4 211.626 95.2C211.746 95.0667 211.84 94.9867 211.906 94.96C211.986 94.92 212.106 94.9 212.266 94.9H214.886C215.006 94.9 215.106 94.94 215.186 95.02C215.28 95.0867 215.326 95.1733 215.326 95.28C215.326 95.6267 215.126 96.0333 214.726 96.5C214.34 96.9667 213.766 97.3667 213.006 97.7C212.26 98.0333 211.373 98.2 210.346 98.2ZM211.926 91.72V91.68C211.926 91.04 211.786 90.5467 211.506 90.2C211.226 89.84 210.833 89.66 210.326 89.66C209.82 89.66 209.426 89.84 209.146 90.2C208.88 90.5467 208.746 91.04 208.746 91.68V91.72H211.926ZM222.84 98C220.014 98 218.6 96.6733 218.6 94.02V90.32H217.02C216.887 90.32 216.767 90.2733 216.66 90.18C216.567 90.0733 216.52 89.9533 216.52 89.82V88.1C216.52 87.9533 216.567 87.8333 216.66 87.74C216.767 87.6467 216.887 87.6 217.02 87.6H218.6V84.3C218.6 84.1533 218.647 84.0333 218.74 83.94C218.847 83.8467 218.967 83.8 219.1 83.8H221.56C221.707 83.8 221.827 83.8467 221.92 83.94C222.014 84.0333 222.06 84.1533 222.06 84.3V87.6H224.56C224.707 87.6 224.827 87.6467 224.92 87.74C225.027 87.8333 225.08 87.9533 225.08 88.1V89.82C225.08 89.9667 225.027 90.0867 224.92 90.18C224.827 90.2733 224.707 90.32 224.56 90.32H222.06V93.72C222.06 94.1867 222.147 94.54 222.32 94.78C222.494 95.02 222.774 95.14 223.16 95.14H224.74C224.887 95.14 225.007 95.1933 225.1 95.3C225.194 95.3933 225.24 95.5133 225.24 95.66V97.5C225.24 97.6333 225.194 97.7533 225.1 97.86C225.007 97.9533 224.887 98 224.74 98H222.84ZM233.375 98C233.149 98 232.962 97.94 232.815 97.82C232.682 97.6867 232.602 97.5267 232.575 97.34L230.435 84.54C230.422 84.5133 230.415 84.4733 230.415 84.42C230.415 84.3133 230.455 84.22 230.535 84.14C230.629 84.0467 230.729 84 230.835 84H233.455C233.842 84 234.055 84.1533 234.095 84.46L235.315 92.02L236.695 87.64C236.802 87.28 237.022 87.1 237.355 87.1H238.855C239.189 87.1 239.409 87.28 239.515 87.64L240.895 92L242.135 84.46C242.162 84.3 242.222 84.1867 242.315 84.12C242.409 84.04 242.555 84 242.755 84H245.375C245.495 84 245.595 84.0467 245.675 84.14C245.755 84.22 245.795 84.3133 245.795 84.42V84.54L243.655 97.34C243.629 97.5267 243.542 97.6867 243.395 97.82C243.249 97.94 243.069 98 242.855 98H240.835C240.622 98 240.455 97.9467 240.335 97.84C240.215 97.7333 240.135 97.6133 240.095 97.48L238.115 91.94L236.135 97.48C236.082 97.6133 235.995 97.7333 235.875 97.84C235.755 97.9467 235.589 98 235.375 98H233.375ZM252.224 98.2C250.544 98.2 249.251 97.8133 248.344 97.04C247.451 96.2533 246.964 95.14 246.884 93.7C246.871 93.5267 246.864 93.2267 246.864 92.8C246.864 92.3733 246.871 92.0733 246.884 91.9C246.964 90.4867 247.464 89.3867 248.384 88.6C249.317 87.8 250.597 87.4 252.224 87.4C253.851 87.4 255.124 87.8 256.044 88.6C256.977 89.3867 257.484 90.4867 257.564 91.9C257.591 92.2467 257.604 92.5467 257.604 92.8C257.604 93.0533 257.591 93.3533 257.564 93.7C257.484 95.14 256.991 96.2533 256.084 97.04C255.191 97.8133 253.904 98.2 252.224 98.2ZM252.224 95.68C252.771 95.68 253.177 95.5133 253.444 95.18C253.711 94.8333 253.864 94.3067 253.904 93.6C253.917 93.4667 253.924 93.2 253.924 92.8C253.924 92.4 253.917 92.1333 253.904 92C253.864 91.3067 253.711 90.7867 253.444 90.44C253.177 90.0933 252.771 89.92 252.224 89.92C251.677 89.92 251.271 90.0933 251.004 90.44C250.737 90.7867 250.584 91.3067 250.544 92L250.524 92.8L250.544 93.6C250.584 94.3067 250.737 94.8333 251.004 95.18C251.271 95.5133 251.677 95.68 252.224 95.68ZM260.009 98C259.876 98 259.756 97.9533 259.649 97.86C259.556 97.7533 259.509 97.6333 259.509 97.5V88.12C259.509 87.9733 259.556 87.8533 259.649 87.76C259.742 87.6533 259.862 87.6 260.009 87.6H262.449C262.596 87.6 262.716 87.6533 262.809 87.76C262.916 87.8533 262.969 87.9733 262.969 88.12V88.88C263.342 88.4667 263.776 88.1533 264.269 87.94C264.776 87.7133 265.336 87.6 265.949 87.6H266.849C266.996 87.6 267.116 87.6467 267.209 87.74C267.302 87.8333 267.349 87.9533 267.349 88.1V90.28C267.349 90.4133 267.302 90.5333 267.209 90.64C267.116 90.7333 266.996 90.78 266.849 90.78H264.829C264.296 90.78 263.882 90.9267 263.589 91.22C263.309 91.5133 263.169 91.9267 263.169 92.46V97.5C263.169 97.6467 263.116 97.7667 263.009 97.86C262.916 97.9533 262.796 98 262.649 98H260.009ZM269.248 98C269.101 98 268.975 97.9533 268.868 97.86C268.775 97.7667 268.728 97.6467 268.728 97.5V84.3C268.728 84.1533 268.775 84.0333 268.868 83.94C268.975 83.8467 269.101 83.8 269.248 83.8H271.748C271.895 83.8 272.015 83.8467 272.108 83.94C272.201 84.0333 272.248 84.1533 272.248 84.3V97.5C272.248 97.6333 272.201 97.7533 272.108 97.86C272.015 97.9533 271.895 98 271.748 98H269.248ZM278.429 98.2C277.135 98.2 276.115 97.7933 275.369 96.98C274.635 96.1667 274.242 95.0067 274.189 93.5L274.169 92.8L274.189 92.08C274.242 90.6267 274.642 89.4867 275.389 88.66C276.135 87.82 277.149 87.4 278.429 87.4C279.629 87.4 280.595 87.7867 281.329 88.56V84.3C281.329 84.1533 281.375 84.0333 281.469 83.94C281.575 83.8467 281.695 83.8 281.829 83.8H284.409C284.555 83.8 284.675 83.8467 284.769 83.94C284.875 84.0333 284.929 84.1533 284.929 84.3V97.5C284.929 97.6467 284.875 97.7667 284.769 97.86C284.675 97.9533 284.555 98 284.409 98H282.029C281.895 98 281.775 97.9533 281.669 97.86C281.575 97.7533 281.529 97.6333 281.529 97.5V96.88C280.809 97.76 279.775 98.2 278.429 98.2ZM279.589 95.42C280.162 95.42 280.589 95.24 280.869 94.88C281.149 94.5067 281.302 94.04 281.329 93.48C281.355 93.1067 281.369 92.8533 281.369 92.72C281.369 92.5733 281.355 92.3267 281.329 91.98C281.302 91.46 281.142 91.0333 280.849 90.7C280.569 90.3533 280.149 90.18 279.589 90.18C278.989 90.18 278.555 90.36 278.289 90.72C278.035 91.0667 277.889 91.5533 277.849 92.18L277.829 92.8L277.849 93.42C277.889 94.0467 278.035 94.54 278.289 94.9C278.555 95.2467 278.989 95.42 279.589 95.42ZM80.292 122C80.1454 122 80.0187 121.953 79.912 121.86C79.8187 121.767 79.772 121.647 79.772 121.5V111.26H76.252C76.1054 111.26 75.9787 111.213 75.872 111.12C75.7787 111.027 75.732 110.907 75.732 110.76V108.52C75.732 108.373 75.7787 108.253 75.872 108.16C75.9787 108.053 76.1054 108 76.252 108H87.112C87.2587 108 87.3787 108.053 87.472 108.16C87.5787 108.253 87.632 108.373 87.632 108.52V110.76C87.632 110.907 87.5787 111.027 87.472 111.12C87.3787 111.213 87.2587 111.26 87.112 111.26H83.592V121.5C83.592 121.647 83.5387 121.767 83.432 121.86C83.3387 121.953 83.2187 122 83.072 122H80.292ZM89.3944 122C89.2477 122 89.121 121.953 89.0144 121.86C88.921 121.767 88.8744 121.647 88.8744 121.5V108.3C88.8744 108.153 88.921 108.033 89.0144 107.94C89.121 107.847 89.2477 107.8 89.3944 107.8H92.0944C92.241 107.8 92.361 107.847 92.4544 107.94C92.561 108.033 92.6144 108.153 92.6144 108.3V112.76C93.3877 111.853 94.4344 111.4 95.7544 111.4C96.5144 111.4 97.201 111.573 97.8144 111.92C98.4277 112.267 98.9077 112.78 99.2544 113.46C99.601 114.14 99.7744 114.96 99.7744 115.92V121.5C99.7744 121.647 99.721 121.767 99.6144 121.86C99.521 121.953 99.401 122 99.2544 122H96.5344C96.401 122 96.281 121.953 96.1744 121.86C96.081 121.753 96.0344 121.633 96.0344 121.5V116.04C96.0344 115.453 95.8877 115 95.5944 114.68C95.301 114.347 94.881 114.18 94.3344 114.18C93.801 114.18 93.381 114.347 93.0744 114.68C92.7677 115 92.6144 115.453 92.6144 116.04V121.5C92.6144 121.647 92.561 121.767 92.4544 121.86C92.361 121.953 92.241 122 92.0944 122H89.3944ZM106.84 122.2C105.214 122.2 103.934 121.767 103 120.9C102.067 120.02 101.587 118.747 101.56 117.08V116.46C101.614 114.873 102.107 113.633 103.04 112.74C103.974 111.847 105.234 111.4 106.82 111.4C107.967 111.4 108.934 111.633 109.72 112.1C110.52 112.553 111.114 113.187 111.5 114C111.9 114.8 112.1 115.713 112.1 116.74V117.24C112.1 117.387 112.047 117.513 111.94 117.62C111.847 117.713 111.727 117.76 111.58 117.76H105.24V117.88C105.254 118.48 105.394 118.967 105.66 119.34C105.927 119.7 106.307 119.88 106.8 119.88C107.12 119.88 107.374 119.82 107.56 119.7C107.76 119.567 107.947 119.4 108.12 119.2C108.24 119.067 108.334 118.987 108.4 118.96C108.48 118.92 108.6 118.9 108.76 118.9H111.38C111.5 118.9 111.6 118.94 111.68 119.02C111.774 119.087 111.82 119.173 111.82 119.28C111.82 119.627 111.62 120.033 111.22 120.5C110.834 120.967 110.26 121.367 109.5 121.7C108.754 122.033 107.867 122.2 106.84 122.2ZM108.42 115.72V115.68C108.42 115.04 108.28 114.547 108 114.2C107.72 113.84 107.327 113.66 106.82 113.66C106.314 113.66 105.92 113.84 105.64 114.2C105.374 114.547 105.24 115.04 105.24 115.68V115.72H108.42ZM118.593 110.16C118.446 110.16 118.326 110.113 118.233 110.02C118.14 109.913 118.093 109.787 118.093 109.64V107.78C118.093 107.633 118.14 107.513 118.233 107.42C118.34 107.313 118.46 107.26 118.593 107.26H121.093C121.24 107.26 121.36 107.313 121.453 107.42C121.56 107.513 121.613 107.633 121.613 107.78V109.64C121.613 109.787 121.56 109.913 121.453 110.02C121.36 110.113 121.24 110.16 121.093 110.16H118.593ZM118.593 122C118.46 122 118.34 121.953 118.233 121.86C118.14 121.753 118.093 121.633 118.093 121.5V112.1C118.093 111.953 118.14 111.833 118.233 111.74C118.34 111.647 118.46 111.6 118.593 111.6H121.093C121.24 111.6 121.36 111.647 121.453 111.74C121.56 111.833 121.613 111.953 121.613 112.1V121.5C121.613 121.647 121.56 121.767 121.453 121.86C121.36 121.953 121.24 122 121.093 122H118.593ZM124.394 122C124.261 122 124.141 121.953 124.034 121.86C123.941 121.753 123.894 121.633 123.894 121.5V112.1C123.894 111.953 123.941 111.833 124.034 111.74C124.141 111.647 124.261 111.6 124.394 111.6H126.854C127.001 111.6 127.121 111.647 127.214 111.74C127.307 111.833 127.354 111.953 127.354 112.1V112.86C127.714 112.42 128.174 112.067 128.734 111.8C129.307 111.533 129.961 111.4 130.694 111.4C131.454 111.4 132.127 111.573 132.714 111.92C133.314 112.267 133.781 112.78 134.114 113.46C134.461 114.14 134.634 114.96 134.634 115.92V121.5C134.634 121.633 134.587 121.753 134.494 121.86C134.401 121.953 134.281 122 134.134 122H131.474C131.327 122 131.201 121.953 131.094 121.86C131.001 121.767 130.954 121.647 130.954 121.5V116.04C130.954 115.44 130.807 114.98 130.514 114.66C130.234 114.34 129.821 114.18 129.274 114.18C128.741 114.18 128.321 114.347 128.014 114.68C127.707 115 127.554 115.453 127.554 116.04V121.5C127.554 121.633 127.507 121.753 127.414 121.86C127.321 121.953 127.201 122 127.054 122H124.394ZM141.664 122.2C140.144 122.2 138.91 121.8 137.964 121C137.03 120.187 136.53 119.06 136.464 117.62L136.444 116.82L136.464 116C136.517 114.56 137.017 113.433 137.964 112.62C138.91 111.807 140.144 111.4 141.664 111.4C142.824 111.4 143.797 111.607 144.584 112.02C145.37 112.433 145.957 112.927 146.344 113.5C146.73 114.06 146.937 114.573 146.964 115.04C146.977 115.187 146.93 115.313 146.824 115.42C146.717 115.513 146.59 115.56 146.444 115.56H143.764C143.617 115.56 143.504 115.527 143.424 115.46C143.344 115.393 143.27 115.287 143.204 115.14C143.057 114.767 142.864 114.493 142.624 114.32C142.397 114.147 142.104 114.06 141.744 114.06C140.717 114.06 140.184 114.74 140.144 116.1L140.124 116.86L140.144 117.52C140.157 118.213 140.297 118.727 140.564 119.06C140.83 119.38 141.224 119.54 141.744 119.54C142.13 119.54 142.43 119.46 142.644 119.3C142.87 119.127 143.057 118.847 143.204 118.46C143.27 118.313 143.344 118.207 143.424 118.14C143.504 118.073 143.617 118.04 143.764 118.04H146.444C146.577 118.04 146.697 118.087 146.804 118.18C146.91 118.273 146.964 118.387 146.964 118.52C146.964 118.933 146.777 119.433 146.404 120.02C146.044 120.593 145.464 121.1 144.664 121.54C143.864 121.98 142.864 122.2 141.664 122.2ZM149.179 122C149.046 122 148.926 121.953 148.819 121.86C148.726 121.753 148.679 121.633 148.679 121.5V112.12C148.679 111.973 148.726 111.853 148.819 111.76C148.912 111.653 149.032 111.6 149.179 111.6H151.619C151.766 111.6 151.886 111.653 151.979 111.76C152.086 111.853 152.139 111.973 152.139 112.12V112.88C152.512 112.467 152.946 112.153 153.439 111.94C153.946 111.713 154.506 111.6 155.119 111.6H156.019C156.166 111.6 156.286 111.647 156.379 111.74C156.472 111.833 156.519 111.953 156.519 112.1V114.28C156.519 114.413 156.472 114.533 156.379 114.64C156.286 114.733 156.166 114.78 156.019 114.78H153.999C153.466 114.78 153.052 114.927 152.759 115.22C152.479 115.513 152.339 115.927 152.339 116.46V121.5C152.339 121.647 152.286 121.767 152.179 121.86C152.086 121.953 151.966 122 151.819 122H149.179ZM162.7 122.2C161.073 122.2 159.793 121.767 158.86 120.9C157.926 120.02 157.446 118.747 157.42 117.08V116.46C157.473 114.873 157.966 113.633 158.9 112.74C159.833 111.847 161.093 111.4 162.68 111.4C163.826 111.4 164.793 111.633 165.58 112.1C166.38 112.553 166.973 113.187 167.36 114C167.76 114.8 167.96 115.713 167.96 116.74V117.24C167.96 117.387 167.906 117.513 167.8 117.62C167.706 117.713 167.586 117.76 167.44 117.76H161.1V117.88C161.113 118.48 161.253 118.967 161.52 119.34C161.786 119.7 162.166 119.88 162.66 119.88C162.98 119.88 163.233 119.82 163.42 119.7C163.62 119.567 163.806 119.4 163.98 119.2C164.1 119.067 164.193 118.987 164.26 118.96C164.34 118.92 164.46 118.9 164.62 118.9H167.24C167.36 118.9 167.46 118.94 167.54 119.02C167.633 119.087 167.68 119.173 167.68 119.28C167.68 119.627 167.48 120.033 167.08 120.5C166.693 120.967 166.12 121.367 165.36 121.7C164.613 122.033 163.726 122.2 162.7 122.2ZM164.28 115.72V115.68C164.28 115.04 164.14 114.547 163.86 114.2C163.58 113.84 163.186 113.66 162.68 113.66C162.173 113.66 161.78 113.84 161.5 114.2C161.233 114.547 161.1 115.04 161.1 115.68V115.72H164.28ZM172.893 122.2C172.187 122.2 171.54 122.067 170.953 121.8C170.38 121.52 169.927 121.14 169.593 120.66C169.273 120.18 169.113 119.653 169.113 119.08C169.113 118.173 169.487 117.44 170.233 116.88C170.993 116.307 172.033 115.913 173.353 115.7L175.833 115.32V115.08C175.833 114.587 175.733 114.227 175.533 114C175.333 113.773 174.993 113.66 174.513 113.66C174.247 113.66 174.02 113.707 173.833 113.8C173.66 113.893 173.46 114.033 173.233 114.22C173.06 114.367 172.907 114.473 172.773 114.54C172.72 114.633 172.653 114.68 172.573 114.68H170.253C170.12 114.68 170.007 114.64 169.913 114.56C169.833 114.467 169.8 114.36 169.813 114.24C169.827 113.88 170.007 113.48 170.353 113.04C170.7 112.587 171.227 112.2 171.933 111.88C172.64 111.56 173.513 111.4 174.553 111.4C176.207 111.4 177.433 111.767 178.233 112.5C179.033 113.22 179.433 114.2 179.433 115.44V121.5C179.433 121.633 179.387 121.753 179.293 121.86C179.2 121.953 179.08 122 178.933 122H176.473C176.34 122 176.22 121.953 176.113 121.86C176.02 121.753 175.973 121.633 175.973 121.5V120.8C175.68 121.213 175.273 121.553 174.753 121.82C174.233 122.073 173.613 122.2 172.893 122.2ZM173.893 119.84C174.48 119.84 174.953 119.647 175.313 119.26C175.687 118.873 175.873 118.313 175.873 117.58V117.34L174.213 117.62C173.093 117.833 172.533 118.233 172.533 118.82C172.533 119.127 172.66 119.373 172.913 119.56C173.18 119.747 173.507 119.84 173.893 119.84ZM185.969 122.2C184.875 122.2 183.962 122.047 183.229 121.74C182.495 121.433 181.949 121.067 181.589 120.64C181.242 120.213 181.069 119.827 181.069 119.48C181.069 119.347 181.115 119.24 181.209 119.16C181.315 119.067 181.429 119.02 181.549 119.02H183.969C184.049 119.02 184.115 119.047 184.169 119.1C184.395 119.247 184.522 119.333 184.549 119.36C184.802 119.547 185.035 119.693 185.249 119.8C185.475 119.893 185.742 119.94 186.049 119.94C186.409 119.94 186.702 119.873 186.929 119.74C187.169 119.593 187.289 119.393 187.289 119.14C187.289 118.927 187.222 118.753 187.089 118.62C186.969 118.487 186.729 118.36 186.369 118.24C186.022 118.107 185.489 117.973 184.769 117.84C182.462 117.373 181.309 116.307 181.309 114.64C181.309 114.093 181.482 113.573 181.829 113.08C182.189 112.573 182.709 112.167 183.389 111.86C184.082 111.553 184.909 111.4 185.869 111.4C186.842 111.4 187.682 111.553 188.389 111.86C189.109 112.153 189.655 112.513 190.029 112.94C190.402 113.353 190.589 113.733 190.589 114.08C190.589 114.2 190.542 114.307 190.449 114.4C190.369 114.493 190.269 114.54 190.149 114.54H187.949C187.829 114.54 187.735 114.513 187.669 114.46C187.509 114.38 187.349 114.28 187.189 114.16C186.949 114 186.735 113.88 186.549 113.8C186.375 113.707 186.149 113.66 185.869 113.66C185.535 113.66 185.275 113.733 185.089 113.88C184.902 114.027 184.809 114.213 184.809 114.44C184.809 114.64 184.862 114.807 184.969 114.94C185.089 115.06 185.322 115.18 185.669 115.3C186.029 115.42 186.569 115.547 187.289 115.68C188.595 115.907 189.542 116.313 190.129 116.9C190.729 117.473 191.029 118.147 191.029 118.92C191.029 119.92 190.582 120.72 189.689 121.32C188.809 121.907 187.569 122.2 185.969 122.2ZM197.622 122.2C195.995 122.2 194.715 121.767 193.782 120.9C192.848 120.02 192.368 118.747 192.342 117.08V116.46C192.395 114.873 192.888 113.633 193.822 112.74C194.755 111.847 196.015 111.4 197.602 111.4C198.748 111.4 199.715 111.633 200.502 112.1C201.302 112.553 201.895 113.187 202.282 114C202.682 114.8 202.882 115.713 202.882 116.74V117.24C202.882 117.387 202.828 117.513 202.722 117.62C202.628 117.713 202.508 117.76 202.362 117.76H196.022V117.88C196.035 118.48 196.175 118.967 196.442 119.34C196.708 119.7 197.088 119.88 197.582 119.88C197.902 119.88 198.155 119.82 198.342 119.7C198.542 119.567 198.728 119.4 198.902 119.2C199.022 119.067 199.115 118.987 199.182 118.96C199.262 118.92 199.382 118.9 199.542 118.9H202.162C202.282 118.9 202.382 118.94 202.462 119.02C202.555 119.087 202.602 119.173 202.602 119.28C202.602 119.627 202.402 120.033 202.002 120.5C201.615 120.967 201.042 121.367 200.282 121.7C199.535 122.033 198.648 122.2 197.622 122.2ZM199.202 115.72V115.68C199.202 115.04 199.062 114.547 198.782 114.2C198.502 113.84 198.108 113.66 197.602 113.66C197.095 113.66 196.702 113.84 196.422 114.2C196.155 114.547 196.022 115.04 196.022 115.68V115.72H199.202ZM209.374 110.16C209.228 110.16 209.108 110.113 209.014 110.02C208.921 109.913 208.874 109.787 208.874 109.64V107.78C208.874 107.633 208.921 107.513 209.014 107.42C209.121 107.313 209.241 107.26 209.374 107.26H211.874C212.021 107.26 212.141 107.313 212.234 107.42C212.341 107.513 212.394 107.633 212.394 107.78V109.64C212.394 109.787 212.341 109.913 212.234 110.02C212.141 110.113 212.021 110.16 211.874 110.16H209.374ZM209.374 122C209.241 122 209.121 121.953 209.014 121.86C208.921 121.753 208.874 121.633 208.874 121.5V112.1C208.874 111.953 208.921 111.833 209.014 111.74C209.121 111.647 209.241 111.6 209.374 111.6H211.874C212.021 111.6 212.141 111.647 212.234 111.74C212.341 111.833 212.394 111.953 212.394 112.1V121.5C212.394 121.647 212.341 121.767 212.234 121.86C212.141 121.953 212.021 122 211.874 122H209.374ZM215.175 122C215.042 122 214.922 121.953 214.815 121.86C214.722 121.753 214.675 121.633 214.675 121.5V112.1C214.675 111.953 214.722 111.833 214.815 111.74C214.922 111.647 215.042 111.6 215.175 111.6H217.635C217.782 111.6 217.902 111.647 217.995 111.74C218.088 111.833 218.135 111.953 218.135 112.1V112.86C218.495 112.42 218.955 112.067 219.515 111.8C220.088 111.533 220.742 111.4 221.475 111.4C222.235 111.4 222.908 111.573 223.495 111.92C224.095 112.267 224.562 112.78 224.895 113.46C225.242 114.14 225.415 114.96 225.415 115.92V121.5C225.415 121.633 225.368 121.753 225.275 121.86C225.182 121.953 225.062 122 224.915 122H222.255C222.108 122 221.982 121.953 221.875 121.86C221.782 121.767 221.735 121.647 221.735 121.5V116.04C221.735 115.44 221.588 114.98 221.295 114.66C221.015 114.34 220.602 114.18 220.055 114.18C219.522 114.18 219.102 114.347 218.795 114.68C218.488 115 218.335 115.453 218.335 116.04V121.5C218.335 121.633 218.288 121.753 218.195 121.86C218.102 121.953 217.982 122 217.835 122H215.175ZM235.016 122C234.83 122 234.683 121.96 234.576 121.88C234.483 121.787 234.403 121.66 234.336 121.5L230.536 112.22C230.523 112.18 230.516 112.127 230.516 112.06C230.516 111.927 230.556 111.82 230.636 111.74C230.73 111.647 230.843 111.6 230.976 111.6H233.356C233.636 111.6 233.836 111.74 233.956 112.02L236.136 118L238.336 112.02C238.376 111.913 238.443 111.82 238.536 111.74C238.63 111.647 238.756 111.6 238.916 111.6H241.316C241.436 111.6 241.543 111.647 241.636 111.74C241.73 111.82 241.776 111.927 241.776 112.06L241.736 112.22L237.956 121.5C237.89 121.66 237.803 121.787 237.696 121.88C237.59 121.96 237.443 122 237.256 122H235.016ZM243.769 110.16C243.622 110.16 243.502 110.113 243.409 110.02C243.316 109.913 243.269 109.787 243.269 109.64V107.78C243.269 107.633 243.316 107.513 243.409 107.42C243.516 107.313 243.636 107.26 243.769 107.26H246.269C246.416 107.26 246.536 107.313 246.629 107.42C246.736 107.513 246.789 107.633 246.789 107.78V109.64C246.789 109.787 246.736 109.913 246.629 110.02C246.536 110.113 246.416 110.16 246.269 110.16H243.769ZM243.769 122C243.636 122 243.516 121.953 243.409 121.86C243.316 121.753 243.269 121.633 243.269 121.5V112.1C243.269 111.953 243.316 111.833 243.409 111.74C243.516 111.647 243.636 111.6 243.769 111.6H246.269C246.416 111.6 246.536 111.647 246.629 111.74C246.736 111.833 246.789 111.953 246.789 112.1V121.5C246.789 121.647 246.736 121.767 246.629 121.86C246.536 121.953 246.416 122 246.269 122H243.769ZM254.07 122.2C252.39 122.2 251.096 121.813 250.19 121.04C249.296 120.253 248.81 119.14 248.73 117.7C248.716 117.527 248.71 117.227 248.71 116.8C248.71 116.373 248.716 116.073 248.73 115.9C248.81 114.487 249.31 113.387 250.23 112.6C251.163 111.8 252.443 111.4 254.07 111.4C255.696 111.4 256.97 111.8 257.89 112.6C258.823 113.387 259.33 114.487 259.41 115.9C259.436 116.247 259.45 116.547 259.45 116.8C259.45 117.053 259.436 117.353 259.41 117.7C259.33 119.14 258.836 120.253 257.93 121.04C257.036 121.813 255.75 122.2 254.07 122.2ZM254.07 119.68C254.616 119.68 255.023 119.513 255.29 119.18C255.556 118.833 255.71 118.307 255.75 117.6C255.763 117.467 255.77 117.2 255.77 116.8C255.77 116.4 255.763 116.133 255.75 116C255.71 115.307 255.556 114.787 255.29 114.44C255.023 114.093 254.616 113.92 254.07 113.92C253.523 113.92 253.116 114.093 252.85 114.44C252.583 114.787 252.43 115.307 252.39 116L252.37 116.8L252.39 117.6C252.43 118.307 252.583 118.833 252.85 119.18C253.116 119.513 253.523 119.68 254.07 119.68ZM261.875 122C261.728 122 261.602 121.953 261.495 121.86C261.402 121.767 261.355 121.647 261.355 121.5V108.3C261.355 108.153 261.402 108.033 261.495 107.94C261.602 107.847 261.728 107.8 261.875 107.8H264.375C264.522 107.8 264.642 107.847 264.735 107.94C264.828 108.033 264.875 108.153 264.875 108.3V121.5C264.875 121.633 264.828 121.753 264.735 121.86C264.642 121.953 264.522 122 264.375 122H261.875ZM272.036 122.2C270.409 122.2 269.129 121.767 268.196 120.9C267.262 120.02 266.782 118.747 266.756 117.08V116.46C266.809 114.873 267.302 113.633 268.236 112.74C269.169 111.847 270.429 111.4 272.016 111.4C273.162 111.4 274.129 111.633 274.916 112.1C275.716 112.553 276.309 113.187 276.696 114C277.096 114.8 277.296 115.713 277.296 116.74V117.24C277.296 117.387 277.242 117.513 277.136 117.62C277.042 117.713 276.922 117.76 276.776 117.76H270.436V117.88C270.449 118.48 270.589 118.967 270.856 119.34C271.122 119.7 271.502 119.88 271.996 119.88C272.316 119.88 272.569 119.82 272.756 119.7C272.956 119.567 273.142 119.4 273.316 119.2C273.436 119.067 273.529 118.987 273.596 118.96C273.676 118.92 273.796 118.9 273.956 118.9H276.576C276.696 118.9 276.796 118.94 276.876 119.02C276.969 119.087 277.016 119.173 277.016 119.28C277.016 119.627 276.816 120.033 276.416 120.5C276.029 120.967 275.456 121.367 274.696 121.7C273.949 122.033 273.062 122.2 272.036 122.2ZM273.616 115.72V115.68C273.616 115.04 273.476 114.547 273.196 114.2C272.916 113.84 272.522 113.66 272.016 113.66C271.509 113.66 271.116 113.84 270.836 114.2C270.569 114.547 270.436 115.04 270.436 115.68V115.72H273.616ZM279.589 122C279.456 122 279.336 121.953 279.229 121.86C279.136 121.753 279.089 121.633 279.089 121.5V112.1C279.089 111.953 279.136 111.833 279.229 111.74C279.336 111.647 279.456 111.6 279.589 111.6H282.049C282.196 111.6 282.316 111.647 282.409 111.74C282.503 111.833 282.549 111.953 282.549 112.1V112.86C282.909 112.42 283.369 112.067 283.929 111.8C284.503 111.533 285.156 111.4 285.889 111.4C286.649 111.4 287.323 111.573 287.909 111.92C288.509 112.267 288.976 112.78 289.309 113.46C289.656 114.14 289.829 114.96 289.829 115.92V121.5C289.829 121.633 289.783 121.753 289.689 121.86C289.596 121.953 289.476 122 289.329 122H286.669C286.523 122 286.396 121.953 286.289 121.86C286.196 121.767 286.149 121.647 286.149 121.5V116.04C286.149 115.44 286.003 114.98 285.709 114.66C285.429 114.34 285.016 114.18 284.469 114.18C283.936 114.18 283.516 114.347 283.209 114.68C282.903 115 282.749 115.453 282.749 116.04V121.5C282.749 121.633 282.703 121.753 282.609 121.86C282.516 121.953 282.396 122 282.249 122H279.589ZM296.859 122.2C295.339 122.2 294.106 121.8 293.159 121C292.226 120.187 291.726 119.06 291.659 117.62L291.639 116.82L291.659 116C291.712 114.56 292.212 113.433 293.159 112.62C294.106 111.807 295.339 111.4 296.859 111.4C298.019 111.4 298.992 111.607 299.779 112.02C300.566 112.433 301.152 112.927 301.539 113.5C301.926 114.06 302.132 114.573 302.159 115.04C302.172 115.187 302.126 115.313 302.019 115.42C301.912 115.513 301.786 115.56 301.639 115.56H298.959C298.812 115.56 298.699 115.527 298.619 115.46C298.539 115.393 298.466 115.287 298.399 115.14C298.252 114.767 298.059 114.493 297.819 114.32C297.592 114.147 297.299 114.06 296.939 114.06C295.912 114.06 295.379 114.74 295.339 116.1L295.319 116.86L295.339 117.52C295.352 118.213 295.492 118.727 295.759 119.06C296.026 119.38 296.419 119.54 296.939 119.54C297.326 119.54 297.626 119.46 297.839 119.3C298.066 119.127 298.252 118.847 298.399 118.46C298.466 118.313 298.539 118.207 298.619 118.14C298.699 118.073 298.812 118.04 298.959 118.04H301.639C301.772 118.04 301.892 118.087 301.999 118.18C302.106 118.273 302.159 118.387 302.159 118.52C302.159 118.933 301.972 119.433 301.599 120.02C301.239 120.593 300.659 121.1 299.859 121.54C299.059 121.98 298.059 122.2 296.859 122.2ZM308.754 122.2C307.128 122.2 305.848 121.767 304.914 120.9C303.981 120.02 303.501 118.747 303.474 117.08V116.46C303.528 114.873 304.021 113.633 304.954 112.74C305.888 111.847 307.148 111.4 308.734 111.4C309.881 111.4 310.848 111.633 311.634 112.1C312.434 112.553 313.028 113.187 313.414 114C313.814 114.8 314.014 115.713 314.014 116.74V117.24C314.014 117.387 313.961 117.513 313.854 117.62C313.761 117.713 313.641 117.76 313.494 117.76H307.154V117.88C307.168 118.48 307.308 118.967 307.574 119.34C307.841 119.7 308.221 119.88 308.714 119.88C309.034 119.88 309.288 119.82 309.474 119.7C309.674 119.567 309.861 119.4 310.034 119.2C310.154 119.067 310.248 118.987 310.314 118.96C310.394 118.92 310.514 118.9 310.674 118.9H313.294C313.414 118.9 313.514 118.94 313.594 119.02C313.688 119.087 313.734 119.173 313.734 119.28C313.734 119.627 313.534 120.033 313.134 120.5C312.748 120.967 312.174 121.367 311.414 121.7C310.668 122.033 309.781 122.2 308.754 122.2ZM310.334 115.72V115.68C310.334 115.04 310.194 114.547 309.914 114.2C309.634 113.84 309.241 113.66 308.734 113.66C308.228 113.66 307.834 113.84 307.554 114.2C307.288 114.547 307.154 115.04 307.154 115.68V115.72H310.334Z" fill="#303030"/>
<path d="M138.43 71C138.195 71 137.993 70.9253 137.822 70.776C137.673 70.6267 137.598 70.4347 137.598 70.2V49.432C137.598 49.1973 137.673 49.0053 137.822 48.856C137.993 48.6853 138.195 48.6 138.43 48.6H142.046C142.579 48.6 142.963 48.8347 143.198 49.304L148.702 59.16L154.238 49.304C154.473 48.8347 154.857 48.6 155.39 48.6H159.006C159.241 48.6 159.433 48.6853 159.582 48.856C159.753 49.0053 159.838 49.1973 159.838 49.432V70.2C159.838 70.4347 159.753 70.6267 159.582 70.776C159.433 70.9253 159.241 71 159.006 71H154.942C154.729 71 154.537 70.9253 154.366 70.776C154.217 70.6053 154.142 70.4133 154.142 70.2V58.552L150.686 64.888C150.409 65.3787 150.035 65.624 149.566 65.624H147.838C147.411 65.624 147.038 65.3787 146.718 64.888L143.294 58.552V70.2C143.294 70.4347 143.209 70.6267 143.038 70.776C142.889 70.9253 142.697 71 142.462 71H138.43ZM166.976 77.08C166.784 77.08 166.624 77.016 166.496 76.888C166.368 76.76 166.304 76.6 166.304 76.408C166.304 76.2587 166.325 76.12 166.368 75.992L168.896 69.976L162.752 55.448C162.688 55.2773 162.656 55.16 162.656 55.096C162.698 54.8827 162.784 54.712 162.912 54.584C163.061 54.4347 163.232 54.36 163.424 54.36H167.232C167.68 54.36 167.989 54.584 168.16 55.032L171.712 64.12L175.36 55.032C175.573 54.584 175.893 54.36 176.32 54.36H180.096C180.288 54.36 180.448 54.4347 180.576 54.584C180.725 54.712 180.8 54.8613 180.8 55.032C180.8 55.1813 180.778 55.32 180.736 55.448L171.68 76.408C171.466 76.856 171.136 77.08 170.688 77.08H166.976ZM191.185 71C190.951 71 190.748 70.9253 190.577 70.776C190.428 70.6267 190.353 70.4347 190.353 70.2V58.712H187.953C187.719 58.712 187.516 58.6373 187.345 58.488C187.196 58.3387 187.121 58.1467 187.121 57.912V55.16C187.121 54.9253 187.196 54.7333 187.345 54.584C187.516 54.4347 187.719 54.36 187.953 54.36H190.353V53.4C190.353 51.2667 190.972 49.72 192.209 48.76C193.447 47.8 195.217 47.32 197.521 47.32H200.049C200.284 47.32 200.476 47.3947 200.625 47.544C200.796 47.6933 200.881 47.8853 200.881 48.12V50.872C200.881 51.1067 200.796 51.2987 200.625 51.448C200.476 51.5973 200.284 51.672 200.049 51.672H197.777C197.095 51.672 196.604 51.832 196.305 52.152C196.028 52.4507 195.889 52.92 195.889 53.56V54.36H199.729C199.964 54.36 200.156 54.4347 200.305 54.584C200.476 54.7333 200.561 54.9253 200.561 55.16V57.912C200.561 58.1467 200.476 58.3387 200.305 58.488C200.156 58.6373 199.964 58.712 199.729 58.712H195.889V70.2C195.889 70.4133 195.815 70.6053 195.665 70.776C195.516 70.9253 195.324 71 195.089 71H191.185ZM210.398 71.32C207.795 71.32 205.747 70.6267 204.254 69.24C202.76 67.832 201.992 65.7947 201.95 63.128V62.136C202.035 59.5973 202.824 57.6133 204.318 56.184C205.811 54.7547 207.827 54.04 210.366 54.04C212.2 54.04 213.747 54.4133 215.006 55.16C216.286 55.8853 217.235 56.8987 217.854 58.2C218.494 59.48 218.814 60.9413 218.814 62.584V63.384C218.814 63.6187 218.728 63.8213 218.558 63.992C218.408 64.1413 218.216 64.216 217.982 64.216H207.838V64.408C207.859 65.368 208.083 66.1467 208.51 66.744C208.936 67.32 209.544 67.608 210.334 67.608C210.846 67.608 211.251 67.512 211.55 67.32C211.87 67.1067 212.168 66.84 212.446 66.52C212.638 66.3067 212.787 66.1787 212.894 66.136C213.022 66.072 213.214 66.04 213.47 66.04H217.662C217.854 66.04 218.014 66.104 218.142 66.232C218.291 66.3387 218.366 66.4773 218.366 66.648C218.366 67.2027 218.046 67.8533 217.406 68.6C216.787 69.3467 215.87 69.9867 214.654 70.52C213.459 71.0533 212.04 71.32 210.398 71.32ZM212.926 60.952V60.888C212.926 59.864 212.702 59.0747 212.254 58.52C211.806 57.944 211.176 57.656 210.366 57.656C209.555 57.656 208.926 57.944 208.478 58.52C208.051 59.0747 207.838 59.864 207.838 60.888V60.952H212.926ZM226.707 71.32C225.577 71.32 224.542 71.1067 223.603 70.68C222.686 70.232 221.961 69.624 221.427 68.856C220.915 68.088 220.659 67.2453 220.659 66.328C220.659 64.8773 221.257 63.704 222.451 62.808C223.667 61.8907 225.331 61.2613 227.443 60.92L231.411 60.312V59.928C231.411 59.1387 231.251 58.5627 230.931 58.2C230.611 57.8373 230.067 57.656 229.299 57.656C228.873 57.656 228.51 57.7307 228.211 57.88C227.934 58.0293 227.614 58.2533 227.251 58.552C226.974 58.7867 226.729 58.9573 226.515 59.064C226.43 59.2133 226.323 59.288 226.195 59.288H222.483C222.27 59.288 222.089 59.224 221.939 59.096C221.811 58.9467 221.758 58.776 221.779 58.584C221.801 58.008 222.089 57.368 222.643 56.664C223.198 55.9387 224.041 55.32 225.171 54.808C226.302 54.296 227.699 54.04 229.363 54.04C232.009 54.04 233.971 54.6267 235.251 55.8C236.531 56.952 237.171 58.52 237.171 60.504V70.2C237.171 70.4133 237.097 70.6053 236.947 70.776C236.798 70.9253 236.606 71 236.371 71H232.435C232.222 71 232.03 70.9253 231.859 70.776C231.71 70.6053 231.635 70.4133 231.635 70.2V69.08C231.166 69.7413 230.515 70.2853 229.683 70.712C228.851 71.1173 227.859 71.32 226.707 71.32ZM228.307 67.544C229.246 67.544 230.003 67.2347 230.579 66.616C231.177 65.9973 231.475 65.1013 231.475 63.928V63.544L228.819 63.992C227.027 64.3333 226.131 64.9733 226.131 65.912C226.131 66.4027 226.334 66.7973 226.739 67.096C227.166 67.3947 227.689 67.544 228.307 67.544ZM241.452 71C241.239 71 241.047 70.9253 240.876 70.776C240.727 70.6053 240.652 70.4133 240.652 70.2V55.192C240.652 54.9573 240.727 54.7653 240.876 54.616C241.025 54.4453 241.217 54.36 241.452 54.36H245.356C245.591 54.36 245.783 54.4453 245.932 54.616C246.103 54.7653 246.188 54.9573 246.188 55.192V56.408C246.785 55.7467 247.479 55.2453 248.268 54.904C249.079 54.5413 249.975 54.36 250.956 54.36H252.396C252.631 54.36 252.823 54.4347 252.972 54.584C253.121 54.7333 253.196 54.9253 253.196 55.16V58.648C253.196 58.8613 253.121 59.0533 252.972 59.224C252.823 59.3733 252.631 59.448 252.396 59.448H249.164C248.311 59.448 247.649 59.6827 247.18 60.152C246.732 60.6213 246.508 61.2827 246.508 62.136V70.2C246.508 70.4347 246.423 70.6267 246.252 70.776C246.103 70.9253 245.911 71 245.676 71H241.452Z" fill="#940000"/>
<g filter="url(#filter1_d_1235_400)">
<rect x="25" y="21" width="340" height="10" fill="#940000"/>
</g>
<defs>
<filter id="filter0_d_1235_400" x="0" y="0" width="390" height="173" filterUnits="userSpaceOnUse" color-interpolation-filters="sRGB">
<feFlood flood-opacity="0" result="BackgroundImageFix"/>
<feColorMatrix in="SourceAlpha" type="matrix" values="0 0 0 0 0 0 0 0 0 0 0 0 0 0 0 0 0 0 127 0" result="hardAlpha"/>
<feMorphology radius="15" operator="dilate" in="SourceAlpha" result="effect1_dropShadow_1235_400"/>
<feOffset dy="4"/>
<feGaussianBlur stdDeviation="5"/>
<feComposite in2="hardAlpha" operator="out"/>
<feColorMatrix type="matrix" values="0 0 0 0 0 0 0 0 0 0 0 0 0 0 0 0 0 0 0.25 0"/>
<feBlend mode="normal" in2="BackgroundImageFix" result="effect1_dropShadow_1235_400"/>
<feBlend mode="normal" in="SourceGraphic" in2="effect1_dropShadow_1235_400" result="shape"/>
</filter>
<filter id="filter1_d_1235_400" x="21" y="21" width="348" height="18" filterUnits="userSpaceOnUse" color-interpolation-filters="sRGB">
<feFlood flood-opacity="0" result="BackgroundImageFix"/>
<feColorMatrix in="SourceAlpha" type="matrix" values="0 0 0 0 0 0 0 0 0 0 0 0 0 0 0 0 0 0 127 0" result="hardAlpha"/>
<feOffset dy="4"/>
<feGaussianBlur stdDeviation="2"/>
<feComposite in2="hardAlpha" operator="out"/>
<feColorMatrix type="matrix" values="0 0 0 0 0 0 0 0 0 0 0 0 0 0 0 0 0 0 0.25 0"/>
<feBlend mode="normal" in2="BackgroundImageFix" result="effect1_dropShadow_1235_400"/>
<feBlend mode="normal" in="SourceGraphic" in2="effect1_dropShadow_1235_400" result="shape"/>
</filter>
</defs>
</svg>
