<svg width="390" height="173" viewBox="0 0 390 173" fill="none" xmlns="http://www.w3.org/2000/svg">
<g filter="url(#filter0_d_1235_400)">
<rect x="25" y="21" width="340" height="123" fill="white"/>
</g>
<path d="M104.696 98C104.55 98 104.423 97.9533 104.316 97.86C104.223 97.7667 104.176 97.6467 104.176 97.5V87.26H100.656C100.51 87.26 100.383 87.2133 100.276 87.12C100.183 87.0267 100.136 86.9067 100.136 86.76V84.52C100.136 84.3733 100.183 84.2533 100.276 84.16C100.383 84.0533 100.51 84 100.656 84H111.516C111.663 84 111.783 84.0533 111.876 84.16C111.983 84.2533 112.036 84.3733 112.036 84.52V86.76C112.036 86.9067 111.983 87.0267 111.876 87.12C111.783 87.2133 111.663 87.26 111.516 87.26H107.996V97.5C107.996 97.6467 107.943 97.7667 107.836 97.86C107.743 97.9533 107.623 98 107.476 98H104.696ZM113.799 98C113.652 98 113.525 97.9533 113.419 97.86C113.325 97.7667 113.279 97.6467 113.279 97.5V84.3C113.279 84.1533 113.325 84.0333 113.419 83.94C113.525 83.8467 113.652 83.8 113.799 83.8H116.499C116.645 83.8 116.765 83.8467 116.859 83.94C116.965 84.0333 117.019 84.1533 117.019 84.3V88.76C117.792 87.8533 118.839 87.4 120.159 87.4C120.919 87.4 121.605 87.5733 122.219 87.92C122.832 88.2667 123.312 88.78 123.659 89.46C124.005 90.14 124.179 90.96 124.179 91.92V97.5C124.179 97.6467 124.125 97.7667 124.019 97.86C123.925 97.9533 123.805 98 123.659 98H120.939C120.805 98 120.685 97.9533 120.579 97.86C120.485 97.7533 120.439 97.6333 120.439 97.5V92.04C120.439 91.4533 120.292 91 119.999 90.68C119.705 90.3467 119.285 90.18 118.739 90.18C118.205 90.18 117.785 90.3467 117.479 90.68C117.172 91 117.019 91.4533 117.019 92.04V97.5C117.019 97.6467 116.965 97.7667 116.859 97.86C116.765 97.9533 116.645 98 116.499 98H113.799ZM131.245 98.2C129.618 98.2 128.338 97.7667 127.405 96.9C126.471 96.02 125.991 94.7467 125.965 93.08V92.46C126.018 90.8733 126.511 89.6333 127.445 88.74C128.378 87.8467 129.638 87.4 131.225 87.4C132.371 87.4 133.338 87.6333 134.125 88.1C134.925 88.5533 135.518 89.1867 135.905 90C136.305 90.8 136.505 91.7133 136.505 92.74V93.24C136.505 93.3867 136.451 93.5133 136.345 93.62C136.251 93.7133 136.131 93.76 135.985 93.76H129.645V93.88C129.658 94.48 129.798 94.9667 130.065 95.34C130.331 95.7 130.711 95.88 131.205 95.88C131.525 95.88 131.778 95.82 131.965 95.7C132.165 95.5667 132.351 95.4 132.525 95.2C132.645 95.0667 132.738 94.9867 132.805 94.96C132.885 94.92 133.005 94.9 133.165 94.9H135.785C135.905 94.9 136.005 94.94 136.085 95.02C136.178 95.0867 136.225 95.1733 136.225 95.28C136.225 95.6267 136.025 96.0333 135.625 96.5C135.238 96.9667 134.665 97.3667 133.905 97.7C133.158 98.0333 132.271 98.2 131.245 98.2ZM132.825 91.72V91.68C132.825 91.04 132.685 90.5467 132.405 90.2C132.125 89.84 131.731 89.66 131.225 89.66C130.718 89.66 130.325 89.84 130.045 90.2C129.778 90.5467 129.645 91.04 129.645 91.68V91.72H132.825ZM143.217 98C143.084 98 142.964 97.9533 142.857 97.86C142.764 97.7533 142.717 97.6333 142.717 97.5V84.5C142.717 84.3533 142.764 84.2333 142.857 84.14C142.964 84.0467 143.084 84 143.217 84H146.077C146.224 84 146.344 84.0467 146.437 84.14C146.531 84.2333 146.577 84.3533 146.577 84.5V97.5C146.577 97.6333 146.531 97.7533 146.437 97.86C146.344 97.9533 146.224 98 146.077 98H143.217ZM149.579 98C149.446 98 149.326 97.9533 149.219 97.86C149.126 97.7533 149.079 97.6333 149.079 97.5V88.1C149.079 87.9533 149.126 87.8333 149.219 87.74C149.326 87.6467 149.446 87.6 149.579 87.6H152.039C152.186 87.6 152.306 87.6467 152.399 87.74C152.493 87.8333 152.539 87.9533 152.539 88.1V88.86C152.899 88.42 153.359 88.0667 153.919 87.8C154.493 87.5333 155.146 87.4 155.879 87.4C156.639 87.4 157.313 87.5733 157.899 87.92C158.499 88.2667 158.966 88.78 159.299 89.46C159.646 90.14 159.819 90.96 159.819 91.92V97.5C159.819 97.6333 159.773 97.7533 159.679 97.86C159.586 97.9533 159.466 98 159.319 98H156.659C156.513 98 156.386 97.9533 156.279 97.86C156.186 97.7667 156.139 97.6467 156.139 97.5V92.04C156.139 91.44 155.993 90.98 155.699 90.66C155.419 90.34 155.006 90.18 154.459 90.18C153.926 90.18 153.506 90.3467 153.199 90.68C152.893 91 152.739 91.4533 152.739 92.04V97.5C152.739 97.6333 152.693 97.7533 152.599 97.86C152.506 97.9533 152.386 98 152.239 98H149.579ZM167.371 98C164.545 98 163.131 96.6733 163.131 94.02V90.32H161.551C161.418 90.32 161.298 90.2733 161.191 90.18C161.098 90.0733 161.051 89.9533 161.051 89.82V88.1C161.051 87.9533 161.098 87.8333 161.191 87.74C161.298 87.6467 161.418 87.6 161.551 87.6H163.131V84.3C163.131 84.1533 163.178 84.0333 163.271 83.94C163.378 83.8467 163.498 83.8 163.631 83.8H166.091C166.238 83.8 166.358 83.8467 166.451 83.94C166.545 84.0333 166.591 84.1533 166.591 84.3V87.6H169.091C169.238 87.6 169.358 87.6467 169.451 87.74C169.558 87.8333 169.611 87.9533 169.611 88.1V89.82C169.611 89.9667 169.558 90.0867 169.451 90.18C169.358 90.2733 169.238 90.32 169.091 90.32H166.591V93.72C166.591 94.1867 166.678 94.54 166.851 94.78C167.025 95.02 167.305 95.14 167.691 95.14H169.271C169.418 95.14 169.538 95.1933 169.631 95.3C169.725 95.3933 169.771 95.5133 169.771 95.66V97.5C169.771 97.6333 169.725 97.7533 169.631 97.86C169.538 97.9533 169.418 98 169.271 98H167.371ZM176.264 98.2C174.637 98.2 173.357 97.7667 172.424 96.9C171.491 96.02 171.011 94.7467 170.984 93.08V92.46C171.037 90.8733 171.531 89.6333 172.464 88.74C173.397 87.8467 174.657 87.4 176.244 87.4C177.391 87.4 178.357 87.6333 179.144 88.1C179.944 88.5533 180.537 89.1867 180.924 90C181.324 90.8 181.524 91.7133 181.524 92.74V93.24C181.524 93.3867 181.471 93.5133 181.364 93.62C181.271 93.7133 181.151 93.76 181.004 93.76H174.664V93.88C174.677 94.48 174.817 94.9667 175.084 95.34C175.351 95.7 175.731 95.88 176.224 95.88C176.544 95.88 176.797 95.82 176.984 95.7C177.184 95.5667 177.371 95.4 177.544 95.2C177.664 95.0667 177.757 94.9867 177.824 94.96C177.904 94.92 178.024 94.9 178.184 94.9H180.804C180.924 94.9 181.024 94.94 181.104 95.02C181.197 95.0867 181.244 95.1733 181.244 95.28C181.244 95.6267 181.044 96.0333 180.644 96.5C180.257 96.9667 179.684 97.3667 178.924 97.7C178.177 98.0333 177.291 98.2 176.264 98.2ZM177.844 91.72V91.68C177.844 91.04 177.704 90.5467 177.424 90.2C177.144 89.84 176.751 89.66 176.244 89.66C175.737 89.66 175.344 89.84 175.064 90.2C174.797 90.5467 174.664 91.04 174.664 91.68V91.72H177.844ZM183.818 98C183.684 98 183.564 97.9533 183.458 97.86C183.364 97.7533 183.318 97.6333 183.318 97.5V88.12C183.318 87.9733 183.364 87.8533 183.458 87.76C183.551 87.6533 183.671 87.6 183.818 87.6H186.258C186.404 87.6 186.524 87.6533 186.618 87.76C186.724 87.8533 186.778 87.9733 186.778 88.12V88.88C187.151 88.4667 187.584 88.1533 188.078 87.94C188.584 87.7133 189.144 87.6 189.758 87.6H190.658C190.804 87.6 190.924 87.6467 191.018 87.74C191.111 87.8333 191.158 87.9533 191.158 88.1V90.28C191.158 90.4133 191.111 90.5333 191.018 90.64C190.924 90.7333 190.804 90.78 190.658 90.78H188.638C188.104 90.78 187.691 90.9267 187.398 91.22C187.118 91.5133 186.978 91.9267 186.978 92.46V97.5C186.978 97.6467 186.924 97.7667 186.818 97.86C186.724 97.9533 186.604 98 186.458 98H183.818ZM193.036 98C192.903 98 192.783 97.9533 192.676 97.86C192.583 97.7533 192.536 97.6333 192.536 97.5V88.1C192.536 87.9533 192.583 87.8333 192.676 87.74C192.783 87.6467 192.903 87.6 193.036 87.6H195.496C195.643 87.6 195.763 87.6467 195.856 87.74C195.95 87.8333 195.996 87.9533 195.996 88.1V88.86C196.356 88.42 196.816 88.0667 197.376 87.8C197.95 87.5333 198.603 87.4 199.336 87.4C200.096 87.4 200.77 87.5733 201.356 87.92C201.956 88.2667 202.423 88.78 202.756 89.46C203.103 90.14 203.276 90.96 203.276 91.92V97.5C203.276 97.6333 203.23 97.7533 203.136 97.86C203.043 97.9533 202.923 98 202.776 98H200.116C199.97 98 199.843 97.9533 199.736 97.86C199.643 97.7667 199.596 97.6467 199.596 97.5V92.04C199.596 91.44 199.45 90.98 199.156 90.66C198.876 90.34 198.463 90.18 197.916 90.18C197.383 90.18 196.963 90.3467 196.656 90.68C196.35 91 196.196 91.4533 196.196 92.04V97.5C196.196 97.6333 196.15 97.7533 196.056 97.86C195.963 97.9533 195.843 98 195.696 98H193.036ZM210.346 98.2C208.72 98.2 207.44 97.7667 206.506 96.9C205.573 96.02 205.093 94.7467 205.066 93.08V92.46C205.12 90.8733 205.613 89.6333 206.546 88.74C207.48 87.8467 208.74 87.4 210.326 87.4C211.473 87.4 212.44 87.6333 213.226 88.1C214.026 88.5533 214.62 89.1867 215.006 90C215.406 90.8 215.606 91.7133 215.606 92.74V93.24C215.606 93.3867 215.553 93.5133 215.446 93.62C215.353 93.7133 215.233 93.76 215.086 93.76H208.746V93.88C208.76 94.48 208.9 94.9667 209.166 95.34C209.433 95.7 209.813 95.88 210.306 95.88C210.626 95.88 210.88 95.82 211.066 95.7C211.266 95.5667 211.453 95.4 211.626 95.2C211.746 95.0667 211.84 94.9867 211.906 94.96C211.986 94.92 212.106 94.9 212.266 94.9H214.886C215.006 94.9 215.106 94.94 215.186 95.02C215.28 95.0867 215.326 95.1733 215.326 95.28C215.326 95.6267 215.126 96.0333 214.726 96.5C214.34 96.9667 213.766 97.3667 213.006 97.7C212.26 98.0333 211.373 98.2 210.346 98.2ZM211.926 91.72V91.68C211.926 91.04 211.786 90.5467 211.506 90.2C211.226 89.84 210.833 89.66 210.326 89.66C209.82 89.66 209.426 89.84 209.146 90.2C208.88 90.5467 208.746 91.04 208.746 91.68V91.72H211.926ZM222.84 98C220.014 98 218.6 96.6733 218.6 94.02V90.32H217.02C216.887 90.32 216.767 90.2733 216.66 90.18C216.567 90.0733 216.52 89.9533 216.52 89.82V88.1C216.52 87.9533 216.567 87.8333 216.66 87.74C216.767 87.6467 216.887 87.6 217.02 87.6H218.6V84.3C218.6 84.1533 218.647 84.0333 218.74 83.94C218.847 83.8467 218.967 83.8 219.1 83.8H221.56C221.707 83.8 221.827 83.8467 221.92 83.94C222.014 84.0333 222.06 84.1533 222.06 84.3V87.6H224.56C224.707 87.6 224.827 87.6467 224.92 87.74C225.027 87.8333 225.08 87.9533 225.08 88.1V89.82C225.08 89.9667 225.027 90.0867 224.92 90.18C224.827 90.2733 224.707 90.32 224.56 90.32H222.06V93.72C222.06 94.1867 222.147 94.54 222.32 94.78C222.494 95.02 222.774 95.14 223.16 95.14H224.74C224.887 95.14 225.007 95.1933 225.1 95.3C225.194 95.3933 225.24 95.5133 225.24 95.66V97.5C225.24 97.6333 225.194 97.7533 225.1 97.86C225.007 97.9533 224.887 98 224.74 98H222.84ZM233.375 98C233.149 98 232.962 97.94 232.815 97.82C232.682 97.6867 232.602 97.5267 232.575 97.34L230.435 84.54C230.422 84.5133 230.415 84.4733 230.415 84.42C230.415 84.3133 230.455 84.22 230.535 84.14C230.629 84.0467 230.729 84 230.835 84H233.455C233.842 84 234.055 84.1533 234.095 84.46L235.315 92.02L236.695 87.64C236.802 87.28 237.022 87.1 237.355 87.1H238.855C239.189 87.1 239.409 87.28 239.515 87.64L240.895 92L242.135 84.46C242.162 84.3 242.222 84.1867 242.315 84.12C242.409 84.04 242.555 84 242.755 84H245.375C245.495 84 245.595 84.0467 245.675 84.14C245.755 84.22 245.795 84.3133 245.795 84.42V84.54L243.655 97.34C243.629 97.5267 243.542 97.6867 243.395 97.82C243.249 97.94 243.069 98 242.855 98H240.835C240.622 98 240.455 97.9467 240.335 97.84C240.215 97.7333 240.135 97.6133 240.095 97.48L238.115 91.94L236.135 97.48C236.082 97.6133 235.995 97.7333 235.875 97.84C235.755 97.9467 235.589 98 235.375 98H233.375ZM252.224 98.2C250.544 98.2 249.251 97.8133 248.344 97.04C247.451 96.2533 246.964 95.14 246.884 93.7C246.871 93.5267 246.864 93.2267 246.864 92.8C246.864 92.3733 246.871 92.0733 246.884 91.9C246.964 90.4867 247.464 89.3867 248.384 88.6C249.317 87.8 250.597 87.4 252.224 87.4C253.851 87.4 255.124 87.8 256.044 88.6C256.977 89.3867 257.484 90.4867 257.564 91.9C257.591 92.2467 257.604 92.5467 257.604 92.8C257.604 93.0533 257.591 93.3533 257.564 93.7C257.484 95.14 256.991 96.2533 256.084 97.04C255.191 97.8133 253.904 98.2 252.224 98.2ZM252.224 95.68C252.771 95.68 253.177 95.5133 253.444 95.18C253.711 94.8333 253.864 94.3067 253.904 93.6C253.917 93.4667 253.924 93.2 253.924 92.8C253.924 92.4 253.917 92.1333 253.904 92C253.864 91.3067 253.711 90.7867 253.444 90.44C253.177 90.0933 252.771 89.92 252.224 89.92C251.677 89.92 251.271 90.0933 251.004 90.44C250.737 90.7867 250.584 91.3067 250.544 92L250.524 92.8L250.544 93.6C250.584 94.3067 250.737 94.8333 251.004 95.18C251.271 95.5133 251.677 95.68 252.224 95.68ZM260.009 98C259.876 98 259.756 97.9533 259.649 97.86C259.556 97.7533 259.509 97.6333 259.509 97.5V88.12C259.509 87.9733 259.556 87.8533 259.649 87.76C259.742 87.6533 259.862 87.6 260.009 87.6H262.449C262.596 87.6 262.716 87.6533 262.809 87.76C262.916 87.8533 262.969 87.9733 262.969 88.12V88.88C263.342 88.4667 263.776 88.1533 264.269 87.94C264.776 87.7133 265.336 87.6 265.949 87.6H266.849C266.996 87.6 267.116 87.6467 267.209 87.74C267.302 87.8333 267.349 87.9533 267.349 88.1V90.28C267.349 90.4133 267.302 90.5333 267.209 90.64C267.116 90.7333 266.996 90.78 266.849 90.78H264.829C264.296 90.78 263.882 90.9267 263.589 91.22C263.309 91.5133 263.169 91.9267 263.169 92.46V97.5C263.169 97.6467 263.116 97.7667 263.009 97.86C262.916 97.9533 262.796 98 262.649 98H260.009ZM269.248 98C269.101 98 268.975 97.9533 268.868 97.86C268.775 97.7667 268.728 97.6467 268.728 97.5V84.3C268.728 84.1533 268.775 84.0333 268.868 83.94C268.975 83.8467 269.101 83.8 269.248 83.8H271.748C271.895 83.8 272.015 83.8467 272.108 83.94C272.201 84.0333 272.248 84.1533 272.248 84.3V97.5C272.248 97.6333 272.201 97.7533 272.108 97.86C272.015 97.9533 271.895 98 271.748 98H269.248ZM278.429 98.2C277.135 98.2 276.115 97.7933 275.369 96.98C274.635 96.1667 274.242 95.0067 274.189 93.5L274.169 92.8L274.189 92.08C274.242 90.6267 274.642 89.4867 275.389 88.66C276.135 87.82 277.149 87.4 278.429 87.4C279.629 87.4 280.595 87.7867 281.329 88.56V84.3C281.329 84.1533 281.375 84.0333 281.469 83.94C281.575 83.8467 281.695 83.8 281.829 83.8H284.409C284.555 83.8 284.675 83.8467 284.769 83.94C284.875 84.0333 284.929 84.1533 284.929 84.3V97.5C284.929 97.6467 284.875 97.7667 284.769 97.86C284.675 97.9533 284.555 98 284.409 98H282.029C281.895 98 281.775 97.9533 281.669 97.86C281.575 97.7533 281.529 97.6333 281.529 97.5V96.88C280.809 97.76 279.775 98.2 278.429 98.2ZM279.589 95.42C280.162 95.42 280.589 95.24 280.869 94.88C281.149 94.5067 281.302 94.04 281.329 93.48C281.355 93.1067 281.369 92.8533 281.369 92.72C281.369 92.5733 281.355 92.3267 281.329 91.98C281.302 91.46 281.142 91.0333 280.849 90.7C280.569 90.3533 280.149 90.18 279.589 90.18C278.989 90.18 278.555 90.36 278.289 90.72C278.035 91.0667 277.889 91.5533 277.849 92.18L277.829 92.8L277.849 93.42C277.889 94.0467 278.035 94.54 278.289 94.9C278.555 95.2467 278.989 95.42 279.589 95.42ZM79.2764 122C79.1297 122 79.0031 121.953 78.8964 121.86C78.8031 121.767 78.7564 121.647 78.7564 121.5V111.26H75.2364C75.0897 111.26 74.9631 111.213 74.8564 111.12C74.7631 111.027 74.7164 110.907 74.7164 110.76V108.52C74.7164 108.373 74.7631 108.253 74.8564 108.16C74.9631 108.053 75.0897 108 75.2364 108H86.0964C86.2431 108 86.3631 108.053 86.4564 108.16C86.5631 108.253 86.6164 108.373 86.6164 108.52V110.76C86.6164 110.907 86.5631 111.027 86.4564 111.12C86.3631 111.213 86.2431 111.26 86.0964 111.26H82.5764V121.5C82.5764 121.647 82.5231 121.767 82.4164 121.86C82.3231 121.953 82.2031 122 82.0564 122H79.2764ZM88.3788 122C88.2321 122 88.1054 121.953 87.9988 121.86C87.9054 121.767 87.8588 121.647 87.8588 121.5V108.3C87.8588 108.153 87.9054 108.033 87.9988 107.94C88.1054 107.847 88.2321 107.8 88.3788 107.8H91.0788C91.2254 107.8 91.3454 107.847 91.4388 107.94C91.5454 108.033 91.5988 108.153 91.5988 108.3V112.76C92.3721 111.853 93.4188 111.4 94.7388 111.4C95.4988 111.4 96.1854 111.573 96.7988 111.92C97.4121 112.267 97.8921 112.78 98.2388 113.46C98.5854 114.14 98.7588 114.96 98.7588 115.92V121.5C98.7588 121.647 98.7054 121.767 98.5988 121.86C98.5054 121.953 98.3854 122 98.2388 122H95.5188C95.3854 122 95.2654 121.953 95.1588 121.86C95.0654 121.753 95.0188 121.633 95.0188 121.5V116.04C95.0188 115.453 94.8721 115 94.5788 114.68C94.2854 114.347 93.8654 114.18 93.3188 114.18C92.7854 114.18 92.3654 114.347 92.0588 114.68C91.7521 115 91.5988 115.453 91.5988 116.04V121.5C91.5988 121.647 91.5454 121.767 91.4388 121.86C91.3454 121.953 91.2254 122 91.0788 122H88.3788ZM105.825 122.2C104.198 122.2 102.918 121.767 101.985 120.9C101.051 120.02 100.571 118.747 100.545 117.08V116.46C100.598 114.873 101.091 113.633 102.025 112.74C102.958 111.847 104.218 111.4 105.805 111.4C106.951 111.4 107.918 111.633 108.705 112.1C109.505 112.553 110.098 113.187 110.485 114C110.885 114.8 111.085 115.713 111.085 116.74V117.24C111.085 117.387 111.031 117.513 110.925 117.62C110.831 117.713 110.711 117.76 110.565 117.76H104.225V117.88C104.238 118.48 104.378 118.967 104.645 119.34C104.911 119.7 105.291 119.88 105.785 119.88C106.105 119.88 106.358 119.82 106.545 119.7C106.745 119.567 106.931 119.4 107.105 119.2C107.225 119.067 107.318 118.987 107.385 118.96C107.465 118.92 107.585 118.9 107.745 118.9H110.365C110.485 118.9 110.585 118.94 110.665 119.02C110.758 119.087 110.805 119.173 110.805 119.28C110.805 119.627 110.605 120.033 110.205 120.5C109.818 120.967 109.245 121.367 108.485 121.7C107.738 122.033 106.851 122.2 105.825 122.2ZM107.405 115.72V115.68C107.405 115.04 107.265 114.547 106.985 114.2C106.705 113.84 106.311 113.66 105.805 113.66C105.298 113.66 104.905 113.84 104.625 114.2C104.358 114.547 104.225 115.04 104.225 115.68V115.72H107.405ZM117.578 110.16C117.431 110.16 117.311 110.113 117.218 110.02C117.124 109.913 117.078 109.787 117.078 109.64V107.78C117.078 107.633 117.124 107.513 117.218 107.42C117.324 107.313 117.444 107.26 117.578 107.26H120.078C120.224 107.26 120.344 107.313 120.438 107.42C120.544 107.513 120.598 107.633 120.598 107.78V109.64C120.598 109.787 120.544 109.913 120.438 110.02C120.344 110.113 120.224 110.16 120.078 110.16H117.578ZM117.578 122C117.444 122 117.324 121.953 117.218 121.86C117.124 121.753 117.078 121.633 117.078 121.5V112.1C117.078 111.953 117.124 111.833 117.218 111.74C117.324 111.647 117.444 111.6 117.578 111.6H120.078C120.224 111.6 120.344 111.647 120.438 111.74C120.544 111.833 120.598 111.953 120.598 112.1V121.5C120.598 121.647 120.544 121.767 120.438 121.86C120.344 121.953 120.224 122 120.078 122H117.578ZM123.378 122C123.245 122 123.125 121.953 123.018 121.86C122.925 121.753 122.878 121.633 122.878 121.5V112.1C122.878 111.953 122.925 111.833 123.018 111.74C123.125 111.647 123.245 111.6 123.378 111.6H125.838C125.985 111.6 126.105 111.647 126.198 111.74C126.292 111.833 126.338 111.953 126.338 112.1V112.86C126.698 112.42 127.158 112.067 127.718 111.8C128.292 111.533 128.945 111.4 129.678 111.4C130.438 111.4 131.112 111.573 131.698 111.92C132.298 112.267 132.765 112.78 133.098 113.46C133.445 114.14 133.618 114.96 133.618 115.92V121.5C133.618 121.633 133.572 121.753 133.478 121.86C133.385 121.953 133.265 122 133.118 122H130.458C130.312 122 130.185 121.953 130.078 121.86C129.985 121.767 129.938 121.647 129.938 121.5V116.04C129.938 115.44 129.792 114.98 129.498 114.66C129.218 114.34 128.805 114.18 128.258 114.18C127.725 114.18 127.305 114.347 126.998 114.68C126.692 115 126.538 115.453 126.538 116.04V121.5C126.538 121.633 126.492 121.753 126.398 121.86C126.305 121.953 126.185 122 126.038 122H123.378ZM140.648 122.2C139.128 122.2 137.895 121.8 136.948 121C136.015 120.187 135.515 119.06 135.448 117.62L135.428 116.82L135.448 116C135.501 114.56 136.001 113.433 136.948 112.62C137.895 111.807 139.128 111.4 140.648 111.4C141.808 111.4 142.781 111.607 143.568 112.02C144.355 112.433 144.941 112.927 145.328 113.5C145.715 114.06 145.921 114.573 145.948 115.04C145.961 115.187 145.915 115.313 145.808 115.42C145.701 115.513 145.575 115.56 145.428 115.56H142.748C142.601 115.56 142.488 115.527 142.408 115.46C142.328 115.393 142.255 115.287 142.188 115.14C142.041 114.767 141.848 114.493 141.608 114.32C141.381 114.147 141.088 114.06 140.728 114.06C139.701 114.06 139.168 114.74 139.128 116.1L139.108 116.86L139.128 117.52C139.141 118.213 139.281 118.727 139.548 119.06C139.815 119.38 140.208 119.54 140.728 119.54C141.115 119.54 141.415 119.46 141.628 119.3C141.855 119.127 142.041 118.847 142.188 118.46C142.255 118.313 142.328 118.207 142.408 118.14C142.488 118.073 142.601 118.04 142.748 118.04H145.428C145.561 118.04 145.681 118.087 145.788 118.18C145.895 118.273 145.948 118.387 145.948 118.52C145.948 118.933 145.761 119.433 145.388 120.02C145.028 120.593 144.448 121.1 143.648 121.54C142.848 121.98 141.848 122.2 140.648 122.2ZM148.163 122C148.03 122 147.91 121.953 147.803 121.86C147.71 121.753 147.663 121.633 147.663 121.5V112.12C147.663 111.973 147.71 111.853 147.803 111.76C147.897 111.653 148.017 111.6 148.163 111.6H150.603C150.75 111.6 150.87 111.653 150.963 111.76C151.07 111.853 151.123 111.973 151.123 112.12V112.88C151.497 112.467 151.93 112.153 152.423 111.94C152.93 111.713 153.49 111.6 154.103 111.6H155.003C155.15 111.6 155.27 111.647 155.363 111.74C155.457 111.833 155.503 111.953 155.503 112.1V114.28C155.503 114.413 155.457 114.533 155.363 114.64C155.27 114.733 155.15 114.78 155.003 114.78H152.983C152.45 114.78 152.037 114.927 151.743 115.22C151.463 115.513 151.323 115.927 151.323 116.46V121.5C151.323 121.647 151.27 121.767 151.163 121.86C151.07 121.953 150.95 122 150.803 122H148.163ZM161.684 122.2C160.057 122.2 158.777 121.767 157.844 120.9C156.911 120.02 156.431 118.747 156.404 117.08V116.46C156.457 114.873 156.951 113.633 157.884 112.74C158.817 111.847 160.077 111.4 161.664 111.4C162.811 111.4 163.777 111.633 164.564 112.1C165.364 112.553 165.957 113.187 166.344 114C166.744 114.8 166.944 115.713 166.944 116.74V117.24C166.944 117.387 166.891 117.513 166.784 117.62C166.691 117.713 166.571 117.76 166.424 117.76H160.084V117.88C160.097 118.48 160.237 118.967 160.504 119.34C160.771 119.7 161.151 119.88 161.644 119.88C161.964 119.88 162.217 119.82 162.404 119.7C162.604 119.567 162.791 119.4 162.964 119.2C163.084 119.067 163.177 118.987 163.244 118.96C163.324 118.92 163.444 118.9 163.604 118.9H166.224C166.344 118.9 166.444 118.94 166.524 119.02C166.617 119.087 166.664 119.173 166.664 119.28C166.664 119.627 166.464 120.033 166.064 120.5C165.677 120.967 165.104 121.367 164.344 121.7C163.597 122.033 162.711 122.2 161.684 122.2ZM163.264 115.72V115.68C163.264 115.04 163.124 114.547 162.844 114.2C162.564 113.84 162.171 113.66 161.664 113.66C161.157 113.66 160.764 113.84 160.484 114.2C160.217 114.547 160.084 115.04 160.084 115.68V115.72H163.264ZM171.878 122.2C171.171 122.2 170.524 122.067 169.938 121.8C169.364 121.52 168.911 121.14 168.578 120.66C168.258 120.18 168.098 119.653 168.098 119.08C168.098 118.173 168.471 117.44 169.218 116.88C169.978 116.307 171.018 115.913 172.338 115.7L174.818 115.32V115.08C174.818 114.587 174.718 114.227 174.518 114C174.318 113.773 173.978 113.66 173.498 113.66C173.231 113.66 173.004 113.707 172.818 113.8C172.644 113.893 172.444 114.033 172.218 114.22C172.044 114.367 171.891 114.473 171.758 114.54C171.704 114.633 171.638 114.68 171.558 114.68H169.238C169.104 114.68 168.991 114.64 168.898 114.56C168.818 114.467 168.784 114.36 168.798 114.24C168.811 113.88 168.991 113.48 169.338 113.04C169.684 112.587 170.211 112.2 170.918 111.88C171.624 111.56 172.498 111.4 173.538 111.4C175.191 111.4 176.418 111.767 177.218 112.5C178.018 113.22 178.418 114.2 178.418 115.44V121.5C178.418 121.633 178.371 121.753 178.278 121.86C178.184 121.953 178.064 122 177.918 122H175.458C175.324 122 175.204 121.953 175.098 121.86C175.004 121.753 174.958 121.633 174.958 121.5V120.8C174.664 121.213 174.258 121.553 173.738 121.82C173.218 122.073 172.598 122.2 171.878 122.2ZM172.878 119.84C173.464 119.84 173.938 119.647 174.298 119.26C174.671 118.873 174.858 118.313 174.858 117.58V117.34L173.198 117.62C172.078 117.833 171.518 118.233 171.518 118.82C171.518 119.127 171.644 119.373 171.898 119.56C172.164 119.747 172.491 119.84 172.878 119.84ZM184.953 122.2C183.86 122.2 182.946 122.047 182.213 121.74C181.48 121.433 180.933 121.067 180.573 120.64C180.226 120.213 180.053 119.827 180.053 119.48C180.053 119.347 180.1 119.24 180.193 119.16C180.3 119.067 180.413 119.02 180.533 119.02H182.953C183.033 119.02 183.1 119.047 183.153 119.1C183.38 119.247 183.506 119.333 183.533 119.36C183.786 119.547 184.02 119.693 184.233 119.8C184.46 119.893 184.726 119.94 185.033 119.94C185.393 119.94 185.686 119.873 185.913 119.74C186.153 119.593 186.273 119.393 186.273 119.14C186.273 118.927 186.206 118.753 186.073 118.62C185.953 118.487 185.713 118.36 185.353 118.24C185.006 118.107 184.473 117.973 183.753 117.84C181.446 117.373 180.293 116.307 180.293 114.64C180.293 114.093 180.466 113.573 180.813 113.08C181.173 112.573 181.693 112.167 182.373 111.86C183.066 111.553 183.893 111.4 184.853 111.4C185.826 111.4 186.666 111.553 187.373 111.86C188.093 112.153 188.64 112.513 189.013 112.94C189.386 113.353 189.573 113.733 189.573 114.08C189.573 114.2 189.526 114.307 189.433 114.4C189.353 114.493 189.253 114.54 189.133 114.54H186.933C186.813 114.54 186.72 114.513 186.653 114.46C186.493 114.38 186.333 114.28 186.173 114.16C185.933 114 185.72 113.88 185.533 113.8C185.36 113.707 185.133 113.66 184.853 113.66C184.52 113.66 184.26 113.733 184.073 113.88C183.886 114.027 183.793 114.213 183.793 114.44C183.793 114.64 183.846 114.807 183.953 114.94C184.073 115.06 184.306 115.18 184.653 115.3C185.013 115.42 185.553 115.547 186.273 115.68C187.58 115.907 188.526 116.313 189.113 116.9C189.713 117.473 190.013 118.147 190.013 118.92C190.013 119.92 189.566 120.72 188.673 121.32C187.793 121.907 186.553 122.2 184.953 122.2ZM196.606 122.2C194.979 122.2 193.699 121.767 192.766 120.9C191.833 120.02 191.353 118.747 191.326 117.08V116.46C191.379 114.873 191.873 113.633 192.806 112.74C193.739 111.847 194.999 111.4 196.586 111.4C197.733 111.4 198.699 111.633 199.486 112.1C200.286 112.553 200.879 113.187 201.266 114C201.666 114.8 201.866 115.713 201.866 116.74V117.24C201.866 117.387 201.813 117.513 201.706 117.62C201.613 117.713 201.493 117.76 201.346 117.76H195.006V117.88C195.019 118.48 195.159 118.967 195.426 119.34C195.693 119.7 196.073 119.88 196.566 119.88C196.886 119.88 197.139 119.82 197.326 119.7C197.526 119.567 197.713 119.4 197.886 119.2C198.006 119.067 198.099 118.987 198.166 118.96C198.246 118.92 198.366 118.9 198.526 118.9H201.146C201.266 118.9 201.366 118.94 201.446 119.02C201.539 119.087 201.586 119.173 201.586 119.28C201.586 119.627 201.386 120.033 200.986 120.5C200.599 120.967 200.026 121.367 199.266 121.7C198.519 122.033 197.633 122.2 196.606 122.2ZM198.186 115.72V115.68C198.186 115.04 198.046 114.547 197.766 114.2C197.486 113.84 197.093 113.66 196.586 113.66C196.079 113.66 195.686 113.84 195.406 114.2C195.139 114.547 195.006 115.04 195.006 115.68V115.72H198.186ZM212.859 122.2C211.179 122.2 209.885 121.813 208.979 121.04C208.085 120.253 207.599 119.14 207.519 117.7C207.505 117.527 207.499 117.227 207.499 116.8C207.499 116.373 207.505 116.073 207.519 115.9C207.599 114.487 208.099 113.387 209.019 112.6C209.952 111.8 211.232 111.4 212.859 111.4C214.485 111.4 215.759 111.8 216.679 112.6C217.612 113.387 218.119 114.487 218.199 115.9C218.225 116.247 218.239 116.547 218.239 116.8C218.239 117.053 218.225 117.353 218.199 117.7C218.119 119.14 217.625 120.253 216.719 121.04C215.825 121.813 214.539 122.2 212.859 122.2ZM212.859 119.68C213.405 119.68 213.812 119.513 214.079 119.18C214.345 118.833 214.499 118.307 214.539 117.6C214.552 117.467 214.559 117.2 214.559 116.8C214.559 116.4 214.552 116.133 214.539 116C214.499 115.307 214.345 114.787 214.079 114.44C213.812 114.093 213.405 113.92 212.859 113.92C212.312 113.92 211.905 114.093 211.639 114.44C211.372 114.787 211.219 115.307 211.179 116L211.159 116.8L211.179 117.6C211.219 118.307 211.372 118.833 211.639 119.18C211.905 119.513 212.312 119.68 212.859 119.68ZM221.766 122C221.62 122 221.493 121.953 221.386 121.86C221.293 121.767 221.246 121.647 221.246 121.5V114.32H219.746C219.6 114.32 219.473 114.273 219.366 114.18C219.273 114.087 219.226 113.967 219.226 113.82V112.1C219.226 111.953 219.273 111.833 219.366 111.74C219.473 111.647 219.6 111.6 219.746 111.6H221.246V111C221.246 109.667 221.633 108.7 222.406 108.1C223.18 107.5 224.286 107.2 225.726 107.2H227.306C227.453 107.2 227.573 107.247 227.666 107.34C227.773 107.433 227.826 107.553 227.826 107.7V109.42C227.826 109.567 227.773 109.687 227.666 109.78C227.573 109.873 227.453 109.92 227.306 109.92H225.886C225.46 109.92 225.153 110.02 224.966 110.22C224.793 110.407 224.706 110.7 224.706 111.1V111.6H227.106C227.253 111.6 227.373 111.647 227.466 111.74C227.573 111.833 227.626 111.953 227.626 112.1V113.82C227.626 113.967 227.573 114.087 227.466 114.18C227.373 114.273 227.253 114.32 227.106 114.32H224.706V121.5C224.706 121.633 224.66 121.753 224.566 121.86C224.473 121.953 224.353 122 224.206 122H221.766ZM236.032 122C235.845 122 235.699 121.96 235.592 121.88C235.499 121.787 235.419 121.66 235.352 121.5L231.552 112.22C231.539 112.18 231.532 112.127 231.532 112.06C231.532 111.927 231.572 111.82 231.652 111.74C231.745 111.647 231.859 111.6 231.992 111.6H234.372C234.652 111.6 234.852 111.74 234.972 112.02L237.152 118L239.352 112.02C239.392 111.913 239.459 111.82 239.552 111.74C239.645 111.647 239.772 111.6 239.932 111.6H242.332C242.452 111.6 242.559 111.647 242.652 111.74C242.745 111.82 242.792 111.927 242.792 112.06L242.752 112.22L238.972 121.5C238.905 121.66 238.819 121.787 238.712 121.88C238.605 121.96 238.459 122 238.272 122H236.032ZM244.785 110.16C244.638 110.16 244.518 110.113 244.425 110.02C244.331 109.913 244.285 109.787 244.285 109.64V107.78C244.285 107.633 244.331 107.513 244.425 107.42C244.531 107.313 244.651 107.26 244.785 107.26H247.285C247.431 107.26 247.551 107.313 247.645 107.42C247.751 107.513 247.805 107.633 247.805 107.78V109.64C247.805 109.787 247.751 109.913 247.645 110.02C247.551 110.113 247.431 110.16 247.285 110.16H244.785ZM244.785 122C244.651 122 244.531 121.953 244.425 121.86C244.331 121.753 244.285 121.633 244.285 121.5V112.1C244.285 111.953 244.331 111.833 244.425 111.74C244.531 111.647 244.651 111.6 244.785 111.6H247.285C247.431 111.6 247.551 111.647 247.645 111.74C247.751 111.833 247.805 111.953 247.805 112.1V121.5C247.805 121.647 247.751 121.767 247.645 121.86C247.551 121.953 247.431 122 247.285 122H244.785ZM255.085 122.2C253.405 122.2 252.112 121.813 251.205 121.04C250.312 120.253 249.825 119.14 249.745 117.7C249.732 117.527 249.725 117.227 249.725 116.8C249.725 116.373 249.732 116.073 249.745 115.9C249.825 114.487 250.325 113.387 251.245 112.6C252.179 111.8 253.459 111.4 255.085 111.4C256.712 111.4 257.985 111.8 258.905 112.6C259.839 113.387 260.345 114.487 260.425 115.9C260.452 116.247 260.465 116.547 260.465 116.8C260.465 117.053 260.452 117.353 260.425 117.7C260.345 119.14 259.852 120.253 258.945 121.04C258.052 121.813 256.765 122.2 255.085 122.2ZM255.085 119.68C255.632 119.68 256.039 119.513 256.305 119.18C256.572 118.833 256.725 118.307 256.765 117.6C256.779 117.467 256.785 117.2 256.785 116.8C256.785 116.4 256.779 116.133 256.765 116C256.725 115.307 256.572 114.787 256.305 114.44C256.039 114.093 255.632 113.92 255.085 113.92C254.539 113.92 254.132 114.093 253.865 114.44C253.599 114.787 253.445 115.307 253.405 116L253.385 116.8L253.405 117.6C253.445 118.307 253.599 118.833 253.865 119.18C254.132 119.513 254.539 119.68 255.085 119.68ZM262.89 122C262.744 122 262.617 121.953 262.51 121.86C262.417 121.767 262.37 121.647 262.37 121.5V108.3C262.37 108.153 262.417 108.033 262.51 107.94C262.617 107.847 262.744 107.8 262.89 107.8H265.39C265.537 107.8 265.657 107.847 265.75 107.94C265.844 108.033 265.89 108.153 265.89 108.3V121.5C265.89 121.633 265.844 121.753 265.75 121.86C265.657 121.953 265.537 122 265.39 122H262.89ZM273.051 122.2C271.425 122.2 270.145 121.767 269.211 120.9C268.278 120.02 267.798 118.747 267.771 117.08V116.46C267.825 114.873 268.318 113.633 269.251 112.74C270.185 111.847 271.445 111.4 273.031 111.4C274.178 111.4 275.145 111.633 275.931 112.1C276.731 112.553 277.325 113.187 277.711 114C278.111 114.8 278.311 115.713 278.311 116.74V117.24C278.311 117.387 278.258 117.513 278.151 117.62C278.058 117.713 277.938 117.76 277.791 117.76H271.451V117.88C271.465 118.48 271.605 118.967 271.871 119.34C272.138 119.7 272.518 119.88 273.011 119.88C273.331 119.88 273.585 119.82 273.771 119.7C273.971 119.567 274.158 119.4 274.331 119.2C274.451 119.067 274.545 118.987 274.611 118.96C274.691 118.92 274.811 118.9 274.971 118.9H277.591C277.711 118.9 277.811 118.94 277.891 119.02C277.985 119.087 278.031 119.173 278.031 119.28C278.031 119.627 277.831 120.033 277.431 120.5C277.045 120.967 276.471 121.367 275.711 121.7C274.965 122.033 274.078 122.2 273.051 122.2ZM274.631 115.72V115.68C274.631 115.04 274.491 114.547 274.211 114.2C273.931 113.84 273.538 113.66 273.031 113.66C272.525 113.66 272.131 113.84 271.851 114.2C271.585 114.547 271.451 115.04 271.451 115.68V115.72H274.631ZM280.605 122C280.472 122 280.352 121.953 280.245 121.86C280.152 121.753 280.105 121.633 280.105 121.5V112.1C280.105 111.953 280.152 111.833 280.245 111.74C280.352 111.647 280.472 111.6 280.605 111.6H283.065C283.212 111.6 283.332 111.647 283.425 111.74C283.518 111.833 283.565 111.953 283.565 112.1V112.86C283.925 112.42 284.385 112.067 284.945 111.8C285.518 111.533 286.172 111.4 286.905 111.4C287.665 111.4 288.338 111.573 288.925 111.92C289.525 112.267 289.992 112.78 290.325 113.46C290.672 114.14 290.845 114.96 290.845 115.92V121.5C290.845 121.633 290.798 121.753 290.705 121.86C290.612 121.953 290.492 122 290.345 122H287.685C287.538 122 287.412 121.953 287.305 121.86C287.212 121.767 287.165 121.647 287.165 121.5V116.04C287.165 115.44 287.018 114.98 286.725 114.66C286.445 114.34 286.032 114.18 285.485 114.18C284.952 114.18 284.532 114.347 284.225 114.68C283.918 115 283.765 115.453 283.765 116.04V121.5C283.765 121.633 283.718 121.753 283.625 121.86C283.532 121.953 283.412 122 283.265 122H280.605ZM297.875 122.2C296.355 122.2 295.121 121.8 294.175 121C293.241 120.187 292.741 119.06 292.675 117.62L292.655 116.82L292.675 116C292.728 114.56 293.228 113.433 294.175 112.62C295.121 111.807 296.355 111.4 297.875 111.4C299.035 111.4 300.008 111.607 300.795 112.02C301.581 112.433 302.168 112.927 302.555 113.5C302.941 114.06 303.148 114.573 303.175 115.04C303.188 115.187 303.141 115.313 303.035 115.42C302.928 115.513 302.801 115.56 302.655 115.56H299.975C299.828 115.56 299.715 115.527 299.635 115.46C299.555 115.393 299.481 115.287 299.415 115.14C299.268 114.767 299.075 114.493 298.835 114.32C298.608 114.147 298.315 114.06 297.955 114.06C296.928 114.06 296.395 114.74 296.355 116.1L296.335 116.86L296.355 117.52C296.368 118.213 296.508 118.727 296.775 119.06C297.041 119.38 297.435 119.54 297.955 119.54C298.341 119.54 298.641 119.46 298.855 119.3C299.081 119.127 299.268 118.847 299.415 118.46C299.481 118.313 299.555 118.207 299.635 118.14C299.715 118.073 299.828 118.04 299.975 118.04H302.655C302.788 118.04 302.908 118.087 303.015 118.18C303.121 118.273 303.175 118.387 303.175 118.52C303.175 118.933 302.988 119.433 302.615 120.02C302.255 120.593 301.675 121.1 300.875 121.54C300.075 121.98 299.075 122.2 297.875 122.2ZM309.77 122.2C308.143 122.2 306.863 121.767 305.93 120.9C304.997 120.02 304.517 118.747 304.49 117.08V116.46C304.543 114.873 305.037 113.633 305.97 112.74C306.903 111.847 308.163 111.4 309.75 111.4C310.897 111.4 311.863 111.633 312.65 112.1C313.45 112.553 314.043 113.187 314.43 114C314.83 114.8 315.03 115.713 315.03 116.74V117.24C315.03 117.387 314.977 117.513 314.87 117.62C314.777 117.713 314.657 117.76 314.51 117.76H308.17V117.88C308.183 118.48 308.323 118.967 308.59 119.34C308.857 119.7 309.237 119.88 309.73 119.88C310.05 119.88 310.303 119.82 310.49 119.7C310.69 119.567 310.877 119.4 311.05 119.2C311.17 119.067 311.263 118.987 311.33 118.96C311.41 118.92 311.53 118.9 311.69 118.9H314.31C314.43 118.9 314.53 118.94 314.61 119.02C314.703 119.087 314.75 119.173 314.75 119.28C314.75 119.627 314.55 120.033 314.15 120.5C313.763 120.967 313.19 121.367 312.43 121.7C311.683 122.033 310.797 122.2 309.77 122.2ZM311.35 115.72V115.68C311.35 115.04 311.21 114.547 310.93 114.2C310.65 113.84 310.257 113.66 309.75 113.66C309.243 113.66 308.85 113.84 308.57 114.2C308.303 114.547 308.17 115.04 308.17 115.68V115.72H311.35Z" fill="#303030"/>
<path d="M138.43 71C138.195 71 137.993 70.9253 137.822 70.776C137.673 70.6267 137.598 70.4347 137.598 70.2V49.432C137.598 49.1973 137.673 49.0053 137.822 48.856C137.993 48.6853 138.195 48.6 138.43 48.6H142.046C142.579 48.6 142.963 48.8347 143.198 49.304L148.702 59.16L154.238 49.304C154.473 48.8347 154.857 48.6 155.39 48.6H159.006C159.241 48.6 159.433 48.6853 159.582 48.856C159.753 49.0053 159.838 49.1973 159.838 49.432V70.2C159.838 70.4347 159.753 70.6267 159.582 70.776C159.433 70.9253 159.241 71 159.006 71H154.942C154.729 71 154.537 70.9253 154.366 70.776C154.217 70.6053 154.142 70.4133 154.142 70.2V58.552L150.686 64.888C150.409 65.3787 150.035 65.624 149.566 65.624H147.838C147.411 65.624 147.038 65.3787 146.718 64.888L143.294 58.552V70.2C143.294 70.4347 143.209 70.6267 143.038 70.776C142.889 70.9253 142.697 71 142.462 71H138.43ZM166.976 77.08C166.784 77.08 166.624 77.016 166.496 76.888C166.368 76.76 166.304 76.6 166.304 76.408C166.304 76.2587 166.325 76.12 166.368 75.992L168.896 69.976L162.752 55.448C162.688 55.2773 162.656 55.16 162.656 55.096C162.698 54.8827 162.784 54.712 162.912 54.584C163.061 54.4347 163.232 54.36 163.424 54.36H167.232C167.68 54.36 167.989 54.584 168.16 55.032L171.712 64.12L175.36 55.032C175.573 54.584 175.893 54.36 176.32 54.36H180.096C180.288 54.36 180.448 54.4347 180.576 54.584C180.725 54.712 180.8 54.8613 180.8 55.032C180.8 55.1813 180.778 55.32 180.736 55.448L171.68 76.408C171.466 76.856 171.136 77.08 170.688 77.08H166.976ZM191.185 71C190.951 71 190.748 70.9253 190.577 70.776C190.428 70.6267 190.353 70.4347 190.353 70.2V58.712H187.953C187.719 58.712 187.516 58.6373 187.345 58.488C187.196 58.3387 187.121 58.1467 187.121 57.912V55.16C187.121 54.9253 187.196 54.7333 187.345 54.584C187.516 54.4347 187.719 54.36 187.953 54.36H190.353V53.4C190.353 51.2667 190.972 49.72 192.209 48.76C193.447 47.8 195.217 47.32 197.521 47.32H200.049C200.284 47.32 200.476 47.3947 200.625 47.544C200.796 47.6933 200.881 47.8853 200.881 48.12V50.872C200.881 51.1067 200.796 51.2987 200.625 51.448C200.476 51.5973 200.284 51.672 200.049 51.672H197.777C197.095 51.672 196.604 51.832 196.305 52.152C196.028 52.4507 195.889 52.92 195.889 53.56V54.36H199.729C199.964 54.36 200.156 54.4347 200.305 54.584C200.476 54.7333 200.561 54.9253 200.561 55.16V57.912C200.561 58.1467 200.476 58.3387 200.305 58.488C200.156 58.6373 199.964 58.712 199.729 58.712H195.889V70.2C195.889 70.4133 195.815 70.6053 195.665 70.776C195.516 70.9253 195.324 71 195.089 71H191.185ZM210.398 71.32C207.795 71.32 205.747 70.6267 204.254 69.24C202.76 67.832 201.992 65.7947 201.95 63.128V62.136C202.035 59.5973 202.824 57.6133 204.318 56.184C205.811 54.7547 207.827 54.04 210.366 54.04C212.2 54.04 213.747 54.4133 215.006 55.16C216.286 55.8853 217.235 56.8987 217.854 58.2C218.494 59.48 218.814 60.9413 218.814 62.584V63.384C218.814 63.6187 218.728 63.8213 218.558 63.992C218.408 64.1413 218.216 64.216 217.982 64.216H207.838V64.408C207.859 65.368 208.083 66.1467 208.51 66.744C208.936 67.32 209.544 67.608 210.334 67.608C210.846 67.608 211.251 67.512 211.55 67.32C211.87 67.1067 212.168 66.84 212.446 66.52C212.638 66.3067 212.787 66.1787 212.894 66.136C213.022 66.072 213.214 66.04 213.47 66.04H217.662C217.854 66.04 218.014 66.104 218.142 66.232C218.291 66.3387 218.366 66.4773 218.366 66.648C218.366 67.2027 218.046 67.8533 217.406 68.6C216.787 69.3467 215.87 69.9867 214.654 70.52C213.459 71.0533 212.04 71.32 210.398 71.32ZM212.926 60.952V60.888C212.926 59.864 212.702 59.0747 212.254 58.52C211.806 57.944 211.176 57.656 210.366 57.656C209.555 57.656 208.926 57.944 208.478 58.52C208.051 59.0747 207.838 59.864 207.838 60.888V60.952H212.926ZM226.707 71.32C225.577 71.32 224.542 71.1067 223.603 70.68C222.686 70.232 221.961 69.624 221.427 68.856C220.915 68.088 220.659 67.2453 220.659 66.328C220.659 64.8773 221.257 63.704 222.451 62.808C223.667 61.8907 225.331 61.2613 227.443 60.92L231.411 60.312V59.928C231.411 59.1387 231.251 58.5627 230.931 58.2C230.611 57.8373 230.067 57.656 229.299 57.656C228.873 57.656 228.51 57.7307 228.211 57.88C227.934 58.0293 227.614 58.2533 227.251 58.552C226.974 58.7867 226.729 58.9573 226.515 59.064C226.43 59.2133 226.323 59.288 226.195 59.288H222.483C222.27 59.288 222.089 59.224 221.939 59.096C221.811 58.9467 221.758 58.776 221.779 58.584C221.801 58.008 222.089 57.368 222.643 56.664C223.198 55.9387 224.041 55.32 225.171 54.808C226.302 54.296 227.699 54.04 229.363 54.04C232.009 54.04 233.971 54.6267 235.251 55.8C236.531 56.952 237.171 58.52 237.171 60.504V70.2C237.171 70.4133 237.097 70.6053 236.947 70.776C236.798 70.9253 236.606 71 236.371 71H232.435C232.222 71 232.03 70.9253 231.859 70.776C231.71 70.6053 231.635 70.4133 231.635 70.2V69.08C231.166 69.7413 230.515 70.2853 229.683 70.712C228.851 71.1173 227.859 71.32 226.707 71.32ZM228.307 67.544C229.246 67.544 230.003 67.2347 230.579 66.616C231.177 65.9973 231.475 65.1013 231.475 63.928V63.544L228.819 63.992C227.027 64.3333 226.131 64.9733 226.131 65.912C226.131 66.4027 226.334 66.7973 226.739 67.096C227.166 67.3947 227.689 67.544 228.307 67.544ZM241.452 71C241.239 71 241.047 70.9253 240.876 70.776C240.727 70.6053 240.652 70.4133 240.652 70.2V55.192C240.652 54.9573 240.727 54.7653 240.876 54.616C241.025 54.4453 241.217 54.36 241.452 54.36H245.356C245.591 54.36 245.783 54.4453 245.932 54.616C246.103 54.7653 246.188 54.9573 246.188 55.192V56.408C246.785 55.7467 247.479 55.2453 248.268 54.904C249.079 54.5413 249.975 54.36 250.956 54.36H252.396C252.631 54.36 252.823 54.4347 252.972 54.584C253.121 54.7333 253.196 54.9253 253.196 55.16V58.648C253.196 58.8613 253.121 59.0533 252.972 59.224C252.823 59.3733 252.631 59.448 252.396 59.448H249.164C248.311 59.448 247.649 59.6827 247.18 60.152C246.732 60.6213 246.508 61.2827 246.508 62.136V70.2C246.508 70.4347 246.423 70.6267 246.252 70.776C246.103 70.9253 245.911 71 245.676 71H241.452Z" fill="#940000"/>
<g filter="url(#filter1_d_1235_400)">
<rect x="25" y="21" width="340" height="10" fill="#940000"/>
</g>
<defs>
<filter id="filter0_d_1235_400" x="0" y="0" width="390" height="173" filterUnits="userSpaceOnUse" color-interpolation-filters="sRGB">
<feFlood flood-opacity="0" result="BackgroundImageFix"/>
<feColorMatrix in="SourceAlpha" type="matrix" values="0 0 0 0 0 0 0 0 0 0 0 0 0 0 0 0 0 0 127 0" result="hardAlpha"/>
<feMorphology radius="15" operator="dilate" in="SourceAlpha" result="effect1_dropShadow_1235_400"/>
<feOffset dy="4"/>
<feGaussianBlur stdDeviation="5"/>
<feComposite in2="hardAlpha" operator="out"/>
<feColorMatrix type="matrix" values="0 0 0 0 0 0 0 0 0 0 0 0 0 0 0 0 0 0 0.25 0"/>
<feBlend mode="normal" in2="BackgroundImageFix" result="effect1_dropShadow_1235_400"/>
<feBlend mode="normal" in="SourceGraphic" in2="effect1_dropShadow_1235_400" result="shape"/>
</filter>
<filter id="filter1_d_1235_400" x="21" y="21" width="348" height="18" filterUnits="userSpaceOnUse" color-interpolation-filters="sRGB">
<feFlood flood-opacity="0" result="BackgroundImageFix"/>
<feColorMatrix in="SourceAlpha" type="matrix" values="0 0 0 0 0 0 0 0 0 0 0 0 0 0 0 0 0 0 127 0" result="hardAlpha"/>
<feOffset dy="4"/>
<feGaussianBlur stdDeviation="2"/>
<feComposite in2="hardAlpha" operator="out"/>
<feColorMatrix type="matrix" values="0 0 0 0 0 0 0 0 0 0 0 0 0 0 0 0 0 0 0.25 0"/>
<feBlend mode="normal" in2="BackgroundImageFix" result="effect1_dropShadow_1235_400"/>
<feBlend mode="normal" in="SourceGraphic" in2="effect1_dropShadow_1235_400" result="shape"/>
</filter>
</defs>
</svg>
