<svg width="375" height="143" viewBox="0 0 375 143" fill="none" xmlns="http://www.w3.org/2000/svg">
<g filter="url(#filter0_d_934_1116)">
<rect x="18" y="21" width="340" height="93" fill="white"/>
</g>
<g filter="url(#filter1_d_934_1116)">
<rect x="18" y="21" width="340" height="10" fill="#940000"/>
</g>
<path d="M100.534 67.32C97.5048 67.32 95.1155 66.584 93.3661 65.112C91.6168 63.64 90.6888 61.4747 90.5821 58.616C90.5608 58.0187 90.5501 57.1013 90.5501 55.864C90.5501 54.6267 90.5608 53.6987 90.5821 53.08C90.6675 50.264 91.5955 48.0987 93.3661 46.584C95.1581 45.048 97.5475 44.28 100.534 44.28C103.499 44.28 105.867 45.048 107.638 46.584C109.43 48.0987 110.369 50.264 110.454 53.08C110.497 54.3173 110.518 55.2453 110.518 55.864C110.518 56.504 110.497 57.4213 110.454 58.616C110.347 61.4747 109.419 63.64 107.67 65.112C105.942 66.584 103.563 67.32 100.534 67.32ZM100.534 62.52C101.643 62.52 102.529 62.1893 103.19 61.528C103.851 60.8453 104.203 59.8107 104.246 58.424C104.289 57.1867 104.31 56.3013 104.31 55.768C104.31 55.2347 104.289 54.3707 104.246 53.176C104.203 51.7893 103.851 50.7653 103.19 50.104C102.529 49.4213 101.643 49.08 100.534 49.08C99.4035 49.08 98.5075 49.4213 97.8461 50.104C97.1848 50.7653 96.8328 51.7893 96.7901 53.176C96.7688 53.7733 96.7581 54.6373 96.7581 55.768C96.7581 56.92 96.7688 57.8053 96.7901 58.424C96.8328 59.8107 97.1848 60.8453 97.8461 61.528C98.5075 62.1893 99.4035 62.52 100.534 62.52ZM114.609 67C114.374 67 114.172 66.9253 114.001 66.776C113.852 66.6267 113.777 66.4347 113.777 66.2V45.08C113.777 44.8453 113.852 44.6533 114.001 44.504C114.172 44.3547 114.374 44.28 114.609 44.28H118.609C118.844 44.28 119.036 44.3547 119.185 44.504C119.334 44.6533 119.409 44.8453 119.409 45.08V66.2C119.409 66.4133 119.334 66.6053 119.185 66.776C119.036 66.9253 118.844 67 118.609 67H114.609ZM123.858 48.056C123.624 48.056 123.432 47.9813 123.282 47.832C123.133 47.6613 123.058 47.4587 123.058 47.224V44.248C123.058 44.0133 123.133 43.8213 123.282 43.672C123.453 43.5013 123.645 43.416 123.858 43.416H127.858C128.093 43.416 128.285 43.5013 128.434 43.672C128.605 43.8213 128.69 44.0133 128.69 44.248V47.224C128.69 47.4587 128.605 47.6613 128.434 47.832C128.285 47.9813 128.093 48.056 127.858 48.056H123.858ZM123.858 67C123.645 67 123.453 66.9253 123.282 66.776C123.133 66.6053 123.058 66.4133 123.058 66.2V51.16C123.058 50.9253 123.133 50.7333 123.282 50.584C123.453 50.4347 123.645 50.36 123.858 50.36H127.858C128.093 50.36 128.285 50.4347 128.434 50.584C128.605 50.7333 128.69 50.9253 128.69 51.16V66.2C128.69 66.4347 128.605 66.6267 128.434 66.776C128.285 66.9253 128.093 67 127.858 67H123.858ZM138.292 67C137.993 67 137.758 66.936 137.588 66.808C137.438 66.6587 137.31 66.456 137.204 66.2L131.124 51.352C131.102 51.288 131.092 51.2027 131.092 51.096C131.092 50.8827 131.156 50.712 131.284 50.584C131.433 50.4347 131.614 50.36 131.828 50.36H135.636C136.084 50.36 136.404 50.584 136.596 51.032L140.084 60.6L143.604 51.032C143.668 50.8613 143.774 50.712 143.924 50.584C144.073 50.4347 144.276 50.36 144.532 50.36H148.372C148.564 50.36 148.734 50.4347 148.884 50.584C149.033 50.712 149.108 50.8827 149.108 51.096L149.044 51.352L142.996 66.2C142.889 66.456 142.75 66.6587 142.58 66.808C142.409 66.936 142.174 67 141.876 67H138.292ZM158.679 67.32C156.076 67.32 154.028 66.6267 152.535 65.24C151.042 63.832 150.274 61.7947 150.231 59.128V58.136C150.316 55.5973 151.106 53.6133 152.599 52.184C154.092 50.7547 156.108 50.04 158.647 50.04C160.482 50.04 162.028 50.4133 163.287 51.16C164.567 51.8853 165.516 52.8987 166.135 54.2C166.775 55.48 167.095 56.9413 167.095 58.584V59.384C167.095 59.6187 167.01 59.8213 166.839 59.992C166.69 60.1413 166.498 60.216 166.263 60.216H156.119V60.408C156.14 61.368 156.364 62.1467 156.791 62.744C157.218 63.32 157.826 63.608 158.615 63.608C159.127 63.608 159.532 63.512 159.831 63.32C160.151 63.1067 160.45 62.84 160.727 62.52C160.919 62.3067 161.068 62.1787 161.175 62.136C161.303 62.072 161.495 62.04 161.751 62.04H165.943C166.135 62.04 166.295 62.104 166.423 62.232C166.572 62.3387 166.647 62.4773 166.647 62.648C166.647 63.2027 166.327 63.8533 165.687 64.6C165.068 65.3467 164.151 65.9867 162.935 66.52C161.74 67.0533 160.322 67.32 158.679 67.32ZM161.207 56.952V56.888C161.207 55.864 160.983 55.0747 160.535 54.52C160.087 53.944 159.458 53.656 158.647 53.656C157.836 53.656 157.207 53.944 156.759 54.52C156.332 55.0747 156.119 55.864 156.119 56.888V56.952H161.207ZM170.765 67C170.551 67 170.359 66.9253 170.189 66.776C170.039 66.6053 169.965 66.4133 169.965 66.2V51.192C169.965 50.9573 170.039 50.7653 170.189 50.616C170.338 50.4453 170.53 50.36 170.765 50.36H174.669C174.903 50.36 175.095 50.4453 175.245 50.616C175.415 50.7653 175.501 50.9573 175.501 51.192V52.408C176.098 51.7467 176.791 51.2453 177.581 50.904C178.391 50.5413 179.287 50.36 180.269 50.36H181.709C181.943 50.36 182.135 50.4347 182.285 50.584C182.434 50.7333 182.509 50.9253 182.509 51.16V54.648C182.509 54.8613 182.434 55.0533 182.285 55.224C182.135 55.3733 181.943 55.448 181.709 55.448H178.477C177.623 55.448 176.962 55.6827 176.493 56.152C176.045 56.6213 175.821 57.2827 175.821 58.136V66.2C175.821 66.4347 175.735 66.6267 175.565 66.776C175.415 66.9253 175.223 67 174.989 67H170.765ZM199.672 67.32C197.602 67.32 195.842 67.0213 194.392 66.424C192.941 65.8267 191.842 65.0373 191.096 64.056C190.349 63.0747 189.954 62.008 189.912 60.856C189.912 60.664 189.976 60.504 190.104 60.376C190.253 60.248 190.424 60.184 190.616 60.184H194.872C195.128 60.184 195.33 60.2267 195.48 60.312C195.65 60.3973 195.832 60.5467 196.024 60.76C196.301 61.272 196.728 61.6987 197.304 62.04C197.901 62.36 198.69 62.52 199.672 62.52C200.824 62.52 201.709 62.3493 202.328 62.008C202.946 61.6453 203.256 61.1547 203.256 60.536C203.256 60.088 203.096 59.7253 202.776 59.448C202.456 59.1493 201.944 58.8933 201.24 58.68C200.536 58.4453 199.522 58.1893 198.2 57.912C195.618 57.4 193.688 56.6213 192.408 55.576C191.128 54.5307 190.488 53.0373 190.488 51.096C190.488 49.7733 190.85 48.6 191.576 47.576C192.322 46.5307 193.368 45.72 194.712 45.144C196.077 44.568 197.656 44.28 199.448 44.28C201.325 44.28 202.946 44.6107 204.312 45.272C205.698 45.912 206.754 46.7227 207.48 47.704C208.226 48.664 208.621 49.6133 208.664 50.552C208.664 50.744 208.6 50.9147 208.472 51.064C208.344 51.192 208.184 51.256 207.992 51.256H203.512C203.042 51.256 202.68 51.064 202.424 50.68C202.296 50.232 201.965 49.8587 201.432 49.56C200.898 49.24 200.237 49.08 199.448 49.08C198.552 49.08 197.858 49.24 197.368 49.56C196.877 49.88 196.632 50.3493 196.632 50.968C196.632 51.5867 196.952 52.0773 197.592 52.44C198.232 52.7813 199.426 53.1333 201.176 53.496C203.181 53.8587 204.77 54.3173 205.944 54.872C207.138 55.4053 208.013 56.1093 208.568 56.984C209.144 57.8373 209.432 58.9253 209.432 60.248C209.432 61.6987 209.016 62.9573 208.184 64.024C207.352 65.0907 206.2 65.912 204.728 66.488C203.256 67.0427 201.57 67.32 199.672 67.32ZM220.888 67C216.365 67 214.104 64.8773 214.104 60.632V54.712H211.576C211.363 54.712 211.171 54.6373 211 54.488C210.851 54.3173 210.776 54.1253 210.776 53.912V51.16C210.776 50.9253 210.851 50.7333 211 50.584C211.171 50.4347 211.363 50.36 211.576 50.36H214.104V45.08C214.104 44.8453 214.179 44.6533 214.328 44.504C214.499 44.3547 214.691 44.28 214.904 44.28H218.84C219.075 44.28 219.267 44.3547 219.416 44.504C219.565 44.6533 219.64 44.8453 219.64 45.08V50.36H223.64C223.875 50.36 224.067 50.4347 224.216 50.584C224.387 50.7333 224.472 50.9253 224.472 51.16V53.912C224.472 54.1467 224.387 54.3387 224.216 54.488C224.067 54.6373 223.875 54.712 223.64 54.712H219.64V60.152C219.64 60.8987 219.779 61.464 220.056 61.848C220.333 62.232 220.781 62.424 221.4 62.424H223.928C224.163 62.424 224.355 62.5093 224.504 62.68C224.653 62.8293 224.728 63.0213 224.728 63.256V66.2C224.728 66.4133 224.653 66.6053 224.504 66.776C224.355 66.9253 224.163 67 223.928 67H220.888ZM235.308 67.32C232.62 67.32 230.551 66.7013 229.1 65.464C227.671 64.2053 226.892 62.424 226.764 60.12C226.743 59.8427 226.732 59.3627 226.732 58.68C226.732 57.9973 226.743 57.5173 226.764 57.24C226.892 54.9787 227.692 53.2187 229.164 51.96C230.658 50.68 232.706 50.04 235.308 50.04C237.911 50.04 239.948 50.68 241.42 51.96C242.914 53.2187 243.724 54.9787 243.852 57.24C243.895 57.7947 243.916 58.2747 243.916 58.68C243.916 59.0853 243.895 59.5653 243.852 60.12C243.724 62.424 242.935 64.2053 241.484 65.464C240.055 66.7013 237.996 67.32 235.308 67.32ZM235.308 63.288C236.183 63.288 236.834 63.0213 237.26 62.488C237.687 61.9333 237.932 61.0907 237.996 59.96C238.018 59.7467 238.028 59.32 238.028 58.68C238.028 58.04 238.018 57.6133 237.996 57.4C237.932 56.2907 237.687 55.4587 237.26 54.904C236.834 54.3493 236.183 54.072 235.308 54.072C234.434 54.072 233.783 54.3493 233.356 54.904C232.93 55.4587 232.684 56.2907 232.62 57.4L232.588 58.68L232.62 59.96C232.684 61.0907 232.93 61.9333 233.356 62.488C233.783 63.0213 234.434 63.288 235.308 63.288ZM247.765 67C247.551 67 247.359 66.9253 247.189 66.776C247.039 66.6053 246.965 66.4133 246.965 66.2V51.16C246.965 50.9253 247.039 50.7333 247.189 50.584C247.359 50.4347 247.551 50.36 247.765 50.36H251.701C251.935 50.36 252.127 50.4347 252.277 50.584C252.426 50.7333 252.501 50.9253 252.501 51.16V52.376C253.077 51.672 253.813 51.1067 254.709 50.68C255.626 50.2533 256.671 50.04 257.845 50.04C259.061 50.04 260.138 50.3173 261.077 50.872C262.037 51.4267 262.783 52.248 263.317 53.336C263.871 54.424 264.149 55.736 264.149 57.272V66.2C264.149 66.4133 264.074 66.6053 263.925 66.776C263.775 66.9253 263.583 67 263.349 67H259.093C258.858 67 258.655 66.9253 258.485 66.776C258.335 66.6267 258.261 66.4347 258.261 66.2V57.464C258.261 56.504 258.026 55.768 257.557 55.256C257.109 54.744 256.447 54.488 255.573 54.488C254.719 54.488 254.047 54.7547 253.557 55.288C253.066 55.8 252.821 56.5253 252.821 57.464V66.2C252.821 66.4133 252.746 66.6053 252.597 66.776C252.447 66.9253 252.255 67 252.021 67H247.765ZM275.46 67.32C272.857 67.32 270.809 66.6267 269.316 65.24C267.823 63.832 267.055 61.7947 267.012 59.128V58.136C267.097 55.5973 267.887 53.6133 269.38 52.184C270.873 50.7547 272.889 50.04 275.428 50.04C277.263 50.04 278.809 50.4133 280.068 51.16C281.348 51.8853 282.297 52.8987 282.916 54.2C283.556 55.48 283.876 56.9413 283.876 58.584V59.384C283.876 59.6187 283.791 59.8213 283.62 59.992C283.471 60.1413 283.279 60.216 283.044 60.216H272.9V60.408C272.921 61.368 273.145 62.1467 273.572 62.744C273.999 63.32 274.607 63.608 275.396 63.608C275.908 63.608 276.313 63.512 276.612 63.32C276.932 63.1067 277.231 62.84 277.508 62.52C277.7 62.3067 277.849 62.1787 277.956 62.136C278.084 62.072 278.276 62.04 278.532 62.04H282.724C282.916 62.04 283.076 62.104 283.204 62.232C283.353 62.3387 283.428 62.4773 283.428 62.648C283.428 63.2027 283.108 63.8533 282.468 64.6C281.849 65.3467 280.932 65.9867 279.716 66.52C278.521 67.0533 277.103 67.32 275.46 67.32ZM277.988 56.952V56.888C277.988 55.864 277.764 55.0747 277.316 54.52C276.868 53.944 276.239 53.656 275.428 53.656C274.617 53.656 273.988 53.944 273.54 54.52C273.113 55.0747 272.9 55.864 272.9 56.888V56.952H277.988Z" fill="#940000"/>
<path d="M126.999 94C126.865 94 126.745 93.9533 126.639 93.86C126.545 93.7533 126.499 93.6333 126.499 93.5V80.52C126.499 80.3733 126.545 80.2533 126.639 80.16C126.732 80.0533 126.852 80 126.999 80H136.299C136.445 80 136.565 80.0533 136.659 80.16C136.765 80.2533 136.819 80.3733 136.819 80.52V82.64C136.819 82.7867 136.765 82.9067 136.659 83C136.565 83.0933 136.445 83.14 136.299 83.14H130.179V85.92H135.899C136.045 85.92 136.165 85.9733 136.259 86.08C136.365 86.1733 136.419 86.2933 136.419 86.44V88.56C136.419 88.7067 136.365 88.8267 136.259 88.92C136.165 89.0133 136.045 89.06 135.899 89.06H130.179V93.5C130.179 93.6333 130.132 93.7533 130.039 93.86C129.945 93.9533 129.825 94 129.679 94H126.999ZM139.201 82.16C139.054 82.16 138.934 82.1133 138.841 82.02C138.747 81.9133 138.701 81.7867 138.701 81.64V79.78C138.701 79.6333 138.747 79.5133 138.841 79.42C138.947 79.3133 139.067 79.26 139.201 79.26H141.701C141.847 79.26 141.967 79.3133 142.061 79.42C142.167 79.5133 142.221 79.6333 142.221 79.78V81.64C142.221 81.7867 142.167 81.9133 142.061 82.02C141.967 82.1133 141.847 82.16 141.701 82.16H139.201ZM139.201 94C139.067 94 138.947 93.9533 138.841 93.86C138.747 93.7533 138.701 93.6333 138.701 93.5V84.1C138.701 83.9533 138.747 83.8333 138.841 83.74C138.947 83.6467 139.067 83.6 139.201 83.6H141.701C141.847 83.6 141.967 83.6467 142.061 83.74C142.167 83.8333 142.221 83.9533 142.221 84.1V93.5C142.221 93.6467 142.167 93.7667 142.061 93.86C141.967 93.9533 141.847 94 141.701 94H139.201ZM145.021 94C144.875 94 144.748 93.9533 144.641 93.86C144.548 93.7667 144.501 93.6467 144.501 93.5V80.3C144.501 80.1533 144.548 80.0333 144.641 79.94C144.748 79.8467 144.875 79.8 145.021 79.8H147.521C147.668 79.8 147.788 79.8467 147.881 79.94C147.975 80.0333 148.021 80.1533 148.021 80.3V93.5C148.021 93.6333 147.975 93.7533 147.881 93.86C147.788 93.9533 147.668 94 147.521 94H145.021ZM150.802 94C150.669 94 150.549 93.9533 150.442 93.86C150.349 93.7533 150.302 93.6333 150.302 93.5V84.1C150.302 83.9533 150.349 83.8333 150.442 83.74C150.549 83.6467 150.669 83.6 150.802 83.6H153.122C153.269 83.6 153.389 83.6467 153.482 83.74C153.575 83.8333 153.622 83.9533 153.622 84.1V84.78C153.942 84.3933 154.355 84.0667 154.862 83.8C155.369 83.5333 155.942 83.4 156.582 83.4C158.049 83.4 159.055 83.9733 159.602 85.12C159.922 84.6133 160.369 84.2 160.942 83.88C161.515 83.56 162.129 83.4 162.782 83.4C163.875 83.4 164.762 83.7733 165.442 84.52C166.135 85.2533 166.482 86.3533 166.482 87.82V93.5C166.482 93.6333 166.435 93.7533 166.342 93.86C166.249 93.9533 166.129 94 165.982 94H163.522C163.375 94 163.249 93.9533 163.142 93.86C163.049 93.7667 163.002 93.6467 163.002 93.5V87.96C163.002 87.3467 162.869 86.9 162.602 86.62C162.349 86.3267 162.002 86.18 161.562 86.18C161.149 86.18 160.809 86.3267 160.542 86.62C160.289 86.9 160.162 87.3467 160.162 87.96V93.5C160.162 93.6333 160.115 93.7533 160.022 93.86C159.929 93.9533 159.809 94 159.662 94H157.202C157.055 94 156.929 93.9533 156.822 93.86C156.729 93.7667 156.682 93.6467 156.682 93.5V87.96C156.682 87.3467 156.549 86.9 156.282 86.62C156.015 86.3267 155.669 86.18 155.242 86.18C154.829 86.18 154.489 86.3267 154.222 86.62C153.955 86.9 153.822 87.34 153.822 87.94V93.5C153.822 93.6333 153.775 93.7533 153.682 93.86C153.589 93.9533 153.469 94 153.322 94H150.802ZM173.661 94.2C171.981 94.2 170.688 93.8133 169.781 93.04C168.888 92.2533 168.401 91.14 168.321 89.7C168.308 89.5267 168.301 89.2267 168.301 88.8C168.301 88.3733 168.308 88.0733 168.321 87.9C168.401 86.4867 168.901 85.3867 169.821 84.6C170.755 83.8 172.035 83.4 173.661 83.4C175.288 83.4 176.561 83.8 177.481 84.6C178.415 85.3867 178.921 86.4867 179.001 87.9C179.028 88.2467 179.041 88.5467 179.041 88.8C179.041 89.0533 179.028 89.3533 179.001 89.7C178.921 91.14 178.428 92.2533 177.521 93.04C176.628 93.8133 175.341 94.2 173.661 94.2ZM173.661 91.68C174.208 91.68 174.615 91.5133 174.881 91.18C175.148 90.8333 175.301 90.3067 175.341 89.6C175.355 89.4667 175.361 89.2 175.361 88.8C175.361 88.4 175.355 88.1333 175.341 88C175.301 87.3067 175.148 86.7867 174.881 86.44C174.615 86.0933 174.208 85.92 173.661 85.92C173.115 85.92 172.708 86.0933 172.441 86.44C172.175 86.7867 172.021 87.3067 171.981 88L171.961 88.8L171.981 89.6C172.021 90.3067 172.175 90.8333 172.441 91.18C172.708 91.5133 173.115 91.68 173.661 91.68ZM186.147 98.4C184.867 98.4 183.827 98.1933 183.027 97.78C182.227 97.3667 181.653 96.8867 181.307 96.34C180.96 95.8067 180.787 95.36 180.787 95C180.787 94.8667 180.84 94.7533 180.947 94.66C181.053 94.5667 181.173 94.52 181.307 94.52H183.987C184.12 94.52 184.227 94.5467 184.307 94.6C184.387 94.6667 184.46 94.7733 184.527 94.92C184.66 95.2133 184.833 95.44 185.047 95.6C185.26 95.7733 185.593 95.86 186.047 95.86C186.62 95.86 187.047 95.7133 187.327 95.42C187.607 95.14 187.747 94.6667 187.747 94V92.66C187.04 93.3933 186.073 93.76 184.847 93.76C183.5 93.76 182.467 93.3733 181.747 92.6C181.04 91.8133 180.653 90.66 180.587 89.14L180.567 88.6C180.567 86.9733 180.927 85.7 181.647 84.78C182.38 83.86 183.447 83.4 184.847 83.4C185.527 83.4 186.127 83.5333 186.647 83.8C187.167 84.0533 187.6 84.4 187.947 84.84V84.12C187.947 83.9733 187.993 83.8533 188.087 83.76C188.18 83.6533 188.3 83.6 188.447 83.6H190.887C191.033 83.6 191.153 83.6533 191.247 83.76C191.353 83.8533 191.407 83.9733 191.407 84.12V93.7C191.407 95.2333 190.947 96.4 190.027 97.2C189.107 98 187.813 98.4 186.147 98.4ZM185.987 91.06C186.56 91.06 186.987 90.8867 187.267 90.54C187.547 90.1933 187.707 89.7533 187.747 89.22C187.76 89.1267 187.767 88.9267 187.767 88.62C187.767 88.3 187.76 88.1 187.747 88.02C187.707 87.4733 187.547 87.0333 187.267 86.7C186.987 86.3533 186.56 86.18 185.987 86.18C185.4 86.18 184.973 86.36 184.707 86.72C184.44 87.0667 184.293 87.5533 184.267 88.18L184.247 88.62C184.247 89.38 184.373 89.98 184.627 90.42C184.88 90.8467 185.333 91.06 185.987 91.06ZM194.201 94C194.067 94 193.947 93.9533 193.841 93.86C193.747 93.7533 193.701 93.6333 193.701 93.5V84.12C193.701 83.9733 193.747 83.8533 193.841 83.76C193.934 83.6533 194.054 83.6 194.201 83.6H196.641C196.787 83.6 196.907 83.6533 197.001 83.76C197.107 83.8533 197.161 83.9733 197.161 84.12V84.88C197.534 84.4667 197.967 84.1533 198.461 83.94C198.967 83.7133 199.527 83.6 200.141 83.6H201.041C201.187 83.6 201.307 83.6467 201.401 83.74C201.494 83.8333 201.541 83.9533 201.541 84.1V86.28C201.541 86.4133 201.494 86.5333 201.401 86.64C201.307 86.7333 201.187 86.78 201.041 86.78H199.021C198.487 86.78 198.074 86.9267 197.781 87.22C197.501 87.5133 197.361 87.9267 197.361 88.46V93.5C197.361 93.6467 197.307 93.7667 197.201 93.86C197.107 93.9533 196.987 94 196.841 94H194.201ZM205.884 94.2C205.177 94.2 204.53 94.0667 203.944 93.8C203.37 93.52 202.917 93.14 202.584 92.66C202.264 92.18 202.104 91.6533 202.104 91.08C202.104 90.1733 202.477 89.44 203.224 88.88C203.984 88.3067 205.024 87.9133 206.344 87.7L208.824 87.32V87.08C208.824 86.5867 208.724 86.2267 208.524 86C208.324 85.7733 207.984 85.66 207.504 85.66C207.237 85.66 207.01 85.7067 206.824 85.8C206.65 85.8933 206.45 86.0333 206.224 86.22C206.05 86.3667 205.897 86.4733 205.764 86.54C205.71 86.6333 205.644 86.68 205.564 86.68H203.244C203.11 86.68 202.997 86.64 202.904 86.56C202.824 86.4667 202.79 86.36 202.804 86.24C202.817 85.88 202.997 85.48 203.344 85.04C203.69 84.5867 204.217 84.2 204.924 83.88C205.63 83.56 206.504 83.4 207.544 83.4C209.197 83.4 210.424 83.7667 211.224 84.5C212.024 85.22 212.424 86.2 212.424 87.44V93.5C212.424 93.6333 212.377 93.7533 212.284 93.86C212.19 93.9533 212.07 94 211.924 94H209.464C209.33 94 209.21 93.9533 209.104 93.86C209.01 93.7533 208.964 93.6333 208.964 93.5V92.8C208.67 93.2133 208.264 93.5533 207.744 93.82C207.224 94.0733 206.604 94.2 205.884 94.2ZM206.884 91.84C207.47 91.84 207.944 91.6467 208.304 91.26C208.677 90.8733 208.864 90.3133 208.864 89.58V89.34L207.204 89.62C206.084 89.8333 205.524 90.2333 205.524 90.82C205.524 91.1267 205.65 91.3733 205.904 91.56C206.17 91.7467 206.497 91.84 206.884 91.84ZM215.119 97.8C214.972 97.8 214.846 97.7533 214.739 97.66C214.646 97.5667 214.599 97.4467 214.599 97.3V84.1C214.599 83.9533 214.646 83.8333 214.739 83.74C214.846 83.6467 214.972 83.6 215.119 83.6H217.499C217.646 83.6 217.766 83.6467 217.859 83.74C217.952 83.8333 217.999 83.9533 217.999 84.1V84.82C218.719 83.8733 219.752 83.4 221.099 83.4C222.392 83.4 223.406 83.8067 224.139 84.62C224.886 85.42 225.286 86.5667 225.339 88.06C225.352 88.2333 225.359 88.48 225.359 88.8C225.359 89.12 225.352 89.3733 225.339 89.56C225.286 91 224.886 92.1333 224.139 92.96C223.392 93.7867 222.379 94.2 221.099 94.2C219.806 94.2 218.839 93.76 218.199 92.88V97.3C218.199 97.4467 218.152 97.5667 218.059 97.66C217.966 97.7533 217.846 97.8 217.699 97.8H215.119ZM219.939 91.42C220.539 91.42 220.966 91.2467 221.219 90.9C221.486 90.54 221.639 90.0467 221.679 89.42C221.692 89.2867 221.699 89.08 221.699 88.8C221.699 88.52 221.692 88.3133 221.679 88.18C221.639 87.5533 221.486 87.0667 221.219 86.72C220.966 86.36 220.539 86.18 219.939 86.18C219.366 86.18 218.939 86.3667 218.659 86.74C218.379 87.1 218.226 87.56 218.199 88.12C218.186 88.2933 218.179 88.5467 218.179 88.88C218.179 89.2 218.186 89.4467 218.199 89.62C218.226 90.14 218.379 90.5733 218.659 90.92C218.952 91.2533 219.379 91.42 219.939 91.42ZM227.795 94C227.648 94 227.521 93.9533 227.415 93.86C227.321 93.7667 227.275 93.6467 227.275 93.5V80.3C227.275 80.1533 227.321 80.0333 227.415 79.94C227.521 79.8467 227.648 79.8 227.795 79.8H230.495C230.641 79.8 230.761 79.8467 230.855 79.94C230.961 80.0333 231.015 80.1533 231.015 80.3V84.76C231.788 83.8533 232.835 83.4 234.155 83.4C234.915 83.4 235.601 83.5733 236.215 83.92C236.828 84.2667 237.308 84.78 237.655 85.46C238.001 86.14 238.175 86.96 238.175 87.92V93.5C238.175 93.6467 238.121 93.7667 238.015 93.86C237.921 93.9533 237.801 94 237.655 94H234.935C234.801 94 234.681 93.9533 234.575 93.86C234.481 93.7533 234.435 93.6333 234.435 93.5V88.04C234.435 87.4533 234.288 87 233.995 86.68C233.701 86.3467 233.281 86.18 232.735 86.18C232.201 86.18 231.781 86.3467 231.475 86.68C231.168 87 231.015 87.4533 231.015 88.04V93.5C231.015 93.6467 230.961 93.7667 230.855 93.86C230.761 93.9533 230.641 94 230.495 94H227.795ZM241.95 97.8C241.83 97.8 241.73 97.76 241.65 97.68C241.57 97.6 241.53 97.5 241.53 97.38C241.53 97.2867 241.543 97.2 241.57 97.12L243.15 93.36L239.31 84.28C239.27 84.1733 239.25 84.1 239.25 84.06C239.276 83.9267 239.33 83.82 239.41 83.74C239.503 83.6467 239.61 83.6 239.73 83.6H242.11C242.39 83.6 242.583 83.74 242.69 84.02L244.91 89.7L247.19 84.02C247.323 83.74 247.523 83.6 247.79 83.6H250.15C250.27 83.6 250.37 83.6467 250.45 83.74C250.543 83.82 250.59 83.9133 250.59 84.02C250.59 84.1133 250.576 84.2 250.55 84.28L244.89 97.38C244.756 97.66 244.55 97.8 244.27 97.8H241.95Z" fill="#303030"/>
<defs>
<filter id="filter0_d_934_1116" x="-7" y="0" width="390" height="143" filterUnits="userSpaceOnUse" color-interpolation-filters="sRGB">
<feFlood flood-opacity="0" result="BackgroundImageFix"/>
<feColorMatrix in="SourceAlpha" type="matrix" values="0 0 0 0 0 0 0 0 0 0 0 0 0 0 0 0 0 0 127 0" result="hardAlpha"/>
<feMorphology radius="15" operator="dilate" in="SourceAlpha" result="effect1_dropShadow_934_1116"/>
<feOffset dy="4"/>
<feGaussianBlur stdDeviation="5"/>
<feComposite in2="hardAlpha" operator="out"/>
<feColorMatrix type="matrix" values="0 0 0 0 0 0 0 0 0 0 0 0 0 0 0 0 0 0 0.25 0"/>
<feBlend mode="normal" in2="BackgroundImageFix" result="effect1_dropShadow_934_1116"/>
<feBlend mode="normal" in="SourceGraphic" in2="effect1_dropShadow_934_1116" result="shape"/>
</filter>
<filter id="filter1_d_934_1116" x="14" y="21" width="348" height="18" filterUnits="userSpaceOnUse" color-interpolation-filters="sRGB">
<feFlood flood-opacity="0" result="BackgroundImageFix"/>
<feColorMatrix in="SourceAlpha" type="matrix" values="0 0 0 0 0 0 0 0 0 0 0 0 0 0 0 0 0 0 127 0" result="hardAlpha"/>
<feOffset dy="4"/>
<feGaussianBlur stdDeviation="2"/>
<feComposite in2="hardAlpha" operator="out"/>
<feColorMatrix type="matrix" values="0 0 0 0 0 0 0 0 0 0 0 0 0 0 0 0 0 0 0.25 0"/>
<feBlend mode="normal" in2="BackgroundImageFix" result="effect1_dropShadow_934_1116"/>
<feBlend mode="normal" in="SourceGraphic" in2="effect1_dropShadow_934_1116" result="shape"/>
</filter>
</defs>
</svg>
