<svg width="375" height="143" viewBox="0 0 375 143" fill="none" xmlns="http://www.w3.org/2000/svg">
<g filter="url(#filter0_d_934_1115)">
<rect x="18" y="21" width="340" height="93" fill="white"/>
</g>
<path d="M73.7513 98C73.618 98 73.498 97.9533 73.3913 97.86C73.298 97.7533 73.2513 97.6333 73.2513 97.5V88.12C73.2513 87.9733 73.298 87.8533 73.3913 87.76C73.4847 87.6533 73.6047 87.6 73.7513 87.6H76.1913C76.338 87.6 76.458 87.6533 76.5513 87.76C76.658 87.8533 76.7113 87.9733 76.7113 88.12V88.88C77.0847 88.4667 77.518 88.1533 78.0113 87.94C78.518 87.7133 79.078 87.6 79.6913 87.6H80.5913C80.738 87.6 80.858 87.6467 80.9513 87.74C81.0447 87.8333 81.0913 87.9533 81.0913 88.1V90.28C81.0913 90.4133 81.0447 90.5333 80.9513 90.64C80.858 90.7333 80.738 90.78 80.5913 90.78H78.5713C78.038 90.78 77.6247 90.9267 77.3313 91.22C77.0513 91.5133 76.9113 91.9267 76.9113 92.46V97.5C76.9113 97.6467 76.858 97.7667 76.7513 97.86C76.658 97.9533 76.538 98 76.3913 98H73.7513ZM87.272 98.2C85.6453 98.2 84.3653 97.7667 83.432 96.9C82.4986 96.02 82.0186 94.7467 81.992 93.08V92.46C82.0453 90.8733 82.5386 89.6333 83.472 88.74C84.4053 87.8467 85.6653 87.4 87.252 87.4C88.3986 87.4 89.3653 87.6333 90.152 88.1C90.952 88.5533 91.5453 89.1867 91.932 90C92.332 90.8 92.532 91.7133 92.532 92.74V93.24C92.532 93.3867 92.4786 93.5133 92.372 93.62C92.2786 93.7133 92.1586 93.76 92.012 93.76H85.672V93.88C85.6853 94.48 85.8253 94.9667 86.092 95.34C86.3586 95.7 86.7386 95.88 87.232 95.88C87.552 95.88 87.8053 95.82 87.992 95.7C88.192 95.5667 88.3786 95.4 88.552 95.2C88.672 95.0667 88.7653 94.9867 88.832 94.96C88.912 94.92 89.032 94.9 89.192 94.9H91.812C91.932 94.9 92.032 94.94 92.112 95.02C92.2053 95.0867 92.252 95.1733 92.252 95.28C92.252 95.6267 92.052 96.0333 91.652 96.5C91.2653 96.9667 90.692 97.3667 89.932 97.7C89.1853 98.0333 88.2986 98.2 87.272 98.2ZM88.852 91.72V91.68C88.852 91.04 88.712 90.5467 88.432 90.2C88.152 89.84 87.7586 89.66 87.252 89.66C86.7453 89.66 86.352 89.84 86.072 90.2C85.8053 90.5467 85.672 91.04 85.672 91.68V91.72H88.852ZM86.072 86.1C85.8586 86.1 85.752 85.9933 85.752 85.78C85.752 85.6733 85.7853 85.5867 85.852 85.52L87.632 83.34C87.7653 83.18 87.8786 83.08 87.972 83.04C88.0786 82.9867 88.212 82.96 88.372 82.96H91.132C91.252 82.96 91.3453 83 91.412 83.08C91.4786 83.1467 91.512 83.24 91.512 83.36C91.512 83.4533 91.4786 83.5333 91.412 83.6L88.732 85.8C88.5986 85.9067 88.4786 85.9867 88.372 86.04C88.2653 86.08 88.1253 86.1 87.952 86.1H86.072ZM97.4655 98.2C96.7589 98.2 96.1122 98.0667 95.5255 97.8C94.9522 97.52 94.4989 97.14 94.1655 96.66C93.8455 96.18 93.6855 95.6533 93.6855 95.08C93.6855 94.1733 94.0589 93.44 94.8055 92.88C95.5655 92.3067 96.6055 91.9133 97.9255 91.7L100.406 91.32V91.08C100.406 90.5867 100.306 90.2267 100.106 90C99.9055 89.7733 99.5655 89.66 99.0855 89.66C98.8189 89.66 98.5922 89.7067 98.4055 89.8C98.2322 89.8933 98.0322 90.0333 97.8055 90.22C97.6322 90.3667 97.4789 90.4733 97.3455 90.54C97.2922 90.6333 97.2255 90.68 97.1455 90.68H94.8255C94.6922 90.68 94.5789 90.64 94.4855 90.56C94.4055 90.4667 94.3722 90.36 94.3855 90.24C94.3989 89.88 94.5789 89.48 94.9255 89.04C95.2722 88.5867 95.7989 88.2 96.5055 87.88C97.2122 87.56 98.0855 87.4 99.1255 87.4C100.779 87.4 102.006 87.7667 102.806 88.5C103.606 89.22 104.006 90.2 104.006 91.44V97.5C104.006 97.6333 103.959 97.7533 103.866 97.86C103.772 97.9533 103.652 98 103.506 98H101.046C100.912 98 100.792 97.9533 100.686 97.86C100.592 97.7533 100.546 97.6333 100.546 97.5V96.8C100.252 97.2133 99.8455 97.5533 99.3255 97.82C98.8055 98.0733 98.1855 98.2 97.4655 98.2ZM98.4655 95.84C99.0522 95.84 99.5255 95.6467 99.8855 95.26C100.259 94.8733 100.446 94.3133 100.446 93.58V93.34L98.7855 93.62C97.6655 93.8333 97.1055 94.2333 97.1055 94.82C97.1055 95.1267 97.2322 95.3733 97.4855 95.56C97.7522 95.7467 98.0789 95.84 98.4655 95.84ZM106.701 98C106.554 98 106.428 97.9533 106.321 97.86C106.228 97.7667 106.181 97.6467 106.181 97.5V84.3C106.181 84.1533 106.228 84.0333 106.321 83.94C106.428 83.8467 106.554 83.8 106.701 83.8H109.201C109.348 83.8 109.468 83.8467 109.561 83.94C109.654 84.0333 109.701 84.1533 109.701 84.3V97.5C109.701 97.6333 109.654 97.7533 109.561 97.86C109.468 97.9533 109.348 98 109.201 98H106.701ZM112.482 86.16C112.335 86.16 112.215 86.1133 112.122 86.02C112.028 85.9133 111.982 85.7867 111.982 85.64V83.78C111.982 83.6333 112.028 83.5133 112.122 83.42C112.228 83.3133 112.348 83.26 112.482 83.26H114.982C115.128 83.26 115.248 83.3133 115.342 83.42C115.448 83.5133 115.502 83.6333 115.502 83.78V85.64C115.502 85.7867 115.448 85.9133 115.342 86.02C115.248 86.1133 115.128 86.16 114.982 86.16H112.482ZM112.482 98C112.348 98 112.228 97.9533 112.122 97.86C112.028 97.7533 111.982 97.6333 111.982 97.5V88.1C111.982 87.9533 112.028 87.8333 112.122 87.74C112.228 87.6467 112.348 87.6 112.482 87.6H114.982C115.128 87.6 115.248 87.6467 115.342 87.74C115.448 87.8333 115.502 87.9533 115.502 88.1V97.5C115.502 97.6467 115.448 97.7667 115.342 97.86C115.248 97.9533 115.128 98 114.982 98H112.482ZM122.143 98.2C121.049 98.2 120.136 98.0467 119.403 97.74C118.669 97.4333 118.123 97.0667 117.763 96.64C117.416 96.2133 117.243 95.8267 117.243 95.48C117.243 95.3467 117.289 95.24 117.383 95.16C117.489 95.0667 117.603 95.02 117.723 95.02H120.143C120.223 95.02 120.289 95.0467 120.343 95.1C120.569 95.2467 120.696 95.3333 120.723 95.36C120.976 95.5467 121.209 95.6933 121.423 95.8C121.649 95.8933 121.916 95.94 122.223 95.94C122.583 95.94 122.876 95.8733 123.103 95.74C123.343 95.5933 123.463 95.3933 123.463 95.14C123.463 94.9267 123.396 94.7533 123.263 94.62C123.143 94.4867 122.903 94.36 122.543 94.24C122.196 94.1067 121.663 93.9733 120.943 93.84C118.636 93.3733 117.483 92.3067 117.483 90.64C117.483 90.0933 117.656 89.5733 118.003 89.08C118.363 88.5733 118.883 88.1667 119.563 87.86C120.256 87.5533 121.083 87.4 122.043 87.4C123.016 87.4 123.856 87.5533 124.563 87.86C125.283 88.1533 125.829 88.5133 126.203 88.94C126.576 89.3533 126.763 89.7333 126.763 90.08C126.763 90.2 126.716 90.3067 126.623 90.4C126.543 90.4933 126.443 90.54 126.323 90.54H124.123C124.003 90.54 123.909 90.5133 123.843 90.46C123.683 90.38 123.523 90.28 123.363 90.16C123.123 90 122.909 89.88 122.723 89.8C122.549 89.7067 122.323 89.66 122.043 89.66C121.709 89.66 121.449 89.7333 121.263 89.88C121.076 90.0267 120.983 90.2133 120.983 90.44C120.983 90.64 121.036 90.8067 121.143 90.94C121.263 91.06 121.496 91.18 121.843 91.3C122.203 91.42 122.743 91.5467 123.463 91.68C124.769 91.9067 125.716 92.3133 126.303 92.9C126.903 93.4733 127.203 94.1467 127.203 94.92C127.203 95.92 126.756 96.72 125.863 97.32C124.983 97.9067 123.743 98.2 122.143 98.2ZM133.795 98.2C132.169 98.2 130.889 97.7667 129.955 96.9C129.022 96.02 128.542 94.7467 128.515 93.08V92.46C128.569 90.8733 129.062 89.6333 129.995 88.74C130.929 87.8467 132.189 87.4 133.775 87.4C134.922 87.4 135.889 87.6333 136.675 88.1C137.475 88.5533 138.069 89.1867 138.455 90C138.855 90.8 139.055 91.7133 139.055 92.74V93.24C139.055 93.3867 139.002 93.5133 138.895 93.62C138.802 93.7133 138.682 93.76 138.535 93.76H132.195V93.88C132.209 94.48 132.349 94.9667 132.615 95.34C132.882 95.7 133.262 95.88 133.755 95.88C134.075 95.88 134.329 95.82 134.515 95.7C134.715 95.5667 134.902 95.4 135.075 95.2C135.195 95.0667 135.289 94.9867 135.355 94.96C135.435 94.92 135.555 94.9 135.715 94.9H138.335C138.455 94.9 138.555 94.94 138.635 95.02C138.729 95.0867 138.775 95.1733 138.775 95.28C138.775 95.6267 138.575 96.0333 138.175 96.5C137.789 96.9667 137.215 97.3667 136.455 97.7C135.709 98.0333 134.822 98.2 133.795 98.2ZM135.375 91.72V91.68C135.375 91.04 135.235 90.5467 134.955 90.2C134.675 89.84 134.282 89.66 133.775 89.66C133.269 89.66 132.875 89.84 132.595 90.2C132.329 90.5467 132.195 91.04 132.195 91.68V91.72H135.375ZM132.595 86.1C132.382 86.1 132.275 85.9933 132.275 85.78C132.275 85.6733 132.309 85.5867 132.375 85.52L134.155 83.34C134.289 83.18 134.402 83.08 134.495 83.04C134.602 82.9867 134.735 82.96 134.895 82.96H137.655C137.775 82.96 137.869 83 137.935 83.08C138.002 83.1467 138.035 83.24 138.035 83.36C138.035 83.4533 138.002 83.5333 137.935 83.6L135.255 85.8C135.122 85.9067 135.002 85.9867 134.895 86.04C134.789 86.08 134.649 86.1 134.475 86.1H132.595ZM145.568 101.8C145.422 101.8 145.295 101.753 145.188 101.66C145.095 101.567 145.048 101.447 145.048 101.3V88.1C145.048 87.9533 145.095 87.8333 145.188 87.74C145.295 87.6467 145.422 87.6 145.568 87.6H147.948C148.095 87.6 148.215 87.6467 148.308 87.74C148.402 87.8333 148.448 87.9533 148.448 88.1V88.82C149.168 87.8733 150.202 87.4 151.548 87.4C152.842 87.4 153.855 87.8067 154.588 88.62C155.335 89.42 155.735 90.5667 155.788 92.06C155.802 92.2333 155.808 92.48 155.808 92.8C155.808 93.12 155.802 93.3733 155.788 93.56C155.735 95 155.335 96.1333 154.588 96.96C153.842 97.7867 152.828 98.2 151.548 98.2C150.255 98.2 149.288 97.76 148.648 96.88V101.3C148.648 101.447 148.602 101.567 148.508 101.66C148.415 101.753 148.295 101.8 148.148 101.8H145.568ZM150.388 95.42C150.988 95.42 151.415 95.2467 151.668 94.9C151.935 94.54 152.088 94.0467 152.128 93.42C152.142 93.2867 152.148 93.08 152.148 92.8C152.148 92.52 152.142 92.3133 152.128 92.18C152.088 91.5533 151.935 91.0667 151.668 90.72C151.415 90.36 150.988 90.18 150.388 90.18C149.815 90.18 149.388 90.3667 149.108 90.74C148.828 91.1 148.675 91.56 148.648 92.12C148.635 92.2933 148.628 92.5467 148.628 92.88C148.628 93.2 148.635 93.4467 148.648 93.62C148.675 94.14 148.828 94.5733 149.108 94.92C149.402 95.2533 149.828 95.42 150.388 95.42ZM160.864 98.2C160.157 98.2 159.511 98.0667 158.924 97.8C158.351 97.52 157.897 97.14 157.564 96.66C157.244 96.18 157.084 95.6533 157.084 95.08C157.084 94.1733 157.457 93.44 158.204 92.88C158.964 92.3067 160.004 91.9133 161.324 91.7L163.804 91.32V91.08C163.804 90.5867 163.704 90.2267 163.504 90C163.304 89.7733 162.964 89.66 162.484 89.66C162.217 89.66 161.991 89.7067 161.804 89.8C161.631 89.8933 161.431 90.0333 161.204 90.22C161.031 90.3667 160.877 90.4733 160.744 90.54C160.691 90.6333 160.624 90.68 160.544 90.68H158.224C158.091 90.68 157.977 90.64 157.884 90.56C157.804 90.4667 157.771 90.36 157.784 90.24C157.797 89.88 157.977 89.48 158.324 89.04C158.671 88.5867 159.197 88.2 159.904 87.88C160.611 87.56 161.484 87.4 162.524 87.4C164.177 87.4 165.404 87.7667 166.204 88.5C167.004 89.22 167.404 90.2 167.404 91.44V97.5C167.404 97.6333 167.357 97.7533 167.264 97.86C167.171 97.9533 167.051 98 166.904 98H164.444C164.311 98 164.191 97.9533 164.084 97.86C163.991 97.7533 163.944 97.6333 163.944 97.5V96.8C163.651 97.2133 163.244 97.5533 162.724 97.82C162.204 98.0733 161.584 98.2 160.864 98.2ZM161.864 95.84C162.451 95.84 162.924 95.6467 163.284 95.26C163.657 94.8733 163.844 94.3133 163.844 93.58V93.34L162.184 93.62C161.064 93.8333 160.504 94.2333 160.504 94.82C160.504 95.1267 160.631 95.3733 160.884 95.56C161.151 95.7467 161.477 95.84 161.864 95.84ZM170.079 98C169.946 98 169.826 97.9533 169.719 97.86C169.626 97.7533 169.579 97.6333 169.579 97.5V88.12C169.579 87.9733 169.626 87.8533 169.719 87.76C169.813 87.6533 169.933 87.6 170.079 87.6H172.519C172.666 87.6 172.786 87.6533 172.879 87.76C172.986 87.8533 173.039 87.9733 173.039 88.12V88.88C173.413 88.4667 173.846 88.1533 174.339 87.94C174.846 87.7133 175.406 87.6 176.019 87.6H176.919C177.066 87.6 177.186 87.6467 177.279 87.74C177.373 87.8333 177.419 87.9533 177.419 88.1V90.28C177.419 90.4133 177.373 90.5333 177.279 90.64C177.186 90.7333 177.066 90.78 176.919 90.78H174.899C174.366 90.78 173.953 90.9267 173.659 91.22C173.379 91.5133 173.239 91.9267 173.239 92.46V97.5C173.239 97.6467 173.186 97.7667 173.079 97.86C172.986 97.9533 172.866 98 172.719 98H170.079ZM188.646 98.2C186.753 98.2 185.26 97.74 184.166 96.82C183.073 95.9 182.493 94.5467 182.426 92.76C182.413 92.3867 182.406 91.8133 182.406 91.04C182.406 90.2667 182.413 89.6867 182.426 89.3C182.48 87.54 183.06 86.1867 184.166 85.24C185.286 84.28 186.78 83.8 188.646 83.8C190.5 83.8 191.98 84.28 193.086 85.24C194.206 86.1867 194.793 87.54 194.846 89.3C194.873 90.0733 194.886 90.6533 194.886 91.04C194.886 91.44 194.873 92.0133 194.846 92.76C194.78 94.5467 194.2 95.9 193.106 96.82C192.026 97.74 190.54 98.2 188.646 98.2ZM188.646 95.2C189.34 95.2 189.893 94.9933 190.306 94.58C190.72 94.1533 190.94 93.5067 190.966 92.64C190.993 91.8667 191.006 91.3133 191.006 90.98C191.006 90.6467 190.993 90.1067 190.966 89.36C190.94 88.4933 190.72 87.8533 190.306 87.44C189.893 87.0133 189.34 86.8 188.646 86.8C187.94 86.8 187.38 87.0133 186.966 87.44C186.553 87.8533 186.333 88.4933 186.306 89.36C186.293 89.7333 186.286 90.2733 186.286 90.98C186.286 91.7 186.293 92.2533 186.306 92.64C186.333 93.5067 186.553 94.1533 186.966 94.58C187.38 94.9933 187.94 95.2 188.646 95.2ZM197.443 98C197.297 98 197.17 97.9533 197.063 97.86C196.97 97.7667 196.923 97.6467 196.923 97.5V84.3C196.923 84.1533 196.97 84.0333 197.063 83.94C197.17 83.8467 197.297 83.8 197.443 83.8H199.943C200.09 83.8 200.21 83.8467 200.303 83.94C200.397 84.0333 200.443 84.1533 200.443 84.3V97.5C200.443 97.6333 200.397 97.7533 200.303 97.86C200.21 97.9533 200.09 98 199.943 98H197.443ZM203.224 86.16C203.077 86.16 202.957 86.1133 202.864 86.02C202.771 85.9133 202.724 85.7867 202.724 85.64V83.78C202.724 83.6333 202.771 83.5133 202.864 83.42C202.971 83.3133 203.091 83.26 203.224 83.26H205.724C205.871 83.26 205.991 83.3133 206.084 83.42C206.191 83.5133 206.244 83.6333 206.244 83.78V85.64C206.244 85.7867 206.191 85.9133 206.084 86.02C205.991 86.1133 205.871 86.16 205.724 86.16H203.224ZM203.224 98C203.091 98 202.971 97.9533 202.864 97.86C202.771 97.7533 202.724 97.6333 202.724 97.5V88.1C202.724 87.9533 202.771 87.8333 202.864 87.74C202.971 87.6467 203.091 87.6 203.224 87.6H205.724C205.871 87.6 205.991 87.6467 206.084 87.74C206.191 87.8333 206.244 87.9533 206.244 88.1V97.5C206.244 97.6467 206.191 97.7667 206.084 97.86C205.991 97.9533 205.871 98 205.724 98H203.224ZM212.245 98C212.058 98 211.911 97.96 211.805 97.88C211.711 97.7867 211.631 97.66 211.565 97.5L207.765 88.22C207.751 88.18 207.745 88.1267 207.745 88.06C207.745 87.9267 207.785 87.82 207.865 87.74C207.958 87.6467 208.071 87.6 208.205 87.6H210.585C210.865 87.6 211.065 87.74 211.185 88.02L213.365 94L215.565 88.02C215.605 87.9133 215.671 87.82 215.765 87.74C215.858 87.6467 215.985 87.6 216.145 87.6H218.545C218.665 87.6 218.771 87.6467 218.865 87.74C218.958 87.82 219.005 87.9267 219.005 88.06L218.965 88.22L215.185 97.5C215.118 97.66 215.031 97.7867 214.925 97.88C214.818 97.96 214.671 98 214.485 98H212.245ZM224.987 98.2C223.36 98.2 222.08 97.7667 221.147 96.9C220.213 96.02 219.733 94.7467 219.707 93.08V92.46C219.76 90.8733 220.253 89.6333 221.187 88.74C222.12 87.8467 223.38 87.4 224.967 87.4C226.113 87.4 227.08 87.6333 227.867 88.1C228.667 88.5533 229.26 89.1867 229.647 90C230.047 90.8 230.247 91.7133 230.247 92.74V93.24C230.247 93.3867 230.193 93.5133 230.087 93.62C229.993 93.7133 229.873 93.76 229.727 93.76H223.387V93.88C223.4 94.48 223.54 94.9667 223.807 95.34C224.073 95.7 224.453 95.88 224.947 95.88C225.267 95.88 225.52 95.82 225.707 95.7C225.907 95.5667 226.093 95.4 226.267 95.2C226.387 95.0667 226.48 94.9867 226.547 94.96C226.627 94.92 226.747 94.9 226.907 94.9H229.527C229.647 94.9 229.747 94.94 229.827 95.02C229.92 95.0867 229.967 95.1733 229.967 95.28C229.967 95.6267 229.767 96.0333 229.367 96.5C228.98 96.9667 228.407 97.3667 227.647 97.7C226.9 98.0333 226.013 98.2 224.987 98.2ZM226.567 91.72V91.68C226.567 91.04 226.427 90.5467 226.147 90.2C225.867 89.84 225.473 89.66 224.967 89.66C224.46 89.66 224.067 89.84 223.787 90.2C223.52 90.5467 223.387 91.04 223.387 91.68V91.72H226.567ZM232.54 98C232.407 98 232.287 97.9533 232.18 97.86C232.087 97.7533 232.04 97.6333 232.04 97.5V88.12C232.04 87.9733 232.087 87.8533 232.18 87.76C232.274 87.6533 232.394 87.6 232.54 87.6H234.98C235.127 87.6 235.247 87.6533 235.34 87.76C235.447 87.8533 235.5 87.9733 235.5 88.12V88.88C235.874 88.4667 236.307 88.1533 236.8 87.94C237.307 87.7133 237.867 87.6 238.48 87.6H239.38C239.527 87.6 239.647 87.6467 239.74 87.74C239.834 87.8333 239.88 87.9533 239.88 88.1V90.28C239.88 90.4133 239.834 90.5333 239.74 90.64C239.647 90.7333 239.527 90.78 239.38 90.78H237.36C236.827 90.78 236.414 90.9267 236.12 91.22C235.84 91.5133 235.7 91.9267 235.7 92.46V97.5C235.7 97.6467 235.647 97.7667 235.54 97.86C235.447 97.9533 235.327 98 235.18 98H232.54ZM250.607 98.2C249.314 98.2 248.214 98.0133 247.307 97.64C246.401 97.2667 245.714 96.7733 245.247 96.16C244.781 95.5467 244.534 94.88 244.507 94.16C244.507 94.04 244.547 93.94 244.627 93.86C244.721 93.78 244.827 93.74 244.947 93.74H247.607C247.767 93.74 247.894 93.7667 247.987 93.82C248.094 93.8733 248.207 93.9667 248.327 94.1C248.501 94.42 248.767 94.6867 249.127 94.9C249.501 95.1 249.994 95.2 250.607 95.2C251.327 95.2 251.881 95.0933 252.267 94.88C252.654 94.6533 252.847 94.3467 252.847 93.96C252.847 93.68 252.747 93.4533 252.547 93.28C252.347 93.0933 252.027 92.9333 251.587 92.8C251.147 92.6533 250.514 92.4933 249.687 92.32C248.074 92 246.867 91.5133 246.067 90.86C245.267 90.2067 244.867 89.2733 244.867 88.06C244.867 87.2333 245.094 86.5 245.547 85.86C246.014 85.2067 246.667 84.7 247.507 84.34C248.361 83.98 249.347 83.8 250.467 83.8C251.641 83.8 252.654 84.0067 253.507 84.42C254.374 84.82 255.034 85.3267 255.487 85.94C255.954 86.54 256.201 87.1333 256.227 87.72C256.227 87.84 256.187 87.9467 256.107 88.04C256.027 88.12 255.927 88.16 255.807 88.16H253.007C252.714 88.16 252.487 88.04 252.327 87.8C252.247 87.52 252.041 87.2867 251.707 87.1C251.374 86.9 250.961 86.8 250.467 86.8C249.907 86.8 249.474 86.9 249.167 87.1C248.861 87.3 248.707 87.5933 248.707 87.98C248.707 88.3667 248.907 88.6733 249.307 88.9C249.707 89.1133 250.454 89.3333 251.547 89.56C252.801 89.7867 253.794 90.0733 254.527 90.42C255.274 90.7533 255.821 91.1933 256.167 91.74C256.527 92.2733 256.707 92.9533 256.707 93.78C256.707 94.6867 256.447 95.4733 255.927 96.14C255.407 96.8067 254.687 97.32 253.767 97.68C252.847 98.0267 251.794 98.2 250.607 98.2ZM263.868 98C261.041 98 259.628 96.6733 259.628 94.02V90.32H258.048C257.914 90.32 257.794 90.2733 257.688 90.18C257.594 90.0733 257.548 89.9533 257.548 89.82V88.1C257.548 87.9533 257.594 87.8333 257.688 87.74C257.794 87.6467 257.914 87.6 258.048 87.6H259.628V84.3C259.628 84.1533 259.674 84.0333 259.768 83.94C259.874 83.8467 259.994 83.8 260.128 83.8H262.588C262.734 83.8 262.854 83.8467 262.948 83.94C263.041 84.0333 263.088 84.1533 263.088 84.3V87.6H265.588C265.734 87.6 265.854 87.6467 265.948 87.74C266.054 87.8333 266.108 87.9533 266.108 88.1V89.82C266.108 89.9667 266.054 90.0867 265.948 90.18C265.854 90.2733 265.734 90.32 265.588 90.32H263.088V93.72C263.088 94.1867 263.174 94.54 263.348 94.78C263.521 95.02 263.801 95.14 264.188 95.14H265.768C265.914 95.14 266.034 95.1933 266.128 95.3C266.221 95.3933 266.268 95.5133 266.268 95.66V97.5C266.268 97.6333 266.221 97.7533 266.128 97.86C266.034 97.9533 265.914 98 265.768 98H263.868ZM272.88 98.2C271.2 98.2 269.907 97.8133 269 97.04C268.107 96.2533 267.62 95.14 267.54 93.7C267.527 93.5267 267.52 93.2267 267.52 92.8C267.52 92.3733 267.527 92.0733 267.54 91.9C267.62 90.4867 268.12 89.3867 269.04 88.6C269.974 87.8 271.254 87.4 272.88 87.4C274.507 87.4 275.78 87.8 276.7 88.6C277.634 89.3867 278.14 90.4867 278.22 91.9C278.247 92.2467 278.26 92.5467 278.26 92.8C278.26 93.0533 278.247 93.3533 278.22 93.7C278.14 95.14 277.647 96.2533 276.74 97.04C275.847 97.8133 274.56 98.2 272.88 98.2ZM272.88 95.68C273.427 95.68 273.834 95.5133 274.1 95.18C274.367 94.8333 274.52 94.3067 274.56 93.6C274.574 93.4667 274.58 93.2 274.58 92.8C274.58 92.4 274.574 92.1333 274.56 92C274.52 91.3067 274.367 90.7867 274.1 90.44C273.834 90.0933 273.427 89.92 272.88 89.92C272.334 89.92 271.927 90.0933 271.66 90.44C271.394 90.7867 271.24 91.3067 271.2 92L271.18 92.8L271.2 93.6C271.24 94.3067 271.394 94.8333 271.66 95.18C271.927 95.5133 272.334 95.68 272.88 95.68ZM280.665 98C280.532 98 280.412 97.9533 280.305 97.86C280.212 97.7533 280.165 97.6333 280.165 97.5V88.1C280.165 87.9533 280.212 87.8333 280.305 87.74C280.412 87.6467 280.532 87.6 280.665 87.6H283.125C283.272 87.6 283.392 87.6467 283.485 87.74C283.579 87.8333 283.625 87.9533 283.625 88.1V88.86C283.985 88.42 284.445 88.0667 285.005 87.8C285.579 87.5333 286.232 87.4 286.965 87.4C287.725 87.4 288.399 87.5733 288.985 87.92C289.585 88.2667 290.052 88.78 290.385 89.46C290.732 90.14 290.905 90.96 290.905 91.92V97.5C290.905 97.6333 290.859 97.7533 290.765 97.86C290.672 97.9533 290.552 98 290.405 98H287.745C287.599 98 287.472 97.9533 287.365 97.86C287.272 97.7667 287.225 97.6467 287.225 97.5V92.04C287.225 91.44 287.079 90.98 286.785 90.66C286.505 90.34 286.092 90.18 285.545 90.18C285.012 90.18 284.592 90.3467 284.285 90.68C283.979 91 283.825 91.4533 283.825 92.04V97.5C283.825 97.6333 283.779 97.7533 283.685 97.86C283.592 97.9533 283.472 98 283.325 98H280.665ZM297.975 98.2C296.348 98.2 295.068 97.7667 294.135 96.9C293.202 96.02 292.722 94.7467 292.695 93.08V92.46C292.748 90.8733 293.242 89.6333 294.175 88.74C295.108 87.8467 296.368 87.4 297.955 87.4C299.102 87.4 300.068 87.6333 300.855 88.1C301.655 88.5533 302.248 89.1867 302.635 90C303.035 90.8 303.235 91.7133 303.235 92.74V93.24C303.235 93.3867 303.182 93.5133 303.075 93.62C302.982 93.7133 302.862 93.76 302.715 93.76H296.375V93.88C296.388 94.48 296.528 94.9667 296.795 95.34C297.062 95.7 297.442 95.88 297.935 95.88C298.255 95.88 298.508 95.82 298.695 95.7C298.895 95.5667 299.082 95.4 299.255 95.2C299.375 95.0667 299.468 94.9867 299.535 94.96C299.615 94.92 299.735 94.9 299.895 94.9H302.515C302.635 94.9 302.735 94.94 302.815 95.02C302.908 95.0867 302.955 95.1733 302.955 95.28C302.955 95.6267 302.755 96.0333 302.355 96.5C301.968 96.9667 301.395 97.3667 300.635 97.7C299.888 98.0333 299.002 98.2 297.975 98.2ZM299.555 91.72V91.68C299.555 91.04 299.415 90.5467 299.135 90.2C298.855 89.84 298.462 89.66 297.955 89.66C297.448 89.66 297.055 89.84 296.775 90.2C296.508 90.5467 296.375 91.04 296.375 91.68V91.72H299.555Z" fill="#303030"/>
<path d="M52.1038 71C51.7411 71 51.4424 70.904 51.2078 70.712C50.9944 70.4987 50.8664 70.2427 50.8238 69.944L47.3997 49.464C47.3784 49.4213 47.3678 49.3573 47.3678 49.272C47.3678 49.1013 47.4318 48.952 47.5598 48.824C47.7091 48.6747 47.8691 48.6 48.0398 48.6H52.2318C52.8504 48.6 53.1918 48.8453 53.2558 49.336L55.2078 61.432L57.4158 54.424C57.5864 53.848 57.9384 53.56 58.4718 53.56H60.8718C61.4051 53.56 61.7571 53.848 61.9278 54.424L64.1358 61.4L66.1198 49.336C66.1624 49.08 66.2584 48.8987 66.4078 48.792C66.5571 48.664 66.7918 48.6 67.1118 48.6H71.3038C71.4958 48.6 71.6558 48.6747 71.7838 48.824C71.9118 48.952 71.9758 49.1013 71.9758 49.272V49.464L68.5518 69.944C68.5091 70.2427 68.3704 70.4987 68.1358 70.712C67.9011 70.904 67.6131 71 67.2718 71H64.0398C63.6984 71 63.4317 70.9147 63.2397 70.744C63.0478 70.5733 62.9198 70.3813 62.8558 70.168L59.6878 61.304L56.5198 70.168C56.4344 70.3813 56.2958 70.5733 56.1038 70.744C55.9118 70.9147 55.6451 71 55.3038 71H52.1038ZM79.223 71.32C78.0923 71.32 77.0577 71.1067 76.119 70.68C75.2017 70.232 74.4763 69.624 73.943 68.856C73.431 68.088 73.175 67.2453 73.175 66.328C73.175 64.8773 73.7723 63.704 74.967 62.808C76.183 61.8907 77.847 61.2613 79.959 60.92L83.927 60.312V59.928C83.927 59.1387 83.767 58.5627 83.447 58.2C83.127 57.8373 82.583 57.656 81.815 57.656C81.3883 57.656 81.0257 57.7307 80.727 57.88C80.4497 58.0293 80.1297 58.2533 79.767 58.552C79.4897 58.7867 79.2443 58.9573 79.031 59.064C78.9457 59.2133 78.839 59.288 78.711 59.288H74.999C74.7857 59.288 74.6043 59.224 74.455 59.096C74.327 58.9467 74.2737 58.776 74.295 58.584C74.3163 58.008 74.6043 57.368 75.159 56.664C75.7137 55.9387 76.5563 55.32 77.687 54.808C78.8177 54.296 80.215 54.04 81.879 54.04C84.5243 54.04 86.487 54.6267 87.767 55.8C89.047 56.952 89.687 58.52 89.687 60.504V70.2C89.687 70.4133 89.6123 70.6053 89.463 70.776C89.3137 70.9253 89.1217 71 88.887 71H84.951C84.7377 71 84.5457 70.9253 84.375 70.776C84.2257 70.6053 84.151 70.4133 84.151 70.2V69.08C83.6817 69.7413 83.031 70.2853 82.199 70.712C81.367 71.1173 80.375 71.32 79.223 71.32ZM80.823 67.544C81.7617 67.544 82.519 67.2347 83.095 66.616C83.6923 65.9973 83.991 65.1013 83.991 63.928V63.544L81.335 63.992C79.543 64.3333 78.647 64.9733 78.647 65.912C78.647 66.4027 78.8497 66.7973 79.255 67.096C79.6817 67.3947 80.2043 67.544 80.823 67.544ZM93.9998 71C93.7651 71 93.5624 70.9253 93.3918 70.776C93.2424 70.6267 93.1678 70.4347 93.1678 70.2V49.08C93.1678 48.8453 93.2424 48.6533 93.3918 48.504C93.5624 48.3547 93.7651 48.28 93.9998 48.28H97.9998C98.2344 48.28 98.4264 48.3547 98.5758 48.504C98.7251 48.6533 98.7998 48.8453 98.7998 49.08V70.2C98.7998 70.4133 98.7251 70.6053 98.5758 70.776C98.4264 70.9253 98.2344 71 97.9998 71H93.9998ZM103.281 71C103.046 71 102.844 70.9253 102.673 70.776C102.524 70.6267 102.449 70.4347 102.449 70.2V49.08C102.449 48.8453 102.524 48.6533 102.673 48.504C102.844 48.3547 103.046 48.28 103.281 48.28H107.281C107.516 48.28 107.708 48.3547 107.857 48.504C108.006 48.6533 108.081 48.8453 108.081 49.08V70.2C108.081 70.4133 108.006 70.6053 107.857 70.776C107.708 70.9253 107.516 71 107.281 71H103.281ZM127.281 71.32C125.212 71.32 123.452 71.0213 122.001 70.424C120.55 69.8267 119.452 69.0373 118.705 68.056C117.958 67.0747 117.564 66.008 117.521 64.856C117.521 64.664 117.585 64.504 117.713 64.376C117.862 64.248 118.033 64.184 118.225 64.184H122.481C122.737 64.184 122.94 64.2267 123.089 64.312C123.26 64.3973 123.441 64.5467 123.633 64.76C123.91 65.272 124.337 65.6987 124.913 66.04C125.51 66.36 126.3 66.52 127.281 66.52C128.433 66.52 129.318 66.3493 129.937 66.008C130.556 65.6453 130.865 65.1547 130.865 64.536C130.865 64.088 130.705 63.7253 130.385 63.448C130.065 63.1493 129.553 62.8933 128.849 62.68C128.145 62.4453 127.132 62.1893 125.809 61.912C123.228 61.4 121.297 60.6213 120.017 59.576C118.737 58.5307 118.097 57.0373 118.097 55.096C118.097 53.7733 118.46 52.6 119.185 51.576C119.932 50.5307 120.977 49.72 122.321 49.144C123.686 48.568 125.265 48.28 127.057 48.28C128.934 48.28 130.556 48.6107 131.921 49.272C133.308 49.912 134.364 50.7227 135.089 51.704C135.836 52.664 136.23 53.6133 136.273 54.552C136.273 54.744 136.209 54.9147 136.081 55.064C135.953 55.192 135.793 55.256 135.601 55.256H131.121C130.652 55.256 130.289 55.064 130.033 54.68C129.905 54.232 129.574 53.8587 129.041 53.56C128.508 53.24 127.846 53.08 127.057 53.08C126.161 53.08 125.468 53.24 124.977 53.56C124.486 53.88 124.241 54.3493 124.241 54.968C124.241 55.5867 124.561 56.0773 125.201 56.44C125.841 56.7813 127.036 57.1333 128.785 57.496C130.79 57.8587 132.38 58.3173 133.553 58.872C134.748 59.4053 135.622 60.1093 136.177 60.984C136.753 61.8373 137.041 62.9253 137.041 64.248C137.041 65.6987 136.625 66.9573 135.793 68.024C134.961 69.0907 133.809 69.912 132.337 70.488C130.865 71.0427 129.18 71.32 127.281 71.32ZM148.498 71C143.975 71 141.714 68.8773 141.714 64.632V58.712H139.186C138.972 58.712 138.78 58.6373 138.61 58.488C138.46 58.3173 138.386 58.1253 138.386 57.912V55.16C138.386 54.9253 138.46 54.7333 138.61 54.584C138.78 54.4347 138.972 54.36 139.186 54.36H141.714V49.08C141.714 48.8453 141.788 48.6533 141.938 48.504C142.108 48.3547 142.3 48.28 142.514 48.28H146.45C146.684 48.28 146.876 48.3547 147.026 48.504C147.175 48.6533 147.25 48.8453 147.25 49.08V54.36H151.25C151.484 54.36 151.676 54.4347 151.826 54.584C151.996 54.7333 152.082 54.9253 152.082 55.16V57.912C152.082 58.1467 151.996 58.3387 151.826 58.488C151.676 58.6373 151.484 58.712 151.25 58.712H147.25V64.152C147.25 64.8987 147.388 65.464 147.666 65.848C147.943 66.232 148.391 66.424 149.01 66.424H151.538C151.772 66.424 151.964 66.5093 152.114 66.68C152.263 66.8293 152.338 67.0213 152.338 67.256V70.2C152.338 70.4133 152.263 70.6053 152.114 70.776C151.964 70.9253 151.772 71 151.538 71H148.498ZM155.718 71C155.504 71 155.312 70.9253 155.142 70.776C154.992 70.6053 154.918 70.4133 154.918 70.2V55.192C154.918 54.9573 154.992 54.7653 155.142 54.616C155.291 54.4453 155.483 54.36 155.718 54.36H159.622C159.856 54.36 160.048 54.4453 160.198 54.616C160.368 54.7653 160.454 54.9573 160.454 55.192V56.408C161.051 55.7467 161.744 55.2453 162.534 54.904C163.344 54.5413 164.24 54.36 165.222 54.36H166.662C166.896 54.36 167.088 54.4347 167.238 54.584C167.387 54.7333 167.462 54.9253 167.462 55.16V58.648C167.462 58.8613 167.387 59.0533 167.238 59.224C167.088 59.3733 166.896 59.448 166.662 59.448H163.43C162.576 59.448 161.915 59.6827 161.446 60.152C160.998 60.6213 160.774 61.2827 160.774 62.136V70.2C160.774 70.4347 160.688 70.6267 160.518 70.776C160.368 70.9253 160.176 71 159.942 71H155.718ZM177.351 71.32C174.748 71.32 172.7 70.6267 171.207 69.24C169.713 67.832 168.945 65.7947 168.903 63.128V62.136C168.988 59.5973 169.777 57.6133 171.271 56.184C172.764 54.7547 174.78 54.04 177.319 54.04C179.153 54.04 180.7 54.4133 181.959 55.16C183.239 55.8853 184.188 56.8987 184.807 58.2C185.447 59.48 185.767 60.9413 185.767 62.584V63.384C185.767 63.6187 185.681 63.8213 185.511 63.992C185.361 64.1413 185.169 64.216 184.935 64.216H174.791V64.408C174.812 65.368 175.036 66.1467 175.463 66.744C175.889 67.32 176.497 67.608 177.287 67.608C177.799 67.608 178.204 67.512 178.503 67.32C178.823 67.1067 179.121 66.84 179.399 66.52C179.591 66.3067 179.74 66.1787 179.847 66.136C179.975 66.072 180.167 66.04 180.423 66.04H184.615C184.807 66.04 184.967 66.104 185.095 66.232C185.244 66.3387 185.319 66.4773 185.319 66.648C185.319 67.2027 184.999 67.8533 184.359 68.6C183.74 69.3467 182.823 69.9867 181.607 70.52C180.412 71.0533 178.993 71.32 177.351 71.32ZM179.879 60.952V60.888C179.879 59.864 179.655 59.0747 179.207 58.52C178.759 57.944 178.129 57.656 177.319 57.656C176.508 57.656 175.879 57.944 175.431 58.52C175.004 59.0747 174.791 59.864 174.791 60.888V60.952H179.879ZM196.445 71.32C193.842 71.32 191.794 70.6267 190.301 69.24C188.807 67.832 188.039 65.7947 187.997 63.128V62.136C188.082 59.5973 188.871 57.6133 190.365 56.184C191.858 54.7547 193.874 54.04 196.413 54.04C198.247 54.04 199.794 54.4133 201.053 55.16C202.333 55.8853 203.282 56.8987 203.901 58.2C204.541 59.48 204.861 60.9413 204.861 62.584V63.384C204.861 63.6187 204.775 63.8213 204.605 63.992C204.455 64.1413 204.263 64.216 204.029 64.216H193.885V64.408C193.906 65.368 194.13 66.1467 194.557 66.744C194.983 67.32 195.591 67.608 196.381 67.608C196.893 67.608 197.298 67.512 197.597 67.32C197.917 67.1067 198.215 66.84 198.493 66.52C198.685 66.3067 198.834 66.1787 198.941 66.136C199.069 66.072 199.261 66.04 199.517 66.04H203.708C203.9 66.04 204.061 66.104 204.189 66.232C204.338 66.3387 204.413 66.4773 204.413 66.648C204.413 67.2027 204.093 67.8533 203.453 68.6C202.834 69.3467 201.917 69.9867 200.701 70.52C199.506 71.0533 198.087 71.32 196.445 71.32ZM198.973 60.952V60.888C198.973 59.864 198.749 59.0747 198.301 58.52C197.853 57.944 197.223 57.656 196.413 57.656C195.602 57.656 194.973 57.944 194.525 58.52C194.098 59.0747 193.885 59.864 193.885 60.888V60.952H198.973ZM216.435 71C211.912 71 209.651 68.8773 209.651 64.632V58.712H207.123C206.91 58.712 206.718 58.6373 206.547 58.488C206.398 58.3173 206.323 58.1253 206.323 57.912V55.16C206.323 54.9253 206.398 54.7333 206.547 54.584C206.718 54.4347 206.91 54.36 207.123 54.36H209.651V49.08C209.651 48.8453 209.726 48.6533 209.875 48.504C210.046 48.3547 210.238 48.28 210.451 48.28H214.387C214.622 48.28 214.814 48.3547 214.963 48.504C215.112 48.6533 215.187 48.8453 215.187 49.08V54.36H219.187C219.422 54.36 219.614 54.4347 219.763 54.584C219.934 54.7333 220.019 54.9253 220.019 55.16V57.912C220.019 58.1467 219.934 58.3387 219.763 58.488C219.614 58.6373 219.422 58.712 219.187 58.712H215.187V64.152C215.187 64.8987 215.326 65.464 215.603 65.848C215.88 66.232 216.328 66.424 216.947 66.424H219.475C219.71 66.424 219.902 66.5093 220.051 66.68C220.2 66.8293 220.275 67.0213 220.275 67.256V70.2C220.275 70.4133 220.2 70.6053 220.051 70.776C219.902 70.9253 219.71 71 219.475 71H216.435ZM238.63 76.088C232.251 76.088 229.062 71.096 229.062 61.112C229.062 51.1493 232.251 46.168 238.63 46.168C238.865 46.168 239.057 46.2427 239.206 46.392C239.355 46.5413 239.43 46.7333 239.43 46.968V49.848C239.43 50.0613 239.355 50.2427 239.206 50.392C239.057 50.5413 238.875 50.6267 238.662 50.648C236.998 50.7547 235.835 51.672 235.174 53.4C234.513 55.1067 234.182 57.6773 234.182 61.112C234.182 64.5467 234.513 67.128 235.174 68.856C235.835 70.584 236.998 71.5013 238.662 71.608C238.875 71.6293 239.057 71.7147 239.206 71.864C239.355 72.0133 239.43 72.1947 239.43 72.408V75.288C239.43 75.5227 239.355 75.7147 239.206 75.864C239.057 76.0133 238.865 76.088 238.63 76.088ZM247.989 71C247.776 71 247.584 70.9253 247.413 70.776C247.264 70.6053 247.189 70.4133 247.189 70.2V55.224L242.901 58.52C242.73 58.6267 242.57 58.68 242.421 58.68C242.165 58.68 241.941 58.552 241.749 58.296L239.765 55.736C239.68 55.5867 239.637 55.4267 239.637 55.256C239.637 54.9573 239.754 54.7227 239.989 54.552L247.413 48.824C247.626 48.6747 247.872 48.6 248.149 48.6H252.373C252.608 48.6 252.8 48.6747 252.949 48.824C253.12 48.9733 253.205 49.1653 253.205 49.4V70.2C253.205 70.4347 253.12 70.6267 252.949 70.776C252.8 70.9253 252.608 71 252.373 71H247.989ZM260.754 71C260.562 71 260.402 70.936 260.274 70.808C260.146 70.6587 260.082 70.488 260.082 70.296C260.082 70.1467 260.125 70.008 260.21 69.88L264.69 63.768C264.413 63.832 264.125 63.8533 263.826 63.832C262.525 63.7467 261.287 63.3947 260.114 62.776C258.941 62.136 257.981 61.2613 257.234 60.152C256.509 59.0213 256.146 57.7413 256.146 56.312C256.146 54.904 256.498 53.592 257.202 52.376C257.927 51.1387 258.983 50.1467 260.37 49.4C261.778 48.6533 263.463 48.28 265.426 48.28C267.41 48.28 269.117 48.6213 270.546 49.304C271.975 49.9867 273.053 50.9253 273.778 52.12C274.525 53.2933 274.898 54.616 274.898 56.088C274.898 57.2613 274.653 58.3387 274.162 59.32C273.693 60.28 272.978 61.4107 272.018 62.712L271.442 63.512L266.418 70.36C266.119 70.7867 265.735 71 265.266 71H260.754ZM265.49 59.48C266.429 59.48 267.197 59.192 267.794 58.616C268.413 58.04 268.722 57.2613 268.722 56.28C268.722 55.2987 268.413 54.52 267.794 53.944C267.175 53.368 266.407 53.08 265.49 53.08C264.551 53.08 263.773 53.368 263.154 53.944C262.557 54.52 262.258 55.2987 262.258 56.28C262.258 57.2613 262.557 58.04 263.154 58.616C263.751 59.192 264.53 59.48 265.49 59.48ZM286.818 71.32C284.748 71.32 282.999 71.0107 281.57 70.392C280.14 69.752 279.074 68.8987 278.37 67.832C277.687 66.7653 277.346 65.5707 277.346 64.248C277.346 63.1387 277.623 62.136 278.178 61.24C278.754 60.3227 279.5 59.6187 280.418 59.128C278.903 58.1467 278.146 56.6747 278.146 54.712C278.146 52.8133 278.871 51.2667 280.322 50.072C281.794 48.8773 283.959 48.28 286.818 48.28C289.655 48.28 291.788 48.8773 293.218 50.072C294.668 51.2453 295.394 52.7813 295.394 54.68C295.394 56.6213 294.668 58.104 293.218 59.128C294.156 59.576 294.903 60.2587 295.458 61.176C296.034 62.0933 296.322 63.128 296.322 64.28C296.322 65.6027 295.97 66.7973 295.266 67.864C294.562 68.9093 293.495 69.752 292.066 70.392C290.636 71.0107 288.887 71.32 286.818 71.32ZM286.818 57.464C287.714 57.4427 288.45 57.208 289.026 56.76C289.602 56.2907 289.89 55.704 289.89 55C289.89 54.2747 289.602 53.688 289.026 53.24C288.45 52.7707 287.714 52.536 286.818 52.536C285.9 52.536 285.154 52.7707 284.578 53.24C284.023 53.688 283.746 54.2747 283.746 55C283.746 55.7253 284.023 56.3227 284.578 56.792C285.154 57.24 285.9 57.464 286.818 57.464ZM286.818 67.096C287.82 67.096 288.642 66.84 289.282 66.328C289.943 65.816 290.274 65.1333 290.274 64.28C290.274 63.4267 289.943 62.744 289.282 62.232C288.642 61.72 287.82 61.464 286.818 61.464C285.815 61.464 284.983 61.72 284.322 62.232C283.66 62.744 283.33 63.4267 283.33 64.28C283.33 65.1333 283.66 65.816 284.322 66.328C284.983 66.84 285.815 67.096 286.818 67.096ZM302.199 71C302.007 71 301.847 70.936 301.719 70.808C301.591 70.6587 301.527 70.488 301.527 70.296C301.527 70.1893 301.548 70.0933 301.591 70.008L308.951 53.624H299.447C299.212 53.624 299.009 53.5493 298.839 53.4C298.689 53.2293 298.615 53.0267 298.615 52.792V49.432C298.615 49.1973 298.689 49.0053 298.839 48.856C299.009 48.6853 299.212 48.6 299.447 48.6H314.583C314.817 48.6 315.009 48.6853 315.159 48.856C315.329 49.0053 315.415 49.1973 315.415 49.432V52.408C315.415 52.792 315.361 53.1227 315.255 53.4C315.148 53.6773 315.084 53.8373 315.063 53.88L307.703 70.232C307.468 70.744 307.084 71 306.551 71H302.199ZM317.786 76.088C317.573 76.088 317.381 76.0133 317.21 75.864C317.061 75.7147 316.986 75.5227 316.986 75.288V72.408C316.986 72.1947 317.061 72.0133 317.21 71.864C317.359 71.7147 317.541 71.6293 317.754 71.608C319.439 71.5013 320.602 70.5947 321.242 68.888C321.903 67.16 322.234 64.568 322.234 61.112C322.234 57.6773 321.903 55.1067 321.242 53.4C320.602 51.672 319.439 50.7547 317.754 50.648C317.541 50.6267 317.359 50.5413 317.21 50.392C317.061 50.2427 316.986 50.0613 316.986 49.848V46.968C316.986 46.7333 317.061 46.5413 317.21 46.392C317.381 46.2427 317.573 46.168 317.786 46.168C324.186 46.168 327.386 51.1493 327.386 61.112C327.386 71.096 324.186 76.088 317.786 76.088Z" fill="#940000"/>
<g filter="url(#filter1_d_934_1115)">
<rect x="18" y="21" width="340" height="10" fill="#940000"/>
</g>
<defs>
<filter id="filter0_d_934_1115" x="-7" y="0" width="390" height="143" filterUnits="userSpaceOnUse" color-interpolation-filters="sRGB">
<feFlood flood-opacity="0" result="BackgroundImageFix"/>
<feColorMatrix in="SourceAlpha" type="matrix" values="0 0 0 0 0 0 0 0 0 0 0 0 0 0 0 0 0 0 127 0" result="hardAlpha"/>
<feMorphology radius="15" operator="dilate" in="SourceAlpha" result="effect1_dropShadow_934_1115"/>
<feOffset dy="4"/>
<feGaussianBlur stdDeviation="5"/>
<feComposite in2="hardAlpha" operator="out"/>
<feColorMatrix type="matrix" values="0 0 0 0 0 0 0 0 0 0 0 0 0 0 0 0 0 0 0.25 0"/>
<feBlend mode="normal" in2="BackgroundImageFix" result="effect1_dropShadow_934_1115"/>
<feBlend mode="normal" in="SourceGraphic" in2="effect1_dropShadow_934_1115" result="shape"/>
</filter>
<filter id="filter1_d_934_1115" x="14" y="21" width="348" height="18" filterUnits="userSpaceOnUse" color-interpolation-filters="sRGB">
<feFlood flood-opacity="0" result="BackgroundImageFix"/>
<feColorMatrix in="SourceAlpha" type="matrix" values="0 0 0 0 0 0 0 0 0 0 0 0 0 0 0 0 0 0 127 0" result="hardAlpha"/>
<feOffset dy="4"/>
<feGaussianBlur stdDeviation="2"/>
<feComposite in2="hardAlpha" operator="out"/>
<feColorMatrix type="matrix" values="0 0 0 0 0 0 0 0 0 0 0 0 0 0 0 0 0 0 0.25 0"/>
<feBlend mode="normal" in2="BackgroundImageFix" result="effect1_dropShadow_934_1115"/>
<feBlend mode="normal" in="SourceGraphic" in2="effect1_dropShadow_934_1115" result="shape"/>
</filter>
</defs>
</svg>
