<svg width="375" height="143" viewBox="0 0 375 143" fill="none" xmlns="http://www.w3.org/2000/svg">
<g filter="url(#filter0_d_934_1116)">
<rect x="18" y="21" width="340" height="93" fill="white"/>
</g>
<g filter="url(#filter1_d_934_1116)">
<rect x="18" y="21" width="340" height="10" fill="#940000"/>
</g>
<path d="M100.534 67.32C97.5048 67.32 95.1155 66.584 93.3661 65.112C91.6168 63.64 90.6888 61.4747 90.5821 58.616C90.5608 58.0187 90.5501 57.1013 90.5501 55.864C90.5501 54.6267 90.5608 53.6987 90.5821 53.08C90.6675 50.264 91.5955 48.0987 93.3661 46.584C95.1581 45.048 97.5475 44.28 100.534 44.28C103.499 44.28 105.867 45.048 107.638 46.584C109.43 48.0987 110.369 50.264 110.454 53.08C110.497 54.3173 110.518 55.2453 110.518 55.864C110.518 56.504 110.497 57.4213 110.454 58.616C110.347 61.4747 109.419 63.64 107.67 65.112C105.942 66.584 103.563 67.32 100.534 67.32ZM100.534 62.52C101.643 62.52 102.529 62.1893 103.19 61.528C103.851 60.8453 104.203 59.8107 104.246 58.424C104.289 57.1867 104.31 56.3013 104.31 55.768C104.31 55.2347 104.289 54.3707 104.246 53.176C104.203 51.7893 103.851 50.7653 103.19 50.104C102.529 49.4213 101.643 49.08 100.534 49.08C99.4035 49.08 98.5075 49.4213 97.8461 50.104C97.1848 50.7653 96.8328 51.7893 96.7901 53.176C96.7688 53.7733 96.7581 54.6373 96.7581 55.768C96.7581 56.92 96.7688 57.8053 96.7901 58.424C96.8328 59.8107 97.1848 60.8453 97.8461 61.528C98.5075 62.1893 99.4035 62.52 100.534 62.52ZM114.609 67C114.374 67 114.172 66.9253 114.001 66.776C113.852 66.6267 113.777 66.4347 113.777 66.2V45.08C113.777 44.8453 113.852 44.6533 114.001 44.504C114.172 44.3547 114.374 44.28 114.609 44.28H118.609C118.844 44.28 119.036 44.3547 119.185 44.504C119.334 44.6533 119.409 44.8453 119.409 45.08V66.2C119.409 66.4133 119.334 66.6053 119.185 66.776C119.036 66.9253 118.844 67 118.609 67H114.609ZM123.858 48.056C123.624 48.056 123.432 47.9813 123.282 47.832C123.133 47.6613 123.058 47.4587 123.058 47.224V44.248C123.058 44.0133 123.133 43.8213 123.282 43.672C123.453 43.5013 123.645 43.416 123.858 43.416H127.858C128.093 43.416 128.285 43.5013 128.434 43.672C128.605 43.8213 128.69 44.0133 128.69 44.248V47.224C128.69 47.4587 128.605 47.6613 128.434 47.832C128.285 47.9813 128.093 48.056 127.858 48.056H123.858ZM123.858 67C123.645 67 123.453 66.9253 123.282 66.776C123.133 66.6053 123.058 66.4133 123.058 66.2V51.16C123.058 50.9253 123.133 50.7333 123.282 50.584C123.453 50.4347 123.645 50.36 123.858 50.36H127.858C128.093 50.36 128.285 50.4347 128.434 50.584C128.605 50.7333 128.69 50.9253 128.69 51.16V66.2C128.69 66.4347 128.605 66.6267 128.434 66.776C128.285 66.9253 128.093 67 127.858 67H123.858ZM138.292 67C137.993 67 137.758 66.936 137.588 66.808C137.438 66.6587 137.31 66.456 137.204 66.2L131.124 51.352C131.102 51.288 131.092 51.2027 131.092 51.096C131.092 50.8827 131.156 50.712 131.284 50.584C131.433 50.4347 131.614 50.36 131.828 50.36H135.636C136.084 50.36 136.404 50.584 136.596 51.032L140.084 60.6L143.604 51.032C143.668 50.8613 143.774 50.712 143.924 50.584C144.073 50.4347 144.276 50.36 144.532 50.36H148.372C148.564 50.36 148.734 50.4347 148.884 50.584C149.033 50.712 149.108 50.8827 149.108 51.096L149.044 51.352L142.996 66.2C142.889 66.456 142.75 66.6587 142.58 66.808C142.409 66.936 142.174 67 141.876 67H138.292ZM158.679 67.32C156.076 67.32 154.028 66.6267 152.535 65.24C151.042 63.832 150.274 61.7947 150.231 59.128V58.136C150.316 55.5973 151.106 53.6133 152.599 52.184C154.092 50.7547 156.108 50.04 158.647 50.04C160.482 50.04 162.028 50.4133 163.287 51.16C164.567 51.8853 165.516 52.8987 166.135 54.2C166.775 55.48 167.095 56.9413 167.095 58.584V59.384C167.095 59.6187 167.01 59.8213 166.839 59.992C166.69 60.1413 166.498 60.216 166.263 60.216H156.119V60.408C156.14 61.368 156.364 62.1467 156.791 62.744C157.218 63.32 157.826 63.608 158.615 63.608C159.127 63.608 159.532 63.512 159.831 63.32C160.151 63.1067 160.45 62.84 160.727 62.52C160.919 62.3067 161.068 62.1787 161.175 62.136C161.303 62.072 161.495 62.04 161.751 62.04H165.943C166.135 62.04 166.295 62.104 166.423 62.232C166.572 62.3387 166.647 62.4773 166.647 62.648C166.647 63.2027 166.327 63.8533 165.687 64.6C165.068 65.3467 164.151 65.9867 162.935 66.52C161.74 67.0533 160.322 67.32 158.679 67.32ZM161.207 56.952V56.888C161.207 55.864 160.983 55.0747 160.535 54.52C160.087 53.944 159.458 53.656 158.647 53.656C157.836 53.656 157.207 53.944 156.759 54.52C156.332 55.0747 156.119 55.864 156.119 56.888V56.952H161.207ZM170.765 67C170.551 67 170.359 66.9253 170.189 66.776C170.039 66.6053 169.965 66.4133 169.965 66.2V51.192C169.965 50.9573 170.039 50.7653 170.189 50.616C170.338 50.4453 170.53 50.36 170.765 50.36H174.669C174.903 50.36 175.095 50.4453 175.245 50.616C175.415 50.7653 175.501 50.9573 175.501 51.192V52.408C176.098 51.7467 176.791 51.2453 177.581 50.904C178.391 50.5413 179.287 50.36 180.269 50.36H181.709C181.943 50.36 182.135 50.4347 182.285 50.584C182.434 50.7333 182.509 50.9253 182.509 51.16V54.648C182.509 54.8613 182.434 55.0533 182.285 55.224C182.135 55.3733 181.943 55.448 181.709 55.448H178.477C177.623 55.448 176.962 55.6827 176.493 56.152C176.045 56.6213 175.821 57.2827 175.821 58.136V66.2C175.821 66.4347 175.735 66.6267 175.565 66.776C175.415 66.9253 175.223 67 174.989 67H170.765ZM199.672 67.32C197.602 67.32 195.842 67.0213 194.392 66.424C192.941 65.8267 191.842 65.0373 191.096 64.056C190.349 63.0747 189.954 62.008 189.912 60.856C189.912 60.664 189.976 60.504 190.104 60.376C190.253 60.248 190.424 60.184 190.616 60.184H194.872C195.128 60.184 195.33 60.2267 195.48 60.312C195.65 60.3973 195.832 60.5467 196.024 60.76C196.301 61.272 196.728 61.6987 197.304 62.04C197.901 62.36 198.69 62.52 199.672 62.52C200.824 62.52 201.709 62.3493 202.328 62.008C202.946 61.6453 203.256 61.1547 203.256 60.536C203.256 60.088 203.096 59.7253 202.776 59.448C202.456 59.1493 201.944 58.8933 201.24 58.68C200.536 58.4453 199.522 58.1893 198.2 57.912C195.618 57.4 193.688 56.6213 192.408 55.576C191.128 54.5307 190.488 53.0373 190.488 51.096C190.488 49.7733 190.85 48.6 191.576 47.576C192.322 46.5307 193.368 45.72 194.712 45.144C196.077 44.568 197.656 44.28 199.448 44.28C201.325 44.28 202.946 44.6107 204.312 45.272C205.698 45.912 206.754 46.7227 207.48 47.704C208.226 48.664 208.621 49.6133 208.664 50.552C208.664 50.744 208.6 50.9147 208.472 51.064C208.344 51.192 208.184 51.256 207.992 51.256H203.512C203.042 51.256 202.68 51.064 202.424 50.68C202.296 50.232 201.965 49.8587 201.432 49.56C200.898 49.24 200.237 49.08 199.448 49.08C198.552 49.08 197.858 49.24 197.368 49.56C196.877 49.88 196.632 50.3493 196.632 50.968C196.632 51.5867 196.952 52.0773 197.592 52.44C198.232 52.7813 199.426 53.1333 201.176 53.496C203.181 53.8587 204.77 54.3173 205.944 54.872C207.138 55.4053 208.013 56.1093 208.568 56.984C209.144 57.8373 209.432 58.9253 209.432 60.248C209.432 61.6987 209.016 62.9573 208.184 64.024C207.352 65.0907 206.2 65.912 204.728 66.488C203.256 67.0427 201.57 67.32 199.672 67.32ZM220.888 67C216.365 67 214.104 64.8773 214.104 60.632V54.712H211.576C211.363 54.712 211.171 54.6373 211 54.488C210.851 54.3173 210.776 54.1253 210.776 53.912V51.16C210.776 50.9253 210.851 50.7333 211 50.584C211.171 50.4347 211.363 50.36 211.576 50.36H214.104V45.08C214.104 44.8453 214.179 44.6533 214.328 44.504C214.499 44.3547 214.691 44.28 214.904 44.28H218.84C219.075 44.28 219.267 44.3547 219.416 44.504C219.565 44.6533 219.64 44.8453 219.64 45.08V50.36H223.64C223.875 50.36 224.067 50.4347 224.216 50.584C224.387 50.7333 224.472 50.9253 224.472 51.16V53.912C224.472 54.1467 224.387 54.3387 224.216 54.488C224.067 54.6373 223.875 54.712 223.64 54.712H219.64V60.152C219.64 60.8987 219.779 61.464 220.056 61.848C220.333 62.232 220.781 62.424 221.4 62.424H223.928C224.163 62.424 224.355 62.5093 224.504 62.68C224.653 62.8293 224.728 63.0213 224.728 63.256V66.2C224.728 66.4133 224.653 66.6053 224.504 66.776C224.355 66.9253 224.163 67 223.928 67H220.888ZM235.308 67.32C232.62 67.32 230.551 66.7013 229.1 65.464C227.671 64.2053 226.892 62.424 226.764 60.12C226.743 59.8427 226.732 59.3627 226.732 58.68C226.732 57.9973 226.743 57.5173 226.764 57.24C226.892 54.9787 227.692 53.2187 229.164 51.96C230.658 50.68 232.706 50.04 235.308 50.04C237.911 50.04 239.948 50.68 241.42 51.96C242.914 53.2187 243.724 54.9787 243.852 57.24C243.895 57.7947 243.916 58.2747 243.916 58.68C243.916 59.0853 243.895 59.5653 243.852 60.12C243.724 62.424 242.935 64.2053 241.484 65.464C240.055 66.7013 237.996 67.32 235.308 67.32ZM235.308 63.288C236.183 63.288 236.834 63.0213 237.26 62.488C237.687 61.9333 237.932 61.0907 237.996 59.96C238.018 59.7467 238.028 59.32 238.028 58.68C238.028 58.04 238.018 57.6133 237.996 57.4C237.932 56.2907 237.687 55.4587 237.26 54.904C236.834 54.3493 236.183 54.072 235.308 54.072C234.434 54.072 233.783 54.3493 233.356 54.904C232.93 55.4587 232.684 56.2907 232.62 57.4L232.588 58.68L232.62 59.96C232.684 61.0907 232.93 61.9333 233.356 62.488C233.783 63.0213 234.434 63.288 235.308 63.288ZM247.765 67C247.551 67 247.359 66.9253 247.189 66.776C247.039 66.6053 246.965 66.4133 246.965 66.2V51.16C246.965 50.9253 247.039 50.7333 247.189 50.584C247.359 50.4347 247.551 50.36 247.765 50.36H251.701C251.935 50.36 252.127 50.4347 252.277 50.584C252.426 50.7333 252.501 50.9253 252.501 51.16V52.376C253.077 51.672 253.813 51.1067 254.709 50.68C255.626 50.2533 256.671 50.04 257.845 50.04C259.061 50.04 260.138 50.3173 261.077 50.872C262.037 51.4267 262.783 52.248 263.317 53.336C263.871 54.424 264.149 55.736 264.149 57.272V66.2C264.149 66.4133 264.074 66.6053 263.925 66.776C263.775 66.9253 263.583 67 263.349 67H259.093C258.858 67 258.655 66.9253 258.485 66.776C258.335 66.6267 258.261 66.4347 258.261 66.2V57.464C258.261 56.504 258.026 55.768 257.557 55.256C257.109 54.744 256.447 54.488 255.573 54.488C254.719 54.488 254.047 54.7547 253.557 55.288C253.066 55.8 252.821 56.5253 252.821 57.464V66.2C252.821 66.4133 252.746 66.6053 252.597 66.776C252.447 66.9253 252.255 67 252.021 67H247.765ZM275.46 67.32C272.857 67.32 270.809 66.6267 269.316 65.24C267.823 63.832 267.055 61.7947 267.012 59.128V58.136C267.097 55.5973 267.887 53.6133 269.38 52.184C270.873 50.7547 272.889 50.04 275.428 50.04C277.263 50.04 278.809 50.4133 280.068 51.16C281.348 51.8853 282.297 52.8987 282.916 54.2C283.556 55.48 283.876 56.9413 283.876 58.584V59.384C283.876 59.6187 283.791 59.8213 283.62 59.992C283.471 60.1413 283.279 60.216 283.044 60.216H272.9V60.408C272.921 61.368 273.145 62.1467 273.572 62.744C273.999 63.32 274.607 63.608 275.396 63.608C275.908 63.608 276.313 63.512 276.612 63.32C276.932 63.1067 277.231 62.84 277.508 62.52C277.7 62.3067 277.849 62.1787 277.956 62.136C278.084 62.072 278.276 62.04 278.532 62.04H282.724C282.916 62.04 283.076 62.104 283.204 62.232C283.353 62.3387 283.428 62.4773 283.428 62.648C283.428 63.2027 283.108 63.8533 282.468 64.6C281.849 65.3467 280.932 65.9867 279.716 66.52C278.521 67.0533 277.103 67.32 275.46 67.32ZM277.988 56.952V56.888C277.988 55.864 277.764 55.0747 277.316 54.52C276.868 53.944 276.239 53.656 275.428 53.656C274.617 53.656 273.988 53.944 273.54 54.52C273.113 55.0747 272.9 55.864 272.9 56.888V56.952H277.988Z" fill="#940000"/>
<path d="M123.952 94C123.818 94 123.698 93.9533 123.592 93.86C123.498 93.7533 123.452 93.6333 123.452 93.5V80.52C123.452 80.3733 123.498 80.2533 123.592 80.16C123.685 80.0533 123.805 80 123.952 80H133.252C133.398 80 133.518 80.0533 133.612 80.16C133.718 80.2533 133.772 80.3733 133.772 80.52V82.64C133.772 82.7867 133.718 82.9067 133.612 83C133.518 83.0933 133.398 83.14 133.252 83.14H127.132V85.92H132.852C132.998 85.92 133.118 85.9733 133.212 86.08C133.318 86.1733 133.372 86.2933 133.372 86.44V88.56C133.372 88.7067 133.318 88.8267 133.212 88.92C133.118 89.0133 132.998 89.06 132.852 89.06H127.132V93.5C127.132 93.6333 127.085 93.7533 126.992 93.86C126.898 93.9533 126.778 94 126.632 94H123.952ZM136.154 82.16C136.007 82.16 135.887 82.1133 135.794 82.02C135.7 81.9133 135.654 81.7867 135.654 81.64V79.78C135.654 79.6333 135.7 79.5133 135.794 79.42C135.9 79.3133 136.02 79.26 136.154 79.26H138.654C138.8 79.26 138.92 79.3133 139.014 79.42C139.12 79.5133 139.174 79.6333 139.174 79.78V81.64C139.174 81.7867 139.12 81.9133 139.014 82.02C138.92 82.1133 138.8 82.16 138.654 82.16H136.154ZM136.154 94C136.02 94 135.9 93.9533 135.794 93.86C135.7 93.7533 135.654 93.6333 135.654 93.5V84.1C135.654 83.9533 135.7 83.8333 135.794 83.74C135.9 83.6467 136.02 83.6 136.154 83.6H138.654C138.8 83.6 138.92 83.6467 139.014 83.74C139.12 83.8333 139.174 83.9533 139.174 84.1V93.5C139.174 93.6467 139.12 93.7667 139.014 93.86C138.92 93.9533 138.8 94 138.654 94H136.154ZM141.974 94C141.828 94 141.701 93.9533 141.594 93.86C141.501 93.7667 141.454 93.6467 141.454 93.5V80.3C141.454 80.1533 141.501 80.0333 141.594 79.94C141.701 79.8467 141.828 79.8 141.974 79.8H144.474C144.621 79.8 144.741 79.8467 144.834 79.94C144.928 80.0333 144.974 80.1533 144.974 80.3V93.5C144.974 93.6333 144.928 93.7533 144.834 93.86C144.741 93.9533 144.621 94 144.474 94H141.974ZM147.755 94C147.622 94 147.502 93.9533 147.395 93.86C147.302 93.7533 147.255 93.6333 147.255 93.5V84.1C147.255 83.9533 147.302 83.8333 147.395 83.74C147.502 83.6467 147.622 83.6 147.755 83.6H150.075C150.222 83.6 150.342 83.6467 150.435 83.74C150.529 83.8333 150.575 83.9533 150.575 84.1V84.78C150.895 84.3933 151.309 84.0667 151.815 83.8C152.322 83.5333 152.895 83.4 153.535 83.4C155.002 83.4 156.009 83.9733 156.555 85.12C156.875 84.6133 157.322 84.2 157.895 83.88C158.469 83.56 159.082 83.4 159.735 83.4C160.829 83.4 161.715 83.7733 162.395 84.52C163.089 85.2533 163.435 86.3533 163.435 87.82V93.5C163.435 93.6333 163.389 93.7533 163.295 93.86C163.202 93.9533 163.082 94 162.935 94H160.475C160.329 94 160.202 93.9533 160.095 93.86C160.002 93.7667 159.955 93.6467 159.955 93.5V87.96C159.955 87.3467 159.822 86.9 159.555 86.62C159.302 86.3267 158.955 86.18 158.515 86.18C158.102 86.18 157.762 86.3267 157.495 86.62C157.242 86.9 157.115 87.3467 157.115 87.96V93.5C157.115 93.6333 157.069 93.7533 156.975 93.86C156.882 93.9533 156.762 94 156.615 94H154.155C154.009 94 153.882 93.9533 153.775 93.86C153.682 93.7667 153.635 93.6467 153.635 93.5V87.96C153.635 87.3467 153.502 86.9 153.235 86.62C152.969 86.3267 152.622 86.18 152.195 86.18C151.782 86.18 151.442 86.3267 151.175 86.62C150.909 86.9 150.775 87.34 150.775 87.94V93.5C150.775 93.6333 150.729 93.7533 150.635 93.86C150.542 93.9533 150.422 94 150.275 94H147.755ZM170.615 94.2C168.935 94.2 167.641 93.8133 166.735 93.04C165.841 92.2533 165.355 91.14 165.275 89.7C165.261 89.5267 165.255 89.2267 165.255 88.8C165.255 88.3733 165.261 88.0733 165.275 87.9C165.355 86.4867 165.855 85.3867 166.775 84.6C167.708 83.8 168.988 83.4 170.615 83.4C172.241 83.4 173.515 83.8 174.435 84.6C175.368 85.3867 175.875 86.4867 175.955 87.9C175.981 88.2467 175.995 88.5467 175.995 88.8C175.995 89.0533 175.981 89.3533 175.955 89.7C175.875 91.14 175.381 92.2533 174.475 93.04C173.581 93.8133 172.295 94.2 170.615 94.2ZM170.615 91.68C171.161 91.68 171.568 91.5133 171.835 91.18C172.101 90.8333 172.255 90.3067 172.295 89.6C172.308 89.4667 172.315 89.2 172.315 88.8C172.315 88.4 172.308 88.1333 172.295 88C172.255 87.3067 172.101 86.7867 171.835 86.44C171.568 86.0933 171.161 85.92 170.615 85.92C170.068 85.92 169.661 86.0933 169.395 86.44C169.128 86.7867 168.975 87.3067 168.935 88L168.915 88.8L168.935 89.6C168.975 90.3067 169.128 90.8333 169.395 91.18C169.661 91.5133 170.068 91.68 170.615 91.68ZM183.1 98.4C181.82 98.4 180.78 98.1933 179.98 97.78C179.18 97.3667 178.606 96.8867 178.26 96.34C177.913 95.8067 177.74 95.36 177.74 95C177.74 94.8667 177.793 94.7533 177.9 94.66C178.006 94.5667 178.126 94.52 178.26 94.52H180.94C181.073 94.52 181.18 94.5467 181.26 94.6C181.34 94.6667 181.413 94.7733 181.48 94.92C181.613 95.2133 181.786 95.44 182 95.6C182.213 95.7733 182.546 95.86 183 95.86C183.573 95.86 184 95.7133 184.28 95.42C184.56 95.14 184.7 94.6667 184.7 94V92.66C183.993 93.3933 183.026 93.76 181.8 93.76C180.453 93.76 179.42 93.3733 178.7 92.6C177.993 91.8133 177.606 90.66 177.54 89.14L177.52 88.6C177.52 86.9733 177.88 85.7 178.6 84.78C179.333 83.86 180.4 83.4 181.8 83.4C182.48 83.4 183.08 83.5333 183.6 83.8C184.12 84.0533 184.553 84.4 184.9 84.84V84.12C184.9 83.9733 184.946 83.8533 185.04 83.76C185.133 83.6533 185.253 83.6 185.4 83.6H187.84C187.986 83.6 188.106 83.6533 188.2 83.76C188.306 83.8533 188.36 83.9733 188.36 84.12V93.7C188.36 95.2333 187.9 96.4 186.98 97.2C186.06 98 184.766 98.4 183.1 98.4ZM182.94 91.06C183.513 91.06 183.94 90.8867 184.22 90.54C184.5 90.1933 184.66 89.7533 184.7 89.22C184.713 89.1267 184.72 88.9267 184.72 88.62C184.72 88.3 184.713 88.1 184.7 88.02C184.66 87.4733 184.5 87.0333 184.22 86.7C183.94 86.3533 183.513 86.18 182.94 86.18C182.353 86.18 181.926 86.36 181.66 86.72C181.393 87.0667 181.246 87.5533 181.22 88.18L181.2 88.62C181.2 89.38 181.326 89.98 181.58 90.42C181.833 90.8467 182.286 91.06 182.94 91.06ZM191.154 94C191.02 94 190.9 93.9533 190.794 93.86C190.7 93.7533 190.654 93.6333 190.654 93.5V84.12C190.654 83.9733 190.7 83.8533 190.794 83.76C190.887 83.6533 191.007 83.6 191.154 83.6H193.594C193.74 83.6 193.86 83.6533 193.954 83.76C194.06 83.8533 194.114 83.9733 194.114 84.12V84.88C194.487 84.4667 194.92 84.1533 195.414 83.94C195.92 83.7133 196.48 83.6 197.094 83.6H197.994C198.14 83.6 198.26 83.6467 198.354 83.74C198.447 83.8333 198.494 83.9533 198.494 84.1V86.28C198.494 86.4133 198.447 86.5333 198.354 86.64C198.26 86.7333 198.14 86.78 197.994 86.78H195.974C195.44 86.78 195.027 86.9267 194.734 87.22C194.454 87.5133 194.314 87.9267 194.314 88.46V93.5C194.314 93.6467 194.26 93.7667 194.154 93.86C194.06 93.9533 193.94 94 193.794 94H191.154ZM202.837 94.2C202.13 94.2 201.483 94.0667 200.897 93.8C200.323 93.52 199.87 93.14 199.537 92.66C199.217 92.18 199.057 91.6533 199.057 91.08C199.057 90.1733 199.43 89.44 200.177 88.88C200.937 88.3067 201.977 87.9133 203.297 87.7L205.777 87.32V87.08C205.777 86.5867 205.677 86.2267 205.477 86C205.277 85.7733 204.937 85.66 204.457 85.66C204.19 85.66 203.963 85.7067 203.777 85.8C203.603 85.8933 203.403 86.0333 203.177 86.22C203.003 86.3667 202.85 86.4733 202.717 86.54C202.663 86.6333 202.597 86.68 202.517 86.68H200.197C200.063 86.68 199.95 86.64 199.857 86.56C199.777 86.4667 199.743 86.36 199.757 86.24C199.77 85.88 199.95 85.48 200.297 85.04C200.643 84.5867 201.17 84.2 201.877 83.88C202.583 83.56 203.457 83.4 204.497 83.4C206.15 83.4 207.377 83.7667 208.177 84.5C208.977 85.22 209.377 86.2 209.377 87.44V93.5C209.377 93.6333 209.33 93.7533 209.237 93.86C209.143 93.9533 209.023 94 208.877 94H206.417C206.283 94 206.163 93.9533 206.057 93.86C205.963 93.7533 205.917 93.6333 205.917 93.5V92.8C205.623 93.2133 205.217 93.5533 204.697 93.82C204.177 94.0733 203.557 94.2 202.837 94.2ZM203.837 91.84C204.423 91.84 204.897 91.6467 205.257 91.26C205.63 90.8733 205.817 90.3133 205.817 89.58V89.34L204.157 89.62C203.037 89.8333 202.477 90.2333 202.477 90.82C202.477 91.1267 202.603 91.3733 202.857 91.56C203.123 91.7467 203.45 91.84 203.837 91.84ZM212.072 97.8C211.925 97.8 211.799 97.7533 211.692 97.66C211.599 97.5667 211.552 97.4467 211.552 97.3V84.1C211.552 83.9533 211.599 83.8333 211.692 83.74C211.799 83.6467 211.925 83.6 212.072 83.6H214.452C214.599 83.6 214.719 83.6467 214.812 83.74C214.905 83.8333 214.952 83.9533 214.952 84.1V84.82C215.672 83.8733 216.705 83.4 218.052 83.4C219.345 83.4 220.359 83.8067 221.092 84.62C221.839 85.42 222.239 86.5667 222.292 88.06C222.305 88.2333 222.312 88.48 222.312 88.8C222.312 89.12 222.305 89.3733 222.292 89.56C222.239 91 221.839 92.1333 221.092 92.96C220.345 93.7867 219.332 94.2 218.052 94.2C216.759 94.2 215.792 93.76 215.152 92.88V97.3C215.152 97.4467 215.105 97.5667 215.012 97.66C214.919 97.7533 214.799 97.8 214.652 97.8H212.072ZM216.892 91.42C217.492 91.42 217.919 91.2467 218.172 90.9C218.439 90.54 218.592 90.0467 218.632 89.42C218.645 89.2867 218.652 89.08 218.652 88.8C218.652 88.52 218.645 88.3133 218.632 88.18C218.592 87.5533 218.439 87.0667 218.172 86.72C217.919 86.36 217.492 86.18 216.892 86.18C216.319 86.18 215.892 86.3667 215.612 86.74C215.332 87.1 215.179 87.56 215.152 88.12C215.139 88.2933 215.132 88.5467 215.132 88.88C215.132 89.2 215.139 89.4467 215.152 89.62C215.179 90.14 215.332 90.5733 215.612 90.92C215.905 91.2533 216.332 91.42 216.892 91.42ZM224.748 94C224.601 94 224.475 93.9533 224.368 93.86C224.275 93.7667 224.228 93.6467 224.228 93.5V80.3C224.228 80.1533 224.275 80.0333 224.368 79.94C224.475 79.8467 224.601 79.8 224.748 79.8H227.448C227.595 79.8 227.715 79.8467 227.808 79.94C227.915 80.0333 227.968 80.1533 227.968 80.3V84.76C228.741 83.8533 229.788 83.4 231.108 83.4C231.868 83.4 232.555 83.5733 233.168 83.92C233.781 84.2667 234.261 84.78 234.608 85.46C234.955 86.14 235.128 86.96 235.128 87.92V93.5C235.128 93.6467 235.075 93.7667 234.968 93.86C234.875 93.9533 234.755 94 234.608 94H231.888C231.755 94 231.635 93.9533 231.528 93.86C231.435 93.7533 231.388 93.6333 231.388 93.5V88.04C231.388 87.4533 231.241 87 230.948 86.68C230.655 86.3467 230.235 86.18 229.688 86.18C229.155 86.18 228.735 86.3467 228.428 86.68C228.121 87 227.968 87.4533 227.968 88.04V93.5C227.968 93.6467 227.915 93.7667 227.808 93.86C227.715 93.9533 227.595 94 227.448 94H224.748ZM237.814 82.16C237.667 82.16 237.547 82.1133 237.454 82.02C237.36 81.9133 237.314 81.7867 237.314 81.64V79.78C237.314 79.6333 237.36 79.5133 237.454 79.42C237.56 79.3133 237.68 79.26 237.814 79.26H240.314C240.46 79.26 240.58 79.3133 240.674 79.42C240.78 79.5133 240.834 79.6333 240.834 79.78V81.64C240.834 81.7867 240.78 81.9133 240.674 82.02C240.58 82.1133 240.46 82.16 240.314 82.16H237.814ZM237.814 94C237.68 94 237.56 93.9533 237.454 93.86C237.36 93.7533 237.314 93.6333 237.314 93.5V84.1C237.314 83.9533 237.36 83.8333 237.454 83.74C237.56 83.6467 237.68 83.6 237.814 83.6H240.314C240.46 83.6 240.58 83.6467 240.674 83.74C240.78 83.8333 240.834 83.9533 240.834 84.1V93.5C240.834 93.6467 240.78 93.7667 240.674 93.86C240.58 93.9533 240.46 94 240.314 94H237.814ZM247.995 94.2C246.368 94.2 245.088 93.7667 244.155 92.9C243.221 92.02 242.741 90.7467 242.715 89.08V88.46C242.768 86.8733 243.261 85.6333 244.195 84.74C245.128 83.8467 246.388 83.4 247.975 83.4C249.121 83.4 250.088 83.6333 250.875 84.1C251.675 84.5533 252.268 85.1867 252.655 86C253.055 86.8 253.255 87.7133 253.255 88.74V89.24C253.255 89.3867 253.201 89.5133 253.095 89.62C253.001 89.7133 252.881 89.76 252.735 89.76H246.395V89.88C246.408 90.48 246.548 90.9667 246.815 91.34C247.081 91.7 247.461 91.88 247.955 91.88C248.275 91.88 248.528 91.82 248.715 91.7C248.915 91.5667 249.101 91.4 249.275 91.2C249.395 91.0667 249.488 90.9867 249.555 90.96C249.635 90.92 249.755 90.9 249.915 90.9H252.535C252.655 90.9 252.755 90.94 252.835 91.02C252.928 91.0867 252.975 91.1733 252.975 91.28C252.975 91.6267 252.775 92.0333 252.375 92.5C251.988 92.9667 251.415 93.3667 250.655 93.7C249.908 94.0333 249.021 94.2 247.995 94.2ZM249.575 87.72V87.68C249.575 87.04 249.435 86.5467 249.155 86.2C248.875 85.84 248.481 85.66 247.975 85.66C247.468 85.66 247.075 85.84 246.795 86.2C246.528 86.5467 246.395 87.04 246.395 87.68V87.72H249.575Z" fill="#303030"/>
<defs>
<filter id="filter0_d_934_1116" x="-7" y="0" width="390" height="143" filterUnits="userSpaceOnUse" color-interpolation-filters="sRGB">
<feFlood flood-opacity="0" result="BackgroundImageFix"/>
<feColorMatrix in="SourceAlpha" type="matrix" values="0 0 0 0 0 0 0 0 0 0 0 0 0 0 0 0 0 0 127 0" result="hardAlpha"/>
<feMorphology radius="15" operator="dilate" in="SourceAlpha" result="effect1_dropShadow_934_1116"/>
<feOffset dy="4"/>
<feGaussianBlur stdDeviation="5"/>
<feComposite in2="hardAlpha" operator="out"/>
<feColorMatrix type="matrix" values="0 0 0 0 0 0 0 0 0 0 0 0 0 0 0 0 0 0 0.25 0"/>
<feBlend mode="normal" in2="BackgroundImageFix" result="effect1_dropShadow_934_1116"/>
<feBlend mode="normal" in="SourceGraphic" in2="effect1_dropShadow_934_1116" result="shape"/>
</filter>
<filter id="filter1_d_934_1116" x="14" y="21" width="348" height="18" filterUnits="userSpaceOnUse" color-interpolation-filters="sRGB">
<feFlood flood-opacity="0" result="BackgroundImageFix"/>
<feColorMatrix in="SourceAlpha" type="matrix" values="0 0 0 0 0 0 0 0 0 0 0 0 0 0 0 0 0 0 127 0" result="hardAlpha"/>
<feOffset dy="4"/>
<feGaussianBlur stdDeviation="2"/>
<feComposite in2="hardAlpha" operator="out"/>
<feColorMatrix type="matrix" values="0 0 0 0 0 0 0 0 0 0 0 0 0 0 0 0 0 0 0.25 0"/>
<feBlend mode="normal" in2="BackgroundImageFix" result="effect1_dropShadow_934_1116"/>
<feBlend mode="normal" in="SourceGraphic" in2="effect1_dropShadow_934_1116" result="shape"/>
</filter>
</defs>
</svg>
