<svg width="375" height="108" viewBox="0 0 375 108" fill="none" xmlns="http://www.w3.org/2000/svg">
<g filter="url(#filter0_d_934_1110)">
<rect x="17" y="21" width="340" height="58" fill="white"/>
</g>
<g filter="url(#filter1_d_934_1110)">
<rect x="17" y="21" width="340" height="10" fill="#940000"/>
</g>
<path d="M123.724 61.32C120.631 61.32 118.209 60.5733 116.46 59.08C114.711 57.5653 113.783 55.4107 113.676 52.616C113.655 52.0187 113.644 51.048 113.644 49.704C113.644 48.36 113.655 47.3787 113.676 46.76C113.761 44.072 114.689 41.992 116.46 40.52C118.252 39.0267 120.673 38.28 123.724 38.28C125.772 38.28 127.553 38.6107 129.068 39.272C130.604 39.9333 131.767 40.7867 132.556 41.832C133.367 42.856 133.793 43.912 133.836 45C133.836 45.192 133.761 45.3627 133.612 45.512C133.484 45.64 133.324 45.704 133.132 45.704H128.172C127.959 45.704 127.788 45.672 127.66 45.608C127.553 45.5227 127.447 45.4053 127.34 45.256C127.084 44.6587 126.668 44.1467 126.092 43.72C125.537 43.2933 124.748 43.08 123.724 43.08C121.249 43.08 119.969 44.36 119.884 46.92C119.863 47.5173 119.852 48.4347 119.852 49.672C119.852 50.9093 119.863 51.8373 119.884 52.456C119.969 55.1653 121.271 56.52 123.788 56.52C125.025 56.52 126.007 56.2107 126.732 55.592C127.457 54.9733 127.82 54.0347 127.82 52.776V52.2H124.972C124.737 52.2 124.535 52.1253 124.364 51.976C124.215 51.8053 124.14 51.6027 124.14 51.368V48.872C124.14 48.6373 124.215 48.4453 124.364 48.296C124.535 48.1253 124.737 48.04 124.972 48.04H133.1C133.335 48.04 133.527 48.1253 133.676 48.296C133.847 48.4453 133.932 48.6373 133.932 48.872V52.584C133.932 54.3973 133.505 55.9653 132.652 57.288C131.82 58.5893 130.636 59.592 129.1 60.296C127.564 60.9787 125.772 61.32 123.724 61.32ZM137.953 61C137.718 61 137.516 60.9253 137.345 60.776C137.196 60.6267 137.121 60.4347 137.121 60.2V39.08C137.121 38.8453 137.196 38.6533 137.345 38.504C137.516 38.3547 137.718 38.28 137.953 38.28H141.953C142.188 38.28 142.38 38.3547 142.529 38.504C142.678 38.6533 142.753 38.8453 142.753 39.08V60.2C142.753 60.4133 142.678 60.6053 142.529 60.776C142.38 60.9253 142.188 61 141.953 61H137.953ZM154.402 61.32C151.714 61.32 149.645 60.7013 148.194 59.464C146.765 58.2053 145.986 56.424 145.858 54.12C145.837 53.8427 145.826 53.3627 145.826 52.68C145.826 51.9973 145.837 51.5173 145.858 51.24C145.986 48.9787 146.786 47.2187 148.258 45.96C149.751 44.68 151.799 44.04 154.402 44.04C157.005 44.04 159.042 44.68 160.514 45.96C162.007 47.2187 162.818 48.9787 162.946 51.24C162.989 51.7947 163.01 52.2747 163.01 52.68C163.01 53.0853 162.989 53.5653 162.946 54.12C162.818 56.424 162.029 58.2053 160.578 59.464C159.149 60.7013 157.09 61.32 154.402 61.32ZM154.402 57.288C155.277 57.288 155.927 57.0213 156.354 56.488C156.781 55.9333 157.026 55.0907 157.09 53.96C157.111 53.7467 157.122 53.32 157.122 52.68C157.122 52.04 157.111 51.6133 157.09 51.4C157.026 50.2907 156.781 49.4587 156.354 48.904C155.927 48.3493 155.277 48.072 154.402 48.072C153.527 48.072 152.877 48.3493 152.45 48.904C152.023 49.4587 151.778 50.2907 151.714 51.4L151.682 52.68L151.714 53.96C151.778 55.0907 152.023 55.9333 152.45 56.488C152.877 57.0213 153.527 57.288 154.402 57.288ZM173.034 61.32C171.285 61.32 169.824 61.0747 168.65 60.584C167.477 60.0933 166.602 59.5067 166.026 58.824C165.472 58.1413 165.194 57.5227 165.194 56.968C165.194 56.7547 165.269 56.584 165.418 56.456C165.589 56.3067 165.77 56.232 165.962 56.232H169.834C169.962 56.232 170.069 56.2747 170.154 56.36C170.517 56.5947 170.72 56.7333 170.762 56.776C171.168 57.0747 171.541 57.3093 171.882 57.48C172.245 57.6293 172.672 57.704 173.162 57.704C173.738 57.704 174.208 57.5973 174.57 57.384C174.954 57.1493 175.146 56.8293 175.146 56.424C175.146 56.0827 175.04 55.8053 174.826 55.592C174.634 55.3787 174.25 55.176 173.674 54.984C173.12 54.7707 172.266 54.5573 171.114 54.344C167.424 53.5973 165.578 51.8907 165.578 49.224C165.578 48.3493 165.856 47.5173 166.41 46.728C166.986 45.9173 167.818 45.2667 168.906 44.776C170.016 44.2853 171.338 44.04 172.874 44.04C174.432 44.04 175.776 44.2853 176.906 44.776C178.058 45.2453 178.933 45.8213 179.53 46.504C180.128 47.1653 180.426 47.7733 180.426 48.328C180.426 48.52 180.352 48.6907 180.202 48.84C180.074 48.9893 179.914 49.064 179.722 49.064H176.202C176.01 49.064 175.861 49.0213 175.754 48.936C175.498 48.808 175.242 48.648 174.986 48.456C174.602 48.2 174.261 48.008 173.962 47.88C173.685 47.7307 173.322 47.656 172.874 47.656C172.341 47.656 171.925 47.7733 171.626 48.008C171.328 48.2427 171.178 48.5413 171.178 48.904C171.178 49.224 171.264 49.4907 171.434 49.704C171.626 49.896 172 50.088 172.554 50.28C173.13 50.472 173.994 50.6747 175.146 50.888C177.237 51.2507 178.752 51.9013 179.69 52.84C180.65 53.7573 181.13 54.8347 181.13 56.072C181.13 57.672 180.416 58.952 178.986 59.912C177.578 60.8507 175.594 61.32 173.034 61.32ZM190.847 61.32C189.098 61.32 187.636 61.0747 186.463 60.584C185.29 60.0933 184.415 59.5067 183.839 58.824C183.284 58.1413 183.007 57.5227 183.007 56.968C183.007 56.7547 183.082 56.584 183.231 56.456C183.402 56.3067 183.583 56.232 183.775 56.232H187.647C187.775 56.232 187.882 56.2747 187.967 56.36C188.33 56.5947 188.532 56.7333 188.575 56.776C188.98 57.0747 189.354 57.3093 189.695 57.48C190.058 57.6293 190.484 57.704 190.975 57.704C191.551 57.704 192.02 57.5973 192.383 57.384C192.767 57.1493 192.959 56.8293 192.959 56.424C192.959 56.0827 192.852 55.8053 192.639 55.592C192.447 55.3787 192.063 55.176 191.487 54.984C190.932 54.7707 190.079 54.5573 188.927 54.344C185.236 53.5973 183.391 51.8907 183.391 49.224C183.391 48.3493 183.668 47.5173 184.223 46.728C184.799 45.9173 185.631 45.2667 186.719 44.776C187.828 44.2853 189.151 44.04 190.687 44.04C192.244 44.04 193.588 44.2853 194.719 44.776C195.871 45.2453 196.746 45.8213 197.343 46.504C197.94 47.1653 198.239 47.7733 198.239 48.328C198.239 48.52 198.164 48.6907 198.015 48.84C197.887 48.9893 197.727 49.064 197.535 49.064H194.015C193.823 49.064 193.674 49.0213 193.567 48.936C193.311 48.808 193.055 48.648 192.799 48.456C192.415 48.2 192.074 48.008 191.775 47.88C191.498 47.7307 191.135 47.656 190.687 47.656C190.154 47.656 189.738 47.7733 189.439 48.008C189.14 48.2427 188.991 48.5413 188.991 48.904C188.991 49.224 189.076 49.4907 189.247 49.704C189.439 49.896 189.812 50.088 190.367 50.28C190.943 50.472 191.807 50.6747 192.959 50.888C195.05 51.2507 196.564 51.9013 197.503 52.84C198.463 53.7573 198.943 54.8347 198.943 56.072C198.943 57.672 198.228 58.952 196.799 59.912C195.391 60.8507 193.407 61.32 190.847 61.32ZM206.707 61.32C205.577 61.32 204.542 61.1067 203.603 60.68C202.686 60.232 201.961 59.624 201.427 58.856C200.915 58.088 200.659 57.2453 200.659 56.328C200.659 54.8773 201.257 53.704 202.451 52.808C203.667 51.8907 205.331 51.2613 207.443 50.92L211.411 50.312V49.928C211.411 49.1387 211.251 48.5627 210.931 48.2C210.611 47.8373 210.067 47.656 209.299 47.656C208.873 47.656 208.51 47.7307 208.211 47.88C207.934 48.0293 207.614 48.2533 207.251 48.552C206.974 48.7867 206.729 48.9573 206.515 49.064C206.43 49.2133 206.323 49.288 206.195 49.288H202.483C202.27 49.288 202.089 49.224 201.939 49.096C201.811 48.9467 201.758 48.776 201.779 48.584C201.801 48.008 202.089 47.368 202.643 46.664C203.198 45.9387 204.041 45.32 205.171 44.808C206.302 44.296 207.699 44.04 209.363 44.04C212.009 44.04 213.971 44.6267 215.251 45.8C216.531 46.952 217.171 48.52 217.171 50.504V60.2C217.171 60.4133 217.097 60.6053 216.947 60.776C216.798 60.9253 216.606 61 216.371 61H212.435C212.222 61 212.03 60.9253 211.859 60.776C211.71 60.6053 211.635 60.4133 211.635 60.2V59.08C211.166 59.7413 210.515 60.2853 209.683 60.712C208.851 61.1173 207.859 61.32 206.707 61.32ZM208.307 57.544C209.246 57.544 210.003 57.2347 210.579 56.616C211.177 55.9973 211.475 55.1013 211.475 53.928V53.544L208.819 53.992C207.027 54.3333 206.131 54.9733 206.131 55.912C206.131 56.4027 206.334 56.7973 206.739 57.096C207.166 57.3947 207.689 57.544 208.307 57.544ZM221.452 42.056C221.217 42.056 221.025 41.9813 220.876 41.832C220.727 41.6613 220.652 41.4587 220.652 41.224V38.248C220.652 38.0133 220.727 37.8213 220.876 37.672C221.047 37.5013 221.239 37.416 221.452 37.416H225.452C225.687 37.416 225.879 37.5013 226.028 37.672C226.199 37.8213 226.284 38.0133 226.284 38.248V41.224C226.284 41.4587 226.199 41.6613 226.028 41.832C225.879 41.9813 225.687 42.056 225.452 42.056H221.452ZM221.452 61C221.239 61 221.047 60.9253 220.876 60.776C220.727 60.6053 220.652 60.4133 220.652 60.2V45.16C220.652 44.9253 220.727 44.7333 220.876 44.584C221.047 44.4347 221.239 44.36 221.452 44.36H225.452C225.687 44.36 225.879 44.4347 226.028 44.584C226.199 44.7333 226.284 44.9253 226.284 45.16V60.2C226.284 60.4347 226.199 60.6267 226.028 60.776C225.879 60.9253 225.687 61 225.452 61H221.452ZM230.733 61C230.52 61 230.328 60.9253 230.157 60.776C230.008 60.6053 229.933 60.4133 229.933 60.2V45.192C229.933 44.9573 230.008 44.7653 230.157 44.616C230.307 44.4453 230.499 44.36 230.733 44.36H234.637C234.872 44.36 235.064 44.4453 235.213 44.616C235.384 44.7653 235.469 44.9573 235.469 45.192V46.408C236.067 45.7467 236.76 45.2453 237.549 44.904C238.36 44.5413 239.256 44.36 240.237 44.36H241.677C241.912 44.36 242.104 44.4347 242.253 44.584C242.403 44.7333 242.477 44.9253 242.477 45.16V48.648C242.477 48.8613 242.403 49.0533 242.253 49.224C242.104 49.3733 241.912 49.448 241.677 49.448H238.445C237.592 49.448 236.931 49.6827 236.461 50.152C236.013 50.6213 235.789 51.2827 235.789 52.136V60.2C235.789 60.4347 235.704 60.6267 235.533 60.776C235.384 60.9253 235.192 61 234.957 61H230.733ZM252.366 61.32C249.764 61.32 247.716 60.6267 246.222 59.24C244.729 57.832 243.961 55.7947 243.918 53.128V52.136C244.004 49.5973 244.793 47.6133 246.286 46.184C247.78 44.7547 249.796 44.04 252.334 44.04C254.169 44.04 255.716 44.4133 256.974 45.16C258.254 45.8853 259.204 46.8987 259.822 48.2C260.462 49.48 260.782 50.9413 260.782 52.584V53.384C260.782 53.6187 260.697 53.8213 260.526 53.992C260.377 54.1413 260.185 54.216 259.95 54.216H249.806V54.408C249.828 55.368 250.052 56.1467 250.478 56.744C250.905 57.32 251.513 57.608 252.302 57.608C252.814 57.608 253.22 57.512 253.518 57.32C253.838 57.1067 254.137 56.84 254.414 56.52C254.606 56.3067 254.756 56.1787 254.862 56.136C254.99 56.072 255.182 56.04 255.438 56.04H259.63C259.822 56.04 259.982 56.104 260.11 56.232C260.26 56.3387 260.334 56.4773 260.334 56.648C260.334 57.2027 260.014 57.8533 259.374 58.6C258.756 59.3467 257.838 59.9867 256.622 60.52C255.428 61.0533 254.009 61.32 252.366 61.32ZM254.894 50.952V50.888C254.894 49.864 254.67 49.0747 254.222 48.52C253.774 47.944 253.145 47.656 252.334 47.656C251.524 47.656 250.894 47.944 250.446 48.52C250.02 49.0747 249.806 49.864 249.806 50.888V50.952H254.894Z" fill="#940000"/>
<defs>
<filter id="filter0_d_934_1110" x="-8" y="0" width="390" height="108" filterUnits="userSpaceOnUse" color-interpolation-filters="sRGB">
<feFlood flood-opacity="0" result="BackgroundImageFix"/>
<feColorMatrix in="SourceAlpha" type="matrix" values="0 0 0 0 0 0 0 0 0 0 0 0 0 0 0 0 0 0 127 0" result="hardAlpha"/>
<feMorphology radius="15" operator="dilate" in="SourceAlpha" result="effect1_dropShadow_934_1110"/>
<feOffset dy="4"/>
<feGaussianBlur stdDeviation="5"/>
<feComposite in2="hardAlpha" operator="out"/>
<feColorMatrix type="matrix" values="0 0 0 0 0 0 0 0 0 0 0 0 0 0 0 0 0 0 0.25 0"/>
<feBlend mode="normal" in2="BackgroundImageFix" result="effect1_dropShadow_934_1110"/>
<feBlend mode="normal" in="SourceGraphic" in2="effect1_dropShadow_934_1110" result="shape"/>
</filter>
<filter id="filter1_d_934_1110" x="13" y="21" width="348" height="18" filterUnits="userSpaceOnUse" color-interpolation-filters="sRGB">
<feFlood flood-opacity="0" result="BackgroundImageFix"/>
<feColorMatrix in="SourceAlpha" type="matrix" values="0 0 0 0 0 0 0 0 0 0 0 0 0 0 0 0 0 0 127 0" result="hardAlpha"/>
<feOffset dy="4"/>
<feGaussianBlur stdDeviation="2"/>
<feComposite in2="hardAlpha" operator="out"/>
<feColorMatrix type="matrix" values="0 0 0 0 0 0 0 0 0 0 0 0 0 0 0 0 0 0 0.25 0"/>
<feBlend mode="normal" in2="BackgroundImageFix" result="effect1_dropShadow_934_1110"/>
<feBlend mode="normal" in="SourceGraphic" in2="effect1_dropShadow_934_1110" result="shape"/>
</filter>
</defs>
</svg>
