<svg width="390" height="108" viewBox="0 0 390 108" fill="none" xmlns="http://www.w3.org/2000/svg">
<g filter="url(#filter0_d_1276_379)">
<rect x="25" y="21" width="340" height="58" fill="white"/>
</g>
<g filter="url(#filter1_d_1276_379)">
<rect x="25" y="21" width="340" height="10" fill="#940000"/>
</g>
<path d="M136.74 61.32C133.646 61.32 131.225 60.5733 129.476 59.08C127.726 57.5653 126.798 55.4107 126.692 52.616C126.67 52.0187 126.66 51.048 126.66 49.704C126.66 48.36 126.67 47.3787 126.692 46.76C126.777 44.072 127.705 41.992 129.476 40.52C131.268 39.0267 133.689 38.28 136.74 38.28C138.788 38.28 140.569 38.6107 142.083 39.272C143.62 39.9333 144.782 40.7867 145.572 41.832C146.382 42.856 146.809 43.912 146.852 45C146.852 45.192 146.777 45.3627 146.628 45.512C146.5 45.64 146.34 45.704 146.148 45.704H141.188C140.974 45.704 140.804 45.672 140.676 45.608C140.569 45.5227 140.462 45.4053 140.356 45.256C140.1 44.6587 139.684 44.1467 139.108 43.72C138.553 43.2933 137.764 43.08 136.74 43.08C134.265 43.08 132.985 44.36 132.9 46.92C132.878 47.5173 132.868 48.4347 132.868 49.672C132.868 50.9093 132.878 51.8373 132.9 52.456C132.985 55.1653 134.286 56.52 136.804 56.52C138.041 56.52 139.022 56.2107 139.748 55.592C140.473 54.9733 140.836 54.0347 140.836 52.776V52.2H137.988C137.753 52.2 137.55 52.1253 137.38 51.976C137.23 51.8053 137.156 51.6027 137.156 51.368V48.872C137.156 48.6373 137.23 48.4453 137.38 48.296C137.55 48.1253 137.753 48.04 137.988 48.04H146.116C146.35 48.04 146.542 48.1253 146.692 48.296C146.862 48.4453 146.948 48.6373 146.948 48.872V52.584C146.948 54.3973 146.521 55.9653 145.668 57.288C144.836 58.5893 143.652 59.592 142.116 60.296C140.58 60.9787 138.788 61.32 136.74 61.32ZM150.969 61C150.734 61 150.531 60.9253 150.361 60.776C150.211 60.6267 150.137 60.4347 150.137 60.2V39.08C150.137 38.8453 150.211 38.6533 150.361 38.504C150.531 38.3547 150.734 38.28 150.969 38.28H154.969C155.203 38.28 155.395 38.3547 155.545 38.504C155.694 38.6533 155.769 38.8453 155.769 39.08V60.2C155.769 60.4133 155.694 60.6053 155.545 60.776C155.395 60.9253 155.203 61 154.969 61H150.969ZM167.418 61.32C164.73 61.32 162.66 60.7013 161.21 59.464C159.78 58.2053 159.002 56.424 158.874 54.12C158.852 53.8427 158.842 53.3627 158.842 52.68C158.842 51.9973 158.852 51.5173 158.874 51.24C159.002 48.9787 159.802 47.2187 161.274 45.96C162.767 44.68 164.815 44.04 167.418 44.04C170.02 44.04 172.058 44.68 173.53 45.96C175.023 47.2187 175.834 48.9787 175.962 51.24C176.004 51.7947 176.026 52.2747 176.026 52.68C176.026 53.0853 176.004 53.5653 175.962 54.12C175.834 56.424 175.044 58.2053 173.594 59.464C172.164 60.7013 170.106 61.32 167.418 61.32ZM167.418 57.288C168.292 57.288 168.943 57.0213 169.37 56.488C169.796 55.9333 170.042 55.0907 170.106 53.96C170.127 53.7467 170.138 53.32 170.138 52.68C170.138 52.04 170.127 51.6133 170.106 51.4C170.042 50.2907 169.796 49.4587 169.37 48.904C168.943 48.3493 168.292 48.072 167.418 48.072C166.543 48.072 165.892 48.3493 165.466 48.904C165.039 49.4587 164.794 50.2907 164.73 51.4L164.698 52.68L164.73 53.96C164.794 55.0907 165.039 55.9333 165.466 56.488C165.892 57.0213 166.543 57.288 167.418 57.288ZM186.05 61.32C184.301 61.32 182.839 61.0747 181.666 60.584C180.493 60.0933 179.618 59.5067 179.042 58.824C178.487 58.1413 178.21 57.5227 178.21 56.968C178.21 56.7547 178.285 56.584 178.434 56.456C178.605 56.3067 178.786 56.232 178.978 56.232H182.85C182.978 56.232 183.085 56.2747 183.17 56.36C183.533 56.5947 183.735 56.7333 183.778 56.776C184.183 57.0747 184.557 57.3093 184.898 57.48C185.261 57.6293 185.687 57.704 186.178 57.704C186.754 57.704 187.223 57.5973 187.586 57.384C187.97 57.1493 188.162 56.8293 188.162 56.424C188.162 56.0827 188.055 55.8053 187.842 55.592C187.65 55.3787 187.266 55.176 186.69 54.984C186.135 54.7707 185.282 54.5573 184.13 54.344C180.439 53.5973 178.594 51.8907 178.594 49.224C178.594 48.3493 178.871 47.5173 179.426 46.728C180.002 45.9173 180.834 45.2667 181.922 44.776C183.031 44.2853 184.354 44.04 185.89 44.04C187.447 44.04 188.791 44.2853 189.922 44.776C191.074 45.2453 191.949 45.8213 192.546 46.504C193.143 47.1653 193.442 47.7733 193.442 48.328C193.442 48.52 193.367 48.6907 193.218 48.84C193.09 48.9893 192.93 49.064 192.738 49.064H189.218C189.026 49.064 188.877 49.0213 188.77 48.936C188.514 48.808 188.258 48.648 188.002 48.456C187.618 48.2 187.277 48.008 186.978 47.88C186.701 47.7307 186.338 47.656 185.89 47.656C185.357 47.656 184.941 47.7733 184.642 48.008C184.343 48.2427 184.194 48.5413 184.194 48.904C184.194 49.224 184.279 49.4907 184.45 49.704C184.642 49.896 185.015 50.088 185.57 50.28C186.146 50.472 187.01 50.6747 188.162 50.888C190.253 51.2507 191.767 51.9013 192.706 52.84C193.666 53.7573 194.146 54.8347 194.146 56.072C194.146 57.672 193.431 58.952 192.002 59.912C190.594 60.8507 188.61 61.32 186.05 61.32ZM203.863 61.32C202.113 61.32 200.652 61.0747 199.479 60.584C198.305 60.0933 197.431 59.5067 196.855 58.824C196.3 58.1413 196.023 57.5227 196.023 56.968C196.023 56.7547 196.097 56.584 196.247 56.456C196.417 56.3067 196.599 56.232 196.791 56.232H200.663C200.791 56.232 200.897 56.2747 200.983 56.36C201.345 56.5947 201.548 56.7333 201.591 56.776C201.996 57.0747 202.369 57.3093 202.711 57.48C203.073 57.6293 203.5 57.704 203.991 57.704C204.567 57.704 205.036 57.5973 205.399 57.384C205.783 57.1493 205.975 56.8293 205.975 56.424C205.975 56.0827 205.868 55.8053 205.655 55.592C205.463 55.3787 205.079 55.176 204.503 54.984C203.948 54.7707 203.095 54.5573 201.943 54.344C198.252 53.5973 196.407 51.8907 196.407 49.224C196.407 48.3493 196.684 47.5173 197.239 46.728C197.815 45.9173 198.647 45.2667 199.735 44.776C200.844 44.2853 202.167 44.04 203.703 44.04C205.26 44.04 206.604 44.2853 207.735 44.776C208.887 45.2453 209.761 45.8213 210.359 46.504C210.956 47.1653 211.255 47.7733 211.255 48.328C211.255 48.52 211.18 48.6907 211.031 48.84C210.903 48.9893 210.743 49.064 210.551 49.064H207.031C206.839 49.064 206.689 49.0213 206.583 48.936C206.327 48.808 206.071 48.648 205.815 48.456C205.431 48.2 205.089 48.008 204.791 47.88C204.513 47.7307 204.151 47.656 203.703 47.656C203.169 47.656 202.753 47.7733 202.455 48.008C202.156 48.2427 202.007 48.5413 202.007 48.904C202.007 49.224 202.092 49.4907 202.263 49.704C202.455 49.896 202.828 50.088 203.383 50.28C203.959 50.472 204.823 50.6747 205.975 50.888C208.065 51.2507 209.58 51.9013 210.519 52.84C211.479 53.7573 211.958 54.8347 211.958 56.072C211.958 57.672 211.244 58.952 209.815 59.912C208.407 60.8507 206.423 61.32 203.863 61.32ZM219.723 61.32C218.592 61.32 217.558 61.1067 216.619 60.68C215.702 60.232 214.976 59.624 214.443 58.856C213.931 58.088 213.675 57.2453 213.675 56.328C213.675 54.8773 214.272 53.704 215.467 52.808C216.683 51.8907 218.347 51.2613 220.459 50.92L224.427 50.312V49.928C224.427 49.1387 224.267 48.5627 223.947 48.2C223.627 47.8373 223.083 47.656 222.315 47.656C221.888 47.656 221.526 47.7307 221.227 47.88C220.95 48.0293 220.63 48.2533 220.267 48.552C219.99 48.7867 219.744 48.9573 219.531 49.064C219.446 49.2133 219.339 49.288 219.211 49.288H215.499C215.286 49.288 215.104 49.224 214.955 49.096C214.827 48.9467 214.774 48.776 214.795 48.584C214.816 48.008 215.104 47.368 215.659 46.664C216.214 45.9387 217.056 45.32 218.187 44.808C219.318 44.296 220.715 44.04 222.379 44.04C225.024 44.04 226.987 44.6267 228.267 45.8C229.547 46.952 230.187 48.52 230.187 50.504V60.2C230.187 60.4133 230.112 60.6053 229.963 60.776C229.814 60.9253 229.622 61 229.387 61H225.451C225.238 61 225.046 60.9253 224.875 60.776C224.726 60.6053 224.651 60.4133 224.651 60.2V59.08C224.182 59.7413 223.531 60.2853 222.699 60.712C221.867 61.1173 220.875 61.32 219.723 61.32ZM221.323 57.544C222.262 57.544 223.019 57.2347 223.595 56.616C224.192 55.9973 224.491 55.1013 224.491 53.928V53.544L221.835 53.992C220.043 54.3333 219.147 54.9733 219.147 55.912C219.147 56.4027 219.35 56.7973 219.755 57.096C220.182 57.3947 220.704 57.544 221.323 57.544ZM234.468 61C234.254 61 234.062 60.9253 233.892 60.776C233.742 60.6053 233.668 60.4133 233.668 60.2V45.192C233.668 44.9573 233.742 44.7653 233.892 44.616C234.041 44.4453 234.233 44.36 234.468 44.36H238.372C238.606 44.36 238.798 44.4453 238.948 44.616C239.118 44.7653 239.204 44.9573 239.204 45.192V46.408C239.801 45.7467 240.494 45.2453 241.284 44.904C242.094 44.5413 242.99 44.36 243.972 44.36H245.412C245.646 44.36 245.838 44.4347 245.988 44.584C246.137 44.7333 246.212 44.9253 246.212 45.16V48.648C246.212 48.8613 246.137 49.0533 245.988 49.224C245.838 49.3733 245.646 49.448 245.412 49.448H242.18C241.326 49.448 240.665 49.6827 240.196 50.152C239.748 50.6213 239.524 51.2827 239.524 52.136V60.2C239.524 60.4347 239.438 60.6267 239.268 60.776C239.118 60.9253 238.926 61 238.692 61H234.468ZM251.554 67.08C251.362 67.08 251.202 67.016 251.074 66.888C250.946 66.76 250.882 66.6 250.882 66.408C250.882 66.2587 250.903 66.12 250.946 65.992L253.474 59.976L247.33 45.448C247.266 45.2773 247.234 45.16 247.234 45.096C247.276 44.8827 247.362 44.712 247.49 44.584C247.639 44.4347 247.81 44.36 248.002 44.36H251.81C252.258 44.36 252.567 44.584 252.738 45.032L256.29 54.12L259.938 45.032C260.151 44.584 260.471 44.36 260.898 44.36H264.674C264.866 44.36 265.026 44.4347 265.154 44.584C265.303 44.712 265.378 44.8613 265.378 45.032C265.378 45.1813 265.356 45.32 265.314 45.448L256.258 66.408C256.044 66.856 255.714 67.08 255.266 67.08H251.554Z" fill="#940000"/>
<defs>
<filter id="filter0_d_1276_379" x="0" y="0" width="390" height="108" filterUnits="userSpaceOnUse" color-interpolation-filters="sRGB">
<feFlood flood-opacity="0" result="BackgroundImageFix"/>
<feColorMatrix in="SourceAlpha" type="matrix" values="0 0 0 0 0 0 0 0 0 0 0 0 0 0 0 0 0 0 127 0" result="hardAlpha"/>
<feMorphology radius="15" operator="dilate" in="SourceAlpha" result="effect1_dropShadow_1276_379"/>
<feOffset dy="4"/>
<feGaussianBlur stdDeviation="5"/>
<feComposite in2="hardAlpha" operator="out"/>
<feColorMatrix type="matrix" values="0 0 0 0 0 0 0 0 0 0 0 0 0 0 0 0 0 0 0.25 0"/>
<feBlend mode="normal" in2="BackgroundImageFix" result="effect1_dropShadow_1276_379"/>
<feBlend mode="normal" in="SourceGraphic" in2="effect1_dropShadow_1276_379" result="shape"/>
</filter>
<filter id="filter1_d_1276_379" x="21" y="21" width="348" height="18" filterUnits="userSpaceOnUse" color-interpolation-filters="sRGB">
<feFlood flood-opacity="0" result="BackgroundImageFix"/>
<feColorMatrix in="SourceAlpha" type="matrix" values="0 0 0 0 0 0 0 0 0 0 0 0 0 0 0 0 0 0 127 0" result="hardAlpha"/>
<feOffset dy="4"/>
<feGaussianBlur stdDeviation="2"/>
<feComposite in2="hardAlpha" operator="out"/>
<feColorMatrix type="matrix" values="0 0 0 0 0 0 0 0 0 0 0 0 0 0 0 0 0 0 0.25 0"/>
<feBlend mode="normal" in2="BackgroundImageFix" result="effect1_dropShadow_1276_379"/>
<feBlend mode="normal" in="SourceGraphic" in2="effect1_dropShadow_1276_379" result="shape"/>
</filter>
</defs>
</svg>
