<svg width="375" height="190" viewBox="0 0 375 190" fill="none" xmlns="http://www.w3.org/2000/svg">
<g filter="url(#filter0_d_934_1118)">
<rect x="18" y="21" width="340" height="140" fill="white"/>
</g>
<path d="M149.742 73C149.528 73 149.336 72.9253 149.166 72.776C149.016 72.6053 148.942 72.4133 148.942 72.2V51.432C148.942 51.1973 149.016 51.0053 149.166 50.856C149.315 50.6853 149.507 50.6 149.742 50.6H158.158C161.315 50.6 163.768 51.3573 165.518 52.872C167.267 54.3653 168.184 56.52 168.27 59.336C168.291 59.9547 168.302 60.776 168.302 61.8C168.302 62.824 168.291 63.6347 168.27 64.232C168.056 70.0773 164.739 73 158.318 73H149.742ZM158.158 68.2C159.502 68.2 160.494 67.88 161.134 67.24C161.774 66.6 162.115 65.576 162.158 64.168C162.2 63.5493 162.222 62.7493 162.222 61.768C162.222 60.7867 162.2 59.9973 162.158 59.4C162.115 58.0347 161.742 57.032 161.038 56.392C160.355 55.7307 159.342 55.4 157.998 55.4H154.958V68.2H158.158ZM172.39 54.056C172.155 54.056 171.963 53.9813 171.814 53.832C171.664 53.6613 171.59 53.4587 171.59 53.224V50.248C171.59 50.0133 171.664 49.8213 171.814 49.672C171.984 49.5013 172.176 49.416 172.39 49.416H176.39C176.624 49.416 176.816 49.5013 176.966 49.672C177.136 49.8213 177.222 50.0133 177.222 50.248V53.224C177.222 53.4587 177.136 53.6613 176.966 53.832C176.816 53.9813 176.624 54.056 176.39 54.056H172.39ZM172.39 73C172.176 73 171.984 72.9253 171.814 72.776C171.664 72.6053 171.59 72.4133 171.59 72.2V57.16C171.59 56.9253 171.664 56.7333 171.814 56.584C171.984 56.4347 172.176 56.36 172.39 56.36H176.39C176.624 56.36 176.816 56.4347 176.966 56.584C177.136 56.7333 177.222 56.9253 177.222 57.16V72.2C177.222 72.4347 177.136 72.6267 176.966 72.776C176.816 72.9253 176.624 73 176.39 73H172.39ZM182.055 54.056C181.82 54.056 181.618 53.9813 181.447 53.832C181.298 53.6613 181.223 53.4587 181.223 53.224V50.248C181.223 50.0133 181.298 49.8213 181.447 49.672C181.618 49.5013 181.82 49.416 182.055 49.416H186.247C186.482 49.416 186.674 49.5013 186.823 49.672C186.994 49.8213 187.079 50.0133 187.079 50.248V53.224C187.079 53.4587 186.994 53.6613 186.823 53.832C186.674 53.9813 186.482 54.056 186.247 54.056H182.055ZM178.087 79.08C177.852 79.08 177.66 79.0053 177.511 78.856C177.362 78.7067 177.287 78.5147 177.287 78.28V75.528C177.287 75.3147 177.362 75.1227 177.511 74.952C177.66 74.8027 177.852 74.728 178.087 74.728H179.367C180.071 74.728 180.562 74.536 180.839 74.152C181.116 73.768 181.255 73.2133 181.255 72.488V57.16C181.255 56.9253 181.33 56.7333 181.479 56.584C181.65 56.4347 181.842 56.36 182.055 56.36H186.247C186.482 56.36 186.674 56.4347 186.823 56.584C186.972 56.7333 187.047 56.9253 187.047 57.16V72.616C187.047 74.6853 186.428 76.2747 185.191 77.384C183.954 78.5147 182.226 79.08 180.007 79.08H178.087ZM198.715 73.32C196.027 73.32 193.957 72.7013 192.507 71.464C191.077 70.2053 190.299 68.424 190.171 66.12C190.149 65.8427 190.139 65.3627 190.139 64.68C190.139 63.9973 190.149 63.5173 190.171 63.24C190.299 60.9787 191.099 59.2187 192.571 57.96C194.064 56.68 196.112 56.04 198.715 56.04C201.317 56.04 203.355 56.68 204.827 57.96C206.32 59.2187 207.131 60.9787 207.259 63.24C207.301 63.7947 207.323 64.2747 207.323 64.68C207.323 65.0853 207.301 65.5653 207.259 66.12C207.131 68.424 206.341 70.2053 204.891 71.464C203.461 72.7013 201.403 73.32 198.715 73.32ZM198.715 69.288C199.589 69.288 200.24 69.0213 200.667 68.488C201.093 67.9333 201.339 67.0907 201.403 65.96C201.424 65.7467 201.435 65.32 201.435 64.68C201.435 64.04 201.424 63.6133 201.403 63.4C201.339 62.2907 201.093 61.4587 200.667 60.904C200.24 60.3493 199.589 60.072 198.715 60.072C197.84 60.072 197.189 60.3493 196.763 60.904C196.336 61.4587 196.091 62.2907 196.027 63.4L195.995 64.68L196.027 65.96C196.091 67.0907 196.336 67.9333 196.763 68.488C197.189 69.0213 197.84 69.288 198.715 69.288ZM211.171 73C210.958 73 210.766 72.9253 210.595 72.776C210.446 72.6053 210.371 72.4133 210.371 72.2V57.16C210.371 56.9253 210.446 56.7333 210.595 56.584C210.766 56.4347 210.958 56.36 211.171 56.36H215.107C215.342 56.36 215.534 56.4347 215.683 56.584C215.832 56.7333 215.907 56.9253 215.907 57.16V58.376C216.483 57.672 217.219 57.1067 218.115 56.68C219.032 56.2533 220.078 56.04 221.251 56.04C222.467 56.04 223.544 56.3173 224.483 56.872C225.443 57.4267 226.19 58.248 226.723 59.336C227.278 60.424 227.555 61.736 227.555 63.272V72.2C227.555 72.4133 227.48 72.6053 227.331 72.776C227.182 72.9253 226.99 73 226.755 73H222.499C222.264 73 222.062 72.9253 221.891 72.776C221.742 72.6267 221.667 72.4347 221.667 72.2V63.464C221.667 62.504 221.432 61.768 220.963 61.256C220.515 60.744 219.854 60.488 218.979 60.488C218.126 60.488 217.454 60.7547 216.963 61.288C216.472 61.8 216.227 62.5253 216.227 63.464V72.2C216.227 72.4133 216.152 72.6053 216.003 72.776C215.854 72.9253 215.662 73 215.427 73H211.171Z" fill="#940000"/>
<path d="M88.617 102.2C86.7104 102.2 85.2104 101.74 84.117 100.82C83.037 99.9 82.4637 98.5533 82.397 96.78C82.3837 96.42 82.377 95.8333 82.377 95.02C82.377 94.1933 82.3837 93.5933 82.397 93.22C82.4637 91.4867 83.0437 90.1533 84.137 89.22C85.2437 88.2733 86.737 87.8 88.617 87.8C89.8037 87.8 90.8637 87.9933 91.797 88.38C92.7437 88.7667 93.4904 89.3267 94.037 90.06C94.5837 90.7933 94.8704 91.66 94.897 92.66C94.897 92.78 94.8504 92.88 94.757 92.96C94.677 93.04 94.577 93.08 94.457 93.08H91.617C91.4304 93.08 91.2904 93.0467 91.197 92.98C91.117 92.9 91.0437 92.76 90.977 92.56C90.7904 91.9067 90.5037 91.4533 90.117 91.2C89.7437 90.9333 89.2437 90.8 88.617 90.8C87.1104 90.8 86.3304 91.64 86.277 93.32C86.2637 93.68 86.257 94.2333 86.257 94.98C86.257 95.7267 86.2637 96.2933 86.277 96.68C86.3304 98.36 87.1104 99.2 88.617 99.2C89.2304 99.2 89.7304 99.0667 90.117 98.8C90.517 98.5333 90.8037 98.08 90.977 97.44C91.0304 97.24 91.1037 97.1067 91.197 97.04C91.2904 96.96 91.4304 96.92 91.617 96.92H94.457C94.577 96.92 94.677 96.96 94.757 97.04C94.8504 97.12 94.897 97.22 94.897 97.34C94.8704 98.34 94.5837 99.2067 94.037 99.94C93.4904 100.673 92.7437 101.233 91.797 101.62C90.8637 102.007 89.8037 102.2 88.617 102.2ZM101.718 102.2C100.038 102.2 98.7448 101.813 97.8381 101.04C96.9448 100.253 96.4581 99.14 96.3781 97.7C96.3648 97.5267 96.3581 97.2267 96.3581 96.8C96.3581 96.3733 96.3648 96.0733 96.3781 95.9C96.4581 94.4867 96.9581 93.3867 97.8781 92.6C98.8115 91.8 100.091 91.4 101.718 91.4C103.345 91.4 104.618 91.8 105.538 92.6C106.471 93.3867 106.978 94.4867 107.058 95.9C107.085 96.2467 107.098 96.5467 107.098 96.8C107.098 97.0533 107.085 97.3533 107.058 97.7C106.978 99.14 106.485 100.253 105.578 101.04C104.685 101.813 103.398 102.2 101.718 102.2ZM101.718 99.68C102.265 99.68 102.671 99.5133 102.938 99.18C103.205 98.8333 103.358 98.3067 103.398 97.6C103.411 97.4667 103.418 97.2 103.418 96.8C103.418 96.4 103.411 96.1333 103.398 96C103.358 95.3067 103.205 94.7867 102.938 94.44C102.671 94.0933 102.265 93.92 101.718 93.92C101.171 93.92 100.765 94.0933 100.498 94.44C100.231 94.7867 100.078 95.3067 100.038 96L100.018 96.8L100.038 97.6C100.078 98.3067 100.231 98.8333 100.498 99.18C100.765 99.5133 101.171 99.68 101.718 99.68ZM98.2581 90.1C98.0581 90.1 97.9581 90.0067 97.9581 89.82C97.9581 89.7 98.0048 89.5933 98.0981 89.5L100.178 87.32C100.311 87.1867 100.425 87.0933 100.518 87.04C100.625 86.9867 100.745 86.96 100.878 86.96H102.538C102.685 86.96 102.805 86.9867 102.898 87.04C103.005 87.08 103.125 87.1733 103.258 87.32L105.318 89.5C105.425 89.6067 105.478 89.7133 105.478 89.82C105.478 90.0067 105.371 90.1 105.158 90.1H104.178C103.885 90.1 103.651 90.0533 103.478 89.96L101.718 89L99.9581 89.96C99.7848 90.0533 99.5515 90.1 99.2581 90.1H98.2581ZM114.424 102C111.598 102 110.184 100.673 110.184 98.02V94.32H108.604C108.471 94.32 108.351 94.2733 108.244 94.18C108.151 94.0733 108.104 93.9533 108.104 93.82V92.1C108.104 91.9533 108.151 91.8333 108.244 91.74C108.351 91.6467 108.471 91.6 108.604 91.6H110.184V88.3C110.184 88.1533 110.231 88.0333 110.324 87.94C110.431 87.8467 110.551 87.8 110.684 87.8H113.144C113.291 87.8 113.411 87.8467 113.504 87.94C113.598 88.0333 113.644 88.1533 113.644 88.3V91.6H116.144C116.291 91.6 116.411 91.6467 116.504 91.74C116.611 91.8333 116.664 91.9533 116.664 92.1V93.82C116.664 93.9667 116.611 94.0867 116.504 94.18C116.411 94.2733 116.291 94.32 116.144 94.32H113.644V97.72C113.644 98.1867 113.731 98.54 113.904 98.78C114.078 99.02 114.358 99.14 114.744 99.14H116.324C116.471 99.14 116.591 99.1933 116.684 99.3C116.778 99.3933 116.824 99.5133 116.824 99.66V101.5C116.824 101.633 116.778 101.753 116.684 101.86C116.591 101.953 116.471 102 116.324 102H114.424ZM123.317 102.2C121.69 102.2 120.41 101.767 119.477 100.9C118.544 100.02 118.064 98.7467 118.037 97.08V96.46C118.09 94.8733 118.584 93.6333 119.517 92.74C120.45 91.8467 121.71 91.4 123.297 91.4C124.444 91.4 125.41 91.6333 126.197 92.1C126.997 92.5533 127.59 93.1867 127.977 94C128.377 94.8 128.577 95.7133 128.577 96.74V97.24C128.577 97.3867 128.524 97.5133 128.417 97.62C128.324 97.7133 128.204 97.76 128.057 97.76H121.717V97.88C121.73 98.48 121.87 98.9667 122.137 99.34C122.404 99.7 122.784 99.88 123.277 99.88C123.597 99.88 123.85 99.82 124.037 99.7C124.237 99.5667 124.424 99.4 124.597 99.2C124.717 99.0667 124.81 98.9867 124.877 98.96C124.957 98.92 125.077 98.9 125.237 98.9H127.857C127.977 98.9 128.077 98.94 128.157 99.02C128.25 99.0867 128.297 99.1733 128.297 99.28C128.297 99.6267 128.097 100.033 127.697 100.5C127.31 100.967 126.737 101.367 125.977 101.7C125.23 102.033 124.344 102.2 123.317 102.2ZM124.897 95.72V95.68C124.897 95.04 124.757 94.5467 124.477 94.2C124.197 93.84 123.804 93.66 123.297 93.66C122.79 93.66 122.397 93.84 122.117 94.2C121.85 94.5467 121.717 95.04 121.717 95.68V95.72H124.897ZM138.47 102.2C137.176 102.2 136.156 101.793 135.41 100.98C134.676 100.167 134.283 99.0067 134.23 97.5L134.21 96.8L134.23 96.08C134.283 94.6267 134.683 93.4867 135.43 92.66C136.176 91.82 137.19 91.4 138.47 91.4C139.67 91.4 140.636 91.7867 141.37 92.56V88.3C141.37 88.1533 141.416 88.0333 141.51 87.94C141.616 87.8467 141.736 87.8 141.87 87.8H144.45C144.596 87.8 144.716 87.8467 144.81 87.94C144.916 88.0333 144.97 88.1533 144.97 88.3V101.5C144.97 101.647 144.916 101.767 144.81 101.86C144.716 101.953 144.596 102 144.45 102H142.07C141.936 102 141.816 101.953 141.71 101.86C141.616 101.753 141.57 101.633 141.57 101.5V100.88C140.85 101.76 139.816 102.2 138.47 102.2ZM139.63 99.42C140.203 99.42 140.63 99.24 140.91 98.88C141.19 98.5067 141.343 98.04 141.37 97.48C141.396 97.1067 141.41 96.8533 141.41 96.72C141.41 96.5733 141.396 96.3267 141.37 95.98C141.343 95.46 141.183 95.0333 140.89 94.7C140.61 94.3533 140.19 94.18 139.63 94.18C139.03 94.18 138.596 94.36 138.33 94.72C138.076 95.0667 137.93 95.5533 137.89 96.18L137.87 96.8L137.89 97.42C137.93 98.0467 138.076 98.54 138.33 98.9C138.596 99.2467 139.03 99.42 139.63 99.42ZM147.285 92.96C147.165 92.96 147.065 92.92 146.985 92.84C146.919 92.76 146.892 92.6467 146.905 92.5L147.525 88.5C147.565 88.3 147.645 88.1333 147.765 88C147.885 87.8667 148.052 87.8 148.265 87.8H150.705C150.812 87.8 150.899 87.84 150.965 87.92C151.045 88 151.085 88.0933 151.085 88.2C151.085 88.28 151.072 88.3533 151.045 88.42L149.505 92.4C149.425 92.5733 149.325 92.7133 149.205 92.82C149.099 92.9133 148.945 92.96 148.745 92.96H147.285ZM158.324 102.2C156.431 102.2 154.937 101.74 153.844 100.82C152.751 99.9 152.171 98.5467 152.104 96.76C152.091 96.3867 152.084 95.8133 152.084 95.04C152.084 94.2667 152.091 93.6867 152.104 93.3C152.157 91.54 152.737 90.1867 153.844 89.24C154.964 88.28 156.457 87.8 158.324 87.8C160.177 87.8 161.657 88.28 162.764 89.24C163.884 90.1867 164.471 91.54 164.524 93.3C164.551 94.0733 164.564 94.6533 164.564 95.04C164.564 95.44 164.551 96.0133 164.524 96.76C164.457 98.5467 163.877 99.9 162.784 100.82C161.704 101.74 160.217 102.2 158.324 102.2ZM158.324 99.2C159.017 99.2 159.571 98.9933 159.984 98.58C160.397 98.1533 160.617 97.5067 160.644 96.64C160.671 95.8667 160.684 95.3133 160.684 94.98C160.684 94.6467 160.671 94.1067 160.644 93.36C160.617 92.4933 160.397 91.8533 159.984 91.44C159.571 91.0133 159.017 90.8 158.324 90.8C157.617 90.8 157.057 91.0133 156.644 91.44C156.231 91.8533 156.011 92.4933 155.984 93.36C155.971 93.7333 155.964 94.2733 155.964 94.98C155.964 95.7 155.971 96.2533 155.984 96.64C156.011 97.5067 156.231 98.1533 156.644 98.58C157.057 98.9933 157.617 99.2 158.324 99.2ZM167.101 102C166.968 102 166.848 101.953 166.741 101.86C166.648 101.753 166.601 101.633 166.601 101.5V92.12C166.601 91.9733 166.648 91.8533 166.741 91.76C166.834 91.6533 166.954 91.6 167.101 91.6H169.541C169.688 91.6 169.808 91.6533 169.901 91.76C170.008 91.8533 170.061 91.9733 170.061 92.12V92.88C170.434 92.4667 170.868 92.1533 171.361 91.94C171.868 91.7133 172.428 91.6 173.041 91.6H173.941C174.088 91.6 174.208 91.6467 174.301 91.74C174.394 91.8333 174.441 91.9533 174.441 92.1V94.28C174.441 94.4133 174.394 94.5333 174.301 94.64C174.208 94.7333 174.088 94.78 173.941 94.78H171.921C171.388 94.78 170.974 94.9267 170.681 95.22C170.401 95.5133 170.261 95.9267 170.261 96.46V101.5C170.261 101.647 170.208 101.767 170.101 101.86C170.008 101.953 169.888 102 169.741 102H167.101ZM174.645 103.5C174.525 103.5 174.425 103.453 174.345 103.36C174.278 103.28 174.252 103.18 174.265 103.06L174.885 99.04C174.912 98.8533 174.985 98.6933 175.105 98.56C175.225 98.4133 175.398 98.34 175.625 98.34H178.045C178.152 98.34 178.245 98.38 178.325 98.46C178.405 98.54 178.445 98.6333 178.445 98.74C178.445 98.82 178.432 98.8933 178.405 98.96L176.845 102.94C176.698 103.313 176.452 103.5 176.105 103.5H174.645ZM185.309 102C185.176 102 185.056 101.953 184.949 101.86C184.856 101.753 184.809 101.633 184.809 101.5V88.52C184.809 88.3733 184.856 88.2533 184.949 88.16C185.043 88.0533 185.163 88 185.309 88H191.489C193.183 88 194.443 88.3467 195.269 89.04C196.096 89.7333 196.509 90.72 196.509 92C196.509 92.64 196.336 93.1933 195.989 93.66C195.656 94.1267 195.283 94.4667 194.869 94.68C195.416 94.92 195.876 95.32 196.249 95.88C196.623 96.4267 196.809 97.0467 196.809 97.74C196.809 99.0867 196.363 100.133 195.469 100.88C194.589 101.627 193.323 102 191.669 102H185.309ZM191.069 93.54C191.563 93.54 191.943 93.4067 192.209 93.14C192.476 92.8733 192.609 92.5267 192.609 92.1C192.609 91.6867 192.476 91.3533 192.209 91.1C191.956 90.8333 191.576 90.7 191.069 90.7H188.569V93.54H191.069ZM191.249 99.3C191.769 99.3 192.169 99.1533 192.449 98.86C192.743 98.5533 192.889 98.18 192.889 97.74C192.889 97.2867 192.743 96.9133 192.449 96.62C192.156 96.3133 191.756 96.16 191.249 96.16H188.569V99.3H191.249ZM203.73 102.2C202.05 102.2 200.757 101.813 199.85 101.04C198.957 100.253 198.47 99.14 198.39 97.7C198.377 97.5267 198.37 97.2267 198.37 96.8C198.37 96.3733 198.377 96.0733 198.39 95.9C198.47 94.4867 198.97 93.3867 199.89 92.6C200.823 91.8 202.103 91.4 203.73 91.4C205.357 91.4 206.63 91.8 207.55 92.6C208.483 93.3867 208.99 94.4867 209.07 95.9C209.097 96.2467 209.11 96.5467 209.11 96.8C209.11 97.0533 209.097 97.3533 209.07 97.7C208.99 99.14 208.497 100.253 207.59 101.04C206.697 101.813 205.41 102.2 203.73 102.2ZM203.73 99.68C204.277 99.68 204.683 99.5133 204.95 99.18C205.217 98.8333 205.37 98.3067 205.41 97.6C205.423 97.4667 205.43 97.2 205.43 96.8C205.43 96.4 205.423 96.1333 205.41 96C205.37 95.3067 205.217 94.7867 204.95 94.44C204.683 94.0933 204.277 93.92 203.73 93.92C203.183 93.92 202.777 94.0933 202.51 94.44C202.243 94.7867 202.09 95.3067 202.05 96L202.03 96.8L202.05 97.6C202.09 98.3067 202.243 98.8333 202.51 99.18C202.777 99.5133 203.183 99.68 203.73 99.68ZM214.835 102.2C213.662 102.2 212.715 101.807 211.995 101.02C211.275 100.233 210.915 99.12 210.915 97.68V92.1C210.915 91.9533 210.962 91.8333 211.055 91.74C211.162 91.6467 211.282 91.6 211.415 91.6H214.075C214.222 91.6 214.342 91.6467 214.435 91.74C214.542 91.8333 214.595 91.9533 214.595 92.1V97.56C214.595 98.8 215.148 99.42 216.255 99.42C216.788 99.42 217.202 99.26 217.495 98.94C217.802 98.6067 217.955 98.1467 217.955 97.56V92.1C217.955 91.9533 218.002 91.8333 218.095 91.74C218.202 91.6467 218.328 91.6 218.475 91.6H221.115C221.262 91.6 221.382 91.6467 221.475 91.74C221.568 91.8333 221.615 91.9533 221.615 92.1V101.5C221.615 101.633 221.568 101.753 221.475 101.86C221.382 101.953 221.262 102 221.115 102H218.675C218.528 102 218.402 101.953 218.295 101.86C218.202 101.767 218.155 101.647 218.155 101.5V100.74C217.462 101.713 216.355 102.2 214.835 102.2ZM224.386 102C224.253 102 224.133 101.953 224.026 101.86C223.933 101.753 223.886 101.633 223.886 101.5V92.12C223.886 91.9733 223.933 91.8533 224.026 91.76C224.119 91.6533 224.239 91.6 224.386 91.6H226.826C226.973 91.6 227.093 91.6533 227.186 91.76C227.293 91.8533 227.346 91.9733 227.346 92.12V92.88C227.719 92.4667 228.153 92.1533 228.646 91.94C229.153 91.7133 229.713 91.6 230.326 91.6H231.226C231.373 91.6 231.493 91.6467 231.586 91.74C231.679 91.8333 231.726 91.9533 231.726 92.1V94.28C231.726 94.4133 231.679 94.5333 231.586 94.64C231.493 94.7333 231.373 94.78 231.226 94.78H229.206C228.673 94.78 228.259 94.9267 227.966 95.22C227.686 95.5133 227.546 95.9267 227.546 96.46V101.5C227.546 101.647 227.493 101.767 227.386 101.86C227.293 101.953 227.173 102 227.026 102H224.386ZM238.227 106.4C236.947 106.4 235.907 106.193 235.107 105.78C234.307 105.367 233.733 104.887 233.387 104.34C233.04 103.807 232.867 103.36 232.867 103C232.867 102.867 232.92 102.753 233.027 102.66C233.133 102.567 233.253 102.52 233.387 102.52H236.067C236.2 102.52 236.307 102.547 236.387 102.6C236.467 102.667 236.54 102.773 236.607 102.92C236.74 103.213 236.913 103.44 237.127 103.6C237.34 103.773 237.673 103.86 238.127 103.86C238.7 103.86 239.127 103.713 239.407 103.42C239.687 103.14 239.827 102.667 239.827 102V100.66C239.12 101.393 238.153 101.76 236.927 101.76C235.58 101.76 234.547 101.373 233.827 100.6C233.12 99.8133 232.733 98.66 232.667 97.14L232.647 96.6C232.647 94.9733 233.007 93.7 233.727 92.78C234.46 91.86 235.527 91.4 236.927 91.4C237.607 91.4 238.207 91.5333 238.727 91.8C239.247 92.0533 239.68 92.4 240.027 92.84V92.12C240.027 91.9733 240.073 91.8533 240.167 91.76C240.26 91.6533 240.38 91.6 240.527 91.6H242.967C243.113 91.6 243.233 91.6533 243.327 91.76C243.433 91.8533 243.487 91.9733 243.487 92.12V101.7C243.487 103.233 243.027 104.4 242.107 105.2C241.187 106 239.893 106.4 238.227 106.4ZM238.067 99.06C238.64 99.06 239.067 98.8867 239.347 98.54C239.627 98.1933 239.787 97.7533 239.827 97.22C239.84 97.1267 239.847 96.9267 239.847 96.62C239.847 96.3 239.84 96.1 239.827 96.02C239.787 95.4733 239.627 95.0333 239.347 94.7C239.067 94.3533 238.64 94.18 238.067 94.18C237.48 94.18 237.053 94.36 236.787 94.72C236.52 95.0667 236.373 95.5533 236.347 96.18L236.327 96.62C236.327 97.38 236.453 97.98 236.707 98.42C236.96 98.8467 237.413 99.06 238.067 99.06ZM250.781 102.2C249.101 102.2 247.807 101.813 246.901 101.04C246.007 100.253 245.521 99.14 245.441 97.7C245.427 97.5267 245.421 97.2267 245.421 96.8C245.421 96.3733 245.427 96.0733 245.441 95.9C245.521 94.4867 246.021 93.3867 246.941 92.6C247.874 91.8 249.154 91.4 250.781 91.4C252.407 91.4 253.681 91.8 254.601 92.6C255.534 93.3867 256.041 94.4867 256.121 95.9C256.147 96.2467 256.161 96.5467 256.161 96.8C256.161 97.0533 256.147 97.3533 256.121 97.7C256.041 99.14 255.547 100.253 254.641 101.04C253.747 101.813 252.461 102.2 250.781 102.2ZM250.781 99.68C251.327 99.68 251.734 99.5133 252.001 99.18C252.267 98.8333 252.421 98.3067 252.461 97.6C252.474 97.4667 252.481 97.2 252.481 96.8C252.481 96.4 252.474 96.1333 252.461 96C252.421 95.3067 252.267 94.7867 252.001 94.44C251.734 94.0933 251.327 93.92 250.781 93.92C250.234 93.92 249.827 94.0933 249.561 94.44C249.294 94.7867 249.141 95.3067 249.101 96L249.081 96.8L249.101 97.6C249.141 98.3067 249.294 98.8333 249.561 99.18C249.827 99.5133 250.234 99.68 250.781 99.68ZM263.266 106.4C261.986 106.4 260.946 106.193 260.146 105.78C259.346 105.367 258.772 104.887 258.426 104.34C258.079 103.807 257.906 103.36 257.906 103C257.906 102.867 257.959 102.753 258.066 102.66C258.172 102.567 258.292 102.52 258.426 102.52H261.106C261.239 102.52 261.346 102.547 261.426 102.6C261.506 102.667 261.579 102.773 261.646 102.92C261.779 103.213 261.952 103.44 262.166 103.6C262.379 103.773 262.712 103.86 263.166 103.86C263.739 103.86 264.166 103.713 264.446 103.42C264.726 103.14 264.866 102.667 264.866 102V100.66C264.159 101.393 263.192 101.76 261.966 101.76C260.619 101.76 259.586 101.373 258.866 100.6C258.159 99.8133 257.772 98.66 257.706 97.14L257.686 96.6C257.686 94.9733 258.046 93.7 258.766 92.78C259.499 91.86 260.566 91.4 261.966 91.4C262.646 91.4 263.246 91.5333 263.766 91.8C264.286 92.0533 264.719 92.4 265.066 92.84V92.12C265.066 91.9733 265.112 91.8533 265.206 91.76C265.299 91.6533 265.419 91.6 265.566 91.6H268.006C268.152 91.6 268.272 91.6533 268.366 91.76C268.472 91.8533 268.526 91.9733 268.526 92.12V101.7C268.526 103.233 268.066 104.4 267.146 105.2C266.226 106 264.932 106.4 263.266 106.4ZM263.106 99.06C263.679 99.06 264.106 98.8867 264.386 98.54C264.666 98.1933 264.826 97.7533 264.866 97.22C264.879 97.1267 264.886 96.9267 264.886 96.62C264.886 96.3 264.879 96.1 264.866 96.02C264.826 95.4733 264.666 95.0333 264.386 94.7C264.106 94.3533 263.679 94.18 263.106 94.18C262.519 94.18 262.092 94.36 261.826 94.72C261.559 95.0667 261.412 95.5533 261.386 96.18L261.366 96.62C261.366 97.38 261.492 97.98 261.746 98.42C261.999 98.8467 262.452 99.06 263.106 99.06ZM271.32 102C271.186 102 271.066 101.953 270.96 101.86C270.866 101.753 270.82 101.633 270.82 101.5V92.1C270.82 91.9533 270.866 91.8333 270.96 91.74C271.066 91.6467 271.186 91.6 271.32 91.6H273.78C273.926 91.6 274.046 91.6467 274.14 91.74C274.233 91.8333 274.28 91.9533 274.28 92.1V92.86C274.64 92.42 275.1 92.0667 275.66 91.8C276.233 91.5333 276.886 91.4 277.62 91.4C278.38 91.4 279.053 91.5733 279.64 91.92C280.24 92.2667 280.706 92.78 281.04 93.46C281.386 94.14 281.56 94.96 281.56 95.92V101.5C281.56 101.633 281.513 101.753 281.42 101.86C281.326 101.953 281.206 102 281.06 102H278.4C278.253 102 278.126 101.953 278.02 101.86C277.926 101.767 277.88 101.647 277.88 101.5V96.04C277.88 95.44 277.733 94.98 277.44 94.66C277.16 94.34 276.746 94.18 276.2 94.18C275.666 94.18 275.246 94.3467 274.94 94.68C274.633 95 274.48 95.4533 274.48 96.04V101.5C274.48 101.633 274.433 101.753 274.34 101.86C274.246 101.953 274.126 102 273.98 102H271.32ZM288.629 102.2C287.003 102.2 285.723 101.767 284.789 100.9C283.856 100.02 283.376 98.7467 283.349 97.08V96.46C283.403 94.8733 283.896 93.6333 284.829 92.74C285.763 91.8467 287.023 91.4 288.609 91.4C289.756 91.4 290.723 91.6333 291.509 92.1C292.309 92.5533 292.903 93.1867 293.289 94C293.689 94.8 293.889 95.7133 293.889 96.74V97.24C293.889 97.3867 293.836 97.5133 293.729 97.62C293.636 97.7133 293.516 97.76 293.369 97.76H287.029V97.88C287.043 98.48 287.183 98.9667 287.449 99.34C287.716 99.7 288.096 99.88 288.589 99.88C288.909 99.88 289.163 99.82 289.349 99.7C289.549 99.5667 289.736 99.4 289.909 99.2C290.029 99.0667 290.123 98.9867 290.189 98.96C290.269 98.92 290.389 98.9 290.549 98.9H293.169C293.289 98.9 293.389 98.94 293.469 99.02C293.563 99.0867 293.609 99.1733 293.609 99.28C293.609 99.6267 293.409 100.033 293.009 100.5C292.623 100.967 292.049 101.367 291.289 101.7C290.543 102.033 289.656 102.2 288.629 102.2ZM290.209 95.72V95.68C290.209 95.04 290.069 94.5467 289.789 94.2C289.509 93.84 289.116 93.66 288.609 93.66C288.103 93.66 287.709 93.84 287.429 94.2C287.163 94.5467 287.029 95.04 287.029 95.68V95.72H290.209ZM107.78 126C107.647 126 107.527 125.953 107.42 125.86C107.327 125.753 107.28 125.633 107.28 125.5V112.52C107.28 112.373 107.327 112.253 107.42 112.16C107.513 112.053 107.633 112 107.78 112H117.08C117.227 112 117.347 112.053 117.44 112.16C117.547 112.253 117.6 112.373 117.6 112.52V114.64C117.6 114.787 117.547 114.907 117.44 115C117.347 115.093 117.227 115.14 117.08 115.14H110.96V117.92H116.68C116.827 117.92 116.947 117.973 117.04 118.08C117.147 118.173 117.2 118.293 117.2 118.44V120.56C117.2 120.707 117.147 120.827 117.04 120.92C116.947 121.013 116.827 121.06 116.68 121.06H110.96V125.5C110.96 125.633 110.913 125.753 110.82 125.86C110.727 125.953 110.607 126 110.46 126H107.78ZM119.806 126C119.673 126 119.553 125.953 119.446 125.86C119.353 125.753 119.306 125.633 119.306 125.5V116.12C119.306 115.973 119.353 115.853 119.446 115.76C119.539 115.653 119.659 115.6 119.806 115.6H122.246C122.393 115.6 122.513 115.653 122.606 115.76C122.713 115.853 122.766 115.973 122.766 116.12V116.88C123.139 116.467 123.573 116.153 124.066 115.94C124.573 115.713 125.133 115.6 125.746 115.6H126.646C126.793 115.6 126.913 115.647 127.006 115.74C127.099 115.833 127.146 115.953 127.146 116.1V118.28C127.146 118.413 127.099 118.533 127.006 118.64C126.913 118.733 126.793 118.78 126.646 118.78H124.626C124.093 118.78 123.679 118.927 123.386 119.22C123.106 119.513 122.966 119.927 122.966 120.46V125.5C122.966 125.647 122.913 125.767 122.806 125.86C122.713 125.953 122.593 126 122.446 126H119.806ZM131.489 126.2C130.782 126.2 130.136 126.067 129.549 125.8C128.976 125.52 128.522 125.14 128.189 124.66C127.869 124.18 127.709 123.653 127.709 123.08C127.709 122.173 128.082 121.44 128.829 120.88C129.589 120.307 130.629 119.913 131.949 119.7L134.429 119.32V119.08C134.429 118.587 134.329 118.227 134.129 118C133.929 117.773 133.589 117.66 133.109 117.66C132.842 117.66 132.616 117.707 132.429 117.8C132.256 117.893 132.056 118.033 131.829 118.22C131.656 118.367 131.502 118.473 131.369 118.54C131.316 118.633 131.249 118.68 131.169 118.68H128.849C128.716 118.68 128.602 118.64 128.509 118.56C128.429 118.467 128.396 118.36 128.409 118.24C128.422 117.88 128.602 117.48 128.949 117.04C129.296 116.587 129.822 116.2 130.529 115.88C131.236 115.56 132.109 115.4 133.149 115.4C134.802 115.4 136.029 115.767 136.829 116.5C137.629 117.22 138.029 118.2 138.029 119.44V125.5C138.029 125.633 137.982 125.753 137.889 125.86C137.796 125.953 137.676 126 137.529 126H135.069C134.936 126 134.816 125.953 134.709 125.86C134.616 125.753 134.569 125.633 134.569 125.5V124.8C134.276 125.213 133.869 125.553 133.349 125.82C132.829 126.073 132.209 126.2 131.489 126.2ZM132.489 123.84C133.076 123.84 133.549 123.647 133.909 123.26C134.282 122.873 134.469 122.313 134.469 121.58V121.34L132.809 121.62C131.689 121.833 131.129 122.233 131.129 122.82C131.129 123.127 131.256 123.373 131.509 123.56C131.776 123.747 132.102 123.84 132.489 123.84ZM140.704 126C140.571 126 140.451 125.953 140.344 125.86C140.251 125.753 140.204 125.633 140.204 125.5V116.1C140.204 115.953 140.251 115.833 140.344 115.74C140.451 115.647 140.571 115.6 140.704 115.6H143.164C143.311 115.6 143.431 115.647 143.524 115.74C143.618 115.833 143.664 115.953 143.664 116.1V116.86C144.024 116.42 144.484 116.067 145.044 115.8C145.618 115.533 146.271 115.4 147.004 115.4C147.764 115.4 148.438 115.573 149.024 115.92C149.624 116.267 150.091 116.78 150.424 117.46C150.771 118.14 150.944 118.96 150.944 119.92V125.5C150.944 125.633 150.898 125.753 150.804 125.86C150.711 125.953 150.591 126 150.444 126H147.784C147.638 126 147.511 125.953 147.404 125.86C147.311 125.767 147.264 125.647 147.264 125.5V120.04C147.264 119.44 147.118 118.98 146.824 118.66C146.544 118.34 146.131 118.18 145.584 118.18C145.051 118.18 144.631 118.347 144.324 118.68C144.018 119 143.864 119.453 143.864 120.04V125.5C143.864 125.633 143.818 125.753 143.724 125.86C143.631 125.953 143.511 126 143.364 126H140.704ZM157.974 126.2C156.454 126.2 155.221 125.8 154.274 125C153.341 124.187 152.841 123.06 152.774 121.62L152.754 120.82L152.774 120C152.827 118.56 153.327 117.433 154.274 116.62C155.221 115.807 156.454 115.4 157.974 115.4C159.134 115.4 160.107 115.607 160.894 116.02C161.681 116.433 162.267 116.927 162.654 117.5C163.041 118.06 163.247 118.573 163.274 119.04C163.287 119.187 163.241 119.313 163.134 119.42C163.027 119.513 162.901 119.56 162.754 119.56H160.074C159.927 119.56 159.814 119.527 159.734 119.46C159.654 119.393 159.581 119.287 159.514 119.14C159.367 118.767 159.174 118.493 158.934 118.32C158.707 118.147 158.414 118.06 158.054 118.06C157.027 118.06 156.494 118.74 156.454 120.1L156.434 120.86L156.454 121.52C156.467 122.213 156.607 122.727 156.874 123.06C157.141 123.38 157.534 123.54 158.054 123.54C158.441 123.54 158.741 123.46 158.954 123.3C159.181 123.127 159.367 122.847 159.514 122.46C159.581 122.313 159.654 122.207 159.734 122.14C159.814 122.073 159.927 122.04 160.074 122.04H162.754C162.887 122.04 163.007 122.087 163.114 122.18C163.221 122.273 163.274 122.387 163.274 122.52C163.274 122.933 163.087 123.433 162.714 124.02C162.354 124.593 161.774 125.1 160.974 125.54C160.174 125.98 159.174 126.2 157.974 126.2ZM165.51 126C165.363 126 165.236 125.953 165.13 125.86C165.036 125.767 164.99 125.647 164.99 125.5V112.3C164.99 112.153 165.036 112.033 165.13 111.94C165.236 111.847 165.363 111.8 165.51 111.8H168.21C168.356 111.8 168.476 111.847 168.57 111.94C168.676 112.033 168.73 112.153 168.73 112.3V116.76C169.503 115.853 170.55 115.4 171.87 115.4C172.63 115.4 173.316 115.573 173.93 115.92C174.543 116.267 175.023 116.78 175.37 117.46C175.716 118.14 175.89 118.96 175.89 119.92V125.5C175.89 125.647 175.836 125.767 175.73 125.86C175.636 125.953 175.516 126 175.37 126H172.65C172.516 126 172.396 125.953 172.29 125.86C172.196 125.753 172.15 125.633 172.15 125.5V120.04C172.15 119.453 172.003 119 171.71 118.68C171.416 118.347 170.996 118.18 170.45 118.18C169.916 118.18 169.496 118.347 169.19 118.68C168.883 119 168.73 119.453 168.73 120.04V125.5C168.73 125.647 168.676 125.767 168.57 125.86C168.476 125.953 168.356 126 168.21 126H165.51ZM182.956 126.2C181.329 126.2 180.049 125.767 179.116 124.9C178.182 124.02 177.702 122.747 177.676 121.08V120.46C177.729 118.873 178.222 117.633 179.156 116.74C180.089 115.847 181.349 115.4 182.936 115.4C184.082 115.4 185.049 115.633 185.836 116.1C186.636 116.553 187.229 117.187 187.616 118C188.016 118.8 188.216 119.713 188.216 120.74V121.24C188.216 121.387 188.162 121.513 188.056 121.62C187.962 121.713 187.842 121.76 187.696 121.76H181.356V121.88C181.369 122.48 181.509 122.967 181.776 123.34C182.042 123.7 182.422 123.88 182.916 123.88C183.236 123.88 183.489 123.82 183.676 123.7C183.876 123.567 184.062 123.4 184.236 123.2C184.356 123.067 184.449 122.987 184.516 122.96C184.596 122.92 184.716 122.9 184.876 122.9H187.496C187.616 122.9 187.716 122.94 187.796 123.02C187.889 123.087 187.936 123.173 187.936 123.28C187.936 123.627 187.736 124.033 187.336 124.5C186.949 124.967 186.376 125.367 185.616 125.7C184.869 126.033 183.982 126.2 182.956 126.2ZM184.536 119.72V119.68C184.536 119.04 184.396 118.547 184.116 118.2C183.836 117.84 183.442 117.66 182.936 117.66C182.429 117.66 182.036 117.84 181.756 118.2C181.489 118.547 181.356 119.04 181.356 119.68V119.72H184.536ZM190.489 121.5C190.342 121.5 190.216 121.453 190.109 121.36C190.016 121.267 189.969 121.147 189.969 121V119C189.969 118.853 190.016 118.733 190.109 118.64C190.216 118.547 190.342 118.5 190.489 118.5H196.789C196.936 118.5 197.056 118.547 197.149 118.64C197.242 118.733 197.289 118.853 197.289 119V121C197.289 121.133 197.242 121.253 197.149 121.36C197.056 121.453 196.936 121.5 196.789 121.5H190.489ZM205.541 126.2C203.634 126.2 202.134 125.74 201.041 124.82C199.961 123.9 199.388 122.553 199.321 120.78C199.308 120.42 199.301 119.833 199.301 119.02C199.301 118.193 199.308 117.593 199.321 117.22C199.388 115.487 199.968 114.153 201.061 113.22C202.168 112.273 203.661 111.8 205.541 111.8C206.728 111.8 207.788 111.993 208.721 112.38C209.668 112.767 210.414 113.327 210.961 114.06C211.508 114.793 211.794 115.66 211.821 116.66C211.821 116.78 211.774 116.88 211.681 116.96C211.601 117.04 211.501 117.08 211.381 117.08H208.541C208.354 117.08 208.214 117.047 208.121 116.98C208.041 116.9 207.968 116.76 207.901 116.56C207.714 115.907 207.428 115.453 207.041 115.2C206.668 114.933 206.168 114.8 205.541 114.8C204.034 114.8 203.254 115.64 203.201 117.32C203.188 117.68 203.181 118.233 203.181 118.98C203.181 119.727 203.188 120.293 203.201 120.68C203.254 122.36 204.034 123.2 205.541 123.2C206.154 123.2 206.654 123.067 207.041 122.8C207.441 122.533 207.728 122.08 207.901 121.44C207.954 121.24 208.028 121.107 208.121 121.04C208.214 120.96 208.354 120.92 208.541 120.92H211.381C211.501 120.92 211.601 120.96 211.681 121.04C211.774 121.12 211.821 121.22 211.821 121.34C211.794 122.34 211.508 123.207 210.961 123.94C210.414 124.673 209.668 125.233 208.721 125.62C207.788 126.007 206.728 126.2 205.541 126.2ZM218.642 126.2C216.962 126.2 215.669 125.813 214.762 125.04C213.869 124.253 213.382 123.14 213.302 121.7C213.289 121.527 213.282 121.227 213.282 120.8C213.282 120.373 213.289 120.073 213.302 119.9C213.382 118.487 213.882 117.387 214.802 116.6C215.735 115.8 217.015 115.4 218.642 115.4C220.269 115.4 221.542 115.8 222.462 116.6C223.395 117.387 223.902 118.487 223.982 119.9C224.009 120.247 224.022 120.547 224.022 120.8C224.022 121.053 224.009 121.353 223.982 121.7C223.902 123.14 223.409 124.253 222.502 125.04C221.609 125.813 220.322 126.2 218.642 126.2ZM218.642 123.68C219.189 123.68 219.595 123.513 219.862 123.18C220.129 122.833 220.282 122.307 220.322 121.6C220.335 121.467 220.342 121.2 220.342 120.8C220.342 120.4 220.335 120.133 220.322 120C220.282 119.307 220.129 118.787 219.862 118.44C219.595 118.093 219.189 117.92 218.642 117.92C218.095 117.92 217.689 118.093 217.422 118.44C217.155 118.787 217.002 119.307 216.962 120L216.942 120.8L216.962 121.6C217.002 122.307 217.155 122.833 217.422 123.18C217.689 123.513 218.095 123.68 218.642 123.68ZM226.427 126C226.294 126 226.174 125.953 226.067 125.86C225.974 125.753 225.927 125.633 225.927 125.5V116.1C225.927 115.953 225.974 115.833 226.067 115.74C226.174 115.647 226.294 115.6 226.427 115.6H228.747C228.894 115.6 229.014 115.647 229.107 115.74C229.2 115.833 229.247 115.953 229.247 116.1V116.78C229.567 116.393 229.98 116.067 230.487 115.8C230.994 115.533 231.567 115.4 232.207 115.4C233.674 115.4 234.68 115.973 235.227 117.12C235.547 116.613 235.994 116.2 236.567 115.88C237.14 115.56 237.754 115.4 238.407 115.4C239.5 115.4 240.387 115.773 241.067 116.52C241.76 117.253 242.107 118.353 242.107 119.82V125.5C242.107 125.633 242.06 125.753 241.967 125.86C241.874 125.953 241.754 126 241.607 126H239.147C239 126 238.874 125.953 238.767 125.86C238.674 125.767 238.627 125.647 238.627 125.5V119.96C238.627 119.347 238.494 118.9 238.227 118.62C237.974 118.327 237.627 118.18 237.187 118.18C236.774 118.18 236.434 118.327 236.167 118.62C235.914 118.9 235.787 119.347 235.787 119.96V125.5C235.787 125.633 235.74 125.753 235.647 125.86C235.554 125.953 235.434 126 235.287 126H232.827C232.68 126 232.554 125.953 232.447 125.86C232.354 125.767 232.307 125.647 232.307 125.5V119.96C232.307 119.347 232.174 118.9 231.907 118.62C231.64 118.327 231.294 118.18 230.867 118.18C230.454 118.18 230.114 118.327 229.847 118.62C229.58 118.9 229.447 119.34 229.447 119.94V125.5C229.447 125.633 229.4 125.753 229.307 125.86C229.214 125.953 229.094 126 228.947 126H226.427ZM249.649 126C246.822 126 245.409 124.673 245.409 122.02V118.32H243.829C243.695 118.32 243.575 118.273 243.469 118.18C243.375 118.073 243.329 117.953 243.329 117.82V116.1C243.329 115.953 243.375 115.833 243.469 115.74C243.575 115.647 243.695 115.6 243.829 115.6H245.409V112.3C245.409 112.153 245.455 112.033 245.549 111.94C245.655 111.847 245.775 111.8 245.909 111.8H248.369C248.515 111.8 248.635 111.847 248.729 111.94C248.822 112.033 248.869 112.153 248.869 112.3V115.6H251.369C251.515 115.6 251.635 115.647 251.729 115.74C251.835 115.833 251.889 115.953 251.889 116.1V117.82C251.889 117.967 251.835 118.087 251.729 118.18C251.635 118.273 251.515 118.32 251.369 118.32H248.869V121.72C248.869 122.187 248.955 122.54 249.129 122.78C249.302 123.02 249.582 123.14 249.969 123.14H251.549C251.695 123.14 251.815 123.193 251.909 123.3C252.002 123.393 252.049 123.513 252.049 123.66V125.5C252.049 125.633 252.002 125.753 251.909 125.86C251.815 125.953 251.695 126 251.549 126H249.649ZM258.541 126.2C256.915 126.2 255.635 125.767 254.701 124.9C253.768 124.02 253.288 122.747 253.261 121.08V120.46C253.315 118.873 253.808 117.633 254.741 116.74C255.675 115.847 256.935 115.4 258.521 115.4C259.668 115.4 260.635 115.633 261.421 116.1C262.221 116.553 262.815 117.187 263.201 118C263.601 118.8 263.801 119.713 263.801 120.74V121.24C263.801 121.387 263.748 121.513 263.641 121.62C263.548 121.713 263.428 121.76 263.281 121.76H256.941V121.88C256.955 122.48 257.095 122.967 257.361 123.34C257.628 123.7 258.008 123.88 258.501 123.88C258.821 123.88 259.075 123.82 259.261 123.7C259.461 123.567 259.648 123.4 259.821 123.2C259.941 123.067 260.035 122.987 260.101 122.96C260.181 122.92 260.301 122.9 260.461 122.9H263.081C263.201 122.9 263.301 122.94 263.381 123.02C263.475 123.087 263.521 123.173 263.521 123.28C263.521 123.627 263.321 124.033 262.921 124.5C262.535 124.967 261.961 125.367 261.201 125.7C260.455 126.033 259.568 126.2 258.541 126.2ZM260.121 119.72V119.68C260.121 119.04 259.981 118.547 259.701 118.2C259.421 117.84 259.028 117.66 258.521 117.66C258.015 117.66 257.621 117.84 257.341 118.2C257.075 118.547 256.941 119.04 256.941 119.68V119.72H260.121ZM257.341 114.1C257.128 114.1 257.021 113.993 257.021 113.78C257.021 113.673 257.055 113.587 257.121 113.52L258.901 111.34C259.035 111.18 259.148 111.08 259.241 111.04C259.348 110.987 259.481 110.96 259.641 110.96H262.401C262.521 110.96 262.615 111 262.681 111.08C262.748 111.147 262.781 111.24 262.781 111.36C262.781 111.453 262.748 111.533 262.681 111.6L260.001 113.8C259.868 113.907 259.748 113.987 259.641 114.04C259.535 114.08 259.395 114.1 259.221 114.1H257.341ZM265.475 127.5C265.355 127.5 265.255 127.453 265.175 127.36C265.108 127.28 265.082 127.18 265.095 127.06L265.715 123.04C265.742 122.853 265.815 122.693 265.935 122.56C266.055 122.413 266.228 122.34 266.455 122.34H268.875C268.982 122.34 269.075 122.38 269.155 122.46C269.235 122.54 269.275 122.633 269.275 122.74C269.275 122.82 269.262 122.893 269.235 122.96L267.675 126.94C267.528 127.313 267.282 127.5 266.935 127.5H265.475ZM154.928 150C154.795 150 154.675 149.953 154.568 149.86C154.475 149.753 154.428 149.633 154.428 149.5V136.52C154.428 136.373 154.475 136.253 154.568 136.16C154.662 136.053 154.782 136 154.928 136H164.228C164.375 136 164.495 136.053 164.588 136.16C164.695 136.253 164.748 136.373 164.748 136.52V138.64C164.748 138.787 164.695 138.907 164.588 139C164.495 139.093 164.375 139.14 164.228 139.14H158.108V141.92H163.828C163.975 141.92 164.095 141.973 164.188 142.08C164.295 142.173 164.348 142.293 164.348 142.44V144.56C164.348 144.707 164.295 144.827 164.188 144.92C164.095 145.013 163.975 145.06 163.828 145.06H158.108V149.5C158.108 149.633 158.062 149.753 157.968 149.86C157.875 149.953 157.755 150 157.608 150H154.928ZM166.954 150C166.821 150 166.701 149.953 166.594 149.86C166.501 149.753 166.454 149.633 166.454 149.5V140.12C166.454 139.973 166.501 139.853 166.594 139.76C166.688 139.653 166.808 139.6 166.954 139.6H169.394C169.541 139.6 169.661 139.653 169.754 139.76C169.861 139.853 169.914 139.973 169.914 140.12V140.88C170.288 140.467 170.721 140.153 171.214 139.94C171.721 139.713 172.281 139.6 172.894 139.6H173.794C173.941 139.6 174.061 139.647 174.154 139.74C174.248 139.833 174.294 139.953 174.294 140.1V142.28C174.294 142.413 174.248 142.533 174.154 142.64C174.061 142.733 173.941 142.78 173.794 142.78H171.774C171.241 142.78 170.828 142.927 170.534 143.22C170.254 143.513 170.114 143.927 170.114 144.46V149.5C170.114 149.647 170.061 149.767 169.954 149.86C169.861 149.953 169.741 150 169.594 150H166.954ZM178.637 150.2C177.931 150.2 177.284 150.067 176.697 149.8C176.124 149.52 175.671 149.14 175.337 148.66C175.017 148.18 174.857 147.653 174.857 147.08C174.857 146.173 175.231 145.44 175.977 144.88C176.737 144.307 177.777 143.913 179.097 143.7L181.577 143.32V143.08C181.577 142.587 181.477 142.227 181.277 142C181.077 141.773 180.737 141.66 180.257 141.66C179.991 141.66 179.764 141.707 179.577 141.8C179.404 141.893 179.204 142.033 178.977 142.22C178.804 142.367 178.651 142.473 178.517 142.54C178.464 142.633 178.397 142.68 178.317 142.68H175.997C175.864 142.68 175.751 142.64 175.657 142.56C175.577 142.467 175.544 142.36 175.557 142.24C175.571 141.88 175.751 141.48 176.097 141.04C176.444 140.587 176.971 140.2 177.677 139.88C178.384 139.56 179.257 139.4 180.297 139.4C181.951 139.4 183.177 139.767 183.977 140.5C184.777 141.22 185.177 142.2 185.177 143.44V149.5C185.177 149.633 185.131 149.753 185.037 149.86C184.944 149.953 184.824 150 184.677 150H182.217C182.084 150 181.964 149.953 181.857 149.86C181.764 149.753 181.717 149.633 181.717 149.5V148.8C181.424 149.213 181.017 149.553 180.497 149.82C179.977 150.073 179.357 150.2 178.637 150.2ZM179.637 147.84C180.224 147.84 180.697 147.647 181.057 147.26C181.431 146.873 181.617 146.313 181.617 145.58V145.34L179.957 145.62C178.837 145.833 178.277 146.233 178.277 146.82C178.277 147.127 178.404 147.373 178.657 147.56C178.924 147.747 179.251 147.84 179.637 147.84ZM187.853 150C187.72 150 187.6 149.953 187.493 149.86C187.4 149.753 187.353 149.633 187.353 149.5V140.1C187.353 139.953 187.4 139.833 187.493 139.74C187.6 139.647 187.72 139.6 187.853 139.6H190.313C190.46 139.6 190.58 139.647 190.673 139.74C190.766 139.833 190.813 139.953 190.813 140.1V140.86C191.173 140.42 191.633 140.067 192.193 139.8C192.766 139.533 193.42 139.4 194.153 139.4C194.913 139.4 195.586 139.573 196.173 139.92C196.773 140.267 197.24 140.78 197.573 141.46C197.92 142.14 198.093 142.96 198.093 143.92V149.5C198.093 149.633 198.046 149.753 197.953 149.86C197.86 149.953 197.74 150 197.593 150H194.933C194.786 150 194.66 149.953 194.553 149.86C194.46 149.767 194.413 149.647 194.413 149.5V144.04C194.413 143.44 194.266 142.98 193.973 142.66C193.693 142.34 193.28 142.18 192.733 142.18C192.2 142.18 191.78 142.347 191.473 142.68C191.166 143 191.013 143.453 191.013 144.04V149.5C191.013 149.633 190.966 149.753 190.873 149.86C190.78 149.953 190.66 150 190.513 150H187.853ZM205.123 150.2C203.603 150.2 202.369 149.8 201.423 149C200.489 148.187 199.989 147.06 199.923 145.62L199.903 144.82L199.923 144C199.976 142.56 200.476 141.433 201.423 140.62C202.369 139.807 203.603 139.4 205.123 139.4C206.283 139.4 207.256 139.607 208.043 140.02C208.829 140.433 209.416 140.927 209.803 141.5C210.189 142.06 210.396 142.573 210.423 143.04C210.436 143.187 210.389 143.313 210.283 143.42C210.176 143.513 210.049 143.56 209.903 143.56H207.223C207.076 143.56 206.963 143.527 206.883 143.46C206.803 143.393 206.729 143.287 206.663 143.14C206.516 142.767 206.323 142.493 206.083 142.32C205.856 142.147 205.563 142.06 205.203 142.06C204.176 142.06 203.643 142.74 203.603 144.1L203.583 144.86L203.603 145.52C203.616 146.213 203.756 146.727 204.023 147.06C204.289 147.38 204.683 147.54 205.203 147.54C205.589 147.54 205.889 147.46 206.103 147.3C206.329 147.127 206.516 146.847 206.663 146.46C206.729 146.313 206.803 146.207 206.883 146.14C206.963 146.073 207.076 146.04 207.223 146.04H209.903C210.036 146.04 210.156 146.087 210.263 146.18C210.369 146.273 210.423 146.387 210.423 146.52C210.423 146.933 210.236 147.433 209.863 148.02C209.503 148.593 208.923 149.1 208.123 149.54C207.323 149.98 206.323 150.2 205.123 150.2ZM217.018 150.2C215.391 150.2 214.111 149.767 213.178 148.9C212.245 148.02 211.765 146.747 211.738 145.08V144.46C211.791 142.873 212.285 141.633 213.218 140.74C214.151 139.847 215.411 139.4 216.998 139.4C218.145 139.4 219.111 139.633 219.898 140.1C220.698 140.553 221.291 141.187 221.678 142C222.078 142.8 222.278 143.713 222.278 144.74V145.24C222.278 145.387 222.225 145.513 222.118 145.62C222.025 145.713 221.905 145.76 221.758 145.76H215.418V145.88C215.431 146.48 215.571 146.967 215.838 147.34C216.105 147.7 216.485 147.88 216.978 147.88C217.298 147.88 217.551 147.82 217.738 147.7C217.938 147.567 218.125 147.4 218.298 147.2C218.418 147.067 218.511 146.987 218.578 146.96C218.658 146.92 218.778 146.9 218.938 146.9H221.558C221.678 146.9 221.778 146.94 221.858 147.02C221.951 147.087 221.998 147.173 221.998 147.28C221.998 147.627 221.798 148.033 221.398 148.5C221.011 148.967 220.438 149.367 219.678 149.7C218.931 150.033 218.045 150.2 217.018 150.2ZM218.598 143.72V143.68C218.598 143.04 218.458 142.547 218.178 142.2C217.898 141.84 217.505 141.66 216.998 141.66C216.491 141.66 216.098 141.84 215.818 142.2C215.551 142.547 215.418 143.04 215.418 143.68V143.72H218.598Z" fill="#303030"/>
<g filter="url(#filter1_d_934_1118)">
<rect x="18" y="21" width="340" height="10" fill="#940000"/>
</g>
<defs>
<filter id="filter0_d_934_1118" x="-7" y="0" width="390" height="190" filterUnits="userSpaceOnUse" color-interpolation-filters="sRGB">
<feFlood flood-opacity="0" result="BackgroundImageFix"/>
<feColorMatrix in="SourceAlpha" type="matrix" values="0 0 0 0 0 0 0 0 0 0 0 0 0 0 0 0 0 0 127 0" result="hardAlpha"/>
<feMorphology radius="15" operator="dilate" in="SourceAlpha" result="effect1_dropShadow_934_1118"/>
<feOffset dy="4"/>
<feGaussianBlur stdDeviation="5"/>
<feComposite in2="hardAlpha" operator="out"/>
<feColorMatrix type="matrix" values="0 0 0 0 0 0 0 0 0 0 0 0 0 0 0 0 0 0 0.25 0"/>
<feBlend mode="normal" in2="BackgroundImageFix" result="effect1_dropShadow_934_1118"/>
<feBlend mode="normal" in="SourceGraphic" in2="effect1_dropShadow_934_1118" result="shape"/>
</filter>
<filter id="filter1_d_934_1118" x="14" y="21" width="348" height="18" filterUnits="userSpaceOnUse" color-interpolation-filters="sRGB">
<feFlood flood-opacity="0" result="BackgroundImageFix"/>
<feColorMatrix in="SourceAlpha" type="matrix" values="0 0 0 0 0 0 0 0 0 0 0 0 0 0 0 0 0 0 127 0" result="hardAlpha"/>
<feOffset dy="4"/>
<feGaussianBlur stdDeviation="2"/>
<feComposite in2="hardAlpha" operator="out"/>
<feColorMatrix type="matrix" values="0 0 0 0 0 0 0 0 0 0 0 0 0 0 0 0 0 0 0.25 0"/>
<feBlend mode="normal" in2="BackgroundImageFix" result="effect1_dropShadow_934_1118"/>
<feBlend mode="normal" in="SourceGraphic" in2="effect1_dropShadow_934_1118" result="shape"/>
</filter>
</defs>
</svg>
