<svg width="390" height="184" viewBox="0 0 390 184" fill="none" xmlns="http://www.w3.org/2000/svg">
<g filter="url(#filter0_d_1285_418)">
<rect x="25" y="21" width="340" height="134" fill="white"/>
</g>
<path d="M88.2703 73C88.0569 73 87.8649 72.9253 87.6943 72.776C87.5449 72.6053 87.4703 72.4133 87.4703 72.2V57.224L83.1823 60.52C83.0116 60.6267 82.8516 60.68 82.7023 60.68C82.4463 60.68 82.2223 60.552 82.0303 60.296L80.0463 57.736C79.9609 57.5867 79.9183 57.4267 79.9183 57.256C79.9183 56.9573 80.0356 56.7227 80.2703 56.552L87.6943 50.824C87.9076 50.6747 88.1529 50.6 88.4303 50.6H92.6543C92.8889 50.6 93.0809 50.6747 93.2303 50.824C93.4009 50.9733 93.4863 51.1653 93.4863 51.4V72.2C93.4863 72.4347 93.4009 72.6267 93.2303 72.776C93.0809 72.9253 92.8889 73 92.6543 73H88.2703ZM106.443 73.32C103.499 73.2987 101.259 72.52 99.7233 70.984C98.1873 69.448 97.3446 67.4213 97.1953 64.904C97.1526 63.752 97.1313 62.7173 97.1313 61.8C97.1313 60.8613 97.1526 59.7947 97.1953 58.6C97.2806 57 97.6753 55.5813 98.3793 54.344C99.1046 53.0853 100.139 52.0933 101.483 51.368C102.849 50.6427 104.502 50.28 106.443 50.28C108.385 50.28 110.038 50.6427 111.403 51.368C112.769 52.0933 113.803 53.0853 114.507 54.344C115.233 55.5813 115.638 57 115.723 58.6C115.766 59.1973 115.787 60.264 115.787 61.8C115.787 63.2933 115.766 64.328 115.723 64.904C115.574 67.4213 114.731 69.448 113.195 70.984C111.659 72.52 109.409 73.2987 106.443 73.32ZM106.443 68.488C107.446 68.488 108.193 68.168 108.683 67.528C109.174 66.8667 109.441 65.9387 109.483 64.744C109.526 64.1253 109.547 63.1227 109.547 61.736C109.547 60.3493 109.526 59.368 109.483 58.792C109.441 57.64 109.174 56.7333 108.683 56.072C108.193 55.3893 107.446 55.048 106.443 55.048C104.523 55.048 103.51 56.296 103.403 58.792C103.382 59.368 103.371 60.3493 103.371 61.736C103.371 63.1227 103.382 64.1253 103.403 64.744C103.51 67.24 104.523 68.488 106.443 68.488ZM127.101 73C126.888 73 126.696 72.9253 126.525 72.776C126.376 72.6053 126.301 72.4133 126.301 72.2V51.432C126.301 51.1973 126.376 51.0053 126.525 50.856C126.674 50.6853 126.866 50.6 127.101 50.6H141.981C142.216 50.6 142.408 50.6853 142.557 50.856C142.728 51.0053 142.813 51.1973 142.813 51.432V54.824C142.813 55.0587 142.728 55.2507 142.557 55.4C142.408 55.5493 142.216 55.624 141.981 55.624H132.189V60.072H141.341C141.576 60.072 141.768 60.1573 141.917 60.328C142.088 60.4773 142.173 60.6693 142.173 60.904V64.296C142.173 64.5307 142.088 64.7227 141.917 64.872C141.768 65.0213 141.576 65.096 141.341 65.096H132.189V72.2C132.189 72.4133 132.114 72.6053 131.965 72.776C131.816 72.9253 131.624 73 131.389 73H127.101ZM153.543 73.32C150.855 73.32 148.785 72.7013 147.335 71.464C145.905 70.2053 145.127 68.424 144.999 66.12C144.977 65.8427 144.967 65.3627 144.967 64.68C144.967 63.9973 144.977 63.5173 144.999 63.24C145.127 60.9787 145.927 59.2187 147.399 57.96C148.892 56.68 150.94 56.04 153.543 56.04C156.145 56.04 158.183 56.68 159.655 57.96C161.148 59.2187 161.959 60.9787 162.087 63.24C162.129 63.7947 162.151 64.2747 162.151 64.68C162.151 65.0853 162.129 65.5653 162.087 66.12C161.959 68.424 161.169 70.2053 159.719 71.464C158.289 72.7013 156.231 73.32 153.543 73.32ZM153.543 69.288C154.417 69.288 155.068 69.0213 155.495 68.488C155.921 67.9333 156.167 67.0907 156.231 65.96C156.252 65.7467 156.263 65.32 156.263 64.68C156.263 64.04 156.252 63.6133 156.231 63.4C156.167 62.2907 155.921 61.4587 155.495 60.904C155.068 60.3493 154.417 60.072 153.543 60.072C152.668 60.072 152.017 60.3493 151.591 60.904C151.164 61.4587 150.919 62.2907 150.855 63.4L150.823 64.68L150.855 65.96C150.919 67.0907 151.164 67.9333 151.591 68.488C152.017 69.0213 152.668 69.288 153.543 69.288ZM165.999 73C165.786 73 165.594 72.9253 165.423 72.776C165.274 72.6053 165.199 72.4133 165.199 72.2V57.16C165.199 56.9253 165.274 56.7333 165.423 56.584C165.594 56.4347 165.786 56.36 165.999 56.36H169.935C170.17 56.36 170.362 56.4347 170.511 56.584C170.66 56.7333 170.735 56.9253 170.735 57.16V58.376C171.311 57.672 172.047 57.1067 172.943 56.68C173.86 56.2533 174.906 56.04 176.079 56.04C177.295 56.04 178.372 56.3173 179.311 56.872C180.271 57.4267 181.018 58.248 181.551 59.336C182.106 60.424 182.383 61.736 182.383 63.272V72.2C182.383 72.4133 182.308 72.6053 182.159 72.776C182.01 72.9253 181.818 73 181.583 73H177.327C177.092 73 176.89 72.9253 176.719 72.776C176.57 72.6267 176.495 72.4347 176.495 72.2V63.464C176.495 62.504 176.26 61.768 175.791 61.256C175.343 60.744 174.682 60.488 173.807 60.488C172.954 60.488 172.282 60.7547 171.791 61.288C171.3 61.8 171.055 62.5253 171.055 63.464V72.2C171.055 72.4133 170.98 72.6053 170.831 72.776C170.682 72.9253 170.49 73 170.255 73H165.999ZM192.127 73.32C190.057 73.32 188.425 72.6693 187.231 71.368C186.057 70.0667 185.428 68.2107 185.343 65.8L185.311 64.68L185.343 63.528C185.428 61.2027 186.068 59.3787 187.263 58.056C188.457 56.712 190.079 56.04 192.127 56.04C194.047 56.04 195.593 56.6587 196.767 57.896V51.08C196.767 50.8453 196.841 50.6533 196.991 50.504C197.161 50.3547 197.353 50.28 197.567 50.28H201.694C201.929 50.28 202.121 50.3547 202.271 50.504C202.441 50.6533 202.527 50.8453 202.527 51.08V72.2C202.527 72.4347 202.441 72.6267 202.271 72.776C202.121 72.9253 201.929 73 201.694 73H197.887C197.673 73 197.481 72.9253 197.311 72.776C197.161 72.6053 197.087 72.4133 197.087 72.2V71.208C195.935 72.616 194.281 73.32 192.127 73.32ZM193.983 68.872C194.9 68.872 195.583 68.584 196.031 68.008C196.479 67.4107 196.724 66.664 196.767 65.768C196.809 65.1707 196.831 64.7653 196.831 64.552C196.831 64.3173 196.809 63.9227 196.767 63.368C196.724 62.536 196.468 61.8533 195.999 61.32C195.551 60.7653 194.879 60.488 193.983 60.488C193.023 60.488 192.329 60.776 191.903 61.352C191.497 61.9067 191.263 62.6853 191.199 63.688L191.167 64.68L191.199 65.672C191.263 66.6747 191.497 67.464 191.903 68.04C192.329 68.5947 193.023 68.872 193.983 68.872ZM211.192 73.32C210.061 73.32 209.026 73.1067 208.088 72.68C207.17 72.232 206.445 71.624 205.912 70.856C205.4 70.088 205.144 69.2453 205.144 68.328C205.144 66.8773 205.741 65.704 206.936 64.808C208.152 63.8907 209.816 63.2613 211.928 62.92L215.896 62.312V61.928C215.896 61.1387 215.736 60.5627 215.416 60.2C215.096 59.8373 214.552 59.656 213.784 59.656C213.357 59.656 212.994 59.7307 212.696 59.88C212.418 60.0293 212.098 60.2533 211.736 60.552C211.458 60.7867 211.213 60.9573 211 61.064C210.914 61.2133 210.808 61.288 210.68 61.288H206.968C206.754 61.288 206.573 61.224 206.424 61.096C206.296 60.9467 206.242 60.776 206.264 60.584C206.285 60.008 206.573 59.368 207.128 58.664C207.682 57.9387 208.525 57.32 209.656 56.808C210.786 56.296 212.184 56.04 213.848 56.04C216.493 56.04 218.456 56.6267 219.736 57.8C221.016 58.952 221.656 60.52 221.656 62.504V72.2C221.656 72.4133 221.581 72.6053 221.432 72.776C221.282 72.9253 221.09 73 220.856 73H216.92C216.706 73 216.514 72.9253 216.344 72.776C216.194 72.6053 216.12 72.4133 216.12 72.2V71.08C215.65 71.7413 215 72.2853 214.168 72.712C213.336 73.1173 212.344 73.32 211.192 73.32ZM212.792 69.544C213.73 69.544 214.488 69.2347 215.064 68.616C215.661 67.9973 215.96 67.1013 215.96 65.928V65.544L213.304 65.992C211.512 66.3333 210.616 66.9733 210.616 67.912C210.616 68.4027 210.818 68.7973 211.224 69.096C211.65 69.3947 212.173 69.544 212.792 69.544ZM233.748 73C229.225 73 226.964 70.8773 226.964 66.632V60.712H224.436C224.222 60.712 224.03 60.6373 223.86 60.488C223.71 60.3173 223.636 60.1253 223.636 59.912V57.16C223.636 56.9253 223.71 56.7333 223.86 56.584C224.03 56.4347 224.222 56.36 224.436 56.36H226.964V51.08C226.964 50.8453 227.038 50.6533 227.188 50.504C227.358 50.3547 227.55 50.28 227.764 50.28H231.7C231.934 50.28 232.126 50.3547 232.276 50.504C232.425 50.6533 232.5 50.8453 232.5 51.08V56.36H236.5C236.734 56.36 236.926 56.4347 237.076 56.584C237.246 56.7333 237.332 56.9253 237.332 57.16V59.912C237.332 60.1467 237.246 60.3387 237.076 60.488C236.926 60.6373 236.734 60.712 236.5 60.712H232.5V66.152C232.5 66.8987 232.638 67.464 232.916 67.848C233.193 68.232 233.641 68.424 234.26 68.424H236.788C237.022 68.424 237.214 68.5093 237.364 68.68C237.513 68.8293 237.588 69.0213 237.588 69.256V72.2C237.588 72.4133 237.513 72.6053 237.364 72.776C237.214 72.9253 237.022 73 236.788 73H233.748ZM247.976 73.32C245.373 73.32 243.325 72.6267 241.832 71.24C240.338 69.832 239.57 67.7947 239.528 65.128V64.136C239.613 61.5973 240.402 59.6133 241.896 58.184C243.389 56.7547 245.405 56.04 247.944 56.04C249.778 56.04 251.325 56.4133 252.584 57.16C253.864 57.8853 254.813 58.8987 255.432 60.2C256.072 61.48 256.392 62.9413 256.392 64.584V65.384C256.392 65.6187 256.306 65.8213 256.136 65.992C255.986 66.1413 255.794 66.216 255.56 66.216H245.416V66.408C245.437 67.368 245.661 68.1467 246.088 68.744C246.514 69.32 247.122 69.608 247.912 69.608C248.424 69.608 248.829 69.512 249.128 69.32C249.448 69.1067 249.746 68.84 250.024 68.52C250.216 68.3067 250.365 68.1787 250.472 68.136C250.6 68.072 250.792 68.04 251.048 68.04H255.24C255.432 68.04 255.592 68.104 255.72 68.232C255.869 68.3387 255.944 68.4773 255.944 68.648C255.944 69.2027 255.624 69.8533 254.984 70.6C254.365 71.3467 253.448 71.9867 252.232 72.52C251.037 73.0533 249.618 73.32 247.976 73.32ZM250.504 62.952V62.888C250.504 61.864 250.28 61.0747 249.832 60.52C249.384 59.944 248.754 59.656 247.944 59.656C247.133 59.656 246.504 59.944 246.056 60.52C245.629 61.0747 245.416 61.864 245.416 62.888V62.952H250.504ZM265.374 73.32C263.496 73.32 261.982 72.6907 260.83 71.432C259.678 70.1733 259.102 68.392 259.102 66.088V57.16C259.102 56.9253 259.176 56.7333 259.326 56.584C259.496 56.4347 259.688 56.36 259.902 56.36H264.158C264.392 56.36 264.584 56.4347 264.734 56.584C264.904 56.7333 264.99 56.9253 264.99 57.16V65.896C264.99 67.88 265.875 68.872 267.646 68.872C268.499 68.872 269.16 68.616 269.63 68.104C270.12 67.5707 270.366 66.8347 270.366 65.896V57.16C270.366 56.9253 270.44 56.7333 270.59 56.584C270.76 56.4347 270.963 56.36 271.198 56.36H275.422C275.656 56.36 275.848 56.4347 275.998 56.584C276.147 56.7333 276.222 56.9253 276.222 57.16V72.2C276.222 72.4133 276.147 72.6053 275.998 72.776C275.848 72.9253 275.656 73 275.422 73H271.518C271.283 73 271.08 72.9253 270.91 72.776C270.76 72.6267 270.686 72.4347 270.686 72.2V70.984C269.576 72.5413 267.806 73.32 265.374 73.32ZM280.655 73C280.442 73 280.25 72.9253 280.079 72.776C279.93 72.6053 279.855 72.4133 279.855 72.2V57.192C279.855 56.9573 279.93 56.7653 280.079 56.616C280.229 56.4453 280.421 56.36 280.655 56.36H284.559C284.794 56.36 284.986 56.4453 285.135 56.616C285.306 56.7653 285.391 56.9573 285.391 57.192V58.408C285.989 57.7467 286.682 57.2453 287.471 56.904C288.282 56.5413 289.178 56.36 290.159 56.36H291.599C291.834 56.36 292.026 56.4347 292.175 56.584C292.325 56.7333 292.399 56.9253 292.399 57.16V60.648C292.399 60.8613 292.325 61.0533 292.175 61.224C292.026 61.3733 291.834 61.448 291.599 61.448H288.367C287.514 61.448 286.853 61.6827 286.383 62.152C285.935 62.6213 285.711 63.2827 285.711 64.136V72.2C285.711 72.4347 285.626 72.6267 285.455 72.776C285.306 72.9253 285.114 73 284.879 73H280.655ZM301.581 73.32C299.832 73.32 298.371 73.0747 297.197 72.584C296.024 72.0933 295.149 71.5067 294.573 70.824C294.019 70.1413 293.741 69.5227 293.741 68.968C293.741 68.7547 293.816 68.584 293.965 68.456C294.136 68.3067 294.317 68.232 294.509 68.232H298.381C298.509 68.232 298.616 68.2747 298.701 68.36C299.064 68.5947 299.267 68.7333 299.309 68.776C299.715 69.0747 300.088 69.3093 300.429 69.48C300.792 69.6293 301.219 69.704 301.709 69.704C302.285 69.704 302.755 69.5973 303.117 69.384C303.501 69.1493 303.693 68.8293 303.693 68.424C303.693 68.0827 303.587 67.8053 303.373 67.592C303.181 67.3787 302.797 67.176 302.221 66.984C301.667 66.7707 300.813 66.5573 299.661 66.344C295.971 65.5973 294.125 63.8907 294.125 61.224C294.125 60.3493 294.403 59.5173 294.957 58.728C295.533 57.9173 296.365 57.2667 297.453 56.776C298.563 56.2853 299.885 56.04 301.421 56.04C302.979 56.04 304.323 56.2853 305.453 56.776C306.605 57.2453 307.48 57.8213 308.077 58.504C308.675 59.1653 308.973 59.7733 308.973 60.328C308.973 60.52 308.899 60.6907 308.749 60.84C308.621 60.9893 308.461 61.064 308.269 61.064H304.749C304.557 61.064 304.408 61.0213 304.301 60.936C304.045 60.808 303.789 60.648 303.533 60.456C303.149 60.2 302.808 60.008 302.509 59.88C302.232 59.7307 301.869 59.656 301.421 59.656C300.888 59.656 300.472 59.7733 300.173 60.008C299.875 60.2427 299.725 60.5413 299.725 60.904C299.725 61.224 299.811 61.4907 299.981 61.704C300.173 61.896 300.547 62.088 301.101 62.28C301.677 62.472 302.541 62.6747 303.693 62.888C305.784 63.2507 307.299 63.9013 308.237 64.84C309.197 65.7573 309.677 66.8347 309.677 68.072C309.677 69.672 308.963 70.952 307.533 71.912C306.125 72.8507 304.141 73.32 301.581 73.32ZM123.142 108.32C121.073 108.32 119.441 107.669 118.246 106.368C117.073 105.067 116.443 103.211 116.358 100.8L116.326 99.68L116.358 98.528C116.443 96.2027 117.083 94.3787 118.278 93.056C119.473 91.712 121.094 91.04 123.142 91.04C125.062 91.04 126.609 91.6587 127.782 92.896V86.08C127.782 85.8453 127.857 85.6533 128.006 85.504C128.177 85.3547 128.369 85.28 128.582 85.28H132.71C132.945 85.28 133.137 85.3547 133.286 85.504C133.457 85.6533 133.542 85.8453 133.542 86.08V107.2C133.542 107.435 133.457 107.627 133.286 107.776C133.137 107.925 132.945 108 132.71 108H128.902C128.689 108 128.497 107.925 128.326 107.776C128.177 107.605 128.102 107.413 128.102 107.2V106.208C126.95 107.616 125.297 108.32 123.142 108.32ZM124.998 103.872C125.915 103.872 126.598 103.584 127.046 103.008C127.494 102.411 127.739 101.664 127.782 100.768C127.825 100.171 127.846 99.7653 127.846 99.552C127.846 99.3173 127.825 98.9227 127.782 98.368C127.739 97.536 127.483 96.8533 127.014 96.32C126.566 95.7653 125.894 95.488 124.998 95.488C124.038 95.488 123.345 95.776 122.918 96.352C122.513 96.9067 122.278 97.6853 122.214 98.688L122.182 99.68L122.214 100.672C122.278 101.675 122.513 102.464 122.918 103.04C123.345 103.595 124.038 103.872 124.998 103.872ZM137.247 93.536C137.055 93.536 136.895 93.472 136.767 93.344C136.661 93.216 136.618 93.0347 136.639 92.8L137.631 86.4C137.695 86.08 137.823 85.8133 138.015 85.6C138.207 85.3867 138.474 85.28 138.815 85.28H142.719C142.89 85.28 143.029 85.344 143.135 85.472C143.263 85.6 143.327 85.7493 143.327 85.92C143.327 86.048 143.306 86.1653 143.263 86.272L140.799 92.64C140.671 92.9173 140.511 93.1413 140.319 93.312C140.149 93.4613 139.903 93.536 139.583 93.536H137.247ZM146.898 108C146.685 108 146.493 107.925 146.322 107.776C146.173 107.605 146.098 107.413 146.098 107.2V86.432C146.098 86.1973 146.173 86.0053 146.322 85.856C146.471 85.6853 146.663 85.6 146.898 85.6H162.002C162.237 85.6 162.429 85.6853 162.578 85.856C162.749 86.0053 162.834 86.1973 162.834 86.432V89.6C162.834 89.8347 162.749 90.0267 162.578 90.176C162.429 90.3253 162.237 90.4 162.002 90.4H151.89V94.464H161.298C161.533 94.464 161.725 94.5493 161.874 94.72C162.045 94.8693 162.13 95.0613 162.13 95.296V98.208C162.13 98.4427 162.045 98.6453 161.874 98.816C161.725 98.9653 161.533 99.04 161.298 99.04H151.89V103.2H162.258C162.493 103.2 162.685 103.285 162.834 103.456C163.005 103.605 163.09 103.797 163.09 104.032V107.2C163.09 107.435 163.005 107.627 162.834 107.776C162.685 107.925 162.493 108 162.258 108H146.898ZM167.077 108C166.864 108 166.672 107.925 166.501 107.776C166.352 107.605 166.277 107.413 166.277 107.2V92.16C166.277 91.9253 166.352 91.7333 166.501 91.584C166.672 91.4347 166.864 91.36 167.077 91.36H170.789C171.024 91.36 171.216 91.4347 171.365 91.584C171.514 91.7333 171.589 91.9253 171.589 92.16V93.248C172.101 92.6293 172.762 92.1067 173.573 91.68C174.384 91.2533 175.301 91.04 176.325 91.04C178.672 91.04 180.282 91.9573 181.157 93.792C181.669 92.9813 182.384 92.32 183.301 91.808C184.218 91.296 185.2 91.04 186.245 91.04C187.994 91.04 189.413 91.6373 190.501 92.832C191.61 94.0053 192.165 95.7653 192.165 98.112V107.2C192.165 107.413 192.09 107.605 191.941 107.776C191.792 107.925 191.6 108 191.365 108H187.429C187.194 108 186.992 107.925 186.821 107.776C186.672 107.627 186.597 107.435 186.597 107.2V98.336C186.597 97.3547 186.384 96.64 185.957 96.192C185.552 95.7227 184.997 95.488 184.293 95.488C183.632 95.488 183.088 95.7227 182.661 96.192C182.256 96.64 182.053 97.3547 182.053 98.336V107.2C182.053 107.413 181.978 107.605 181.829 107.776C181.68 107.925 181.488 108 181.253 108H177.317C177.082 108 176.88 107.925 176.709 107.776C176.56 107.627 176.485 107.435 176.485 107.2V98.336C176.485 97.3547 176.272 96.64 175.845 96.192C175.418 95.7227 174.864 95.488 174.181 95.488C173.52 95.488 172.976 95.7227 172.549 96.192C172.122 96.64 171.909 97.344 171.909 98.304V107.2C171.909 107.413 171.834 107.605 171.685 107.776C171.536 107.925 171.344 108 171.109 108H167.077ZM196.484 114.08C196.249 114.08 196.047 114.005 195.876 113.856C195.727 113.707 195.652 113.515 195.652 113.28V92.16C195.652 91.9253 195.727 91.7333 195.876 91.584C196.047 91.4347 196.249 91.36 196.484 91.36H200.292C200.527 91.36 200.719 91.4347 200.868 91.584C201.017 91.7333 201.092 91.9253 201.092 92.16V93.312C202.244 91.7973 203.897 91.04 206.052 91.04C208.121 91.04 209.743 91.6907 210.916 92.992C212.111 94.272 212.751 96.1067 212.836 98.496C212.857 98.7733 212.868 99.168 212.868 99.68C212.868 100.192 212.857 100.597 212.836 100.896C212.751 103.2 212.111 105.013 210.916 106.336C209.721 107.659 208.1 108.32 206.052 108.32C203.983 108.32 202.436 107.616 201.412 106.208V113.28C201.412 113.515 201.337 113.707 201.188 113.856C201.039 114.005 200.847 114.08 200.612 114.08H196.484ZM204.196 103.872C205.156 103.872 205.839 103.595 206.244 103.04C206.671 102.464 206.916 101.675 206.98 100.672C207.001 100.459 207.012 100.128 207.012 99.68C207.012 99.232 207.001 98.9013 206.98 98.688C206.916 97.6853 206.671 96.9067 206.244 96.352C205.839 95.776 205.156 95.488 204.196 95.488C203.279 95.488 202.596 95.7867 202.148 96.384C201.7 96.96 201.455 97.696 201.412 98.592C201.391 98.8693 201.38 99.2747 201.38 99.808C201.38 100.32 201.391 100.715 201.412 100.992C201.455 101.824 201.7 102.517 202.148 103.072C202.617 103.605 203.3 103.872 204.196 103.872ZM216.733 89.056C216.499 89.056 216.307 88.9813 216.157 88.832C216.008 88.6613 215.933 88.4587 215.933 88.224V85.248C215.933 85.0133 216.008 84.8213 216.157 84.672C216.328 84.5013 216.52 84.416 216.733 84.416H220.733C220.968 84.416 221.16 84.5013 221.309 84.672C221.48 84.8213 221.565 85.0133 221.565 85.248V88.224C221.565 88.4587 221.48 88.6613 221.309 88.832C221.16 88.9813 220.968 89.056 220.733 89.056H216.733ZM216.733 108C216.52 108 216.328 107.925 216.157 107.776C216.008 107.605 215.933 107.413 215.933 107.2V92.16C215.933 91.9253 216.008 91.7333 216.157 91.584C216.328 91.4347 216.52 91.36 216.733 91.36H220.733C220.968 91.36 221.16 91.4347 221.309 91.584C221.48 91.7333 221.565 91.9253 221.565 92.16V107.2C221.565 107.435 221.48 107.627 221.309 107.776C221.16 107.925 220.968 108 220.733 108H216.733ZM226.015 108C225.801 108 225.609 107.925 225.439 107.776C225.289 107.605 225.215 107.413 225.215 107.2V92.192C225.215 91.9573 225.289 91.7653 225.439 91.616C225.588 91.4453 225.78 91.36 226.015 91.36H229.919C230.153 91.36 230.345 91.4453 230.495 91.616C230.665 91.7653 230.751 91.9573 230.751 92.192V93.408C231.348 92.7467 232.041 92.2453 232.831 91.904C233.641 91.5413 234.537 91.36 235.519 91.36H236.959C237.193 91.36 237.385 91.4347 237.535 91.584C237.684 91.7333 237.759 91.9253 237.759 92.16V95.648C237.759 95.8613 237.684 96.0533 237.535 96.224C237.385 96.3733 237.193 96.448 236.959 96.448H233.727C232.873 96.448 232.212 96.6827 231.743 97.152C231.295 97.6213 231.071 98.2827 231.071 99.136V107.2C231.071 107.435 230.985 107.627 230.815 107.776C230.665 107.925 230.473 108 230.239 108H226.015ZM247.648 108.32C245.045 108.32 242.997 107.627 241.504 106.24C240.01 104.832 239.242 102.795 239.2 100.128V99.136C239.285 96.5973 240.074 94.6133 241.568 93.184C243.061 91.7547 245.077 91.04 247.616 91.04C249.45 91.04 250.997 91.4133 252.256 92.16C253.536 92.8853 254.485 93.8987 255.104 95.2C255.744 96.48 256.064 97.9413 256.064 99.584V100.384C256.064 100.619 255.978 100.821 255.808 100.992C255.658 101.141 255.466 101.216 255.232 101.216H245.088V101.408C245.109 102.368 245.333 103.147 245.76 103.744C246.186 104.32 246.794 104.608 247.584 104.608C248.096 104.608 248.501 104.512 248.8 104.32C249.12 104.107 249.418 103.84 249.696 103.52C249.888 103.307 250.037 103.179 250.144 103.136C250.272 103.072 250.464 103.04 250.72 103.04H254.912C255.104 103.04 255.264 103.104 255.392 103.232C255.541 103.339 255.616 103.477 255.616 103.648C255.616 104.203 255.296 104.853 254.656 105.6C254.037 106.347 253.12 106.987 251.904 107.52C250.709 108.053 249.29 108.32 247.648 108.32ZM250.176 97.952V97.888C250.176 96.864 249.952 96.0747 249.504 95.52C249.056 94.944 248.426 94.656 247.616 94.656C246.805 94.656 246.176 94.944 245.728 95.52C245.301 96.0747 245.088 96.864 245.088 97.888V97.952H250.176ZM265.909 108.32C264.16 108.32 262.699 108.075 261.525 107.584C260.352 107.093 259.477 106.507 258.901 105.824C258.347 105.141 258.069 104.523 258.069 103.968C258.069 103.755 258.144 103.584 258.293 103.456C258.464 103.307 258.645 103.232 258.837 103.232H262.709C262.837 103.232 262.944 103.275 263.029 103.36C263.392 103.595 263.595 103.733 263.637 103.776C264.043 104.075 264.416 104.309 264.757 104.48C265.12 104.629 265.547 104.704 266.037 104.704C266.613 104.704 267.083 104.597 267.445 104.384C267.829 104.149 268.021 103.829 268.021 103.424C268.021 103.083 267.915 102.805 267.701 102.592C267.509 102.379 267.125 102.176 266.549 101.984C265.995 101.771 265.141 101.557 263.989 101.344C260.299 100.597 258.453 98.8907 258.453 96.224C258.453 95.3493 258.731 94.5173 259.285 93.728C259.861 92.9173 260.693 92.2667 261.781 91.776C262.891 91.2853 264.213 91.04 265.749 91.04C267.307 91.04 268.651 91.2853 269.781 91.776C270.933 92.2453 271.808 92.8213 272.405 93.504C273.003 94.1653 273.301 94.7733 273.301 95.328C273.301 95.52 273.227 95.6907 273.077 95.84C272.949 95.9893 272.789 96.064 272.597 96.064H269.077C268.885 96.064 268.736 96.0213 268.629 95.936C268.373 95.808 268.117 95.648 267.861 95.456C267.477 95.2 267.136 95.008 266.837 94.88C266.56 94.7307 266.197 94.656 265.749 94.656C265.216 94.656 264.8 94.7733 264.501 95.008C264.203 95.2427 264.053 95.5413 264.053 95.904C264.053 96.224 264.139 96.4907 264.309 96.704C264.501 96.896 264.875 97.088 265.429 97.28C266.005 97.472 266.869 97.6747 268.021 97.888C270.112 98.2507 271.627 98.9013 272.565 99.84C273.525 100.757 274.005 101.835 274.005 103.072C274.005 104.672 273.291 105.952 271.861 106.912C270.453 107.851 268.469 108.32 265.909 108.32Z" fill="#940000"/>
<path d="M141.462 139.2C140.422 139.2 139.462 139.027 138.582 138.68C137.702 138.32 136.988 137.793 136.442 137.1C135.908 136.393 135.635 135.553 135.622 134.58C135.622 134.46 135.662 134.36 135.742 134.28C135.822 134.187 135.922 134.14 136.042 134.14H138.902C139.088 134.14 139.235 134.187 139.342 134.28C139.448 134.36 139.535 134.5 139.602 134.7C139.815 135.7 140.468 136.2 141.562 136.2C142.202 136.2 142.688 135.993 143.022 135.58C143.368 135.153 143.542 134.54 143.542 133.74V128.1H137.122C136.988 128.1 136.868 128.053 136.762 127.96C136.668 127.853 136.622 127.733 136.622 127.6V125.5C136.622 125.353 136.668 125.233 136.762 125.14C136.868 125.047 136.988 125 137.122 125H146.902C147.048 125 147.168 125.053 147.262 125.16C147.368 125.253 147.422 125.373 147.422 125.52V133.86C147.422 134.993 147.168 135.967 146.662 136.78C146.168 137.58 145.468 138.187 144.562 138.6C143.668 139 142.635 139.2 141.462 139.2ZM149.964 139C149.818 139 149.691 138.953 149.584 138.86C149.491 138.767 149.444 138.647 149.444 138.5V135.86C149.444 135.713 149.491 135.593 149.584 135.5C149.691 135.393 149.818 135.34 149.964 135.34H152.604C152.751 135.34 152.871 135.393 152.964 135.5C153.058 135.593 153.104 135.713 153.104 135.86V138.5C153.104 138.633 153.058 138.753 152.964 138.86C152.871 138.953 152.751 139 152.604 139H149.964ZM161.17 139.2C159.263 139.2 157.763 138.74 156.67 137.82C155.59 136.9 155.016 135.553 154.95 133.78C154.936 133.42 154.93 132.833 154.93 132.02C154.93 131.193 154.936 130.593 154.95 130.22C155.016 128.487 155.596 127.153 156.69 126.22C157.796 125.273 159.29 124.8 161.17 124.8C162.356 124.8 163.416 124.993 164.35 125.38C165.296 125.767 166.043 126.327 166.59 127.06C167.136 127.793 167.423 128.66 167.45 129.66C167.45 129.78 167.403 129.88 167.31 129.96C167.23 130.04 167.13 130.08 167.01 130.08H164.17C163.983 130.08 163.843 130.047 163.75 129.98C163.67 129.9 163.596 129.76 163.53 129.56C163.343 128.907 163.056 128.453 162.67 128.2C162.296 127.933 161.796 127.8 161.17 127.8C159.663 127.8 158.883 128.64 158.83 130.32C158.816 130.68 158.81 131.233 158.81 131.98C158.81 132.727 158.816 133.293 158.83 133.68C158.883 135.36 159.663 136.2 161.17 136.2C161.783 136.2 162.283 136.067 162.67 135.8C163.07 135.533 163.356 135.08 163.53 134.44C163.583 134.24 163.656 134.107 163.75 134.04C163.843 133.96 163.983 133.92 164.17 133.92H167.01C167.13 133.92 167.23 133.96 167.31 134.04C167.403 134.12 167.45 134.22 167.45 134.34C167.423 135.34 167.136 136.207 166.59 136.94C166.043 137.673 165.296 138.233 164.35 138.62C163.416 139.007 162.356 139.2 161.17 139.2ZM174.19 139C174.057 139 173.937 138.953 173.83 138.86C173.737 138.753 173.69 138.633 173.69 138.5V125.52C173.69 125.373 173.737 125.253 173.83 125.16C173.923 125.053 174.043 125 174.19 125H179.85C181.583 125 182.943 125.393 183.93 126.18C184.917 126.967 185.41 128.12 185.41 129.64C185.41 131.16 184.917 132.3 183.93 133.06C182.943 133.807 181.583 134.18 179.85 134.18H177.57V138.5C177.57 138.633 177.523 138.753 177.43 138.86C177.337 138.953 177.217 139 177.07 139H174.19ZM179.75 131.32C180.297 131.32 180.723 131.18 181.03 130.9C181.35 130.607 181.51 130.18 181.51 129.62C181.51 129.1 181.363 128.68 181.07 128.36C180.79 128.04 180.35 127.88 179.75 127.88H177.51V131.32H179.75ZM189.95 139.2C189.243 139.2 188.597 139.067 188.01 138.8C187.437 138.52 186.983 138.14 186.65 137.66C186.33 137.18 186.17 136.653 186.17 136.08C186.17 135.173 186.543 134.44 187.29 133.88C188.05 133.307 189.09 132.913 190.41 132.7L192.89 132.32V132.08C192.89 131.587 192.79 131.227 192.59 131C192.39 130.773 192.05 130.66 191.57 130.66C191.303 130.66 191.077 130.707 190.89 130.8C190.717 130.893 190.517 131.033 190.29 131.22C190.117 131.367 189.963 131.473 189.83 131.54C189.777 131.633 189.71 131.68 189.63 131.68H187.31C187.177 131.68 187.063 131.64 186.97 131.56C186.89 131.467 186.857 131.36 186.87 131.24C186.883 130.88 187.063 130.48 187.41 130.04C187.757 129.587 188.283 129.2 188.99 128.88C189.697 128.56 190.57 128.4 191.61 128.4C193.263 128.4 194.49 128.767 195.29 129.5C196.09 130.22 196.49 131.2 196.49 132.44V138.5C196.49 138.633 196.443 138.753 196.35 138.86C196.257 138.953 196.137 139 195.99 139H193.53C193.397 139 193.277 138.953 193.17 138.86C193.077 138.753 193.03 138.633 193.03 138.5V137.8C192.737 138.213 192.33 138.553 191.81 138.82C191.29 139.073 190.67 139.2 189.95 139.2ZM190.95 136.84C191.537 136.84 192.01 136.647 192.37 136.26C192.743 135.873 192.93 135.313 192.93 134.58V134.34L191.27 134.62C190.15 134.833 189.59 135.233 189.59 135.82C189.59 136.127 189.717 136.373 189.97 136.56C190.237 136.747 190.563 136.84 190.95 136.84ZM199.185 142.8C199.039 142.8 198.912 142.753 198.805 142.66C198.712 142.567 198.665 142.447 198.665 142.3V129.1C198.665 128.953 198.712 128.833 198.805 128.74C198.912 128.647 199.039 128.6 199.185 128.6H201.565C201.712 128.6 201.832 128.647 201.925 128.74C202.019 128.833 202.065 128.953 202.065 129.1V129.82C202.785 128.873 203.819 128.4 205.165 128.4C206.459 128.4 207.472 128.807 208.205 129.62C208.952 130.42 209.352 131.567 209.405 133.06C209.419 133.233 209.425 133.48 209.425 133.8C209.425 134.12 209.419 134.373 209.405 134.56C209.352 136 208.952 137.133 208.205 137.96C207.459 138.787 206.445 139.2 205.165 139.2C203.872 139.2 202.905 138.76 202.265 137.88V142.3C202.265 142.447 202.219 142.567 202.125 142.66C202.032 142.753 201.912 142.8 201.765 142.8H199.185ZM204.005 136.42C204.605 136.42 205.032 136.247 205.285 135.9C205.552 135.54 205.705 135.047 205.745 134.42C205.759 134.287 205.765 134.08 205.765 133.8C205.765 133.52 205.759 133.313 205.745 133.18C205.705 132.553 205.552 132.067 205.285 131.72C205.032 131.36 204.605 131.18 204.005 131.18C203.432 131.18 203.005 131.367 202.725 131.74C202.445 132.1 202.292 132.56 202.265 133.12C202.252 133.293 202.245 133.547 202.245 133.88C202.245 134.2 202.252 134.447 202.265 134.62C202.292 135.14 202.445 135.573 202.725 135.92C203.019 136.253 203.445 136.42 204.005 136.42ZM211.841 127.16C211.695 127.16 211.575 127.113 211.481 127.02C211.388 126.913 211.341 126.787 211.341 126.64V124.78C211.341 124.633 211.388 124.513 211.481 124.42C211.588 124.313 211.708 124.26 211.841 124.26H214.341C214.488 124.26 214.608 124.313 214.701 124.42C214.808 124.513 214.861 124.633 214.861 124.78V126.64C214.861 126.787 214.808 126.913 214.701 127.02C214.608 127.113 214.488 127.16 214.341 127.16H211.841ZM211.841 139C211.708 139 211.588 138.953 211.481 138.86C211.388 138.753 211.341 138.633 211.341 138.5V129.1C211.341 128.953 211.388 128.833 211.481 128.74C211.588 128.647 211.708 128.6 211.841 128.6H214.341C214.488 128.6 214.608 128.647 214.701 128.74C214.808 128.833 214.861 128.953 214.861 129.1V138.5C214.861 138.647 214.808 138.767 214.701 138.86C214.608 138.953 214.488 139 214.341 139H211.841ZM217.662 139C217.515 139 217.389 138.953 217.282 138.86C217.189 138.767 217.142 138.647 217.142 138.5V125.3C217.142 125.153 217.189 125.033 217.282 124.94C217.389 124.847 217.515 124.8 217.662 124.8H220.162C220.309 124.8 220.429 124.847 220.522 124.94C220.615 125.033 220.662 125.153 220.662 125.3V138.5C220.662 138.633 220.615 138.753 220.522 138.86C220.429 138.953 220.309 139 220.162 139H217.662ZM223.463 139C223.316 139 223.189 138.953 223.083 138.86C222.989 138.767 222.943 138.647 222.943 138.5V125.3C222.943 125.153 222.989 125.033 223.083 124.94C223.189 124.847 223.316 124.8 223.463 124.8H225.963C226.109 124.8 226.229 124.847 226.323 124.94C226.416 125.033 226.463 125.153 226.463 125.3V138.5C226.463 138.633 226.416 138.753 226.323 138.86C226.229 138.953 226.109 139 225.963 139H223.463ZM233.744 139.2C232.064 139.2 230.77 138.813 229.864 138.04C228.97 137.253 228.484 136.14 228.404 134.7C228.39 134.527 228.384 134.227 228.384 133.8C228.384 133.373 228.39 133.073 228.404 132.9C228.484 131.487 228.984 130.387 229.904 129.6C230.837 128.8 232.117 128.4 233.744 128.4C235.37 128.4 236.644 128.8 237.564 129.6C238.497 130.387 239.004 131.487 239.084 132.9C239.11 133.247 239.124 133.547 239.124 133.8C239.124 134.053 239.11 134.353 239.084 134.7C239.004 136.14 238.51 137.253 237.604 138.04C236.71 138.813 235.424 139.2 233.744 139.2ZM233.744 136.68C234.29 136.68 234.697 136.513 234.964 136.18C235.23 135.833 235.384 135.307 235.424 134.6C235.437 134.467 235.444 134.2 235.444 133.8C235.444 133.4 235.437 133.133 235.424 133C235.384 132.307 235.23 131.787 234.964 131.44C234.697 131.093 234.29 130.92 233.744 130.92C233.197 130.92 232.79 131.093 232.524 131.44C232.257 131.787 232.104 132.307 232.064 133L232.044 133.8L232.064 134.6C232.104 135.307 232.257 135.833 232.524 136.18C232.79 136.513 233.197 136.68 233.744 136.68ZM241.529 139C241.395 139 241.275 138.953 241.169 138.86C241.075 138.753 241.029 138.633 241.029 138.5V129.1C241.029 128.953 241.075 128.833 241.169 128.74C241.275 128.647 241.395 128.6 241.529 128.6H243.989C244.135 128.6 244.255 128.647 244.349 128.74C244.442 128.833 244.489 128.953 244.489 129.1V129.86C244.849 129.42 245.309 129.067 245.869 128.8C246.442 128.533 247.095 128.4 247.829 128.4C248.589 128.4 249.262 128.573 249.849 128.92C250.449 129.267 250.915 129.78 251.249 130.46C251.595 131.14 251.769 131.96 251.769 132.92V138.5C251.769 138.633 251.722 138.753 251.629 138.86C251.535 138.953 251.415 139 251.269 139H248.609C248.462 139 248.335 138.953 248.229 138.86C248.135 138.767 248.089 138.647 248.089 138.5V133.04C248.089 132.44 247.942 131.98 247.649 131.66C247.369 131.34 246.955 131.18 246.409 131.18C245.875 131.18 245.455 131.347 245.149 131.68C244.842 132 244.689 132.453 244.689 133.04V138.5C244.689 138.633 244.642 138.753 244.549 138.86C244.455 138.953 244.335 139 244.189 139H241.529Z" fill="#303030"/>
<g filter="url(#filter1_d_1285_418)">
<rect x="25" y="21" width="340" height="10" fill="#940000"/>
</g>
<defs>
<filter id="filter0_d_1285_418" x="0" y="0" width="390" height="184" filterUnits="userSpaceOnUse" color-interpolation-filters="sRGB">
<feFlood flood-opacity="0" result="BackgroundImageFix"/>
<feColorMatrix in="SourceAlpha" type="matrix" values="0 0 0 0 0 0 0 0 0 0 0 0 0 0 0 0 0 0 127 0" result="hardAlpha"/>
<feMorphology radius="15" operator="dilate" in="SourceAlpha" result="effect1_dropShadow_1285_418"/>
<feOffset dy="4"/>
<feGaussianBlur stdDeviation="5"/>
<feComposite in2="hardAlpha" operator="out"/>
<feColorMatrix type="matrix" values="0 0 0 0 0 0 0 0 0 0 0 0 0 0 0 0 0 0 0.25 0"/>
<feBlend mode="normal" in2="BackgroundImageFix" result="effect1_dropShadow_1285_418"/>
<feBlend mode="normal" in="SourceGraphic" in2="effect1_dropShadow_1285_418" result="shape"/>
</filter>
<filter id="filter1_d_1285_418" x="21" y="21" width="348" height="18" filterUnits="userSpaceOnUse" color-interpolation-filters="sRGB">
<feFlood flood-opacity="0" result="BackgroundImageFix"/>
<feColorMatrix in="SourceAlpha" type="matrix" values="0 0 0 0 0 0 0 0 0 0 0 0 0 0 0 0 0 0 127 0" result="hardAlpha"/>
<feOffset dy="4"/>
<feGaussianBlur stdDeviation="2"/>
<feComposite in2="hardAlpha" operator="out"/>
<feColorMatrix type="matrix" values="0 0 0 0 0 0 0 0 0 0 0 0 0 0 0 0 0 0 0.25 0"/>
<feBlend mode="normal" in2="BackgroundImageFix" result="effect1_dropShadow_1285_418"/>
<feBlend mode="normal" in="SourceGraphic" in2="effect1_dropShadow_1285_418" result="shape"/>
</filter>
</defs>
</svg>
