<svg width="390" height="143" viewBox="0 0 390 143" fill="none" xmlns="http://www.w3.org/2000/svg">
<g filter="url(#filter0_d_1235_395)">
<rect x="25" y="21" width="340" height="93" fill="white"/>
</g>
<path d="M80.5302 98.2C79.2369 98.2 78.2169 97.7933 77.4702 96.98C76.7369 96.1667 76.3436 95.0067 76.2902 93.5L76.2702 92.8L76.2902 92.08C76.3436 90.6267 76.7436 89.4867 77.4902 88.66C78.2369 87.82 79.2502 87.4 80.5302 87.4C81.7302 87.4 82.6969 87.7867 83.4302 88.56V84.3C83.4302 84.1533 83.4769 84.0333 83.5702 83.94C83.6769 83.8467 83.7969 83.8 83.9302 83.8H86.5102C86.6569 83.8 86.7769 83.8467 86.8702 83.94C86.9769 84.0333 87.0302 84.1533 87.0302 84.3V97.5C87.0302 97.6467 86.9769 97.7667 86.8702 97.86C86.7769 97.9533 86.6569 98 86.5102 98H84.1302C83.9969 98 83.8769 97.9533 83.7702 97.86C83.6769 97.7533 83.6302 97.6333 83.6302 97.5V96.88C82.9102 97.76 81.8769 98.2 80.5302 98.2ZM81.6902 95.42C82.2636 95.42 82.6902 95.24 82.9702 94.88C83.2502 94.5067 83.4036 94.04 83.4302 93.48C83.4569 93.1067 83.4702 92.8533 83.4702 92.72C83.4702 92.5733 83.4569 92.3267 83.4302 91.98C83.4036 91.46 83.2436 91.0333 82.9502 90.7C82.6702 90.3533 82.2502 90.18 81.6902 90.18C81.0902 90.18 80.6569 90.36 80.3902 90.72C80.1369 91.0667 79.9902 91.5533 79.9502 92.18L79.9302 92.8L79.9502 93.42C79.9902 94.0467 80.1369 94.54 80.3902 94.9C80.6569 95.2467 81.0902 95.42 81.6902 95.42ZM89.806 86.16C89.6593 86.16 89.5393 86.1133 89.446 86.02C89.3527 85.9133 89.306 85.7867 89.306 85.64V83.78C89.306 83.6333 89.3527 83.5133 89.446 83.42C89.5527 83.3133 89.6727 83.26 89.806 83.26H92.306C92.4527 83.26 92.5727 83.3133 92.666 83.42C92.7727 83.5133 92.826 83.6333 92.826 83.78V85.64C92.826 85.7867 92.7727 85.9133 92.666 86.02C92.5727 86.1133 92.4527 86.16 92.306 86.16H89.806ZM89.806 98C89.6727 98 89.5527 97.9533 89.446 97.86C89.3527 97.7533 89.306 97.6333 89.306 97.5V88.1C89.306 87.9533 89.3527 87.8333 89.446 87.74C89.5527 87.6467 89.6727 87.6 89.806 87.6H92.306C92.4527 87.6 92.5727 87.6467 92.666 87.74C92.7727 87.8333 92.826 87.9533 92.826 88.1V97.5C92.826 97.6467 92.7727 97.7667 92.666 97.86C92.5727 97.9533 92.4527 98 92.306 98H89.806ZM95.6068 98C95.4735 98 95.3535 97.9533 95.2468 97.86C95.1535 97.7533 95.1068 97.6333 95.1068 97.5V88.12C95.1068 87.9733 95.1535 87.8533 95.2468 87.76C95.3401 87.6533 95.4601 87.6 95.6068 87.6H98.0468C98.1935 87.6 98.3135 87.6533 98.4068 87.76C98.5135 87.8533 98.5668 87.9733 98.5668 88.12V88.88C98.9401 88.4667 99.3735 88.1533 99.8668 87.94C100.373 87.7133 100.933 87.6 101.547 87.6H102.447C102.593 87.6 102.713 87.6467 102.807 87.74C102.9 87.8333 102.947 87.9533 102.947 88.1V90.28C102.947 90.4133 102.9 90.5333 102.807 90.64C102.713 90.7333 102.593 90.78 102.447 90.78H100.427C99.8935 90.78 99.4801 90.9267 99.1868 91.22C98.9068 91.5133 98.7668 91.9267 98.7668 92.46V97.5C98.7668 97.6467 98.7135 97.7667 98.6068 97.86C98.5135 97.9533 98.3935 98 98.2468 98H95.6068ZM109.127 98.2C107.501 98.2 106.221 97.7667 105.287 96.9C104.354 96.02 103.874 94.7467 103.847 93.08V92.46C103.901 90.8733 104.394 89.6333 105.327 88.74C106.261 87.8467 107.521 87.4 109.107 87.4C110.254 87.4 111.221 87.6333 112.007 88.1C112.807 88.5533 113.401 89.1867 113.787 90C114.187 90.8 114.387 91.7133 114.387 92.74V93.24C114.387 93.3867 114.334 93.5133 114.227 93.62C114.134 93.7133 114.014 93.76 113.867 93.76H107.527V93.88C107.541 94.48 107.681 94.9667 107.947 95.34C108.214 95.7 108.594 95.88 109.087 95.88C109.407 95.88 109.661 95.82 109.847 95.7C110.047 95.5667 110.234 95.4 110.407 95.2C110.527 95.0667 110.621 94.9867 110.687 94.96C110.767 94.92 110.887 94.9 111.047 94.9H113.667C113.787 94.9 113.887 94.94 113.967 95.02C114.061 95.0867 114.107 95.1733 114.107 95.28C114.107 95.6267 113.907 96.0333 113.507 96.5C113.121 96.9667 112.547 97.3667 111.787 97.7C111.041 98.0333 110.154 98.2 109.127 98.2ZM110.707 91.72V91.68C110.707 91.04 110.567 90.5467 110.287 90.2C110.007 89.84 109.614 89.66 109.107 89.66C108.601 89.66 108.207 89.84 107.927 90.2C107.661 90.5467 107.527 91.04 107.527 91.68V91.72H110.707ZM121.021 98.2C119.501 98.2 118.268 97.8 117.321 97C116.388 96.1867 115.888 95.06 115.821 93.62L115.801 92.82L115.821 92C115.874 90.56 116.374 89.4333 117.321 88.62C118.268 87.8067 119.501 87.4 121.021 87.4C122.181 87.4 123.154 87.6067 123.941 88.02C124.728 88.4333 125.314 88.9267 125.701 89.5C126.088 90.06 126.294 90.5733 126.321 91.04C126.334 91.1867 126.288 91.3133 126.181 91.42C126.074 91.5133 125.948 91.56 125.801 91.56H123.121C122.974 91.56 122.861 91.5267 122.781 91.46C122.701 91.3933 122.628 91.2867 122.561 91.14C122.414 90.7667 122.221 90.4933 121.981 90.32C121.754 90.1467 121.461 90.06 121.101 90.06C120.074 90.06 119.541 90.74 119.501 92.1L119.481 92.86L119.501 93.52C119.514 94.2133 119.654 94.7267 119.921 95.06C120.188 95.38 120.581 95.54 121.101 95.54C121.488 95.54 121.788 95.46 122.001 95.3C122.228 95.1267 122.414 94.8467 122.561 94.46C122.628 94.3133 122.701 94.2067 122.781 94.14C122.861 94.0733 122.974 94.04 123.121 94.04H125.801C125.934 94.04 126.054 94.0867 126.161 94.18C126.268 94.2733 126.321 94.3867 126.321 94.52C126.321 94.9333 126.134 95.4333 125.761 96.02C125.401 96.5933 124.821 97.1 124.021 97.54C123.221 97.98 122.221 98.2 121.021 98.2ZM133.496 98C130.67 98 129.256 96.6733 129.256 94.02V90.32H127.676C127.543 90.32 127.423 90.2733 127.316 90.18C127.223 90.0733 127.176 89.9533 127.176 89.82V88.1C127.176 87.9533 127.223 87.8333 127.316 87.74C127.423 87.6467 127.543 87.6 127.676 87.6H129.256V84.3C129.256 84.1533 129.303 84.0333 129.396 83.94C129.503 83.8467 129.623 83.8 129.756 83.8H132.216C132.363 83.8 132.483 83.8467 132.576 83.94C132.67 84.0333 132.716 84.1533 132.716 84.3V87.6H135.216C135.363 87.6 135.483 87.6467 135.576 87.74C135.683 87.8333 135.736 87.9533 135.736 88.1V89.82C135.736 89.9667 135.683 90.0867 135.576 90.18C135.483 90.2733 135.363 90.32 135.216 90.32H132.716V93.72C132.716 94.1867 132.803 94.54 132.976 94.78C133.15 95.02 133.43 95.14 133.816 95.14H135.396C135.543 95.14 135.663 95.1933 135.756 95.3C135.85 95.3933 135.896 95.5133 135.896 95.66V97.5C135.896 97.6333 135.85 97.7533 135.756 97.86C135.663 97.9533 135.543 98 135.396 98H133.496ZM142.389 98.2C140.762 98.2 139.482 97.7667 138.549 96.9C137.616 96.02 137.136 94.7467 137.109 93.08V92.46C137.162 90.8733 137.656 89.6333 138.589 88.74C139.522 87.8467 140.782 87.4 142.369 87.4C143.516 87.4 144.482 87.6333 145.269 88.1C146.069 88.5533 146.662 89.1867 147.049 90C147.449 90.8 147.649 91.7133 147.649 92.74V93.24C147.649 93.3867 147.596 93.5133 147.489 93.62C147.396 93.7133 147.276 93.76 147.129 93.76H140.789V93.88C140.802 94.48 140.942 94.9667 141.209 95.34C141.476 95.7 141.856 95.88 142.349 95.88C142.669 95.88 142.922 95.82 143.109 95.7C143.309 95.5667 143.496 95.4 143.669 95.2C143.789 95.0667 143.882 94.9867 143.949 94.96C144.029 94.92 144.149 94.9 144.309 94.9H146.929C147.049 94.9 147.149 94.94 147.229 95.02C147.322 95.0867 147.369 95.1733 147.369 95.28C147.369 95.6267 147.169 96.0333 146.769 96.5C146.382 96.9667 145.809 97.3667 145.049 97.7C144.302 98.0333 143.416 98.2 142.389 98.2ZM143.969 91.72V91.68C143.969 91.04 143.829 90.5467 143.549 90.2C143.269 89.84 142.876 89.66 142.369 89.66C141.862 89.66 141.469 89.84 141.189 90.2C140.922 90.5467 140.789 91.04 140.789 91.68V91.72H143.969ZM153.343 98.2C152.049 98.2 151.029 97.7933 150.283 96.98C149.549 96.1667 149.156 95.0067 149.103 93.5L149.083 92.8L149.103 92.08C149.156 90.6267 149.556 89.4867 150.303 88.66C151.049 87.82 152.063 87.4 153.343 87.4C154.543 87.4 155.509 87.7867 156.243 88.56V84.3C156.243 84.1533 156.289 84.0333 156.383 83.94C156.489 83.8467 156.609 83.8 156.743 83.8H159.323C159.469 83.8 159.589 83.8467 159.683 83.94C159.789 84.0333 159.843 84.1533 159.843 84.3V97.5C159.843 97.6467 159.789 97.7667 159.683 97.86C159.589 97.9533 159.469 98 159.323 98H156.943C156.809 98 156.689 97.9533 156.583 97.86C156.489 97.7533 156.443 97.6333 156.443 97.5V96.88C155.723 97.76 154.689 98.2 153.343 98.2ZM154.503 95.42C155.076 95.42 155.503 95.24 155.783 94.88C156.063 94.5067 156.216 94.04 156.243 93.48C156.269 93.1067 156.283 92.8533 156.283 92.72C156.283 92.5733 156.269 92.3267 156.243 91.98C156.216 91.46 156.056 91.0333 155.763 90.7C155.483 90.3533 155.063 90.18 154.503 90.18C153.903 90.18 153.469 90.36 153.203 90.72C152.949 91.0667 152.803 91.5533 152.763 92.18L152.743 92.8L152.763 93.42C152.803 94.0467 152.949 94.54 153.203 94.9C153.469 95.2467 153.903 95.42 154.503 95.42ZM172.818 98.2C171.471 98.2 170.438 97.76 169.718 96.88V97.5C169.718 97.6333 169.671 97.7533 169.578 97.86C169.484 97.9533 169.364 98 169.218 98H166.838C166.691 98 166.564 97.9533 166.458 97.86C166.364 97.7667 166.318 97.6467 166.318 97.5V84.3C166.318 84.1533 166.364 84.0333 166.458 83.94C166.564 83.8467 166.691 83.8 166.838 83.8H169.418C169.564 83.8 169.684 83.8467 169.778 83.94C169.871 84.0333 169.918 84.1533 169.918 84.3V88.56C170.651 87.7867 171.618 87.4 172.818 87.4C174.098 87.4 175.111 87.82 175.858 88.66C176.604 89.4867 177.004 90.6267 177.058 92.08C177.071 92.2533 177.078 92.4933 177.078 92.8C177.078 93.0933 177.071 93.3267 177.058 93.5C177.004 95.0067 176.604 96.1667 175.858 96.98C175.124 97.7933 174.111 98.2 172.818 98.2ZM171.658 95.42C172.258 95.42 172.684 95.2467 172.938 94.9C173.204 94.54 173.358 94.0467 173.398 93.42C173.411 93.2867 173.418 93.08 173.418 92.8C173.418 92.52 173.411 92.3133 173.398 92.18C173.358 91.5533 173.204 91.0667 172.938 90.72C172.684 90.36 172.258 90.18 171.658 90.18C171.098 90.18 170.671 90.3533 170.378 90.7C170.098 91.0333 169.944 91.46 169.918 91.98C169.904 92.1533 169.898 92.4 169.898 92.72C169.898 93.04 169.904 93.2933 169.918 93.48C169.944 94.04 170.098 94.5067 170.378 94.88C170.658 95.24 171.084 95.42 171.658 95.42ZM180.504 101.8C180.384 101.8 180.284 101.76 180.204 101.68C180.124 101.6 180.084 101.5 180.084 101.38C180.084 101.287 180.098 101.2 180.124 101.12L181.704 97.36L177.864 88.28C177.824 88.1733 177.804 88.1 177.804 88.06C177.831 87.9267 177.884 87.82 177.964 87.74C178.058 87.6467 178.164 87.6 178.284 87.6H180.664C180.944 87.6 181.138 87.74 181.244 88.02L183.464 93.7L185.744 88.02C185.878 87.74 186.078 87.6 186.344 87.6H188.704C188.824 87.6 188.924 87.6467 189.004 87.74C189.098 87.82 189.144 87.9133 189.144 88.02C189.144 88.1133 189.131 88.2 189.104 88.28L183.444 101.38C183.311 101.66 183.104 101.8 182.824 101.8H180.504ZM200.267 98.2C198.374 98.2 196.881 97.74 195.787 96.82C194.694 95.9 194.114 94.5467 194.047 92.76C194.034 92.3867 194.027 91.8133 194.027 91.04C194.027 90.2667 194.034 89.6867 194.047 89.3C194.101 87.54 194.681 86.1867 195.787 85.24C196.907 84.28 198.401 83.8 200.267 83.8C202.121 83.8 203.601 84.28 204.707 85.24C205.827 86.1867 206.414 87.54 206.467 89.3C206.494 90.0733 206.507 90.6533 206.507 91.04C206.507 91.44 206.494 92.0133 206.467 92.76C206.401 94.5467 205.821 95.9 204.727 96.82C203.647 97.74 202.161 98.2 200.267 98.2ZM200.267 95.2C200.961 95.2 201.514 94.9933 201.927 94.58C202.341 94.1533 202.561 93.5067 202.587 92.64C202.614 91.8667 202.627 91.3133 202.627 90.98C202.627 90.6467 202.614 90.1067 202.587 89.36C202.561 88.4933 202.341 87.8533 201.927 87.44C201.514 87.0133 200.961 86.8 200.267 86.8C199.561 86.8 199.001 87.0133 198.587 87.44C198.174 87.8533 197.954 88.4933 197.927 89.36C197.914 89.7333 197.907 90.2733 197.907 90.98C197.907 91.7 197.914 92.2533 197.927 92.64C197.954 93.5067 198.174 94.1533 198.587 94.58C199.001 94.9933 199.561 95.2 200.267 95.2ZM209.064 98C208.918 98 208.791 97.9533 208.684 97.86C208.591 97.7667 208.544 97.6467 208.544 97.5V84.3C208.544 84.1533 208.591 84.0333 208.684 83.94C208.791 83.8467 208.918 83.8 209.064 83.8H211.564C211.711 83.8 211.831 83.8467 211.924 83.94C212.018 84.0333 212.064 84.1533 212.064 84.3V97.5C212.064 97.6333 212.018 97.7533 211.924 97.86C211.831 97.9533 211.711 98 211.564 98H209.064ZM214.845 86.16C214.698 86.16 214.578 86.1133 214.485 86.02C214.392 85.9133 214.345 85.7867 214.345 85.64V83.78C214.345 83.6333 214.392 83.5133 214.485 83.42C214.592 83.3133 214.712 83.26 214.845 83.26H217.345C217.492 83.26 217.612 83.3133 217.705 83.42C217.812 83.5133 217.865 83.6333 217.865 83.78V85.64C217.865 85.7867 217.812 85.9133 217.705 86.02C217.612 86.1133 217.492 86.16 217.345 86.16H214.845ZM214.845 98C214.712 98 214.592 97.9533 214.485 97.86C214.392 97.7533 214.345 97.6333 214.345 97.5V88.1C214.345 87.9533 214.392 87.8333 214.485 87.74C214.592 87.6467 214.712 87.6 214.845 87.6H217.345C217.492 87.6 217.612 87.6467 217.705 87.74C217.812 87.8333 217.865 87.9533 217.865 88.1V97.5C217.865 97.6467 217.812 97.7667 217.705 97.86C217.612 97.9533 217.492 98 217.345 98H214.845ZM223.866 98C223.679 98 223.533 97.96 223.426 97.88C223.333 97.7867 223.253 97.66 223.186 97.5L219.386 88.22C219.373 88.18 219.366 88.1267 219.366 88.06C219.366 87.9267 219.406 87.82 219.486 87.74C219.579 87.6467 219.693 87.6 219.826 87.6H222.206C222.486 87.6 222.686 87.74 222.806 88.02L224.986 94L227.186 88.02C227.226 87.9133 227.293 87.82 227.386 87.74C227.479 87.6467 227.606 87.6 227.766 87.6H230.166C230.286 87.6 230.393 87.6467 230.486 87.74C230.579 87.82 230.626 87.9267 230.626 88.06L230.586 88.22L226.806 97.5C226.739 97.66 226.653 97.7867 226.546 97.88C226.439 97.96 226.293 98 226.106 98H223.866ZM236.608 98.2C234.981 98.2 233.701 97.7667 232.768 96.9C231.835 96.02 231.355 94.7467 231.328 93.08V92.46C231.381 90.8733 231.875 89.6333 232.808 88.74C233.741 87.8467 235.001 87.4 236.588 87.4C237.735 87.4 238.701 87.6333 239.488 88.1C240.288 88.5533 240.881 89.1867 241.268 90C241.668 90.8 241.868 91.7133 241.868 92.74V93.24C241.868 93.3867 241.815 93.5133 241.708 93.62C241.615 93.7133 241.495 93.76 241.348 93.76H235.008V93.88C235.021 94.48 235.161 94.9667 235.428 95.34C235.695 95.7 236.075 95.88 236.568 95.88C236.888 95.88 237.141 95.82 237.328 95.7C237.528 95.5667 237.715 95.4 237.888 95.2C238.008 95.0667 238.101 94.9867 238.168 94.96C238.248 94.92 238.368 94.9 238.528 94.9H241.148C241.268 94.9 241.368 94.94 241.448 95.02C241.541 95.0867 241.588 95.1733 241.588 95.28C241.588 95.6267 241.388 96.0333 240.988 96.5C240.601 96.9667 240.028 97.3667 239.268 97.7C238.521 98.0333 237.635 98.2 236.608 98.2ZM238.188 91.72V91.68C238.188 91.04 238.048 90.5467 237.768 90.2C237.488 89.84 237.095 89.66 236.588 89.66C236.081 89.66 235.688 89.84 235.408 90.2C235.141 90.5467 235.008 91.04 235.008 91.68V91.72H238.188ZM244.161 98C244.028 98 243.908 97.9533 243.801 97.86C243.708 97.7533 243.661 97.6333 243.661 97.5V88.12C243.661 87.9733 243.708 87.8533 243.801 87.76C243.895 87.6533 244.015 87.6 244.161 87.6H246.601C246.748 87.6 246.868 87.6533 246.961 87.76C247.068 87.8533 247.121 87.9733 247.121 88.12V88.88C247.495 88.4667 247.928 88.1533 248.421 87.94C248.928 87.7133 249.488 87.6 250.101 87.6H251.001C251.148 87.6 251.268 87.6467 251.361 87.74C251.455 87.8333 251.501 87.9533 251.501 88.1V90.28C251.501 90.4133 251.455 90.5333 251.361 90.64C251.268 90.7333 251.148 90.78 251.001 90.78H248.981C248.448 90.78 248.035 90.9267 247.741 91.22C247.461 91.5133 247.321 91.9267 247.321 92.46V97.5C247.321 97.6467 247.268 97.7667 247.161 97.86C247.068 97.9533 246.948 98 246.801 98H244.161ZM262.228 98.2C260.935 98.2 259.835 98.0133 258.928 97.64C258.022 97.2667 257.335 96.7733 256.868 96.16C256.402 95.5467 256.155 94.88 256.128 94.16C256.128 94.04 256.168 93.94 256.248 93.86C256.342 93.78 256.448 93.74 256.568 93.74H259.228C259.388 93.74 259.515 93.7667 259.608 93.82C259.715 93.8733 259.828 93.9667 259.948 94.1C260.122 94.42 260.388 94.6867 260.748 94.9C261.122 95.1 261.615 95.2 262.228 95.2C262.948 95.2 263.502 95.0933 263.888 94.88C264.275 94.6533 264.468 94.3467 264.468 93.96C264.468 93.68 264.368 93.4533 264.168 93.28C263.968 93.0933 263.648 92.9333 263.208 92.8C262.768 92.6533 262.135 92.4933 261.308 92.32C259.695 92 258.488 91.5133 257.688 90.86C256.888 90.2067 256.488 89.2733 256.488 88.06C256.488 87.2333 256.715 86.5 257.168 85.86C257.635 85.2067 258.288 84.7 259.128 84.34C259.982 83.98 260.968 83.8 262.088 83.8C263.262 83.8 264.275 84.0067 265.128 84.42C265.995 84.82 266.655 85.3267 267.108 85.94C267.575 86.54 267.822 87.1333 267.848 87.72C267.848 87.84 267.808 87.9467 267.728 88.04C267.648 88.12 267.548 88.16 267.428 88.16H264.628C264.335 88.16 264.108 88.04 263.948 87.8C263.868 87.52 263.662 87.2867 263.328 87.1C262.995 86.9 262.582 86.8 262.088 86.8C261.528 86.8 261.095 86.9 260.788 87.1C260.482 87.3 260.328 87.5933 260.328 87.98C260.328 88.3667 260.528 88.6733 260.928 88.9C261.328 89.1133 262.075 89.3333 263.168 89.56C264.422 89.7867 265.415 90.0733 266.148 90.42C266.895 90.7533 267.442 91.1933 267.788 91.74C268.148 92.2733 268.328 92.9533 268.328 93.78C268.328 94.6867 268.068 95.4733 267.548 96.14C267.028 96.8067 266.308 97.32 265.388 97.68C264.468 98.0267 263.415 98.2 262.228 98.2ZM275.489 98C272.662 98 271.249 96.6733 271.249 94.02V90.32H269.669C269.535 90.32 269.415 90.2733 269.309 90.18C269.215 90.0733 269.169 89.9533 269.169 89.82V88.1C269.169 87.9533 269.215 87.8333 269.309 87.74C269.415 87.6467 269.535 87.6 269.669 87.6H271.249V84.3C271.249 84.1533 271.295 84.0333 271.389 83.94C271.495 83.8467 271.615 83.8 271.749 83.8H274.209C274.355 83.8 274.475 83.8467 274.569 83.94C274.662 84.0333 274.709 84.1533 274.709 84.3V87.6H277.209C277.355 87.6 277.475 87.6467 277.569 87.74C277.675 87.8333 277.729 87.9533 277.729 88.1V89.82C277.729 89.9667 277.675 90.0867 277.569 90.18C277.475 90.2733 277.355 90.32 277.209 90.32H274.709V93.72C274.709 94.1867 274.795 94.54 274.969 94.78C275.142 95.02 275.422 95.14 275.809 95.14H277.389C277.535 95.14 277.655 95.1933 277.749 95.3C277.842 95.3933 277.889 95.5133 277.889 95.66V97.5C277.889 97.6333 277.842 97.7533 277.749 97.86C277.655 97.9533 277.535 98 277.389 98H275.489ZM284.501 98.2C282.821 98.2 281.528 97.8133 280.621 97.04C279.728 96.2533 279.241 95.14 279.161 93.7C279.148 93.5267 279.141 93.2267 279.141 92.8C279.141 92.3733 279.148 92.0733 279.161 91.9C279.241 90.4867 279.741 89.3867 280.661 88.6C281.595 87.8 282.875 87.4 284.501 87.4C286.128 87.4 287.401 87.8 288.321 88.6C289.255 89.3867 289.761 90.4867 289.841 91.9C289.868 92.2467 289.881 92.5467 289.881 92.8C289.881 93.0533 289.868 93.3533 289.841 93.7C289.761 95.14 289.268 96.2533 288.361 97.04C287.468 97.8133 286.181 98.2 284.501 98.2ZM284.501 95.68C285.048 95.68 285.455 95.5133 285.721 95.18C285.988 94.8333 286.141 94.3067 286.181 93.6C286.195 93.4667 286.201 93.2 286.201 92.8C286.201 92.4 286.195 92.1333 286.181 92C286.141 91.3067 285.988 90.7867 285.721 90.44C285.455 90.0933 285.048 89.92 284.501 89.92C283.955 89.92 283.548 90.0933 283.281 90.44C283.015 90.7867 282.861 91.3067 282.821 92L282.801 92.8L282.821 93.6C282.861 94.3067 283.015 94.8333 283.281 95.18C283.548 95.5133 283.955 95.68 284.501 95.68ZM292.286 98C292.153 98 292.033 97.9533 291.926 97.86C291.833 97.7533 291.786 97.6333 291.786 97.5V88.1C291.786 87.9533 291.833 87.8333 291.926 87.74C292.033 87.6467 292.153 87.6 292.286 87.6H294.746C294.893 87.6 295.013 87.6467 295.106 87.74C295.2 87.8333 295.246 87.9533 295.246 88.1V88.86C295.606 88.42 296.066 88.0667 296.626 87.8C297.2 87.5333 297.853 87.4 298.586 87.4C299.346 87.4 300.02 87.5733 300.606 87.92C301.206 88.2667 301.673 88.78 302.006 89.46C302.353 90.14 302.526 90.96 302.526 91.92V97.5C302.526 97.6333 302.48 97.7533 302.386 97.86C302.293 97.9533 302.173 98 302.026 98H299.366C299.22 98 299.093 97.9533 298.986 97.86C298.893 97.7667 298.846 97.6467 298.846 97.5V92.04C298.846 91.44 298.7 90.98 298.406 90.66C298.126 90.34 297.713 90.18 297.166 90.18C296.633 90.18 296.213 90.3467 295.906 90.68C295.6 91 295.446 91.4533 295.446 92.04V97.5C295.446 97.6333 295.4 97.7533 295.306 97.86C295.213 97.9533 295.093 98 294.946 98H292.286ZM309.596 98.2C307.97 98.2 306.69 97.7667 305.756 96.9C304.823 96.02 304.343 94.7467 304.316 93.08V92.46C304.37 90.8733 304.863 89.6333 305.796 88.74C306.73 87.8467 307.99 87.4 309.576 87.4C310.723 87.4 311.69 87.6333 312.476 88.1C313.276 88.5533 313.87 89.1867 314.256 90C314.656 90.8 314.856 91.7133 314.856 92.74V93.24C314.856 93.3867 314.803 93.5133 314.696 93.62C314.603 93.7133 314.483 93.76 314.336 93.76H307.996V93.88C308.01 94.48 308.15 94.9667 308.416 95.34C308.683 95.7 309.063 95.88 309.556 95.88C309.876 95.88 310.13 95.82 310.316 95.7C310.516 95.5667 310.703 95.4 310.876 95.2C310.996 95.0667 311.09 94.9867 311.156 94.96C311.236 94.92 311.356 94.9 311.516 94.9H314.136C314.256 94.9 314.356 94.94 314.436 95.02C314.53 95.0867 314.576 95.1733 314.576 95.28C314.576 95.6267 314.376 96.0333 313.976 96.5C313.59 96.9667 313.016 97.3667 312.256 97.7C311.51 98.0333 310.623 98.2 309.596 98.2ZM311.176 91.72V91.68C311.176 91.04 311.036 90.5467 310.756 90.2C310.476 89.84 310.083 89.66 309.576 89.66C309.07 89.66 308.676 89.84 308.396 90.2C308.13 90.5467 307.996 91.04 307.996 91.68V91.72H311.176Z" fill="#303030"/>
<path d="M59.1038 71C58.7411 71 58.4424 70.904 58.2078 70.712C57.9944 70.4987 57.8664 70.2427 57.8238 69.944L54.3997 49.464C54.3784 49.4213 54.3678 49.3573 54.3678 49.272C54.3678 49.1013 54.4318 48.952 54.5598 48.824C54.7091 48.6747 54.8691 48.6 55.0398 48.6H59.2318C59.8504 48.6 60.1918 48.8453 60.2558 49.336L62.2078 61.432L64.4158 54.424C64.5864 53.848 64.9384 53.56 65.4718 53.56H67.8718C68.4051 53.56 68.7571 53.848 68.9278 54.424L71.1358 61.4L73.1198 49.336C73.1624 49.08 73.2584 48.8987 73.4078 48.792C73.5571 48.664 73.7918 48.6 74.1118 48.6H78.3038C78.4958 48.6 78.6558 48.6747 78.7838 48.824C78.9118 48.952 78.9758 49.1013 78.9758 49.272V49.464L75.5518 69.944C75.5091 70.2427 75.3704 70.4987 75.1358 70.712C74.9011 70.904 74.6131 71 74.2718 71H71.0398C70.6984 71 70.4317 70.9147 70.2397 70.744C70.0478 70.5733 69.9198 70.3813 69.8558 70.168L66.6878 61.304L63.5198 70.168C63.4344 70.3813 63.2958 70.5733 63.1038 70.744C62.9118 70.9147 62.6451 71 62.3038 71H59.1038ZM86.223 71.32C85.0923 71.32 84.0577 71.1067 83.119 70.68C82.2017 70.232 81.4763 69.624 80.943 68.856C80.431 68.088 80.175 67.2453 80.175 66.328C80.175 64.8773 80.7723 63.704 81.967 62.808C83.183 61.8907 84.847 61.2613 86.959 60.92L90.927 60.312V59.928C90.927 59.1387 90.767 58.5627 90.447 58.2C90.127 57.8373 89.583 57.656 88.815 57.656C88.3883 57.656 88.0257 57.7307 87.727 57.88C87.4497 58.0293 87.1297 58.2533 86.767 58.552C86.4897 58.7867 86.2443 58.9573 86.031 59.064C85.9457 59.2133 85.839 59.288 85.711 59.288H81.999C81.7857 59.288 81.6043 59.224 81.455 59.096C81.327 58.9467 81.2737 58.776 81.295 58.584C81.3163 58.008 81.6043 57.368 82.159 56.664C82.7137 55.9387 83.5563 55.32 84.687 54.808C85.8177 54.296 87.215 54.04 88.879 54.04C91.5243 54.04 93.487 54.6267 94.767 55.8C96.047 56.952 96.687 58.52 96.687 60.504V70.2C96.687 70.4133 96.6123 70.6053 96.463 70.776C96.3137 70.9253 96.1217 71 95.887 71H91.951C91.7377 71 91.5457 70.9253 91.375 70.776C91.2257 70.6053 91.151 70.4133 91.151 70.2V69.08C90.6817 69.7413 90.031 70.2853 89.199 70.712C88.367 71.1173 87.375 71.32 86.223 71.32ZM87.823 67.544C88.7617 67.544 89.519 67.2347 90.095 66.616C90.6923 65.9973 90.991 65.1013 90.991 63.928V63.544L88.335 63.992C86.543 64.3333 85.647 64.9733 85.647 65.912C85.647 66.4027 85.8497 66.7973 86.255 67.096C86.6817 67.3947 87.2043 67.544 87.823 67.544ZM101 71C100.765 71 100.562 70.9253 100.392 70.776C100.242 70.6267 100.168 70.4347 100.168 70.2V49.08C100.168 48.8453 100.242 48.6533 100.392 48.504C100.562 48.3547 100.765 48.28 101 48.28H105C105.234 48.28 105.426 48.3547 105.576 48.504C105.725 48.6533 105.8 48.8453 105.8 49.08V70.2C105.8 70.4133 105.725 70.6053 105.576 70.776C105.426 70.9253 105.234 71 105 71H101ZM110.281 71C110.046 71 109.844 70.9253 109.673 70.776C109.524 70.6267 109.449 70.4347 109.449 70.2V49.08C109.449 48.8453 109.524 48.6533 109.673 48.504C109.844 48.3547 110.046 48.28 110.281 48.28H114.281C114.516 48.28 114.708 48.3547 114.857 48.504C115.006 48.6533 115.081 48.8453 115.081 49.08V70.2C115.081 70.4133 115.006 70.6053 114.857 70.776C114.708 70.9253 114.516 71 114.281 71H110.281ZM134.281 71.32C132.212 71.32 130.452 71.0213 129.001 70.424C127.55 69.8267 126.452 69.0373 125.705 68.056C124.958 67.0747 124.564 66.008 124.521 64.856C124.521 64.664 124.585 64.504 124.713 64.376C124.862 64.248 125.033 64.184 125.225 64.184H129.481C129.737 64.184 129.94 64.2267 130.089 64.312C130.26 64.3973 130.441 64.5467 130.633 64.76C130.91 65.272 131.337 65.6987 131.913 66.04C132.51 66.36 133.3 66.52 134.281 66.52C135.433 66.52 136.318 66.3493 136.937 66.008C137.556 65.6453 137.865 65.1547 137.865 64.536C137.865 64.088 137.705 63.7253 137.385 63.448C137.065 63.1493 136.553 62.8933 135.849 62.68C135.145 62.4453 134.132 62.1893 132.809 61.912C130.228 61.4 128.297 60.6213 127.017 59.576C125.737 58.5307 125.097 57.0373 125.097 55.096C125.097 53.7733 125.46 52.6 126.185 51.576C126.932 50.5307 127.977 49.72 129.321 49.144C130.686 48.568 132.265 48.28 134.057 48.28C135.934 48.28 137.556 48.6107 138.921 49.272C140.308 49.912 141.364 50.7227 142.089 51.704C142.836 52.664 143.23 53.6133 143.273 54.552C143.273 54.744 143.209 54.9147 143.081 55.064C142.953 55.192 142.793 55.256 142.601 55.256H138.121C137.652 55.256 137.289 55.064 137.033 54.68C136.905 54.232 136.574 53.8587 136.041 53.56C135.508 53.24 134.846 53.08 134.057 53.08C133.161 53.08 132.468 53.24 131.977 53.56C131.486 53.88 131.241 54.3493 131.241 54.968C131.241 55.5867 131.561 56.0773 132.201 56.44C132.841 56.7813 134.036 57.1333 135.785 57.496C137.79 57.8587 139.38 58.3173 140.553 58.872C141.748 59.4053 142.622 60.1093 143.177 60.984C143.753 61.8373 144.041 62.9253 144.041 64.248C144.041 65.6987 143.625 66.9573 142.793 68.024C141.961 69.0907 140.809 69.912 139.337 70.488C137.865 71.0427 136.18 71.32 134.281 71.32ZM155.498 71C150.975 71 148.714 68.8773 148.714 64.632V58.712H146.186C145.972 58.712 145.78 58.6373 145.61 58.488C145.46 58.3173 145.386 58.1253 145.386 57.912V55.16C145.386 54.9253 145.46 54.7333 145.61 54.584C145.78 54.4347 145.972 54.36 146.186 54.36H148.714V49.08C148.714 48.8453 148.788 48.6533 148.938 48.504C149.108 48.3547 149.3 48.28 149.514 48.28H153.45C153.684 48.28 153.876 48.3547 154.026 48.504C154.175 48.6533 154.25 48.8453 154.25 49.08V54.36H158.25C158.484 54.36 158.676 54.4347 158.826 54.584C158.996 54.7333 159.082 54.9253 159.082 55.16V57.912C159.082 58.1467 158.996 58.3387 158.826 58.488C158.676 58.6373 158.484 58.712 158.25 58.712H154.25V64.152C154.25 64.8987 154.388 65.464 154.666 65.848C154.943 66.232 155.391 66.424 156.01 66.424H158.538C158.772 66.424 158.964 66.5093 159.114 66.68C159.263 66.8293 159.338 67.0213 159.338 67.256V70.2C159.338 70.4133 159.263 70.6053 159.114 70.776C158.964 70.9253 158.772 71 158.538 71H155.498ZM162.718 71C162.504 71 162.312 70.9253 162.142 70.776C161.992 70.6053 161.918 70.4133 161.918 70.2V55.192C161.918 54.9573 161.992 54.7653 162.142 54.616C162.291 54.4453 162.483 54.36 162.718 54.36H166.622C166.856 54.36 167.048 54.4453 167.198 54.616C167.368 54.7653 167.454 54.9573 167.454 55.192V56.408C168.051 55.7467 168.744 55.2453 169.534 54.904C170.344 54.5413 171.24 54.36 172.222 54.36H173.662C173.896 54.36 174.088 54.4347 174.238 54.584C174.387 54.7333 174.462 54.9253 174.462 55.16V58.648C174.462 58.8613 174.387 59.0533 174.238 59.224C174.088 59.3733 173.896 59.448 173.662 59.448H170.43C169.576 59.448 168.915 59.6827 168.446 60.152C167.998 60.6213 167.774 61.2827 167.774 62.136V70.2C167.774 70.4347 167.688 70.6267 167.518 70.776C167.368 70.9253 167.176 71 166.942 71H162.718ZM184.351 71.32C181.748 71.32 179.7 70.6267 178.207 69.24C176.713 67.832 175.945 65.7947 175.903 63.128V62.136C175.988 59.5973 176.777 57.6133 178.271 56.184C179.764 54.7547 181.78 54.04 184.319 54.04C186.153 54.04 187.7 54.4133 188.959 55.16C190.239 55.8853 191.188 56.8987 191.807 58.2C192.447 59.48 192.767 60.9413 192.767 62.584V63.384C192.767 63.6187 192.681 63.8213 192.511 63.992C192.361 64.1413 192.169 64.216 191.935 64.216H181.791V64.408C181.812 65.368 182.036 66.1467 182.463 66.744C182.889 67.32 183.497 67.608 184.287 67.608C184.799 67.608 185.204 67.512 185.503 67.32C185.823 67.1067 186.121 66.84 186.399 66.52C186.591 66.3067 186.74 66.1787 186.847 66.136C186.975 66.072 187.167 66.04 187.423 66.04H191.615C191.807 66.04 191.967 66.104 192.095 66.232C192.244 66.3387 192.319 66.4773 192.319 66.648C192.319 67.2027 191.999 67.8533 191.359 68.6C190.74 69.3467 189.823 69.9867 188.607 70.52C187.412 71.0533 185.993 71.32 184.351 71.32ZM186.879 60.952V60.888C186.879 59.864 186.655 59.0747 186.207 58.52C185.759 57.944 185.129 57.656 184.319 57.656C183.508 57.656 182.879 57.944 182.431 58.52C182.004 59.0747 181.791 59.864 181.791 60.888V60.952H186.879ZM203.445 71.32C200.842 71.32 198.794 70.6267 197.301 69.24C195.807 67.832 195.039 65.7947 194.997 63.128V62.136C195.082 59.5973 195.871 57.6133 197.365 56.184C198.858 54.7547 200.874 54.04 203.413 54.04C205.247 54.04 206.794 54.4133 208.053 55.16C209.333 55.8853 210.282 56.8987 210.901 58.2C211.541 59.48 211.861 60.9413 211.861 62.584V63.384C211.861 63.6187 211.775 63.8213 211.605 63.992C211.455 64.1413 211.263 64.216 211.029 64.216H200.885V64.408C200.906 65.368 201.13 66.1467 201.557 66.744C201.983 67.32 202.591 67.608 203.381 67.608C203.893 67.608 204.298 67.512 204.597 67.32C204.917 67.1067 205.215 66.84 205.493 66.52C205.685 66.3067 205.834 66.1787 205.941 66.136C206.069 66.072 206.261 66.04 206.517 66.04H210.708C210.9 66.04 211.061 66.104 211.189 66.232C211.338 66.3387 211.413 66.4773 211.413 66.648C211.413 67.2027 211.093 67.8533 210.453 68.6C209.834 69.3467 208.917 69.9867 207.701 70.52C206.506 71.0533 205.087 71.32 203.445 71.32ZM205.973 60.952V60.888C205.973 59.864 205.749 59.0747 205.301 58.52C204.853 57.944 204.223 57.656 203.413 57.656C202.602 57.656 201.973 57.944 201.525 58.52C201.098 59.0747 200.885 59.864 200.885 60.888V60.952H205.973ZM223.435 71C218.912 71 216.651 68.8773 216.651 64.632V58.712H214.123C213.91 58.712 213.718 58.6373 213.547 58.488C213.398 58.3173 213.323 58.1253 213.323 57.912V55.16C213.323 54.9253 213.398 54.7333 213.547 54.584C213.718 54.4347 213.91 54.36 214.123 54.36H216.651V49.08C216.651 48.8453 216.726 48.6533 216.875 48.504C217.046 48.3547 217.238 48.28 217.451 48.28H221.387C221.622 48.28 221.814 48.3547 221.963 48.504C222.112 48.6533 222.187 48.8453 222.187 49.08V54.36H226.187C226.422 54.36 226.614 54.4347 226.763 54.584C226.934 54.7333 227.019 54.9253 227.019 55.16V57.912C227.019 58.1467 226.934 58.3387 226.763 58.488C226.614 58.6373 226.422 58.712 226.187 58.712H222.187V64.152C222.187 64.8987 222.326 65.464 222.603 65.848C222.88 66.232 223.328 66.424 223.947 66.424H226.475C226.71 66.424 226.902 66.5093 227.051 66.68C227.2 66.8293 227.275 67.0213 227.275 67.256V70.2C227.275 70.4133 227.2 70.6053 227.051 70.776C226.902 70.9253 226.71 71 226.475 71H223.435ZM245.63 76.088C239.251 76.088 236.062 71.096 236.062 61.112C236.062 51.1493 239.251 46.168 245.63 46.168C245.865 46.168 246.057 46.2427 246.206 46.392C246.355 46.5413 246.43 46.7333 246.43 46.968V49.848C246.43 50.0613 246.355 50.2427 246.206 50.392C246.057 50.5413 245.875 50.6267 245.662 50.648C243.998 50.7547 242.835 51.672 242.174 53.4C241.513 55.1067 241.182 57.6773 241.182 61.112C241.182 64.5467 241.513 67.128 242.174 68.856C242.835 70.584 243.998 71.5013 245.662 71.608C245.875 71.6293 246.057 71.7147 246.206 71.864C246.355 72.0133 246.43 72.1947 246.43 72.408V75.288C246.43 75.5227 246.355 75.7147 246.206 75.864C246.057 76.0133 245.865 76.088 245.63 76.088ZM254.989 71C254.776 71 254.584 70.9253 254.413 70.776C254.264 70.6053 254.189 70.4133 254.189 70.2V55.224L249.901 58.52C249.73 58.6267 249.57 58.68 249.421 58.68C249.165 58.68 248.941 58.552 248.749 58.296L246.765 55.736C246.68 55.5867 246.637 55.4267 246.637 55.256C246.637 54.9573 246.754 54.7227 246.989 54.552L254.413 48.824C254.626 48.6747 254.872 48.6 255.149 48.6H259.373C259.608 48.6 259.8 48.6747 259.949 48.824C260.12 48.9733 260.205 49.1653 260.205 49.4V70.2C260.205 70.4347 260.12 70.6267 259.949 70.776C259.8 70.9253 259.608 71 259.373 71H254.989ZM267.754 71C267.562 71 267.402 70.936 267.274 70.808C267.146 70.6587 267.082 70.488 267.082 70.296C267.082 70.1467 267.125 70.008 267.21 69.88L271.69 63.768C271.413 63.832 271.125 63.8533 270.826 63.832C269.525 63.7467 268.287 63.3947 267.114 62.776C265.941 62.136 264.981 61.2613 264.234 60.152C263.509 59.0213 263.146 57.7413 263.146 56.312C263.146 54.904 263.498 53.592 264.202 52.376C264.927 51.1387 265.983 50.1467 267.37 49.4C268.778 48.6533 270.463 48.28 272.426 48.28C274.41 48.28 276.117 48.6213 277.546 49.304C278.975 49.9867 280.053 50.9253 280.778 52.12C281.525 53.2933 281.898 54.616 281.898 56.088C281.898 57.2613 281.653 58.3387 281.162 59.32C280.693 60.28 279.978 61.4107 279.018 62.712L278.442 63.512L273.418 70.36C273.119 70.7867 272.735 71 272.266 71H267.754ZM272.49 59.48C273.429 59.48 274.197 59.192 274.794 58.616C275.413 58.04 275.722 57.2613 275.722 56.28C275.722 55.2987 275.413 54.52 274.794 53.944C274.175 53.368 273.407 53.08 272.49 53.08C271.551 53.08 270.773 53.368 270.154 53.944C269.557 54.52 269.258 55.2987 269.258 56.28C269.258 57.2613 269.557 58.04 270.154 58.616C270.751 59.192 271.53 59.48 272.49 59.48ZM293.818 71.32C291.748 71.32 289.999 71.0107 288.57 70.392C287.14 69.752 286.074 68.8987 285.37 67.832C284.687 66.7653 284.346 65.5707 284.346 64.248C284.346 63.1387 284.623 62.136 285.178 61.24C285.754 60.3227 286.5 59.6187 287.418 59.128C285.903 58.1467 285.146 56.6747 285.146 54.712C285.146 52.8133 285.871 51.2667 287.322 50.072C288.794 48.8773 290.959 48.28 293.818 48.28C296.655 48.28 298.788 48.8773 300.218 50.072C301.668 51.2453 302.394 52.7813 302.394 54.68C302.394 56.6213 301.668 58.104 300.218 59.128C301.156 59.576 301.903 60.2587 302.458 61.176C303.034 62.0933 303.322 63.128 303.322 64.28C303.322 65.6027 302.97 66.7973 302.266 67.864C301.562 68.9093 300.495 69.752 299.066 70.392C297.636 71.0107 295.887 71.32 293.818 71.32ZM293.818 57.464C294.714 57.4427 295.45 57.208 296.026 56.76C296.602 56.2907 296.89 55.704 296.89 55C296.89 54.2747 296.602 53.688 296.026 53.24C295.45 52.7707 294.714 52.536 293.818 52.536C292.9 52.536 292.154 52.7707 291.578 53.24C291.023 53.688 290.746 54.2747 290.746 55C290.746 55.7253 291.023 56.3227 291.578 56.792C292.154 57.24 292.9 57.464 293.818 57.464ZM293.818 67.096C294.82 67.096 295.642 66.84 296.282 66.328C296.943 65.816 297.274 65.1333 297.274 64.28C297.274 63.4267 296.943 62.744 296.282 62.232C295.642 61.72 294.82 61.464 293.818 61.464C292.815 61.464 291.983 61.72 291.322 62.232C290.66 62.744 290.33 63.4267 290.33 64.28C290.33 65.1333 290.66 65.816 291.322 66.328C291.983 66.84 292.815 67.096 293.818 67.096ZM309.199 71C309.007 71 308.847 70.936 308.719 70.808C308.591 70.6587 308.527 70.488 308.527 70.296C308.527 70.1893 308.548 70.0933 308.591 70.008L315.951 53.624H306.447C306.212 53.624 306.009 53.5493 305.839 53.4C305.689 53.2293 305.615 53.0267 305.615 52.792V49.432C305.615 49.1973 305.689 49.0053 305.839 48.856C306.009 48.6853 306.212 48.6 306.447 48.6H321.583C321.817 48.6 322.009 48.6853 322.159 48.856C322.329 49.0053 322.415 49.1973 322.415 49.432V52.408C322.415 52.792 322.361 53.1227 322.255 53.4C322.148 53.6773 322.084 53.8373 322.063 53.88L314.703 70.232C314.468 70.744 314.084 71 313.551 71H309.199ZM324.786 76.088C324.573 76.088 324.381 76.0133 324.21 75.864C324.061 75.7147 323.986 75.5227 323.986 75.288V72.408C323.986 72.1947 324.061 72.0133 324.21 71.864C324.359 71.7147 324.541 71.6293 324.754 71.608C326.439 71.5013 327.602 70.5947 328.242 68.888C328.903 67.16 329.234 64.568 329.234 61.112C329.234 57.6773 328.903 55.1067 328.242 53.4C327.602 51.672 326.439 50.7547 324.754 50.648C324.541 50.6267 324.359 50.5413 324.21 50.392C324.061 50.2427 323.986 50.0613 323.986 49.848V46.968C323.986 46.7333 324.061 46.5413 324.21 46.392C324.381 46.2427 324.573 46.168 324.786 46.168C331.186 46.168 334.386 51.1493 334.386 61.112C334.386 71.096 331.186 76.088 324.786 76.088Z" fill="#940000"/>
<g filter="url(#filter1_d_1235_395)">
<rect x="25" y="21" width="340" height="10" fill="#940000"/>
</g>
<defs>
<filter id="filter0_d_1235_395" x="0" y="0" width="390" height="143" filterUnits="userSpaceOnUse" color-interpolation-filters="sRGB">
<feFlood flood-opacity="0" result="BackgroundImageFix"/>
<feColorMatrix in="SourceAlpha" type="matrix" values="0 0 0 0 0 0 0 0 0 0 0 0 0 0 0 0 0 0 127 0" result="hardAlpha"/>
<feMorphology radius="15" operator="dilate" in="SourceAlpha" result="effect1_dropShadow_1235_395"/>
<feOffset dy="4"/>
<feGaussianBlur stdDeviation="5"/>
<feComposite in2="hardAlpha" operator="out"/>
<feColorMatrix type="matrix" values="0 0 0 0 0 0 0 0 0 0 0 0 0 0 0 0 0 0 0.25 0"/>
<feBlend mode="normal" in2="BackgroundImageFix" result="effect1_dropShadow_1235_395"/>
<feBlend mode="normal" in="SourceGraphic" in2="effect1_dropShadow_1235_395" result="shape"/>
</filter>
<filter id="filter1_d_1235_395" x="21" y="21" width="348" height="18" filterUnits="userSpaceOnUse" color-interpolation-filters="sRGB">
<feFlood flood-opacity="0" result="BackgroundImageFix"/>
<feColorMatrix in="SourceAlpha" type="matrix" values="0 0 0 0 0 0 0 0 0 0 0 0 0 0 0 0 0 0 127 0" result="hardAlpha"/>
<feOffset dy="4"/>
<feGaussianBlur stdDeviation="2"/>
<feComposite in2="hardAlpha" operator="out"/>
<feColorMatrix type="matrix" values="0 0 0 0 0 0 0 0 0 0 0 0 0 0 0 0 0 0 0.25 0"/>
<feBlend mode="normal" in2="BackgroundImageFix" result="effect1_dropShadow_1235_395"/>
<feBlend mode="normal" in="SourceGraphic" in2="effect1_dropShadow_1235_395" result="shape"/>
</filter>
</defs>
</svg>
