<svg width="390" height="184" viewBox="0 0 390 184" fill="none" xmlns="http://www.w3.org/2000/svg">
<g filter="url(#filter0_d_1235_385)">
<rect x="25" y="21" width="340" height="134" fill="white"/>
</g>
<path d="M60.1948 73C59.9814 73 59.7894 72.9253 59.6188 72.776C59.4694 72.6053 59.3948 72.4133 59.3948 72.2V51.432C59.3948 51.1973 59.4694 51.0053 59.6188 50.856C59.7681 50.6853 59.9601 50.6 60.1948 50.6H75.2987C75.5334 50.6 75.7254 50.6853 75.8748 50.856C76.0454 51.0053 76.1308 51.1973 76.1308 51.432V54.6C76.1308 54.8347 76.0454 55.0267 75.8748 55.176C75.7254 55.3253 75.5334 55.4 75.2987 55.4H65.1868V59.464H74.5948C74.8294 59.464 75.0214 59.5493 75.1708 59.72C75.3414 59.8693 75.4268 60.0613 75.4268 60.296V63.208C75.4268 63.4427 75.3414 63.6453 75.1708 63.816C75.0214 63.9653 74.8294 64.04 74.5948 64.04H65.1868V68.2H75.5548C75.7894 68.2 75.9814 68.2853 76.1308 68.456C76.3014 68.6053 76.3868 68.7973 76.3868 69.032V72.2C76.3868 72.4347 76.3014 72.6267 76.1308 72.776C75.9814 72.9253 75.7894 73 75.5548 73H60.1948ZM85.3385 73C85.0398 73 84.8052 72.936 84.6345 72.808C84.4852 72.6587 84.3572 72.456 84.2505 72.2L78.1705 57.352C78.1492 57.288 78.1385 57.2027 78.1385 57.096C78.1385 56.8827 78.2025 56.712 78.3305 56.584C78.4798 56.4347 78.6612 56.36 78.8745 56.36H82.6825C83.1305 56.36 83.4505 56.584 83.6425 57.032L87.1305 66.6L90.6505 57.032C90.7145 56.8613 90.8212 56.712 90.9705 56.584C91.1198 56.4347 91.3225 56.36 91.5785 56.36H95.4185C95.6105 56.36 95.7812 56.4347 95.9305 56.584C96.0798 56.712 96.1545 56.8827 96.1545 57.096L96.0905 57.352L90.0425 72.2C89.9358 72.456 89.7972 72.6587 89.6265 72.808C89.4558 72.936 89.2212 73 88.9225 73H85.3385ZM105.726 73.32C103.123 73.32 101.075 72.6267 99.5818 71.24C98.0884 69.832 97.3204 67.7947 97.2778 65.128V64.136C97.3631 61.5973 98.1524 59.6133 99.6458 58.184C101.139 56.7547 103.155 56.04 105.694 56.04C107.528 56.04 109.075 56.4133 110.334 57.16C111.614 57.8853 112.563 58.8987 113.182 60.2C113.822 61.48 114.142 62.9413 114.142 64.584V65.384C114.142 65.6187 114.056 65.8213 113.886 65.992C113.736 66.1413 113.544 66.216 113.31 66.216H103.166V66.408C103.187 67.368 103.411 68.1467 103.838 68.744C104.264 69.32 104.872 69.608 105.662 69.608C106.174 69.608 106.579 69.512 106.878 69.32C107.198 69.1067 107.496 68.84 107.774 68.52C107.966 68.3067 108.115 68.1787 108.222 68.136C108.35 68.072 108.542 68.04 108.798 68.04H112.99C113.182 68.04 113.342 68.104 113.47 68.232C113.619 68.3387 113.694 68.4773 113.694 68.648C113.694 69.2027 113.374 69.8533 112.734 70.6C112.115 71.3467 111.198 71.9867 109.982 72.52C108.787 73.0533 107.368 73.32 105.726 73.32ZM108.254 62.952V62.888C108.254 61.864 108.03 61.0747 107.582 60.52C107.134 59.944 106.504 59.656 105.694 59.656C104.883 59.656 104.254 59.944 103.806 60.52C103.379 61.0747 103.166 61.864 103.166 62.888V62.952H108.254ZM117.812 73C117.598 73 117.406 72.9253 117.236 72.776C117.086 72.6053 117.012 72.4133 117.012 72.2V57.192C117.012 56.9573 117.086 56.7653 117.236 56.616C117.385 56.4453 117.577 56.36 117.812 56.36H121.716C121.95 56.36 122.142 56.4453 122.292 56.616C122.462 56.7653 122.548 56.9573 122.548 57.192V58.408C123.145 57.7467 123.838 57.2453 124.628 56.904C125.438 56.5413 126.334 56.36 127.316 56.36H128.756C128.99 56.36 129.182 56.4347 129.332 56.584C129.481 56.7333 129.556 56.9253 129.556 57.16V60.648C129.556 60.8613 129.481 61.0533 129.332 61.224C129.182 61.3733 128.99 61.448 128.756 61.448H125.524C124.67 61.448 124.009 61.6827 123.54 62.152C123.092 62.6213 122.868 63.2827 122.868 64.136V72.2C122.868 72.4347 122.782 72.6267 122.612 72.776C122.462 72.9253 122.27 73 122.036 73H117.812ZM134.898 79.08C134.706 79.08 134.546 79.016 134.418 78.888C134.29 78.76 134.226 78.6 134.226 78.408C134.226 78.2587 134.247 78.12 134.29 77.992L136.818 71.976L130.674 57.448C130.61 57.2773 130.578 57.16 130.578 57.096C130.62 56.8827 130.706 56.712 130.834 56.584C130.983 56.4347 131.154 56.36 131.346 56.36H135.154C135.602 56.36 135.911 56.584 136.082 57.032L139.634 66.12L143.282 57.032C143.495 56.584 143.815 56.36 144.242 56.36H148.017C148.209 56.36 148.37 56.4347 148.498 56.584C148.647 56.712 148.722 56.8613 148.722 57.032C148.722 57.1813 148.7 57.32 148.658 57.448L139.602 78.408C139.388 78.856 139.058 79.08 138.61 79.08H134.898ZM161.38 73.32C159.226 73.32 157.572 72.616 156.42 71.208V72.2C156.42 72.4133 156.346 72.6053 156.196 72.776C156.047 72.9253 155.855 73 155.62 73H151.812C151.578 73 151.375 72.9253 151.204 72.776C151.055 72.6267 150.98 72.4347 150.98 72.2V51.08C150.98 50.8453 151.055 50.6533 151.204 50.504C151.375 50.3547 151.578 50.28 151.812 50.28H155.94C156.175 50.28 156.367 50.3547 156.516 50.504C156.666 50.6533 156.74 50.8453 156.74 51.08V57.896C157.914 56.6587 159.46 56.04 161.38 56.04C163.428 56.04 165.05 56.712 166.244 58.056C167.439 59.3787 168.079 61.2027 168.164 63.528C168.186 63.8053 168.196 64.1893 168.196 64.68C168.196 65.1493 168.186 65.5227 168.164 65.8C168.079 68.2107 167.439 70.0667 166.244 71.368C165.071 72.6693 163.45 73.32 161.38 73.32ZM159.524 68.872C160.484 68.872 161.167 68.5947 161.572 68.04C161.999 67.464 162.244 66.6747 162.308 65.672C162.33 65.4587 162.34 65.128 162.34 64.68C162.34 64.232 162.33 63.9013 162.308 63.688C162.244 62.6853 161.999 61.9067 161.572 61.352C161.167 60.776 160.484 60.488 159.524 60.488C158.628 60.488 157.946 60.7653 157.476 61.32C157.028 61.8533 156.783 62.536 156.74 63.368C156.719 63.6453 156.708 64.04 156.708 64.552C156.708 65.064 156.719 65.4693 156.74 65.768C156.783 66.664 157.028 67.4107 157.476 68.008C157.924 68.584 158.607 68.872 159.524 68.872ZM179.262 73.32C176.574 73.32 174.504 72.7013 173.054 71.464C171.624 70.2053 170.846 68.424 170.718 66.12C170.696 65.8427 170.686 65.3627 170.686 64.68C170.686 63.9973 170.696 63.5173 170.718 63.24C170.846 60.9787 171.646 59.2187 173.118 57.96C174.611 56.68 176.659 56.04 179.262 56.04C181.864 56.04 183.902 56.68 185.374 57.96C186.867 59.2187 187.678 60.9787 187.806 63.24C187.848 63.7947 187.87 64.2747 187.87 64.68C187.87 65.0853 187.848 65.5653 187.806 66.12C187.678 68.424 186.888 70.2053 185.438 71.464C184.008 72.7013 181.95 73.32 179.262 73.32ZM179.262 69.288C180.136 69.288 180.787 69.0213 181.214 68.488C181.64 67.9333 181.886 67.0907 181.95 65.96C181.971 65.7467 181.982 65.32 181.982 64.68C181.982 64.04 181.971 63.6133 181.95 63.4C181.886 62.2907 181.64 61.4587 181.214 60.904C180.787 60.3493 180.136 60.072 179.262 60.072C178.387 60.072 177.736 60.3493 177.31 60.904C176.883 61.4587 176.638 62.2907 176.574 63.4L176.542 64.68L176.574 65.96C176.638 67.0907 176.883 67.9333 177.31 68.488C177.736 69.0213 178.387 69.288 179.262 69.288ZM197.158 73.32C195.088 73.32 193.456 72.6693 192.262 71.368C191.088 70.0667 190.459 68.2107 190.374 65.8L190.342 64.68L190.374 63.528C190.459 61.2027 191.099 59.3787 192.294 58.056C193.488 56.712 195.11 56.04 197.158 56.04C199.078 56.04 200.624 56.6587 201.798 57.896V51.08C201.798 50.8453 201.872 50.6533 202.022 50.504C202.192 50.3547 202.384 50.28 202.598 50.28H206.726C206.96 50.28 207.152 50.3547 207.302 50.504C207.472 50.6533 207.558 50.8453 207.558 51.08V72.2C207.558 72.4347 207.472 72.6267 207.302 72.776C207.152 72.9253 206.96 73 206.726 73H202.918C202.704 73 202.512 72.9253 202.342 72.776C202.192 72.6053 202.118 72.4133 202.118 72.2V71.208C200.966 72.616 199.312 73.32 197.158 73.32ZM199.014 68.872C199.931 68.872 200.614 68.584 201.062 68.008C201.51 67.4107 201.755 66.664 201.798 65.768C201.84 65.1707 201.862 64.7653 201.862 64.552C201.862 64.3173 201.84 63.9227 201.798 63.368C201.755 62.536 201.499 61.8533 201.03 61.32C200.582 60.7653 199.91 60.488 199.014 60.488C198.054 60.488 197.36 60.776 196.934 61.352C196.528 61.9067 196.294 62.6853 196.23 63.688L196.198 64.68L196.23 65.672C196.294 66.6747 196.528 67.464 196.934 68.04C197.36 68.5947 198.054 68.872 199.014 68.872ZM214.335 79.08C214.143 79.08 213.983 79.016 213.855 78.888C213.727 78.76 213.663 78.6 213.663 78.408C213.663 78.2587 213.684 78.12 213.727 77.992L216.255 71.976L210.111 57.448C210.047 57.2773 210.015 57.16 210.015 57.096C210.058 56.8827 210.143 56.712 210.271 56.584C210.42 56.4347 210.591 56.36 210.783 56.36H214.591C215.039 56.36 215.348 56.584 215.519 57.032L219.071 66.12L222.719 57.032C222.932 56.584 223.252 56.36 223.679 56.36H227.455C227.647 56.36 227.807 56.4347 227.935 56.584C228.084 56.712 228.159 56.8613 228.159 57.032C228.159 57.1813 228.138 57.32 228.095 57.448L219.039 78.408C218.826 78.856 218.495 79.08 218.047 79.08H214.335ZM240.041 73C239.679 73 239.38 72.904 239.145 72.712C238.932 72.4987 238.804 72.2427 238.761 71.944L235.337 51.464C235.316 51.4213 235.305 51.3573 235.305 51.272C235.305 51.1013 235.369 50.952 235.497 50.824C235.647 50.6747 235.807 50.6 235.977 50.6H240.169C240.788 50.6 241.129 50.8453 241.193 51.336L243.145 63.432L245.353 56.424C245.524 55.848 245.876 55.56 246.409 55.56H248.809C249.343 55.56 249.695 55.848 249.865 56.424L252.073 63.4L254.057 51.336C254.1 51.08 254.196 50.8987 254.345 50.792C254.495 50.664 254.729 50.6 255.049 50.6H259.241C259.433 50.6 259.593 50.6747 259.721 50.824C259.849 50.952 259.913 51.1013 259.913 51.272V51.464L256.489 71.944C256.447 72.2427 256.308 72.4987 256.073 72.712C255.839 72.904 255.551 73 255.209 73H251.977C251.636 73 251.369 72.9147 251.177 72.744C250.985 72.5733 250.857 72.3813 250.793 72.168L247.625 63.304L244.457 72.168C244.372 72.3813 244.233 72.5733 244.041 72.744C243.849 72.9147 243.583 73 243.241 73H240.041ZM267.161 73.32C266.03 73.32 264.995 73.1067 264.057 72.68C263.139 72.232 262.414 71.624 261.881 70.856C261.369 70.088 261.113 69.2453 261.113 68.328C261.113 66.8773 261.71 65.704 262.905 64.808C264.121 63.8907 265.785 63.2613 267.897 62.92L271.865 62.312V61.928C271.865 61.1387 271.705 60.5627 271.385 60.2C271.065 59.8373 270.521 59.656 269.753 59.656C269.326 59.656 268.963 59.7307 268.665 59.88C268.387 60.0293 268.067 60.2533 267.705 60.552C267.427 60.7867 267.182 60.9573 266.969 61.064C266.883 61.2133 266.777 61.288 266.649 61.288H262.937C262.723 61.288 262.542 61.224 262.393 61.096C262.265 60.9467 262.211 60.776 262.233 60.584C262.254 60.008 262.542 59.368 263.097 58.664C263.651 57.9387 264.494 57.32 265.625 56.808C266.755 56.296 268.153 56.04 269.817 56.04C272.462 56.04 274.425 56.6267 275.705 57.8C276.985 58.952 277.625 60.52 277.625 62.504V72.2C277.625 72.4133 277.55 72.6053 277.401 72.776C277.251 72.9253 277.059 73 276.825 73H272.889C272.675 73 272.483 72.9253 272.313 72.776C272.163 72.6053 272.089 72.4133 272.089 72.2V71.08C271.619 71.7413 270.969 72.2853 270.137 72.712C269.305 73.1173 268.313 73.32 267.161 73.32ZM268.76 69.544C269.699 69.544 270.457 69.2347 271.033 68.616C271.63 67.9973 271.929 67.1013 271.929 65.928V65.544L269.273 65.992C267.481 66.3333 266.585 66.9733 266.585 67.912C266.585 68.4027 266.787 68.7973 267.193 69.096C267.619 69.3947 268.142 69.544 268.76 69.544ZM281.905 73C281.692 73 281.5 72.9253 281.329 72.776C281.18 72.6053 281.105 72.4133 281.105 72.2V57.16C281.105 56.9253 281.18 56.7333 281.329 56.584C281.5 56.4347 281.692 56.36 281.905 56.36H285.841C286.076 56.36 286.268 56.4347 286.417 56.584C286.567 56.7333 286.641 56.9253 286.641 57.16V58.376C287.217 57.672 287.953 57.1067 288.849 56.68C289.767 56.2533 290.812 56.04 291.985 56.04C293.201 56.04 294.279 56.3173 295.217 56.872C296.177 57.4267 296.924 58.248 297.457 59.336C298.012 60.424 298.289 61.736 298.289 63.272V72.2C298.289 72.4133 298.215 72.6053 298.065 72.776C297.916 72.9253 297.724 73 297.489 73H293.233C292.999 73 292.796 72.9253 292.625 72.776C292.476 72.6267 292.401 72.4347 292.401 72.2V63.464C292.401 62.504 292.167 61.768 291.697 61.256C291.249 60.744 290.588 60.488 289.713 60.488C288.86 60.488 288.188 60.7547 287.697 61.288C287.207 61.8 286.961 62.5253 286.961 63.464V72.2C286.961 72.4133 286.887 72.6053 286.737 72.776C286.588 72.9253 286.396 73 286.161 73H281.905ZM310.373 73C305.85 73 303.589 70.8773 303.589 66.632V60.712H301.061C300.847 60.712 300.655 60.6373 300.485 60.488C300.335 60.3173 300.261 60.1253 300.261 59.912V57.16C300.261 56.9253 300.335 56.7333 300.485 56.584C300.655 56.4347 300.847 56.36 301.061 56.36H303.589V51.08C303.589 50.8453 303.663 50.6533 303.812 50.504C303.983 50.3547 304.175 50.28 304.389 50.28H308.325C308.559 50.28 308.751 50.3547 308.901 50.504C309.05 50.6533 309.125 50.8453 309.125 51.08V56.36H313.125C313.359 56.36 313.551 56.4347 313.701 56.584C313.871 56.7333 313.957 56.9253 313.957 57.16V59.912C313.957 60.1467 313.871 60.3387 313.701 60.488C313.551 60.6373 313.359 60.712 313.125 60.712H309.125V66.152C309.125 66.8987 309.263 67.464 309.541 67.848C309.818 68.232 310.266 68.424 310.885 68.424H313.413C313.647 68.424 313.839 68.5093 313.989 68.68C314.138 68.8293 314.213 69.0213 314.213 69.256V72.2C314.213 72.4133 314.138 72.6053 313.989 72.776C313.839 72.9253 313.647 73 313.413 73H310.373ZM323.769 73.32C322.019 73.32 320.558 73.0747 319.385 72.584C318.211 72.0933 317.337 71.5067 316.761 70.824C316.206 70.1413 315.929 69.5227 315.929 68.968C315.929 68.7547 316.003 68.584 316.153 68.456C316.323 68.3067 316.505 68.232 316.697 68.232H320.569C320.697 68.232 320.803 68.2747 320.889 68.36C321.251 68.5947 321.454 68.7333 321.497 68.776C321.902 69.0747 322.275 69.3093 322.617 69.48C322.979 69.6293 323.406 69.704 323.897 69.704C324.473 69.704 324.942 69.5973 325.305 69.384C325.689 69.1493 325.881 68.8293 325.881 68.424C325.881 68.0827 325.774 67.8053 325.561 67.592C325.369 67.3787 324.985 67.176 324.409 66.984C323.854 66.7707 323.001 66.5573 321.849 66.344C318.158 65.5973 316.313 63.8907 316.313 61.224C316.313 60.3493 316.59 59.5173 317.145 58.728C317.721 57.9173 318.553 57.2667 319.641 56.776C320.75 56.2853 322.073 56.04 323.609 56.04C325.166 56.04 326.51 56.2853 327.641 56.776C328.793 57.2453 329.667 57.8213 330.265 58.504C330.862 59.1653 331.161 59.7733 331.161 60.328C331.161 60.52 331.086 60.6907 330.937 60.84C330.809 60.9893 330.649 61.064 330.457 61.064H326.937C326.745 61.064 326.595 61.0213 326.489 60.936C326.233 60.808 325.977 60.648 325.721 60.456C325.337 60.2 324.995 60.008 324.697 59.88C324.419 59.7307 324.057 59.656 323.609 59.656C323.075 59.656 322.659 59.7733 322.361 60.008C322.062 60.2427 321.913 60.5413 321.913 60.904C321.913 61.224 321.998 61.4907 322.169 61.704C322.361 61.896 322.734 62.088 323.289 62.28C323.865 62.472 324.729 62.6747 325.881 62.888C327.971 63.2507 329.486 63.9013 330.425 64.84C331.385 65.7573 331.865 66.8347 331.865 68.072C331.865 69.672 331.15 70.952 329.721 71.912C328.313 72.8507 326.329 73.32 323.769 73.32ZM64.186 108C63.9513 108 63.7487 107.925 63.578 107.776C63.4287 107.627 63.354 107.435 63.354 107.2V90.816H57.722C57.4873 90.816 57.2847 90.7413 57.114 90.592C56.9647 90.4427 56.89 90.2507 56.89 90.016V86.432C56.89 86.1973 56.9647 86.0053 57.114 85.856C57.2847 85.6853 57.4873 85.6 57.722 85.6H75.098C75.3327 85.6 75.5247 85.6853 75.674 85.856C75.8447 86.0053 75.93 86.1973 75.93 86.432V90.016C75.93 90.2507 75.8447 90.4427 75.674 90.592C75.5247 90.7413 75.3327 90.816 75.098 90.816H69.466V107.2C69.466 107.435 69.3807 107.627 69.21 107.776C69.0607 107.925 68.8687 108 68.634 108H64.186ZM83.574 108.32C80.886 108.32 78.8167 107.701 77.366 106.464C75.9367 105.205 75.158 103.424 75.03 101.12C75.0087 100.843 74.998 100.363 74.998 99.68C74.998 98.9973 75.0087 98.5173 75.03 98.24C75.158 95.9787 75.958 94.2187 77.43 92.96C78.9233 91.68 80.9713 91.04 83.574 91.04C86.1767 91.04 88.214 91.68 89.686 92.96C91.1793 94.2187 91.99 95.9787 92.118 98.24C92.1607 98.7947 92.182 99.2747 92.182 99.68C92.182 100.085 92.1607 100.565 92.118 101.12C91.99 103.424 91.2007 105.205 89.75 106.464C88.3207 107.701 86.262 108.32 83.574 108.32ZM83.574 104.288C84.4487 104.288 85.0993 104.021 85.526 103.488C85.9527 102.933 86.198 102.091 86.262 100.96C86.2833 100.747 86.294 100.32 86.294 99.68C86.294 99.04 86.2833 98.6133 86.262 98.4C86.198 97.2907 85.9527 96.4587 85.526 95.904C85.0993 95.3493 84.4487 95.072 83.574 95.072C82.6993 95.072 82.0487 95.3493 81.622 95.904C81.1953 96.4587 80.95 97.2907 80.886 98.4L80.854 99.68L80.886 100.96C80.95 102.091 81.1953 102.933 81.622 103.488C82.0487 104.021 82.6993 104.288 83.574 104.288ZM103.101 108C102.888 108 102.696 107.925 102.525 107.776C102.376 107.605 102.301 107.413 102.301 107.2V86.432C102.301 86.1973 102.376 86.0053 102.525 85.856C102.674 85.6853 102.866 85.6 103.101 85.6H111.901C114.717 85.6 116.914 86.24 118.493 87.52C120.093 88.8 120.893 90.6027 120.893 92.928C120.893 94.4213 120.541 95.6907 119.837 96.736C119.154 97.7813 118.205 98.592 116.989 99.168L121.309 106.976C121.373 107.104 121.405 107.221 121.405 107.328C121.405 107.499 121.341 107.659 121.213 107.808C121.085 107.936 120.925 108 120.733 108H116.221C115.602 108 115.165 107.712 114.909 107.136L111.389 100.192H108.317V107.2C108.317 107.435 108.232 107.627 108.061 107.776C107.912 107.925 107.72 108 107.485 108H103.101ZM111.869 95.488C112.786 95.488 113.48 95.264 113.949 94.816C114.44 94.3467 114.685 93.7067 114.685 92.896C114.685 92.0853 114.44 91.4347 113.949 90.944C113.48 90.4533 112.786 90.208 111.869 90.208H108.317V95.488H111.869ZM130.311 108.32C128.434 108.32 126.919 107.691 125.767 106.432C124.615 105.173 124.039 103.392 124.039 101.088V92.16C124.039 91.9253 124.114 91.7333 124.263 91.584C124.434 91.4347 124.626 91.36 124.839 91.36H129.095C129.33 91.36 129.522 91.4347 129.671 91.584C129.842 91.7333 129.927 91.9253 129.927 92.16V100.896C129.927 102.88 130.812 103.872 132.583 103.872C133.436 103.872 134.098 103.616 134.567 103.104C135.058 102.571 135.303 101.835 135.303 100.896V92.16C135.303 91.9253 135.378 91.7333 135.527 91.584C135.698 91.4347 135.9 91.36 136.135 91.36H140.359C140.594 91.36 140.786 91.4347 140.935 91.584C141.084 91.7333 141.159 91.9253 141.159 92.16V107.2C141.159 107.413 141.084 107.605 140.935 107.776C140.786 107.925 140.594 108 140.359 108H136.455C136.22 108 136.018 107.925 135.847 107.776C135.698 107.627 135.623 107.435 135.623 107.2V105.984C134.514 107.541 132.743 108.32 130.311 108.32ZM145.625 108C145.39 108 145.187 107.925 145.017 107.776C144.867 107.627 144.793 107.435 144.793 107.2V86.08C144.793 85.8453 144.867 85.6533 145.017 85.504C145.187 85.3547 145.39 85.28 145.625 85.28H149.625C149.859 85.28 150.051 85.3547 150.201 85.504C150.35 85.6533 150.425 85.8453 150.425 86.08V107.2C150.425 107.413 150.35 107.605 150.201 107.776C150.051 107.925 149.859 108 149.625 108H145.625ZM161.882 108.32C159.279 108.32 157.231 107.627 155.738 106.24C154.245 104.832 153.477 102.795 153.434 100.128V99.136C153.519 96.5973 154.309 94.6133 155.802 93.184C157.295 91.7547 159.311 91.04 161.85 91.04C163.685 91.04 165.231 91.4133 166.49 92.16C167.77 92.8853 168.719 93.8987 169.338 95.2C169.978 96.48 170.298 97.9413 170.298 99.584V100.384C170.298 100.619 170.213 100.821 170.042 100.992C169.893 101.141 169.701 101.216 169.466 101.216H159.322V101.408C159.343 102.368 159.567 103.147 159.994 103.744C160.421 104.32 161.029 104.608 161.818 104.608C162.33 104.608 162.735 104.512 163.034 104.32C163.354 104.107 163.653 103.84 163.93 103.52C164.122 103.307 164.271 103.179 164.378 103.136C164.506 103.072 164.698 103.04 164.954 103.04H169.146C169.338 103.04 169.498 103.104 169.626 103.232C169.775 103.339 169.85 103.477 169.85 103.648C169.85 104.203 169.53 104.853 168.89 105.6C168.271 106.347 167.354 106.987 166.138 107.52C164.943 108.053 163.525 108.32 161.882 108.32ZM164.41 97.952V97.888C164.41 96.864 164.186 96.0747 163.738 95.52C163.29 94.944 162.661 94.656 161.85 94.656C161.039 94.656 160.41 94.944 159.962 95.52C159.535 96.0747 159.322 96.864 159.322 97.888V97.952H164.41ZM185.249 108C185.014 108 184.811 107.925 184.641 107.776C184.491 107.627 184.417 107.435 184.417 107.2V90.816H178.785C178.55 90.816 178.347 90.7413 178.177 90.592C178.027 90.4427 177.953 90.2507 177.953 90.016V86.432C177.953 86.1973 178.027 86.0053 178.177 85.856C178.347 85.6853 178.55 85.6 178.785 85.6H196.161C196.395 85.6 196.587 85.6853 196.737 85.856C196.907 86.0053 196.993 86.1973 196.993 86.432V90.016C196.993 90.2507 196.907 90.4427 196.737 90.592C196.587 90.7413 196.395 90.816 196.161 90.816H190.529V107.2C190.529 107.435 190.443 107.627 190.273 107.776C190.123 107.925 189.931 108 189.697 108H185.249ZM199.812 108C199.578 108 199.375 107.925 199.204 107.776C199.055 107.627 198.98 107.435 198.98 107.2V86.08C198.98 85.8453 199.055 85.6533 199.204 85.504C199.375 85.3547 199.578 85.28 199.812 85.28H204.132C204.367 85.28 204.559 85.3547 204.708 85.504C204.879 85.6533 204.964 85.8453 204.964 86.08V93.216C206.202 91.7653 207.876 91.04 209.988 91.04C211.204 91.04 212.303 91.3173 213.284 91.872C214.266 92.4267 215.034 93.248 215.588 94.336C216.143 95.424 216.42 96.736 216.42 98.272V107.2C216.42 107.435 216.335 107.627 216.164 107.776C216.015 107.925 215.823 108 215.588 108H211.236C211.023 108 210.831 107.925 210.66 107.776C210.511 107.605 210.436 107.413 210.436 107.2V98.464C210.436 97.5253 210.202 96.8 209.732 96.288C209.263 95.7547 208.591 95.488 207.716 95.488C206.863 95.488 206.191 95.7547 205.7 96.288C205.21 96.8 204.964 97.5253 204.964 98.464V107.2C204.964 107.435 204.879 107.627 204.708 107.776C204.559 107.925 204.367 108 204.132 108H199.812ZM227.726 108.32C225.123 108.32 223.075 107.627 221.582 106.24C220.088 104.832 219.32 102.795 219.278 100.128V99.136C219.363 96.5973 220.152 94.6133 221.646 93.184C223.139 91.7547 225.155 91.04 227.694 91.04C229.528 91.04 231.075 91.4133 232.334 92.16C233.614 92.8853 234.563 93.8987 235.182 95.2C235.822 96.48 236.142 97.9413 236.142 99.584V100.384C236.142 100.619 236.056 100.821 235.886 100.992C235.736 101.141 235.544 101.216 235.31 101.216H225.166V101.408C225.187 102.368 225.411 103.147 225.838 103.744C226.264 104.32 226.872 104.608 227.662 104.608C228.174 104.608 228.579 104.512 228.878 104.32C229.198 104.107 229.496 103.84 229.774 103.52C229.966 103.307 230.115 103.179 230.222 103.136C230.35 103.072 230.542 103.04 230.798 103.04H234.99C235.182 103.04 235.342 103.104 235.47 103.232C235.619 103.339 235.694 103.477 235.694 103.648C235.694 104.203 235.374 104.853 234.734 105.6C234.115 106.347 233.198 106.987 231.982 107.52C230.787 108.053 229.368 108.32 227.726 108.32ZM230.254 97.952V97.888C230.254 96.864 230.03 96.0747 229.582 95.52C229.134 94.944 228.504 94.656 227.694 94.656C226.883 94.656 226.254 94.944 225.806 95.52C225.379 96.0747 225.166 96.864 225.166 97.888V97.952H230.254ZM249.448 108C249.085 108 248.786 107.904 248.552 107.712C248.338 107.499 248.21 107.243 248.168 106.944L244.743 86.464C244.722 86.4213 244.712 86.3573 244.712 86.272C244.712 86.1013 244.776 85.952 244.904 85.824C245.053 85.6747 245.213 85.6 245.384 85.6H249.576C250.194 85.6 250.536 85.8453 250.6 86.336L252.552 98.432L254.76 91.424C254.93 90.848 255.282 90.56 255.816 90.56H258.216C258.749 90.56 259.101 90.848 259.272 91.424L261.48 98.4L263.464 86.336C263.506 86.08 263.602 85.8987 263.752 85.792C263.901 85.664 264.136 85.6 264.456 85.6H268.648C268.84 85.6 269 85.6747 269.128 85.824C269.256 85.952 269.32 86.1013 269.32 86.272V86.464L265.896 106.944C265.853 107.243 265.714 107.499 265.48 107.712C265.245 107.904 264.957 108 264.616 108H261.384C261.042 108 260.775 107.915 260.583 107.744C260.392 107.573 260.264 107.381 260.2 107.168L257.032 98.304L253.864 107.168C253.778 107.381 253.64 107.573 253.448 107.744C253.256 107.915 252.989 108 252.648 108H249.448ZM279.605 108.32C276.917 108.32 274.848 107.701 273.397 106.464C271.968 105.205 271.189 103.424 271.061 101.12C271.04 100.843 271.029 100.363 271.029 99.68C271.029 98.9973 271.04 98.5173 271.061 98.24C271.189 95.9787 271.989 94.2187 273.461 92.96C274.955 91.68 277.003 91.04 279.605 91.04C282.208 91.04 284.245 91.68 285.717 92.96C287.211 94.2187 288.021 95.9787 288.149 98.24C288.192 98.7947 288.213 99.2747 288.213 99.68C288.213 100.085 288.192 100.565 288.149 101.12C288.021 103.424 287.232 105.205 285.781 106.464C284.352 107.701 282.293 108.32 279.605 108.32ZM279.605 104.288C280.48 104.288 281.131 104.021 281.557 103.488C281.984 102.933 282.229 102.091 282.293 100.96C282.315 100.747 282.325 100.32 282.325 99.68C282.325 99.04 282.315 98.6133 282.293 98.4C282.229 97.2907 281.984 96.4587 281.557 95.904C281.131 95.3493 280.48 95.072 279.605 95.072C278.731 95.072 278.08 95.3493 277.653 95.904C277.227 96.4587 276.981 97.2907 276.917 98.4L276.885 99.68L276.917 100.96C276.981 102.091 277.227 102.933 277.653 103.488C278.08 104.021 278.731 104.288 279.605 104.288ZM292.062 108C291.848 108 291.656 107.925 291.486 107.776C291.336 107.605 291.262 107.413 291.262 107.2V92.192C291.262 91.9573 291.336 91.7653 291.486 91.616C291.635 91.4453 291.827 91.36 292.062 91.36H295.966C296.2 91.36 296.392 91.4453 296.542 91.616C296.712 91.7653 296.798 91.9573 296.798 92.192V93.408C297.395 92.7467 298.088 92.2453 298.878 91.904C299.688 91.5413 300.584 91.36 301.566 91.36H303.006C303.24 91.36 303.432 91.4347 303.582 91.584C303.731 91.7333 303.806 91.9253 303.806 92.16V95.648C303.806 95.8613 303.731 96.0533 303.582 96.224C303.432 96.3733 303.24 96.448 303.006 96.448H299.774C298.92 96.448 298.259 96.6827 297.79 97.152C297.342 97.6213 297.118 98.2827 297.118 99.136V107.2C297.118 107.435 297.032 107.627 296.862 107.776C296.712 107.925 296.52 108 296.286 108H292.062ZM306.844 108C306.609 108 306.406 107.925 306.236 107.776C306.086 107.627 306.012 107.435 306.012 107.2V86.08C306.012 85.8453 306.086 85.6533 306.236 85.504C306.406 85.3547 306.609 85.28 306.844 85.28H310.844C311.078 85.28 311.27 85.3547 311.42 85.504C311.569 85.6533 311.644 85.8453 311.644 86.08V107.2C311.644 107.413 311.569 107.605 311.42 107.776C311.27 107.925 311.078 108 310.844 108H306.844ZM321.533 108.32C319.463 108.32 317.831 107.669 316.637 106.368C315.463 105.067 314.834 103.211 314.749 100.8L314.717 99.68L314.749 98.528C314.834 96.2027 315.474 94.3787 316.669 93.056C317.863 91.712 319.485 91.04 321.533 91.04C323.453 91.04 324.999 91.6587 326.173 92.896V86.08C326.173 85.8453 326.247 85.6533 326.397 85.504C326.567 85.3547 326.759 85.28 326.973 85.28H331.101C331.335 85.28 331.527 85.3547 331.677 85.504C331.847 85.6533 331.933 85.8453 331.933 86.08V107.2C331.933 107.435 331.847 107.627 331.677 107.776C331.527 107.925 331.335 108 331.101 108H327.293C327.079 108 326.887 107.925 326.717 107.776C326.567 107.605 326.493 107.413 326.493 107.2V106.208C325.341 107.616 323.687 108.32 321.533 108.32ZM323.389 103.872C324.306 103.872 324.989 103.584 325.437 103.008C325.885 102.411 326.13 101.664 326.173 100.768C326.215 100.171 326.237 99.7653 326.237 99.552C326.237 99.3173 326.215 98.9227 326.173 98.368C326.13 97.536 325.874 96.8533 325.405 96.32C324.957 95.7653 324.285 95.488 323.389 95.488C322.429 95.488 321.735 95.776 321.309 96.352C320.903 96.9067 320.669 97.6853 320.605 98.688L320.573 99.68L320.605 100.672C320.669 101.675 320.903 102.464 321.309 103.04C321.735 103.595 322.429 103.872 323.389 103.872Z" fill="#940000"/>
<path d="M93.1026 139C92.9559 139 92.8292 138.953 92.7226 138.86C92.6292 138.767 92.5826 138.647 92.5826 138.5V128.26H89.0626C88.9159 128.26 88.7892 128.213 88.6826 128.12C88.5892 128.027 88.5426 127.907 88.5426 127.76V125.52C88.5426 125.373 88.5892 125.253 88.6826 125.16C88.7892 125.053 88.9159 125 89.0626 125H99.9226C100.069 125 100.189 125.053 100.283 125.16C100.389 125.253 100.443 125.373 100.443 125.52V127.76C100.443 127.907 100.389 128.027 100.283 128.12C100.189 128.213 100.069 128.26 99.9226 128.26H96.4026V138.5C96.4026 138.647 96.3492 138.767 96.2426 138.86C96.1492 138.953 96.0292 139 95.8826 139H93.1026ZM105.1 139.2C103.473 139.2 102.193 138.767 101.26 137.9C100.327 137.02 99.8467 135.747 99.8201 134.08V133.46C99.8734 131.873 100.367 130.633 101.3 129.74C102.233 128.847 103.493 128.4 105.08 128.4C106.227 128.4 107.193 128.633 107.98 129.1C108.78 129.553 109.373 130.187 109.76 131C110.16 131.8 110.36 132.713 110.36 133.74V134.24C110.36 134.387 110.307 134.513 110.2 134.62C110.107 134.713 109.987 134.76 109.84 134.76H103.5V134.88C103.513 135.48 103.653 135.967 103.92 136.34C104.187 136.7 104.567 136.88 105.06 136.88C105.38 136.88 105.633 136.82 105.82 136.7C106.02 136.567 106.207 136.4 106.38 136.2C106.5 136.067 106.593 135.987 106.66 135.96C106.74 135.92 106.86 135.9 107.02 135.9H109.64C109.76 135.9 109.86 135.94 109.94 136.02C110.033 136.087 110.08 136.173 110.08 136.28C110.08 136.627 109.88 137.033 109.48 137.5C109.093 137.967 108.52 138.367 107.76 138.7C107.013 139.033 106.127 139.2 105.1 139.2ZM106.68 132.72V132.68C106.68 132.04 106.54 131.547 106.26 131.2C105.98 130.84 105.587 130.66 105.08 130.66C104.573 130.66 104.18 130.84 103.9 131.2C103.633 131.547 103.5 132.04 103.5 132.68V132.72H106.68ZM115.294 139.2C114.587 139.2 113.94 139.067 113.354 138.8C112.78 138.52 112.327 138.14 111.994 137.66C111.674 137.18 111.514 136.653 111.514 136.08C111.514 135.173 111.887 134.44 112.634 133.88C113.394 133.307 114.434 132.913 115.754 132.7L118.234 132.32V132.08C118.234 131.587 118.134 131.227 117.934 131C117.734 130.773 117.394 130.66 116.914 130.66C116.647 130.66 116.42 130.707 116.234 130.8C116.06 130.893 115.86 131.033 115.634 131.22C115.46 131.367 115.307 131.473 115.174 131.54C115.12 131.633 115.054 131.68 114.974 131.68H112.654C112.52 131.68 112.407 131.64 112.314 131.56C112.234 131.467 112.2 131.36 112.214 131.24C112.227 130.88 112.407 130.48 112.754 130.04C113.1 129.587 113.627 129.2 114.334 128.88C115.04 128.56 115.914 128.4 116.954 128.4C118.607 128.4 119.834 128.767 120.634 129.5C121.434 130.22 121.834 131.2 121.834 132.44V138.5C121.834 138.633 121.787 138.753 121.694 138.86C121.6 138.953 121.48 139 121.334 139H118.874C118.74 139 118.62 138.953 118.514 138.86C118.42 138.753 118.374 138.633 118.374 138.5V137.8C118.08 138.213 117.674 138.553 117.154 138.82C116.634 139.073 116.014 139.2 115.294 139.2ZM116.294 136.84C116.88 136.84 117.354 136.647 117.714 136.26C118.087 135.873 118.274 135.313 118.274 134.58V134.34L116.614 134.62C115.494 134.833 114.934 135.233 114.934 135.82C114.934 136.127 115.06 136.373 115.314 136.56C115.58 136.747 115.907 136.84 116.294 136.84ZM124.509 139C124.376 139 124.256 138.953 124.149 138.86C124.056 138.753 124.009 138.633 124.009 138.5V129.12C124.009 128.973 124.056 128.853 124.149 128.76C124.242 128.653 124.362 128.6 124.509 128.6H126.949C127.096 128.6 127.216 128.653 127.309 128.76C127.416 128.853 127.469 128.973 127.469 129.12V129.88C127.842 129.467 128.276 129.153 128.769 128.94C129.276 128.713 129.836 128.6 130.449 128.6H131.349C131.496 128.6 131.616 128.647 131.709 128.74C131.802 128.833 131.849 128.953 131.849 129.1V131.28C131.849 131.413 131.802 131.533 131.709 131.64C131.616 131.733 131.496 131.78 131.349 131.78H129.329C128.796 131.78 128.382 131.927 128.089 132.22C127.809 132.513 127.669 132.927 127.669 133.46V138.5C127.669 138.647 127.616 138.767 127.509 138.86C127.416 138.953 127.296 139 127.149 139H124.509ZM137.588 139.2C136.495 139.2 135.581 139.047 134.848 138.74C134.115 138.433 133.568 138.067 133.208 137.64C132.861 137.213 132.688 136.827 132.688 136.48C132.688 136.347 132.735 136.24 132.828 136.16C132.935 136.067 133.048 136.02 133.168 136.02H135.588C135.668 136.02 135.735 136.047 135.788 136.1C136.015 136.247 136.141 136.333 136.168 136.36C136.421 136.547 136.655 136.693 136.868 136.8C137.095 136.893 137.361 136.94 137.668 136.94C138.028 136.94 138.321 136.873 138.548 136.74C138.788 136.593 138.908 136.393 138.908 136.14C138.908 135.927 138.841 135.753 138.708 135.62C138.588 135.487 138.348 135.36 137.988 135.24C137.641 135.107 137.108 134.973 136.388 134.84C134.081 134.373 132.928 133.307 132.928 131.64C132.928 131.093 133.101 130.573 133.448 130.08C133.808 129.573 134.328 129.167 135.008 128.86C135.701 128.553 136.528 128.4 137.488 128.4C138.461 128.4 139.301 128.553 140.008 128.86C140.728 129.153 141.275 129.513 141.648 129.94C142.021 130.353 142.208 130.733 142.208 131.08C142.208 131.2 142.161 131.307 142.068 131.4C141.988 131.493 141.888 131.54 141.768 131.54H139.568C139.448 131.54 139.355 131.513 139.288 131.46C139.128 131.38 138.968 131.28 138.808 131.16C138.568 131 138.355 130.88 138.168 130.8C137.995 130.707 137.768 130.66 137.488 130.66C137.155 130.66 136.895 130.733 136.708 130.88C136.521 131.027 136.428 131.213 136.428 131.44C136.428 131.64 136.481 131.807 136.588 131.94C136.708 132.06 136.941 132.18 137.288 132.3C137.648 132.42 138.188 132.547 138.908 132.68C140.215 132.907 141.161 133.313 141.748 133.9C142.348 134.473 142.648 135.147 142.648 135.92C142.648 136.92 142.201 137.72 141.308 138.32C140.428 138.907 139.188 139.2 137.588 139.2ZM149.28 139C149.147 139 149.027 138.953 148.92 138.86C148.827 138.753 148.78 138.633 148.78 138.5V125.52C148.78 125.373 148.827 125.253 148.92 125.16C149.013 125.053 149.133 125 149.28 125H158.58C158.727 125 158.847 125.053 158.94 125.16C159.047 125.253 159.1 125.373 159.1 125.52V127.64C159.1 127.787 159.047 127.907 158.94 128C158.847 128.093 158.727 128.14 158.58 128.14H152.46V130.92H158.18C158.327 130.92 158.447 130.973 158.54 131.08C158.647 131.173 158.7 131.293 158.7 131.44V133.56C158.7 133.707 158.647 133.827 158.54 133.92C158.447 134.013 158.327 134.06 158.18 134.06H152.46V138.5C152.46 138.633 152.413 138.753 152.32 138.86C152.227 138.953 152.107 139 151.96 139H149.28ZM165.806 139.2C164.126 139.2 162.833 138.813 161.926 138.04C161.033 137.253 160.546 136.14 160.466 134.7C160.453 134.527 160.446 134.227 160.446 133.8C160.446 133.373 160.453 133.073 160.466 132.9C160.546 131.487 161.046 130.387 161.966 129.6C162.899 128.8 164.179 128.4 165.806 128.4C167.433 128.4 168.706 128.8 169.626 129.6C170.559 130.387 171.066 131.487 171.146 132.9C171.173 133.247 171.186 133.547 171.186 133.8C171.186 134.053 171.173 134.353 171.146 134.7C171.066 136.14 170.573 137.253 169.666 138.04C168.773 138.813 167.486 139.2 165.806 139.2ZM165.806 136.68C166.353 136.68 166.759 136.513 167.026 136.18C167.293 135.833 167.446 135.307 167.486 134.6C167.499 134.467 167.506 134.2 167.506 133.8C167.506 133.4 167.499 133.133 167.486 133C167.446 132.307 167.293 131.787 167.026 131.44C166.759 131.093 166.353 130.92 165.806 130.92C165.259 130.92 164.853 131.093 164.586 131.44C164.319 131.787 164.166 132.307 164.126 133L164.106 133.8L164.126 134.6C164.166 135.307 164.319 135.833 164.586 136.18C164.853 136.513 165.259 136.68 165.806 136.68ZM173.591 139C173.458 139 173.338 138.953 173.231 138.86C173.138 138.753 173.091 138.633 173.091 138.5V129.12C173.091 128.973 173.138 128.853 173.231 128.76C173.325 128.653 173.445 128.6 173.591 128.6H176.031C176.178 128.6 176.298 128.653 176.391 128.76C176.498 128.853 176.551 128.973 176.551 129.12V129.88C176.925 129.467 177.358 129.153 177.851 128.94C178.358 128.713 178.918 128.6 179.531 128.6H180.431C180.578 128.6 180.698 128.647 180.791 128.74C180.885 128.833 180.931 128.953 180.931 129.1V131.28C180.931 131.413 180.885 131.533 180.791 131.64C180.698 131.733 180.578 131.78 180.431 131.78H178.411C177.878 131.78 177.465 131.927 177.171 132.22C176.891 132.513 176.751 132.927 176.751 133.46V138.5C176.751 138.647 176.698 138.767 176.591 138.86C176.498 138.953 176.378 139 176.231 139H173.591ZM186.858 139C186.725 139 186.605 138.953 186.498 138.86C186.405 138.753 186.358 138.633 186.358 138.5V125.52C186.358 125.373 186.405 125.253 186.498 125.16C186.591 125.053 186.711 125 186.858 125H196.158C196.305 125 196.425 125.053 196.518 125.16C196.625 125.253 196.678 125.373 196.678 125.52V127.64C196.678 127.787 196.625 127.907 196.518 128C196.425 128.093 196.305 128.14 196.158 128.14H190.038V130.92H195.758C195.905 130.92 196.025 130.973 196.118 131.08C196.225 131.173 196.278 131.293 196.278 131.44V133.56C196.278 133.707 196.225 133.827 196.118 133.92C196.025 134.013 195.905 134.06 195.758 134.06H190.038V138.5C190.038 138.633 189.991 138.753 189.898 138.86C189.805 138.953 189.685 139 189.538 139H186.858ZM203.264 139.2C201.637 139.2 200.357 138.767 199.424 137.9C198.491 137.02 198.011 135.747 197.984 134.08V133.46C198.037 131.873 198.531 130.633 199.464 129.74C200.397 128.847 201.657 128.4 203.244 128.4C204.391 128.4 205.357 128.633 206.144 129.1C206.944 129.553 207.537 130.187 207.924 131C208.324 131.8 208.524 132.713 208.524 133.74V134.24C208.524 134.387 208.471 134.513 208.364 134.62C208.271 134.713 208.151 134.76 208.004 134.76H201.664V134.88C201.677 135.48 201.817 135.967 202.084 136.34C202.351 136.7 202.731 136.88 203.224 136.88C203.544 136.88 203.797 136.82 203.984 136.7C204.184 136.567 204.371 136.4 204.544 136.2C204.664 136.067 204.757 135.987 204.824 135.96C204.904 135.92 205.024 135.9 205.184 135.9H207.804C207.924 135.9 208.024 135.94 208.104 136.02C208.197 136.087 208.244 136.173 208.244 136.28C208.244 136.627 208.044 137.033 207.644 137.5C207.257 137.967 206.684 138.367 205.924 138.7C205.177 139.033 204.291 139.2 203.264 139.2ZM204.844 132.72V132.68C204.844 132.04 204.704 131.547 204.424 131.2C204.144 130.84 203.751 130.66 203.244 130.66C202.737 130.66 202.344 130.84 202.064 131.2C201.797 131.547 201.664 132.04 201.664 132.68V132.72H204.844ZM213.458 139.2C212.751 139.2 212.104 139.067 211.518 138.8C210.944 138.52 210.491 138.14 210.158 137.66C209.838 137.18 209.678 136.653 209.678 136.08C209.678 135.173 210.051 134.44 210.798 133.88C211.558 133.307 212.598 132.913 213.918 132.7L216.398 132.32V132.08C216.398 131.587 216.298 131.227 216.098 131C215.898 130.773 215.558 130.66 215.078 130.66C214.811 130.66 214.584 130.707 214.398 130.8C214.224 130.893 214.024 131.033 213.798 131.22C213.624 131.367 213.471 131.473 213.338 131.54C213.284 131.633 213.218 131.68 213.138 131.68H210.818C210.684 131.68 210.571 131.64 210.478 131.56C210.398 131.467 210.364 131.36 210.378 131.24C210.391 130.88 210.571 130.48 210.918 130.04C211.264 129.587 211.791 129.2 212.498 128.88C213.204 128.56 214.078 128.4 215.118 128.4C216.771 128.4 217.998 128.767 218.798 129.5C219.598 130.22 219.998 131.2 219.998 132.44V138.5C219.998 138.633 219.951 138.753 219.858 138.86C219.764 138.953 219.644 139 219.498 139H217.038C216.904 139 216.784 138.953 216.678 138.86C216.584 138.753 216.538 138.633 216.538 138.5V137.8C216.244 138.213 215.838 138.553 215.318 138.82C214.798 139.073 214.178 139.2 213.458 139.2ZM214.458 136.84C215.044 136.84 215.518 136.647 215.878 136.26C216.251 135.873 216.438 135.313 216.438 134.58V134.34L214.778 134.62C213.658 134.833 213.098 135.233 213.098 135.82C213.098 136.127 213.224 136.373 213.478 136.56C213.744 136.747 214.071 136.84 214.458 136.84ZM222.673 139C222.54 139 222.42 138.953 222.313 138.86C222.22 138.753 222.173 138.633 222.173 138.5V129.12C222.173 128.973 222.22 128.853 222.313 128.76C222.407 128.653 222.527 128.6 222.673 128.6H225.113C225.26 128.6 225.38 128.653 225.473 128.76C225.58 128.853 225.633 128.973 225.633 129.12V129.88C226.007 129.467 226.44 129.153 226.933 128.94C227.44 128.713 228 128.6 228.613 128.6H229.513C229.66 128.6 229.78 128.647 229.873 128.74C229.967 128.833 230.013 128.953 230.013 129.1V131.28C230.013 131.413 229.967 131.533 229.873 131.64C229.78 131.733 229.66 131.78 229.513 131.78H227.493C226.96 131.78 226.547 131.927 226.253 132.22C225.973 132.513 225.833 132.927 225.833 133.46V138.5C225.833 138.647 225.78 138.767 225.673 138.86C225.58 138.953 225.46 139 225.313 139H222.673ZM235.752 139.2C234.659 139.2 233.745 139.047 233.012 138.74C232.279 138.433 231.732 138.067 231.372 137.64C231.025 137.213 230.852 136.827 230.852 136.48C230.852 136.347 230.899 136.24 230.992 136.16C231.099 136.067 231.212 136.02 231.332 136.02H233.752C233.832 136.02 233.899 136.047 233.952 136.1C234.179 136.247 234.305 136.333 234.332 136.36C234.585 136.547 234.819 136.693 235.032 136.8C235.259 136.893 235.525 136.94 235.832 136.94C236.192 136.94 236.485 136.873 236.712 136.74C236.952 136.593 237.072 136.393 237.072 136.14C237.072 135.927 237.005 135.753 236.872 135.62C236.752 135.487 236.512 135.36 236.152 135.24C235.805 135.107 235.272 134.973 234.552 134.84C232.245 134.373 231.092 133.307 231.092 131.64C231.092 131.093 231.265 130.573 231.612 130.08C231.972 129.573 232.492 129.167 233.172 128.86C233.865 128.553 234.692 128.4 235.652 128.4C236.625 128.4 237.465 128.553 238.172 128.86C238.892 129.153 239.439 129.513 239.812 129.94C240.185 130.353 240.372 130.733 240.372 131.08C240.372 131.2 240.325 131.307 240.232 131.4C240.152 131.493 240.052 131.54 239.932 131.54H237.732C237.612 131.54 237.519 131.513 237.452 131.46C237.292 131.38 237.132 131.28 236.972 131.16C236.732 131 236.519 130.88 236.332 130.8C236.159 130.707 235.932 130.66 235.652 130.66C235.319 130.66 235.059 130.733 234.872 130.88C234.685 131.027 234.592 131.213 234.592 131.44C234.592 131.64 234.645 131.807 234.752 131.94C234.872 132.06 235.105 132.18 235.452 132.3C235.812 132.42 236.352 132.547 237.072 132.68C238.379 132.907 239.325 133.313 239.912 133.9C240.512 134.473 240.812 135.147 240.812 135.92C240.812 136.92 240.365 137.72 239.472 138.32C238.592 138.907 237.352 139.2 235.752 139.2ZM242.405 140.5C242.285 140.5 242.185 140.453 242.105 140.36C242.038 140.28 242.011 140.18 242.025 140.06L242.645 136.04C242.671 135.853 242.745 135.693 242.865 135.56C242.985 135.413 243.158 135.34 243.385 135.34H245.805C245.911 135.34 246.005 135.38 246.085 135.46C246.165 135.54 246.205 135.633 246.205 135.74C246.205 135.82 246.191 135.893 246.165 135.96L244.605 139.94C244.458 140.313 244.211 140.5 243.865 140.5H242.405ZM256.749 139C256.616 139 256.496 138.953 256.389 138.86C256.296 138.753 256.249 138.633 256.249 138.5V129.14L253.569 131.2C253.462 131.267 253.362 131.3 253.269 131.3C253.109 131.3 252.969 131.22 252.849 131.06L251.609 129.46C251.556 129.367 251.529 129.267 251.529 129.16C251.529 128.973 251.602 128.827 251.749 128.72L256.389 125.14C256.522 125.047 256.676 125 256.849 125H259.489C259.636 125 259.756 125.047 259.849 125.14C259.956 125.233 260.009 125.353 260.009 125.5V138.5C260.009 138.647 259.956 138.767 259.849 138.86C259.756 138.953 259.636 139 259.489 139H256.749ZM264.727 139C264.607 139 264.507 138.96 264.427 138.88C264.347 138.787 264.307 138.68 264.307 138.56C264.307 138.467 264.334 138.38 264.387 138.3L267.187 134.48C267.014 134.52 266.834 134.533 266.647 134.52C265.834 134.467 265.06 134.247 264.327 133.86C263.594 133.46 262.994 132.913 262.527 132.22C262.074 131.513 261.847 130.713 261.847 129.82C261.847 128.94 262.067 128.12 262.507 127.36C262.96 126.587 263.62 125.967 264.487 125.5C265.367 125.033 266.42 124.8 267.647 124.8C268.887 124.8 269.954 125.013 270.847 125.44C271.74 125.867 272.414 126.453 272.867 127.2C273.334 127.933 273.567 128.76 273.567 129.68C273.567 130.413 273.414 131.087 273.107 131.7C272.814 132.3 272.367 133.007 271.767 133.82L271.407 134.32L268.267 138.6C268.08 138.867 267.84 139 267.547 139H264.727ZM267.687 131.8C268.274 131.8 268.754 131.62 269.127 131.26C269.514 130.9 269.707 130.413 269.707 129.8C269.707 129.187 269.514 128.7 269.127 128.34C268.74 127.98 268.26 127.8 267.687 127.8C267.1 127.8 266.614 127.98 266.227 128.34C265.854 128.7 265.667 129.187 265.667 129.8C265.667 130.413 265.854 130.9 266.227 131.26C266.6 131.62 267.087 131.8 267.687 131.8ZM281.017 139.2C279.723 139.2 278.63 139.007 277.737 138.62C276.843 138.22 276.177 137.687 275.737 137.02C275.31 136.353 275.097 135.607 275.097 134.78C275.097 134.087 275.27 133.46 275.617 132.9C275.977 132.327 276.443 131.887 277.017 131.58C276.07 130.967 275.597 130.047 275.597 128.82C275.597 127.633 276.05 126.667 276.957 125.92C277.877 125.173 279.23 124.8 281.017 124.8C282.79 124.8 284.123 125.173 285.017 125.92C285.923 126.653 286.377 127.613 286.377 128.8C286.377 130.013 285.923 130.94 285.017 131.58C285.603 131.86 286.07 132.287 286.417 132.86C286.777 133.433 286.957 134.08 286.957 134.8C286.957 135.627 286.737 136.373 286.297 137.04C285.857 137.693 285.19 138.22 284.297 138.62C283.403 139.007 282.31 139.2 281.017 139.2ZM281.017 130.54C281.577 130.527 282.037 130.38 282.397 130.1C282.757 129.807 282.937 129.44 282.937 129C282.937 128.547 282.757 128.18 282.397 127.9C282.037 127.607 281.577 127.46 281.017 127.46C280.443 127.46 279.977 127.607 279.617 127.9C279.27 128.18 279.097 128.547 279.097 129C279.097 129.453 279.27 129.827 279.617 130.12C279.977 130.4 280.443 130.54 281.017 130.54ZM281.017 136.56C281.643 136.56 282.157 136.4 282.557 136.08C282.97 135.76 283.177 135.333 283.177 134.8C283.177 134.267 282.97 133.84 282.557 133.52C282.157 133.2 281.643 133.04 281.017 133.04C280.39 133.04 279.87 133.2 279.457 133.52C279.043 133.84 278.837 134.267 278.837 134.8C278.837 135.333 279.043 135.76 279.457 136.08C279.87 136.4 280.39 136.56 281.017 136.56ZM294.29 139.22C293.077 139.22 292.03 139.027 291.15 138.64C290.283 138.253 289.623 137.74 289.17 137.1C288.73 136.46 288.497 135.76 288.47 135C288.47 134.88 288.51 134.78 288.59 134.7C288.67 134.62 288.77 134.58 288.89 134.58H291.71C292.03 134.58 292.25 134.707 292.37 134.96C292.557 135.4 292.803 135.72 293.11 135.92C293.43 136.12 293.823 136.22 294.29 136.22C294.863 136.22 295.337 136.047 295.71 135.7C296.097 135.353 296.29 134.867 296.29 134.24C296.29 133.693 296.103 133.24 295.73 132.88C295.357 132.52 294.877 132.34 294.29 132.34C293.957 132.34 293.69 132.387 293.49 132.48C293.29 132.56 293.097 132.673 292.91 132.82C292.71 132.98 292.537 133.06 292.39 133.06H289.61C289.49 133.06 289.383 133.02 289.29 132.94C289.21 132.847 289.17 132.74 289.17 132.62L289.91 125.6C289.923 125.413 289.99 125.267 290.11 125.16C290.243 125.053 290.397 125 290.57 125H298.71C298.857 125 298.977 125.047 299.07 125.14C299.163 125.233 299.21 125.353 299.21 125.5V127.5C299.21 127.633 299.163 127.753 299.07 127.86C298.977 127.953 298.857 128 298.71 128H292.89L292.65 130.46C292.97 130.233 293.33 130.067 293.73 129.96C294.13 129.84 294.65 129.78 295.29 129.78C296.143 129.78 296.943 129.973 297.69 130.36C298.437 130.733 299.03 131.267 299.47 131.96C299.923 132.653 300.15 133.447 300.15 134.34C300.15 135.273 299.917 136.113 299.45 136.86C298.983 137.593 298.303 138.173 297.41 138.6C296.53 139.013 295.49 139.22 294.29 139.22Z" fill="#303030"/>
<g filter="url(#filter1_d_1235_385)">
<rect x="25" y="21" width="340" height="10" fill="#940000"/>
</g>
<defs>
<filter id="filter0_d_1235_385" x="0" y="0" width="390" height="184" filterUnits="userSpaceOnUse" color-interpolation-filters="sRGB">
<feFlood flood-opacity="0" result="BackgroundImageFix"/>
<feColorMatrix in="SourceAlpha" type="matrix" values="0 0 0 0 0 0 0 0 0 0 0 0 0 0 0 0 0 0 127 0" result="hardAlpha"/>
<feMorphology radius="15" operator="dilate" in="SourceAlpha" result="effect1_dropShadow_1235_385"/>
<feOffset dy="4"/>
<feGaussianBlur stdDeviation="5"/>
<feComposite in2="hardAlpha" operator="out"/>
<feColorMatrix type="matrix" values="0 0 0 0 0 0 0 0 0 0 0 0 0 0 0 0 0 0 0.25 0"/>
<feBlend mode="normal" in2="BackgroundImageFix" result="effect1_dropShadow_1235_385"/>
<feBlend mode="normal" in="SourceGraphic" in2="effect1_dropShadow_1235_385" result="shape"/>
</filter>
<filter id="filter1_d_1235_385" x="21" y="21" width="348" height="18" filterUnits="userSpaceOnUse" color-interpolation-filters="sRGB">
<feFlood flood-opacity="0" result="BackgroundImageFix"/>
<feColorMatrix in="SourceAlpha" type="matrix" values="0 0 0 0 0 0 0 0 0 0 0 0 0 0 0 0 0 0 127 0" result="hardAlpha"/>
<feOffset dy="4"/>
<feGaussianBlur stdDeviation="2"/>
<feComposite in2="hardAlpha" operator="out"/>
<feColorMatrix type="matrix" values="0 0 0 0 0 0 0 0 0 0 0 0 0 0 0 0 0 0 0.25 0"/>
<feBlend mode="normal" in2="BackgroundImageFix" result="effect1_dropShadow_1235_385"/>
<feBlend mode="normal" in="SourceGraphic" in2="effect1_dropShadow_1235_385" result="shape"/>
</filter>
</defs>
</svg>
