<svg width="375" height="184" viewBox="0 0 375 184" fill="none" xmlns="http://www.w3.org/2000/svg">
<g filter="url(#filter0_d_934_1117)">
<rect x="18" y="21" width="340" height="134" fill="white"/>
</g>
<path d="M53.1948 73C52.9814 73 52.7894 72.9253 52.6188 72.776C52.4694 72.6053 52.3948 72.4133 52.3948 72.2V51.432C52.3948 51.1973 52.4694 51.0053 52.6188 50.856C52.7681 50.6853 52.9601 50.6 53.1948 50.6H68.2987C68.5334 50.6 68.7254 50.6853 68.8748 50.856C69.0454 51.0053 69.1308 51.1973 69.1308 51.432V54.6C69.1308 54.8347 69.0454 55.0267 68.8748 55.176C68.7254 55.3253 68.5334 55.4 68.2987 55.4H58.1868V59.464H67.5948C67.8294 59.464 68.0214 59.5493 68.1708 59.72C68.3414 59.8693 68.4268 60.0613 68.4268 60.296V63.208C68.4268 63.4427 68.3414 63.6453 68.1708 63.816C68.0214 63.9653 67.8294 64.04 67.5948 64.04H58.1868V68.2H68.5548C68.7894 68.2 68.9814 68.2853 69.1308 68.456C69.3014 68.6053 69.3868 68.7973 69.3868 69.032V72.2C69.3868 72.4347 69.3014 72.6267 69.1308 72.776C68.9814 72.9253 68.7894 73 68.5548 73H53.1948ZM78.3385 73C78.0398 73 77.8052 72.936 77.6345 72.808C77.4852 72.6587 77.3572 72.456 77.2505 72.2L71.1705 57.352C71.1492 57.288 71.1385 57.2027 71.1385 57.096C71.1385 56.8827 71.2025 56.712 71.3305 56.584C71.4798 56.4347 71.6612 56.36 71.8745 56.36H75.6825C76.1305 56.36 76.4505 56.584 76.6425 57.032L80.1305 66.6L83.6505 57.032C83.7145 56.8613 83.8212 56.712 83.9705 56.584C84.1198 56.4347 84.3225 56.36 84.5785 56.36H88.4185C88.6105 56.36 88.7812 56.4347 88.9305 56.584C89.0798 56.712 89.1545 56.8827 89.1545 57.096L89.0905 57.352L83.0425 72.2C82.9358 72.456 82.7972 72.6587 82.6265 72.808C82.4558 72.936 82.2212 73 81.9225 73H78.3385ZM98.7258 73.32C96.1231 73.32 94.0751 72.6267 92.5818 71.24C91.0884 69.832 90.3204 67.7947 90.2778 65.128V64.136C90.3631 61.5973 91.1524 59.6133 92.6458 58.184C94.1391 56.7547 96.1551 56.04 98.6938 56.04C100.528 56.04 102.075 56.4133 103.334 57.16C104.614 57.8853 105.563 58.8987 106.182 60.2C106.822 61.48 107.142 62.9413 107.142 64.584V65.384C107.142 65.6187 107.056 65.8213 106.886 65.992C106.736 66.1413 106.544 66.216 106.31 66.216H96.1658V66.408C96.1871 67.368 96.4111 68.1467 96.8378 68.744C97.2644 69.32 97.8724 69.608 98.6618 69.608C99.1738 69.608 99.5791 69.512 99.8778 69.32C100.198 69.1067 100.496 68.84 100.774 68.52C100.966 68.3067 101.115 68.1787 101.222 68.136C101.35 68.072 101.542 68.04 101.798 68.04H105.99C106.182 68.04 106.342 68.104 106.47 68.232C106.619 68.3387 106.694 68.4773 106.694 68.648C106.694 69.2027 106.374 69.8533 105.734 70.6C105.115 71.3467 104.198 71.9867 102.982 72.52C101.787 73.0533 100.368 73.32 98.7258 73.32ZM101.254 62.952V62.888C101.254 61.864 101.03 61.0747 100.582 60.52C100.134 59.944 99.5044 59.656 98.6938 59.656C97.8831 59.656 97.2538 59.944 96.8058 60.52C96.3791 61.0747 96.1658 61.864 96.1658 62.888V62.952H101.254ZM110.812 73C110.598 73 110.406 72.9253 110.236 72.776C110.086 72.6053 110.012 72.4133 110.012 72.2V57.192C110.012 56.9573 110.086 56.7653 110.236 56.616C110.385 56.4453 110.577 56.36 110.812 56.36H114.716C114.95 56.36 115.142 56.4453 115.292 56.616C115.462 56.7653 115.548 56.9573 115.548 57.192V58.408C116.145 57.7467 116.838 57.2453 117.628 56.904C118.438 56.5413 119.334 56.36 120.316 56.36H121.756C121.99 56.36 122.182 56.4347 122.332 56.584C122.481 56.7333 122.556 56.9253 122.556 57.16V60.648C122.556 60.8613 122.481 61.0533 122.332 61.224C122.182 61.3733 121.99 61.448 121.756 61.448H118.524C117.67 61.448 117.009 61.6827 116.54 62.152C116.092 62.6213 115.868 63.2827 115.868 64.136V72.2C115.868 72.4347 115.782 72.6267 115.612 72.776C115.462 72.9253 115.27 73 115.036 73H110.812ZM127.898 79.08C127.706 79.08 127.546 79.016 127.418 78.888C127.29 78.76 127.226 78.6 127.226 78.408C127.226 78.2587 127.247 78.12 127.29 77.992L129.818 71.976L123.674 57.448C123.61 57.2773 123.578 57.16 123.578 57.096C123.62 56.8827 123.706 56.712 123.834 56.584C123.983 56.4347 124.154 56.36 124.346 56.36H128.154C128.602 56.36 128.911 56.584 129.082 57.032L132.634 66.12L136.282 57.032C136.495 56.584 136.815 56.36 137.242 56.36H141.017C141.209 56.36 141.37 56.4347 141.498 56.584C141.647 56.712 141.722 56.8613 141.722 57.032C141.722 57.1813 141.7 57.32 141.658 57.448L132.602 78.408C132.388 78.856 132.058 79.08 131.61 79.08H127.898ZM154.38 73.32C152.226 73.32 150.572 72.616 149.42 71.208V72.2C149.42 72.4133 149.346 72.6053 149.196 72.776C149.047 72.9253 148.855 73 148.62 73H144.812C144.578 73 144.375 72.9253 144.204 72.776C144.055 72.6267 143.98 72.4347 143.98 72.2V51.08C143.98 50.8453 144.055 50.6533 144.204 50.504C144.375 50.3547 144.578 50.28 144.812 50.28H148.94C149.175 50.28 149.367 50.3547 149.516 50.504C149.666 50.6533 149.74 50.8453 149.74 51.08V57.896C150.914 56.6587 152.46 56.04 154.38 56.04C156.428 56.04 158.05 56.712 159.244 58.056C160.439 59.3787 161.079 61.2027 161.164 63.528C161.186 63.8053 161.196 64.1893 161.196 64.68C161.196 65.1493 161.186 65.5227 161.164 65.8C161.079 68.2107 160.439 70.0667 159.244 71.368C158.071 72.6693 156.45 73.32 154.38 73.32ZM152.524 68.872C153.484 68.872 154.167 68.5947 154.572 68.04C154.999 67.464 155.244 66.6747 155.308 65.672C155.33 65.4587 155.34 65.128 155.34 64.68C155.34 64.232 155.33 63.9013 155.308 63.688C155.244 62.6853 154.999 61.9067 154.572 61.352C154.167 60.776 153.484 60.488 152.524 60.488C151.628 60.488 150.946 60.7653 150.476 61.32C150.028 61.8533 149.783 62.536 149.74 63.368C149.719 63.6453 149.708 64.04 149.708 64.552C149.708 65.064 149.719 65.4693 149.74 65.768C149.783 66.664 150.028 67.4107 150.476 68.008C150.924 68.584 151.607 68.872 152.524 68.872ZM172.262 73.32C169.574 73.32 167.504 72.7013 166.054 71.464C164.624 70.2053 163.846 68.424 163.718 66.12C163.696 65.8427 163.686 65.3627 163.686 64.68C163.686 63.9973 163.696 63.5173 163.718 63.24C163.846 60.9787 164.646 59.2187 166.118 57.96C167.611 56.68 169.659 56.04 172.262 56.04C174.864 56.04 176.902 56.68 178.374 57.96C179.867 59.2187 180.678 60.9787 180.806 63.24C180.848 63.7947 180.87 64.2747 180.87 64.68C180.87 65.0853 180.848 65.5653 180.806 66.12C180.678 68.424 179.888 70.2053 178.438 71.464C177.008 72.7013 174.95 73.32 172.262 73.32ZM172.262 69.288C173.136 69.288 173.787 69.0213 174.214 68.488C174.64 67.9333 174.886 67.0907 174.95 65.96C174.971 65.7467 174.982 65.32 174.982 64.68C174.982 64.04 174.971 63.6133 174.95 63.4C174.886 62.2907 174.64 61.4587 174.214 60.904C173.787 60.3493 173.136 60.072 172.262 60.072C171.387 60.072 170.736 60.3493 170.31 60.904C169.883 61.4587 169.638 62.2907 169.574 63.4L169.542 64.68L169.574 65.96C169.638 67.0907 169.883 67.9333 170.31 68.488C170.736 69.0213 171.387 69.288 172.262 69.288ZM190.158 73.32C188.088 73.32 186.456 72.6693 185.262 71.368C184.088 70.0667 183.459 68.2107 183.374 65.8L183.342 64.68L183.374 63.528C183.459 61.2027 184.099 59.3787 185.294 58.056C186.488 56.712 188.11 56.04 190.158 56.04C192.078 56.04 193.624 56.6587 194.798 57.896V51.08C194.798 50.8453 194.872 50.6533 195.022 50.504C195.192 50.3547 195.384 50.28 195.598 50.28H199.726C199.96 50.28 200.152 50.3547 200.302 50.504C200.472 50.6533 200.558 50.8453 200.558 51.08V72.2C200.558 72.4347 200.472 72.6267 200.302 72.776C200.152 72.9253 199.96 73 199.726 73H195.918C195.704 73 195.512 72.9253 195.342 72.776C195.192 72.6053 195.118 72.4133 195.118 72.2V71.208C193.966 72.616 192.312 73.32 190.158 73.32ZM192.014 68.872C192.931 68.872 193.614 68.584 194.062 68.008C194.51 67.4107 194.755 66.664 194.798 65.768C194.84 65.1707 194.862 64.7653 194.862 64.552C194.862 64.3173 194.84 63.9227 194.798 63.368C194.755 62.536 194.499 61.8533 194.03 61.32C193.582 60.7653 192.91 60.488 192.014 60.488C191.054 60.488 190.36 60.776 189.934 61.352C189.528 61.9067 189.294 62.6853 189.23 63.688L189.198 64.68L189.23 65.672C189.294 66.6747 189.528 67.464 189.934 68.04C190.36 68.5947 191.054 68.872 192.014 68.872ZM207.335 79.08C207.143 79.08 206.983 79.016 206.855 78.888C206.727 78.76 206.663 78.6 206.663 78.408C206.663 78.2587 206.684 78.12 206.727 77.992L209.255 71.976L203.111 57.448C203.047 57.2773 203.015 57.16 203.015 57.096C203.058 56.8827 203.143 56.712 203.271 56.584C203.42 56.4347 203.591 56.36 203.783 56.36H207.591C208.039 56.36 208.348 56.584 208.519 57.032L212.071 66.12L215.719 57.032C215.932 56.584 216.252 56.36 216.679 56.36H220.455C220.647 56.36 220.807 56.4347 220.935 56.584C221.084 56.712 221.159 56.8613 221.159 57.032C221.159 57.1813 221.138 57.32 221.095 57.448L212.039 78.408C211.826 78.856 211.495 79.08 211.047 79.08H207.335ZM233.041 73C232.679 73 232.38 72.904 232.145 72.712C231.932 72.4987 231.804 72.2427 231.761 71.944L228.337 51.464C228.316 51.4213 228.305 51.3573 228.305 51.272C228.305 51.1013 228.369 50.952 228.497 50.824C228.647 50.6747 228.807 50.6 228.977 50.6H233.169C233.788 50.6 234.129 50.8453 234.193 51.336L236.145 63.432L238.353 56.424C238.524 55.848 238.876 55.56 239.409 55.56H241.809C242.343 55.56 242.695 55.848 242.865 56.424L245.073 63.4L247.057 51.336C247.1 51.08 247.196 50.8987 247.345 50.792C247.495 50.664 247.729 50.6 248.049 50.6H252.241C252.433 50.6 252.593 50.6747 252.721 50.824C252.849 50.952 252.913 51.1013 252.913 51.272V51.464L249.489 71.944C249.447 72.2427 249.308 72.4987 249.073 72.712C248.839 72.904 248.551 73 248.209 73H244.977C244.636 73 244.369 72.9147 244.177 72.744C243.985 72.5733 243.857 72.3813 243.793 72.168L240.625 63.304L237.457 72.168C237.372 72.3813 237.233 72.5733 237.041 72.744C236.849 72.9147 236.583 73 236.241 73H233.041ZM260.161 73.32C259.03 73.32 257.995 73.1067 257.057 72.68C256.139 72.232 255.414 71.624 254.881 70.856C254.369 70.088 254.113 69.2453 254.113 68.328C254.113 66.8773 254.71 65.704 255.905 64.808C257.121 63.8907 258.785 63.2613 260.897 62.92L264.865 62.312V61.928C264.865 61.1387 264.705 60.5627 264.385 60.2C264.065 59.8373 263.521 59.656 262.753 59.656C262.326 59.656 261.963 59.7307 261.665 59.88C261.387 60.0293 261.067 60.2533 260.705 60.552C260.427 60.7867 260.182 60.9573 259.969 61.064C259.883 61.2133 259.777 61.288 259.649 61.288H255.937C255.723 61.288 255.542 61.224 255.393 61.096C255.265 60.9467 255.211 60.776 255.233 60.584C255.254 60.008 255.542 59.368 256.097 58.664C256.651 57.9387 257.494 57.32 258.625 56.808C259.755 56.296 261.153 56.04 262.817 56.04C265.462 56.04 267.425 56.6267 268.705 57.8C269.985 58.952 270.625 60.52 270.625 62.504V72.2C270.625 72.4133 270.55 72.6053 270.401 72.776C270.251 72.9253 270.059 73 269.825 73H265.889C265.675 73 265.483 72.9253 265.313 72.776C265.163 72.6053 265.089 72.4133 265.089 72.2V71.08C264.619 71.7413 263.969 72.2853 263.137 72.712C262.305 73.1173 261.313 73.32 260.161 73.32ZM261.76 69.544C262.699 69.544 263.457 69.2347 264.033 68.616C264.63 67.9973 264.929 67.1013 264.929 65.928V65.544L262.273 65.992C260.481 66.3333 259.585 66.9733 259.585 67.912C259.585 68.4027 259.787 68.7973 260.193 69.096C260.619 69.3947 261.142 69.544 261.76 69.544ZM274.905 73C274.692 73 274.5 72.9253 274.329 72.776C274.18 72.6053 274.105 72.4133 274.105 72.2V57.16C274.105 56.9253 274.18 56.7333 274.329 56.584C274.5 56.4347 274.692 56.36 274.905 56.36H278.841C279.076 56.36 279.268 56.4347 279.417 56.584C279.567 56.7333 279.641 56.9253 279.641 57.16V58.376C280.217 57.672 280.953 57.1067 281.849 56.68C282.767 56.2533 283.812 56.04 284.985 56.04C286.201 56.04 287.279 56.3173 288.217 56.872C289.177 57.4267 289.924 58.248 290.457 59.336C291.012 60.424 291.289 61.736 291.289 63.272V72.2C291.289 72.4133 291.215 72.6053 291.065 72.776C290.916 72.9253 290.724 73 290.489 73H286.233C285.999 73 285.796 72.9253 285.625 72.776C285.476 72.6267 285.401 72.4347 285.401 72.2V63.464C285.401 62.504 285.167 61.768 284.697 61.256C284.249 60.744 283.588 60.488 282.713 60.488C281.86 60.488 281.188 60.7547 280.697 61.288C280.207 61.8 279.961 62.5253 279.961 63.464V72.2C279.961 72.4133 279.887 72.6053 279.737 72.776C279.588 72.9253 279.396 73 279.161 73H274.905ZM303.373 73C298.85 73 296.589 70.8773 296.589 66.632V60.712H294.061C293.847 60.712 293.655 60.6373 293.485 60.488C293.335 60.3173 293.261 60.1253 293.261 59.912V57.16C293.261 56.9253 293.335 56.7333 293.485 56.584C293.655 56.4347 293.847 56.36 294.061 56.36H296.589V51.08C296.589 50.8453 296.663 50.6533 296.812 50.504C296.983 50.3547 297.175 50.28 297.389 50.28H301.325C301.559 50.28 301.751 50.3547 301.901 50.504C302.05 50.6533 302.125 50.8453 302.125 51.08V56.36H306.125C306.359 56.36 306.551 56.4347 306.701 56.584C306.871 56.7333 306.957 56.9253 306.957 57.16V59.912C306.957 60.1467 306.871 60.3387 306.701 60.488C306.551 60.6373 306.359 60.712 306.125 60.712H302.125V66.152C302.125 66.8987 302.263 67.464 302.541 67.848C302.818 68.232 303.266 68.424 303.885 68.424H306.413C306.647 68.424 306.839 68.5093 306.989 68.68C307.138 68.8293 307.213 69.0213 307.213 69.256V72.2C307.213 72.4133 307.138 72.6053 306.989 72.776C306.839 72.9253 306.647 73 306.413 73H303.373ZM316.769 73.32C315.019 73.32 313.558 73.0747 312.385 72.584C311.211 72.0933 310.337 71.5067 309.761 70.824C309.206 70.1413 308.929 69.5227 308.929 68.968C308.929 68.7547 309.003 68.584 309.153 68.456C309.323 68.3067 309.505 68.232 309.697 68.232H313.569C313.697 68.232 313.803 68.2747 313.889 68.36C314.251 68.5947 314.454 68.7333 314.497 68.776C314.902 69.0747 315.275 69.3093 315.617 69.48C315.979 69.6293 316.406 69.704 316.897 69.704C317.473 69.704 317.942 69.5973 318.305 69.384C318.689 69.1493 318.881 68.8293 318.881 68.424C318.881 68.0827 318.774 67.8053 318.561 67.592C318.369 67.3787 317.985 67.176 317.409 66.984C316.854 66.7707 316.001 66.5573 314.849 66.344C311.158 65.5973 309.313 63.8907 309.313 61.224C309.313 60.3493 309.59 59.5173 310.145 58.728C310.721 57.9173 311.553 57.2667 312.641 56.776C313.75 56.2853 315.073 56.04 316.609 56.04C318.166 56.04 319.51 56.2853 320.641 56.776C321.793 57.2453 322.667 57.8213 323.265 58.504C323.862 59.1653 324.161 59.7733 324.161 60.328C324.161 60.52 324.086 60.6907 323.937 60.84C323.809 60.9893 323.649 61.064 323.457 61.064H319.937C319.745 61.064 319.595 61.0213 319.489 60.936C319.233 60.808 318.977 60.648 318.721 60.456C318.337 60.2 317.995 60.008 317.697 59.88C317.419 59.7307 317.057 59.656 316.609 59.656C316.075 59.656 315.659 59.7733 315.361 60.008C315.062 60.2427 314.913 60.5413 314.913 60.904C314.913 61.224 314.998 61.4907 315.169 61.704C315.361 61.896 315.734 62.088 316.289 62.28C316.865 62.472 317.729 62.6747 318.881 62.888C320.971 63.2507 322.486 63.9013 323.425 64.84C324.385 65.7573 324.865 66.8347 324.865 68.072C324.865 69.672 324.15 70.952 322.721 71.912C321.313 72.8507 319.329 73.32 316.769 73.32ZM57.186 108C56.9513 108 56.7487 107.925 56.578 107.776C56.4287 107.627 56.354 107.435 56.354 107.2V90.816H50.722C50.4873 90.816 50.2847 90.7413 50.114 90.592C49.9647 90.4427 49.89 90.2507 49.89 90.016V86.432C49.89 86.1973 49.9647 86.0053 50.114 85.856C50.2847 85.6853 50.4873 85.6 50.722 85.6H68.098C68.3327 85.6 68.5247 85.6853 68.674 85.856C68.8447 86.0053 68.93 86.1973 68.93 86.432V90.016C68.93 90.2507 68.8447 90.4427 68.674 90.592C68.5247 90.7413 68.3327 90.816 68.098 90.816H62.466V107.2C62.466 107.435 62.3807 107.627 62.21 107.776C62.0607 107.925 61.8687 108 61.634 108H57.186ZM76.574 108.32C73.886 108.32 71.8167 107.701 70.366 106.464C68.9367 105.205 68.158 103.424 68.03 101.12C68.0087 100.843 67.998 100.363 67.998 99.68C67.998 98.9973 68.0087 98.5173 68.03 98.24C68.158 95.9787 68.958 94.2187 70.43 92.96C71.9233 91.68 73.9713 91.04 76.574 91.04C79.1767 91.04 81.214 91.68 82.686 92.96C84.1793 94.2187 84.99 95.9787 85.118 98.24C85.1607 98.7947 85.182 99.2747 85.182 99.68C85.182 100.085 85.1607 100.565 85.118 101.12C84.99 103.424 84.2007 105.205 82.75 106.464C81.3207 107.701 79.262 108.32 76.574 108.32ZM76.574 104.288C77.4487 104.288 78.0993 104.021 78.526 103.488C78.9527 102.933 79.198 102.091 79.262 100.96C79.2833 100.747 79.294 100.32 79.294 99.68C79.294 99.04 79.2833 98.6133 79.262 98.4C79.198 97.2907 78.9527 96.4587 78.526 95.904C78.0993 95.3493 77.4487 95.072 76.574 95.072C75.6993 95.072 75.0487 95.3493 74.622 95.904C74.1953 96.4587 73.95 97.2907 73.886 98.4L73.854 99.68L73.886 100.96C73.95 102.091 74.1953 102.933 74.622 103.488C75.0487 104.021 75.6993 104.288 76.574 104.288ZM96.101 108C95.8877 108 95.6957 107.925 95.525 107.776C95.3757 107.605 95.301 107.413 95.301 107.2V86.432C95.301 86.1973 95.3757 86.0053 95.525 85.856C95.6743 85.6853 95.8663 85.6 96.101 85.6H104.901C107.717 85.6 109.914 86.24 111.493 87.52C113.093 88.8 113.893 90.6027 113.893 92.928C113.893 94.4213 113.541 95.6907 112.837 96.736C112.154 97.7813 111.205 98.592 109.989 99.168L114.309 106.976C114.373 107.104 114.405 107.221 114.405 107.328C114.405 107.499 114.341 107.659 114.213 107.808C114.085 107.936 113.925 108 113.733 108H109.221C108.602 108 108.165 107.712 107.909 107.136L104.389 100.192H101.317V107.2C101.317 107.435 101.232 107.627 101.061 107.776C100.912 107.925 100.72 108 100.485 108H96.101ZM104.869 95.488C105.786 95.488 106.48 95.264 106.949 94.816C107.44 94.3467 107.685 93.7067 107.685 92.896C107.685 92.0853 107.44 91.4347 106.949 90.944C106.48 90.4533 105.786 90.208 104.869 90.208H101.317V95.488H104.869ZM123.311 108.32C121.434 108.32 119.919 107.691 118.767 106.432C117.615 105.173 117.039 103.392 117.039 101.088V92.16C117.039 91.9253 117.114 91.7333 117.263 91.584C117.434 91.4347 117.626 91.36 117.839 91.36H122.095C122.33 91.36 122.522 91.4347 122.671 91.584C122.842 91.7333 122.927 91.9253 122.927 92.16V100.896C122.927 102.88 123.812 103.872 125.583 103.872C126.436 103.872 127.098 103.616 127.567 103.104C128.058 102.571 128.303 101.835 128.303 100.896V92.16C128.303 91.9253 128.378 91.7333 128.527 91.584C128.698 91.4347 128.9 91.36 129.135 91.36H133.359C133.594 91.36 133.786 91.4347 133.935 91.584C134.084 91.7333 134.159 91.9253 134.159 92.16V107.2C134.159 107.413 134.084 107.605 133.935 107.776C133.786 107.925 133.594 108 133.359 108H129.455C129.22 108 129.018 107.925 128.847 107.776C128.698 107.627 128.623 107.435 128.623 107.2V105.984C127.514 107.541 125.743 108.32 123.311 108.32ZM138.625 108C138.39 108 138.187 107.925 138.017 107.776C137.867 107.627 137.793 107.435 137.793 107.2V86.08C137.793 85.8453 137.867 85.6533 138.017 85.504C138.187 85.3547 138.39 85.28 138.625 85.28H142.625C142.859 85.28 143.051 85.3547 143.201 85.504C143.35 85.6533 143.425 85.8453 143.425 86.08V107.2C143.425 107.413 143.35 107.605 143.201 107.776C143.051 107.925 142.859 108 142.625 108H138.625ZM154.882 108.32C152.279 108.32 150.231 107.627 148.738 106.24C147.245 104.832 146.477 102.795 146.434 100.128V99.136C146.519 96.5973 147.309 94.6133 148.802 93.184C150.295 91.7547 152.311 91.04 154.85 91.04C156.685 91.04 158.231 91.4133 159.49 92.16C160.77 92.8853 161.719 93.8987 162.338 95.2C162.978 96.48 163.298 97.9413 163.298 99.584V100.384C163.298 100.619 163.213 100.821 163.042 100.992C162.893 101.141 162.701 101.216 162.466 101.216H152.322V101.408C152.343 102.368 152.567 103.147 152.994 103.744C153.421 104.32 154.029 104.608 154.818 104.608C155.33 104.608 155.735 104.512 156.034 104.32C156.354 104.107 156.653 103.84 156.93 103.52C157.122 103.307 157.271 103.179 157.378 103.136C157.506 103.072 157.698 103.04 157.954 103.04H162.146C162.338 103.04 162.498 103.104 162.626 103.232C162.775 103.339 162.85 103.477 162.85 103.648C162.85 104.203 162.53 104.853 161.89 105.6C161.271 106.347 160.354 106.987 159.138 107.52C157.943 108.053 156.525 108.32 154.882 108.32ZM157.41 97.952V97.888C157.41 96.864 157.186 96.0747 156.738 95.52C156.29 94.944 155.661 94.656 154.85 94.656C154.039 94.656 153.41 94.944 152.962 95.52C152.535 96.0747 152.322 96.864 152.322 97.888V97.952H157.41ZM178.249 108C178.014 108 177.811 107.925 177.641 107.776C177.491 107.627 177.417 107.435 177.417 107.2V90.816H171.785C171.55 90.816 171.347 90.7413 171.177 90.592C171.027 90.4427 170.953 90.2507 170.953 90.016V86.432C170.953 86.1973 171.027 86.0053 171.177 85.856C171.347 85.6853 171.55 85.6 171.785 85.6H189.161C189.395 85.6 189.587 85.6853 189.737 85.856C189.907 86.0053 189.993 86.1973 189.993 86.432V90.016C189.993 90.2507 189.907 90.4427 189.737 90.592C189.587 90.7413 189.395 90.816 189.161 90.816H183.529V107.2C183.529 107.435 183.443 107.627 183.273 107.776C183.123 107.925 182.931 108 182.697 108H178.249ZM192.812 108C192.578 108 192.375 107.925 192.204 107.776C192.055 107.627 191.98 107.435 191.98 107.2V86.08C191.98 85.8453 192.055 85.6533 192.204 85.504C192.375 85.3547 192.578 85.28 192.812 85.28H197.132C197.367 85.28 197.559 85.3547 197.708 85.504C197.879 85.6533 197.964 85.8453 197.964 86.08V93.216C199.202 91.7653 200.876 91.04 202.988 91.04C204.204 91.04 205.303 91.3173 206.284 91.872C207.266 92.4267 208.034 93.248 208.588 94.336C209.143 95.424 209.42 96.736 209.42 98.272V107.2C209.42 107.435 209.335 107.627 209.164 107.776C209.015 107.925 208.823 108 208.588 108H204.236C204.023 108 203.831 107.925 203.66 107.776C203.511 107.605 203.436 107.413 203.436 107.2V98.464C203.436 97.5253 203.202 96.8 202.732 96.288C202.263 95.7547 201.591 95.488 200.716 95.488C199.863 95.488 199.191 95.7547 198.7 96.288C198.21 96.8 197.964 97.5253 197.964 98.464V107.2C197.964 107.435 197.879 107.627 197.708 107.776C197.559 107.925 197.367 108 197.132 108H192.812ZM220.726 108.32C218.123 108.32 216.075 107.627 214.582 106.24C213.088 104.832 212.32 102.795 212.278 100.128V99.136C212.363 96.5973 213.152 94.6133 214.646 93.184C216.139 91.7547 218.155 91.04 220.694 91.04C222.528 91.04 224.075 91.4133 225.334 92.16C226.614 92.8853 227.563 93.8987 228.182 95.2C228.822 96.48 229.142 97.9413 229.142 99.584V100.384C229.142 100.619 229.056 100.821 228.886 100.992C228.736 101.141 228.544 101.216 228.31 101.216H218.166V101.408C218.187 102.368 218.411 103.147 218.838 103.744C219.264 104.32 219.872 104.608 220.662 104.608C221.174 104.608 221.579 104.512 221.878 104.32C222.198 104.107 222.496 103.84 222.774 103.52C222.966 103.307 223.115 103.179 223.222 103.136C223.35 103.072 223.542 103.04 223.798 103.04H227.99C228.182 103.04 228.342 103.104 228.47 103.232C228.619 103.339 228.694 103.477 228.694 103.648C228.694 104.203 228.374 104.853 227.734 105.6C227.115 106.347 226.198 106.987 224.982 107.52C223.787 108.053 222.368 108.32 220.726 108.32ZM223.254 97.952V97.888C223.254 96.864 223.03 96.0747 222.582 95.52C222.134 94.944 221.504 94.656 220.694 94.656C219.883 94.656 219.254 94.944 218.806 95.52C218.379 96.0747 218.166 96.864 218.166 97.888V97.952H223.254ZM242.448 108C242.085 108 241.786 107.904 241.552 107.712C241.338 107.499 241.21 107.243 241.168 106.944L237.743 86.464C237.722 86.4213 237.712 86.3573 237.712 86.272C237.712 86.1013 237.776 85.952 237.904 85.824C238.053 85.6747 238.213 85.6 238.384 85.6H242.576C243.194 85.6 243.536 85.8453 243.6 86.336L245.552 98.432L247.76 91.424C247.93 90.848 248.282 90.56 248.816 90.56H251.216C251.749 90.56 252.101 90.848 252.272 91.424L254.48 98.4L256.464 86.336C256.506 86.08 256.602 85.8987 256.752 85.792C256.901 85.664 257.136 85.6 257.456 85.6H261.648C261.84 85.6 262 85.6747 262.128 85.824C262.256 85.952 262.32 86.1013 262.32 86.272V86.464L258.896 106.944C258.853 107.243 258.714 107.499 258.48 107.712C258.245 107.904 257.957 108 257.616 108H254.384C254.042 108 253.775 107.915 253.583 107.744C253.392 107.573 253.264 107.381 253.2 107.168L250.032 98.304L246.864 107.168C246.778 107.381 246.64 107.573 246.448 107.744C246.256 107.915 245.989 108 245.648 108H242.448ZM272.605 108.32C269.917 108.32 267.848 107.701 266.397 106.464C264.968 105.205 264.189 103.424 264.061 101.12C264.04 100.843 264.029 100.363 264.029 99.68C264.029 98.9973 264.04 98.5173 264.061 98.24C264.189 95.9787 264.989 94.2187 266.461 92.96C267.955 91.68 270.003 91.04 272.605 91.04C275.208 91.04 277.245 91.68 278.717 92.96C280.211 94.2187 281.021 95.9787 281.149 98.24C281.192 98.7947 281.213 99.2747 281.213 99.68C281.213 100.085 281.192 100.565 281.149 101.12C281.021 103.424 280.232 105.205 278.781 106.464C277.352 107.701 275.293 108.32 272.605 108.32ZM272.605 104.288C273.48 104.288 274.131 104.021 274.557 103.488C274.984 102.933 275.229 102.091 275.293 100.96C275.315 100.747 275.325 100.32 275.325 99.68C275.325 99.04 275.315 98.6133 275.293 98.4C275.229 97.2907 274.984 96.4587 274.557 95.904C274.131 95.3493 273.48 95.072 272.605 95.072C271.731 95.072 271.08 95.3493 270.653 95.904C270.227 96.4587 269.981 97.2907 269.917 98.4L269.885 99.68L269.917 100.96C269.981 102.091 270.227 102.933 270.653 103.488C271.08 104.021 271.731 104.288 272.605 104.288ZM285.062 108C284.848 108 284.656 107.925 284.486 107.776C284.336 107.605 284.262 107.413 284.262 107.2V92.192C284.262 91.9573 284.336 91.7653 284.486 91.616C284.635 91.4453 284.827 91.36 285.062 91.36H288.966C289.2 91.36 289.392 91.4453 289.542 91.616C289.712 91.7653 289.798 91.9573 289.798 92.192V93.408C290.395 92.7467 291.088 92.2453 291.878 91.904C292.688 91.5413 293.584 91.36 294.566 91.36H296.006C296.24 91.36 296.432 91.4347 296.582 91.584C296.731 91.7333 296.806 91.9253 296.806 92.16V95.648C296.806 95.8613 296.731 96.0533 296.582 96.224C296.432 96.3733 296.24 96.448 296.006 96.448H292.774C291.92 96.448 291.259 96.6827 290.79 97.152C290.342 97.6213 290.118 98.2827 290.118 99.136V107.2C290.118 107.435 290.032 107.627 289.862 107.776C289.712 107.925 289.52 108 289.286 108H285.062ZM299.844 108C299.609 108 299.406 107.925 299.236 107.776C299.086 107.627 299.012 107.435 299.012 107.2V86.08C299.012 85.8453 299.086 85.6533 299.236 85.504C299.406 85.3547 299.609 85.28 299.844 85.28H303.844C304.078 85.28 304.27 85.3547 304.42 85.504C304.569 85.6533 304.644 85.8453 304.644 86.08V107.2C304.644 107.413 304.569 107.605 304.42 107.776C304.27 107.925 304.078 108 303.844 108H299.844ZM314.533 108.32C312.463 108.32 310.831 107.669 309.637 106.368C308.463 105.067 307.834 103.211 307.749 100.8L307.717 99.68L307.749 98.528C307.834 96.2027 308.474 94.3787 309.669 93.056C310.863 91.712 312.485 91.04 314.533 91.04C316.453 91.04 317.999 91.6587 319.173 92.896V86.08C319.173 85.8453 319.247 85.6533 319.397 85.504C319.567 85.3547 319.759 85.28 319.973 85.28H324.101C324.335 85.28 324.527 85.3547 324.677 85.504C324.847 85.6533 324.933 85.8453 324.933 86.08V107.2C324.933 107.435 324.847 107.627 324.677 107.776C324.527 107.925 324.335 108 324.101 108H320.293C320.079 108 319.887 107.925 319.717 107.776C319.567 107.605 319.493 107.413 319.493 107.2V106.208C318.341 107.616 316.687 108.32 314.533 108.32ZM316.389 103.872C317.306 103.872 317.989 103.584 318.437 103.008C318.885 102.411 319.13 101.664 319.173 100.768C319.215 100.171 319.237 99.7653 319.237 99.552C319.237 99.3173 319.215 98.9227 319.173 98.368C319.13 97.536 318.874 96.8533 318.405 96.32C317.957 95.7653 317.285 95.488 316.389 95.488C315.429 95.488 314.735 95.776 314.309 96.352C313.903 96.9067 313.669 97.6853 313.605 98.688L313.573 99.68L313.605 100.672C313.669 101.675 313.903 102.464 314.309 103.04C314.735 103.595 315.429 103.872 316.389 103.872Z" fill="#940000"/>
<path d="M86.1026 139C85.9559 139 85.8292 138.953 85.7226 138.86C85.6292 138.767 85.5826 138.647 85.5826 138.5V128.26H82.0626C81.9159 128.26 81.7892 128.213 81.6826 128.12C81.5892 128.027 81.5426 127.907 81.5426 127.76V125.52C81.5426 125.373 81.5892 125.253 81.6826 125.16C81.7892 125.053 81.9159 125 82.0626 125H92.9226C93.0692 125 93.1892 125.053 93.2826 125.16C93.3892 125.253 93.4426 125.373 93.4426 125.52V127.76C93.4426 127.907 93.3892 128.027 93.2826 128.12C93.1892 128.213 93.0692 128.26 92.9226 128.26H89.4026V138.5C89.4026 138.647 89.3492 138.767 89.2426 138.86C89.1492 138.953 89.0292 139 88.8826 139H86.1026ZM98.1001 139.2C96.4734 139.2 95.1934 138.767 94.2601 137.9C93.3267 137.02 92.8467 135.747 92.8201 134.08V133.46C92.8734 131.873 93.3667 130.633 94.3001 129.74C95.2334 128.847 96.4934 128.4 98.0801 128.4C99.2267 128.4 100.193 128.633 100.98 129.1C101.78 129.553 102.373 130.187 102.76 131C103.16 131.8 103.36 132.713 103.36 133.74V134.24C103.36 134.387 103.307 134.513 103.2 134.62C103.107 134.713 102.987 134.76 102.84 134.76H96.5001V134.88C96.5134 135.48 96.6534 135.967 96.9201 136.34C97.1867 136.7 97.5667 136.88 98.0601 136.88C98.3801 136.88 98.6334 136.82 98.8201 136.7C99.0201 136.567 99.2067 136.4 99.3801 136.2C99.5001 136.067 99.5934 135.987 99.6601 135.96C99.7401 135.92 99.8601 135.9 100.02 135.9H102.64C102.76 135.9 102.86 135.94 102.94 136.02C103.033 136.087 103.08 136.173 103.08 136.28C103.08 136.627 102.88 137.033 102.48 137.5C102.093 137.967 101.52 138.367 100.76 138.7C100.013 139.033 99.1267 139.2 98.1001 139.2ZM99.6801 132.72V132.68C99.6801 132.04 99.5401 131.547 99.2601 131.2C98.9801 130.84 98.5867 130.66 98.0801 130.66C97.5734 130.66 97.1801 130.84 96.9001 131.2C96.6334 131.547 96.5001 132.04 96.5001 132.68V132.72H99.6801ZM108.294 139.2C107.587 139.2 106.94 139.067 106.354 138.8C105.78 138.52 105.327 138.14 104.994 137.66C104.674 137.18 104.514 136.653 104.514 136.08C104.514 135.173 104.887 134.44 105.634 133.88C106.394 133.307 107.434 132.913 108.754 132.7L111.234 132.32V132.08C111.234 131.587 111.134 131.227 110.934 131C110.734 130.773 110.394 130.66 109.914 130.66C109.647 130.66 109.42 130.707 109.234 130.8C109.06 130.893 108.86 131.033 108.634 131.22C108.46 131.367 108.307 131.473 108.174 131.54C108.12 131.633 108.054 131.68 107.974 131.68H105.654C105.52 131.68 105.407 131.64 105.314 131.56C105.234 131.467 105.2 131.36 105.214 131.24C105.227 130.88 105.407 130.48 105.754 130.04C106.1 129.587 106.627 129.2 107.334 128.88C108.04 128.56 108.914 128.4 109.954 128.4C111.607 128.4 112.834 128.767 113.634 129.5C114.434 130.22 114.834 131.2 114.834 132.44V138.5C114.834 138.633 114.787 138.753 114.694 138.86C114.6 138.953 114.48 139 114.334 139H111.874C111.74 139 111.62 138.953 111.514 138.86C111.42 138.753 111.374 138.633 111.374 138.5V137.8C111.08 138.213 110.674 138.553 110.154 138.82C109.634 139.073 109.014 139.2 108.294 139.2ZM109.294 136.84C109.88 136.84 110.354 136.647 110.714 136.26C111.087 135.873 111.274 135.313 111.274 134.58V134.34L109.614 134.62C108.494 134.833 107.934 135.233 107.934 135.82C107.934 136.127 108.06 136.373 108.314 136.56C108.58 136.747 108.907 136.84 109.294 136.84ZM117.509 139C117.376 139 117.256 138.953 117.149 138.86C117.056 138.753 117.009 138.633 117.009 138.5V129.12C117.009 128.973 117.056 128.853 117.149 128.76C117.242 128.653 117.362 128.6 117.509 128.6H119.949C120.096 128.6 120.216 128.653 120.309 128.76C120.416 128.853 120.469 128.973 120.469 129.12V129.88C120.842 129.467 121.276 129.153 121.769 128.94C122.276 128.713 122.836 128.6 123.449 128.6H124.349C124.496 128.6 124.616 128.647 124.709 128.74C124.802 128.833 124.849 128.953 124.849 129.1V131.28C124.849 131.413 124.802 131.533 124.709 131.64C124.616 131.733 124.496 131.78 124.349 131.78H122.329C121.796 131.78 121.382 131.927 121.089 132.22C120.809 132.513 120.669 132.927 120.669 133.46V138.5C120.669 138.647 120.616 138.767 120.509 138.86C120.416 138.953 120.296 139 120.149 139H117.509ZM130.588 139.2C129.495 139.2 128.581 139.047 127.848 138.74C127.115 138.433 126.568 138.067 126.208 137.64C125.861 137.213 125.688 136.827 125.688 136.48C125.688 136.347 125.735 136.24 125.828 136.16C125.935 136.067 126.048 136.02 126.168 136.02H128.588C128.668 136.02 128.735 136.047 128.788 136.1C129.015 136.247 129.141 136.333 129.168 136.36C129.421 136.547 129.655 136.693 129.868 136.8C130.095 136.893 130.361 136.94 130.668 136.94C131.028 136.94 131.321 136.873 131.548 136.74C131.788 136.593 131.908 136.393 131.908 136.14C131.908 135.927 131.841 135.753 131.708 135.62C131.588 135.487 131.348 135.36 130.988 135.24C130.641 135.107 130.108 134.973 129.388 134.84C127.081 134.373 125.928 133.307 125.928 131.64C125.928 131.093 126.101 130.573 126.448 130.08C126.808 129.573 127.328 129.167 128.008 128.86C128.701 128.553 129.528 128.4 130.488 128.4C131.461 128.4 132.301 128.553 133.008 128.86C133.728 129.153 134.275 129.513 134.648 129.94C135.021 130.353 135.208 130.733 135.208 131.08C135.208 131.2 135.161 131.307 135.068 131.4C134.988 131.493 134.888 131.54 134.768 131.54H132.568C132.448 131.54 132.355 131.513 132.288 131.46C132.128 131.38 131.968 131.28 131.808 131.16C131.568 131 131.355 130.88 131.168 130.8C130.995 130.707 130.768 130.66 130.488 130.66C130.155 130.66 129.895 130.733 129.708 130.88C129.521 131.027 129.428 131.213 129.428 131.44C129.428 131.64 129.481 131.807 129.588 131.94C129.708 132.06 129.941 132.18 130.288 132.3C130.648 132.42 131.188 132.547 131.908 132.68C133.215 132.907 134.161 133.313 134.748 133.9C135.348 134.473 135.648 135.147 135.648 135.92C135.648 136.92 135.201 137.72 134.308 138.32C133.428 138.907 132.188 139.2 130.588 139.2ZM142.28 139C142.147 139 142.027 138.953 141.92 138.86C141.827 138.753 141.78 138.633 141.78 138.5V125.52C141.78 125.373 141.827 125.253 141.92 125.16C142.013 125.053 142.133 125 142.28 125H151.58C151.727 125 151.847 125.053 151.94 125.16C152.047 125.253 152.1 125.373 152.1 125.52V127.64C152.1 127.787 152.047 127.907 151.94 128C151.847 128.093 151.727 128.14 151.58 128.14H145.46V130.92H151.18C151.327 130.92 151.447 130.973 151.54 131.08C151.647 131.173 151.7 131.293 151.7 131.44V133.56C151.7 133.707 151.647 133.827 151.54 133.92C151.447 134.013 151.327 134.06 151.18 134.06H145.46V138.5C145.46 138.633 145.413 138.753 145.32 138.86C145.227 138.953 145.107 139 144.96 139H142.28ZM158.806 139.2C157.126 139.2 155.833 138.813 154.926 138.04C154.033 137.253 153.546 136.14 153.466 134.7C153.453 134.527 153.446 134.227 153.446 133.8C153.446 133.373 153.453 133.073 153.466 132.9C153.546 131.487 154.046 130.387 154.966 129.6C155.899 128.8 157.179 128.4 158.806 128.4C160.433 128.4 161.706 128.8 162.626 129.6C163.559 130.387 164.066 131.487 164.146 132.9C164.173 133.247 164.186 133.547 164.186 133.8C164.186 134.053 164.173 134.353 164.146 134.7C164.066 136.14 163.573 137.253 162.666 138.04C161.773 138.813 160.486 139.2 158.806 139.2ZM158.806 136.68C159.353 136.68 159.759 136.513 160.026 136.18C160.293 135.833 160.446 135.307 160.486 134.6C160.499 134.467 160.506 134.2 160.506 133.8C160.506 133.4 160.499 133.133 160.486 133C160.446 132.307 160.293 131.787 160.026 131.44C159.759 131.093 159.353 130.92 158.806 130.92C158.259 130.92 157.853 131.093 157.586 131.44C157.319 131.787 157.166 132.307 157.126 133L157.106 133.8L157.126 134.6C157.166 135.307 157.319 135.833 157.586 136.18C157.853 136.513 158.259 136.68 158.806 136.68ZM166.591 139C166.458 139 166.338 138.953 166.231 138.86C166.138 138.753 166.091 138.633 166.091 138.5V129.12C166.091 128.973 166.138 128.853 166.231 128.76C166.325 128.653 166.445 128.6 166.591 128.6H169.031C169.178 128.6 169.298 128.653 169.391 128.76C169.498 128.853 169.551 128.973 169.551 129.12V129.88C169.925 129.467 170.358 129.153 170.851 128.94C171.358 128.713 171.918 128.6 172.531 128.6H173.431C173.578 128.6 173.698 128.647 173.791 128.74C173.885 128.833 173.931 128.953 173.931 129.1V131.28C173.931 131.413 173.885 131.533 173.791 131.64C173.698 131.733 173.578 131.78 173.431 131.78H171.411C170.878 131.78 170.465 131.927 170.171 132.22C169.891 132.513 169.751 132.927 169.751 133.46V138.5C169.751 138.647 169.698 138.767 169.591 138.86C169.498 138.953 169.378 139 169.231 139H166.591ZM179.858 139C179.725 139 179.605 138.953 179.498 138.86C179.405 138.753 179.358 138.633 179.358 138.5V125.52C179.358 125.373 179.405 125.253 179.498 125.16C179.591 125.053 179.711 125 179.858 125H189.158C189.305 125 189.425 125.053 189.518 125.16C189.625 125.253 189.678 125.373 189.678 125.52V127.64C189.678 127.787 189.625 127.907 189.518 128C189.425 128.093 189.305 128.14 189.158 128.14H183.038V130.92H188.758C188.905 130.92 189.025 130.973 189.118 131.08C189.225 131.173 189.278 131.293 189.278 131.44V133.56C189.278 133.707 189.225 133.827 189.118 133.92C189.025 134.013 188.905 134.06 188.758 134.06H183.038V138.5C183.038 138.633 182.991 138.753 182.898 138.86C182.805 138.953 182.685 139 182.538 139H179.858ZM196.264 139.2C194.637 139.2 193.357 138.767 192.424 137.9C191.491 137.02 191.011 135.747 190.984 134.08V133.46C191.037 131.873 191.531 130.633 192.464 129.74C193.397 128.847 194.657 128.4 196.244 128.4C197.391 128.4 198.357 128.633 199.144 129.1C199.944 129.553 200.537 130.187 200.924 131C201.324 131.8 201.524 132.713 201.524 133.74V134.24C201.524 134.387 201.471 134.513 201.364 134.62C201.271 134.713 201.151 134.76 201.004 134.76H194.664V134.88C194.677 135.48 194.817 135.967 195.084 136.34C195.351 136.7 195.731 136.88 196.224 136.88C196.544 136.88 196.797 136.82 196.984 136.7C197.184 136.567 197.371 136.4 197.544 136.2C197.664 136.067 197.757 135.987 197.824 135.96C197.904 135.92 198.024 135.9 198.184 135.9H200.804C200.924 135.9 201.024 135.94 201.104 136.02C201.197 136.087 201.244 136.173 201.244 136.28C201.244 136.627 201.044 137.033 200.644 137.5C200.257 137.967 199.684 138.367 198.924 138.7C198.177 139.033 197.291 139.2 196.264 139.2ZM197.844 132.72V132.68C197.844 132.04 197.704 131.547 197.424 131.2C197.144 130.84 196.751 130.66 196.244 130.66C195.737 130.66 195.344 130.84 195.064 131.2C194.797 131.547 194.664 132.04 194.664 132.68V132.72H197.844ZM206.458 139.2C205.751 139.2 205.104 139.067 204.518 138.8C203.944 138.52 203.491 138.14 203.158 137.66C202.838 137.18 202.678 136.653 202.678 136.08C202.678 135.173 203.051 134.44 203.798 133.88C204.558 133.307 205.598 132.913 206.918 132.7L209.398 132.32V132.08C209.398 131.587 209.298 131.227 209.098 131C208.898 130.773 208.558 130.66 208.078 130.66C207.811 130.66 207.584 130.707 207.398 130.8C207.224 130.893 207.024 131.033 206.798 131.22C206.624 131.367 206.471 131.473 206.338 131.54C206.284 131.633 206.218 131.68 206.138 131.68H203.818C203.684 131.68 203.571 131.64 203.478 131.56C203.398 131.467 203.364 131.36 203.378 131.24C203.391 130.88 203.571 130.48 203.918 130.04C204.264 129.587 204.791 129.2 205.498 128.88C206.204 128.56 207.078 128.4 208.118 128.4C209.771 128.4 210.998 128.767 211.798 129.5C212.598 130.22 212.998 131.2 212.998 132.44V138.5C212.998 138.633 212.951 138.753 212.858 138.86C212.764 138.953 212.644 139 212.498 139H210.038C209.904 139 209.784 138.953 209.678 138.86C209.584 138.753 209.538 138.633 209.538 138.5V137.8C209.244 138.213 208.838 138.553 208.318 138.82C207.798 139.073 207.178 139.2 206.458 139.2ZM207.458 136.84C208.044 136.84 208.518 136.647 208.878 136.26C209.251 135.873 209.438 135.313 209.438 134.58V134.34L207.778 134.62C206.658 134.833 206.098 135.233 206.098 135.82C206.098 136.127 206.224 136.373 206.478 136.56C206.744 136.747 207.071 136.84 207.458 136.84ZM215.673 139C215.54 139 215.42 138.953 215.313 138.86C215.22 138.753 215.173 138.633 215.173 138.5V129.12C215.173 128.973 215.22 128.853 215.313 128.76C215.407 128.653 215.527 128.6 215.673 128.6H218.113C218.26 128.6 218.38 128.653 218.473 128.76C218.58 128.853 218.633 128.973 218.633 129.12V129.88C219.007 129.467 219.44 129.153 219.933 128.94C220.44 128.713 221 128.6 221.613 128.6H222.513C222.66 128.6 222.78 128.647 222.873 128.74C222.967 128.833 223.013 128.953 223.013 129.1V131.28C223.013 131.413 222.967 131.533 222.873 131.64C222.78 131.733 222.66 131.78 222.513 131.78H220.493C219.96 131.78 219.547 131.927 219.253 132.22C218.973 132.513 218.833 132.927 218.833 133.46V138.5C218.833 138.647 218.78 138.767 218.673 138.86C218.58 138.953 218.46 139 218.313 139H215.673ZM228.752 139.2C227.659 139.2 226.745 139.047 226.012 138.74C225.279 138.433 224.732 138.067 224.372 137.64C224.025 137.213 223.852 136.827 223.852 136.48C223.852 136.347 223.899 136.24 223.992 136.16C224.099 136.067 224.212 136.02 224.332 136.02H226.752C226.832 136.02 226.899 136.047 226.952 136.1C227.179 136.247 227.305 136.333 227.332 136.36C227.585 136.547 227.819 136.693 228.032 136.8C228.259 136.893 228.525 136.94 228.832 136.94C229.192 136.94 229.485 136.873 229.712 136.74C229.952 136.593 230.072 136.393 230.072 136.14C230.072 135.927 230.005 135.753 229.872 135.62C229.752 135.487 229.512 135.36 229.152 135.24C228.805 135.107 228.272 134.973 227.552 134.84C225.245 134.373 224.092 133.307 224.092 131.64C224.092 131.093 224.265 130.573 224.612 130.08C224.972 129.573 225.492 129.167 226.172 128.86C226.865 128.553 227.692 128.4 228.652 128.4C229.625 128.4 230.465 128.553 231.172 128.86C231.892 129.153 232.439 129.513 232.812 129.94C233.185 130.353 233.372 130.733 233.372 131.08C233.372 131.2 233.325 131.307 233.232 131.4C233.152 131.493 233.052 131.54 232.932 131.54H230.732C230.612 131.54 230.519 131.513 230.452 131.46C230.292 131.38 230.132 131.28 229.972 131.16C229.732 131 229.519 130.88 229.332 130.8C229.159 130.707 228.932 130.66 228.652 130.66C228.319 130.66 228.059 130.733 227.872 130.88C227.685 131.027 227.592 131.213 227.592 131.44C227.592 131.64 227.645 131.807 227.752 131.94C227.872 132.06 228.105 132.18 228.452 132.3C228.812 132.42 229.352 132.547 230.072 132.68C231.379 132.907 232.325 133.313 232.912 133.9C233.512 134.473 233.812 135.147 233.812 135.92C233.812 136.92 233.365 137.72 232.472 138.32C231.592 138.907 230.352 139.2 228.752 139.2ZM235.405 140.5C235.285 140.5 235.185 140.453 235.105 140.36C235.038 140.28 235.011 140.18 235.025 140.06L235.645 136.04C235.671 135.853 235.745 135.693 235.865 135.56C235.985 135.413 236.158 135.34 236.385 135.34H238.805C238.911 135.34 239.005 135.38 239.085 135.46C239.165 135.54 239.205 135.633 239.205 135.74C239.205 135.82 239.191 135.893 239.165 135.96L237.605 139.94C237.458 140.313 237.211 140.5 236.865 140.5H235.405ZM249.749 139C249.616 139 249.496 138.953 249.389 138.86C249.296 138.753 249.249 138.633 249.249 138.5V129.14L246.569 131.2C246.462 131.267 246.362 131.3 246.269 131.3C246.109 131.3 245.969 131.22 245.849 131.06L244.609 129.46C244.556 129.367 244.529 129.267 244.529 129.16C244.529 128.973 244.602 128.827 244.749 128.72L249.389 125.14C249.522 125.047 249.676 125 249.849 125H252.489C252.636 125 252.756 125.047 252.849 125.14C252.956 125.233 253.009 125.353 253.009 125.5V138.5C253.009 138.647 252.956 138.767 252.849 138.86C252.756 138.953 252.636 139 252.489 139H249.749ZM257.727 139C257.607 139 257.507 138.96 257.427 138.88C257.347 138.787 257.307 138.68 257.307 138.56C257.307 138.467 257.334 138.38 257.387 138.3L260.187 134.48C260.014 134.52 259.834 134.533 259.647 134.52C258.834 134.467 258.06 134.247 257.327 133.86C256.594 133.46 255.994 132.913 255.527 132.22C255.074 131.513 254.847 130.713 254.847 129.82C254.847 128.94 255.067 128.12 255.507 127.36C255.96 126.587 256.62 125.967 257.487 125.5C258.367 125.033 259.42 124.8 260.647 124.8C261.887 124.8 262.954 125.013 263.847 125.44C264.74 125.867 265.414 126.453 265.867 127.2C266.334 127.933 266.567 128.76 266.567 129.68C266.567 130.413 266.414 131.087 266.107 131.7C265.814 132.3 265.367 133.007 264.767 133.82L264.407 134.32L261.267 138.6C261.08 138.867 260.84 139 260.547 139H257.727ZM260.687 131.8C261.274 131.8 261.754 131.62 262.127 131.26C262.514 130.9 262.707 130.413 262.707 129.8C262.707 129.187 262.514 128.7 262.127 128.34C261.74 127.98 261.26 127.8 260.687 127.8C260.1 127.8 259.614 127.98 259.227 128.34C258.854 128.7 258.667 129.187 258.667 129.8C258.667 130.413 258.854 130.9 259.227 131.26C259.6 131.62 260.087 131.8 260.687 131.8ZM274.017 139.2C272.723 139.2 271.63 139.007 270.737 138.62C269.843 138.22 269.177 137.687 268.737 137.02C268.31 136.353 268.097 135.607 268.097 134.78C268.097 134.087 268.27 133.46 268.617 132.9C268.977 132.327 269.443 131.887 270.017 131.58C269.07 130.967 268.597 130.047 268.597 128.82C268.597 127.633 269.05 126.667 269.957 125.92C270.877 125.173 272.23 124.8 274.017 124.8C275.79 124.8 277.123 125.173 278.017 125.92C278.923 126.653 279.377 127.613 279.377 128.8C279.377 130.013 278.923 130.94 278.017 131.58C278.603 131.86 279.07 132.287 279.417 132.86C279.777 133.433 279.957 134.08 279.957 134.8C279.957 135.627 279.737 136.373 279.297 137.04C278.857 137.693 278.19 138.22 277.297 138.62C276.403 139.007 275.31 139.2 274.017 139.2ZM274.017 130.54C274.577 130.527 275.037 130.38 275.397 130.1C275.757 129.807 275.937 129.44 275.937 129C275.937 128.547 275.757 128.18 275.397 127.9C275.037 127.607 274.577 127.46 274.017 127.46C273.443 127.46 272.977 127.607 272.617 127.9C272.27 128.18 272.097 128.547 272.097 129C272.097 129.453 272.27 129.827 272.617 130.12C272.977 130.4 273.443 130.54 274.017 130.54ZM274.017 136.56C274.643 136.56 275.157 136.4 275.557 136.08C275.97 135.76 276.177 135.333 276.177 134.8C276.177 134.267 275.97 133.84 275.557 133.52C275.157 133.2 274.643 133.04 274.017 133.04C273.39 133.04 272.87 133.2 272.457 133.52C272.043 133.84 271.837 134.267 271.837 134.8C271.837 135.333 272.043 135.76 272.457 136.08C272.87 136.4 273.39 136.56 274.017 136.56ZM287.29 139.22C286.077 139.22 285.03 139.027 284.15 138.64C283.283 138.253 282.623 137.74 282.17 137.1C281.73 136.46 281.497 135.76 281.47 135C281.47 134.88 281.51 134.78 281.59 134.7C281.67 134.62 281.77 134.58 281.89 134.58H284.71C285.03 134.58 285.25 134.707 285.37 134.96C285.557 135.4 285.803 135.72 286.11 135.92C286.43 136.12 286.823 136.22 287.29 136.22C287.863 136.22 288.337 136.047 288.71 135.7C289.097 135.353 289.29 134.867 289.29 134.24C289.29 133.693 289.103 133.24 288.73 132.88C288.357 132.52 287.877 132.34 287.29 132.34C286.957 132.34 286.69 132.387 286.49 132.48C286.29 132.56 286.097 132.673 285.91 132.82C285.71 132.98 285.537 133.06 285.39 133.06H282.61C282.49 133.06 282.383 133.02 282.29 132.94C282.21 132.847 282.17 132.74 282.17 132.62L282.91 125.6C282.923 125.413 282.99 125.267 283.11 125.16C283.243 125.053 283.397 125 283.57 125H291.71C291.857 125 291.977 125.047 292.07 125.14C292.163 125.233 292.21 125.353 292.21 125.5V127.5C292.21 127.633 292.163 127.753 292.07 127.86C291.977 127.953 291.857 128 291.71 128H285.89L285.65 130.46C285.97 130.233 286.33 130.067 286.73 129.96C287.13 129.84 287.65 129.78 288.29 129.78C289.143 129.78 289.943 129.973 290.69 130.36C291.437 130.733 292.03 131.267 292.47 131.96C292.923 132.653 293.15 133.447 293.15 134.34C293.15 135.273 292.917 136.113 292.45 136.86C291.983 137.593 291.303 138.173 290.41 138.6C289.53 139.013 288.49 139.22 287.29 139.22Z" fill="#303030"/>
<g filter="url(#filter1_d_934_1117)">
<rect x="18" y="21" width="340" height="10" fill="#940000"/>
</g>
<defs>
<filter id="filter0_d_934_1117" x="-7" y="0" width="390" height="184" filterUnits="userSpaceOnUse" color-interpolation-filters="sRGB">
<feFlood flood-opacity="0" result="BackgroundImageFix"/>
<feColorMatrix in="SourceAlpha" type="matrix" values="0 0 0 0 0 0 0 0 0 0 0 0 0 0 0 0 0 0 127 0" result="hardAlpha"/>
<feMorphology radius="15" operator="dilate" in="SourceAlpha" result="effect1_dropShadow_934_1117"/>
<feOffset dy="4"/>
<feGaussianBlur stdDeviation="5"/>
<feComposite in2="hardAlpha" operator="out"/>
<feColorMatrix type="matrix" values="0 0 0 0 0 0 0 0 0 0 0 0 0 0 0 0 0 0 0.25 0"/>
<feBlend mode="normal" in2="BackgroundImageFix" result="effect1_dropShadow_934_1117"/>
<feBlend mode="normal" in="SourceGraphic" in2="effect1_dropShadow_934_1117" result="shape"/>
</filter>
<filter id="filter1_d_934_1117" x="14" y="21" width="348" height="18" filterUnits="userSpaceOnUse" color-interpolation-filters="sRGB">
<feFlood flood-opacity="0" result="BackgroundImageFix"/>
<feColorMatrix in="SourceAlpha" type="matrix" values="0 0 0 0 0 0 0 0 0 0 0 0 0 0 0 0 0 0 127 0" result="hardAlpha"/>
<feOffset dy="4"/>
<feGaussianBlur stdDeviation="2"/>
<feComposite in2="hardAlpha" operator="out"/>
<feColorMatrix type="matrix" values="0 0 0 0 0 0 0 0 0 0 0 0 0 0 0 0 0 0 0.25 0"/>
<feBlend mode="normal" in2="BackgroundImageFix" result="effect1_dropShadow_934_1117"/>
<feBlend mode="normal" in="SourceGraphic" in2="effect1_dropShadow_934_1117" result="shape"/>
</filter>
</defs>
</svg>
