<svg width="390" height="190" viewBox="0 0 390 190" fill="none" xmlns="http://www.w3.org/2000/svg">
<g filter="url(#filter0_d_1235_380)">
<rect x="25" y="21" width="340" height="140" fill="white"/>
</g>
<path d="M156.742 73C156.528 73 156.336 72.9253 156.166 72.776C156.016 72.6053 155.942 72.4133 155.942 72.2V51.432C155.942 51.1973 156.016 51.0053 156.166 50.856C156.315 50.6853 156.507 50.6 156.742 50.6H165.158C168.315 50.6 170.768 51.3573 172.518 52.872C174.267 54.3653 175.184 56.52 175.27 59.336C175.291 59.9547 175.302 60.776 175.302 61.8C175.302 62.824 175.291 63.6347 175.27 64.232C175.056 70.0773 171.739 73 165.318 73H156.742ZM165.158 68.2C166.502 68.2 167.494 67.88 168.134 67.24C168.774 66.6 169.115 65.576 169.158 64.168C169.2 63.5493 169.222 62.7493 169.222 61.768C169.222 60.7867 169.2 59.9973 169.158 59.4C169.115 58.0347 168.742 57.032 168.038 56.392C167.355 55.7307 166.342 55.4 164.998 55.4H161.958V68.2H165.158ZM179.39 54.056C179.155 54.056 178.963 53.9813 178.814 53.832C178.664 53.6613 178.59 53.4587 178.59 53.224V50.248C178.59 50.0133 178.664 49.8213 178.814 49.672C178.984 49.5013 179.176 49.416 179.39 49.416H183.39C183.624 49.416 183.816 49.5013 183.966 49.672C184.136 49.8213 184.222 50.0133 184.222 50.248V53.224C184.222 53.4587 184.136 53.6613 183.966 53.832C183.816 53.9813 183.624 54.056 183.39 54.056H179.39ZM179.39 73C179.176 73 178.984 72.9253 178.814 72.776C178.664 72.6053 178.59 72.4133 178.59 72.2V57.16C178.59 56.9253 178.664 56.7333 178.814 56.584C178.984 56.4347 179.176 56.36 179.39 56.36H183.39C183.624 56.36 183.816 56.4347 183.966 56.584C184.136 56.7333 184.222 56.9253 184.222 57.16V72.2C184.222 72.4347 184.136 72.6267 183.966 72.776C183.816 72.9253 183.624 73 183.39 73H179.39ZM189.055 54.056C188.82 54.056 188.618 53.9813 188.447 53.832C188.298 53.6613 188.223 53.4587 188.223 53.224V50.248C188.223 50.0133 188.298 49.8213 188.447 49.672C188.618 49.5013 188.82 49.416 189.055 49.416H193.247C193.482 49.416 193.674 49.5013 193.823 49.672C193.994 49.8213 194.079 50.0133 194.079 50.248V53.224C194.079 53.4587 193.994 53.6613 193.823 53.832C193.674 53.9813 193.482 54.056 193.247 54.056H189.055ZM185.087 79.08C184.852 79.08 184.66 79.0053 184.511 78.856C184.362 78.7067 184.287 78.5147 184.287 78.28V75.528C184.287 75.3147 184.362 75.1227 184.511 74.952C184.66 74.8027 184.852 74.728 185.087 74.728H186.367C187.071 74.728 187.562 74.536 187.839 74.152C188.116 73.768 188.255 73.2133 188.255 72.488V57.16C188.255 56.9253 188.33 56.7333 188.479 56.584C188.65 56.4347 188.842 56.36 189.055 56.36H193.247C193.482 56.36 193.674 56.4347 193.823 56.584C193.972 56.7333 194.047 56.9253 194.047 57.16V72.616C194.047 74.6853 193.428 76.2747 192.191 77.384C190.954 78.5147 189.226 79.08 187.007 79.08H185.087ZM205.715 73.32C203.027 73.32 200.957 72.7013 199.507 71.464C198.077 70.2053 197.299 68.424 197.171 66.12C197.149 65.8427 197.139 65.3627 197.139 64.68C197.139 63.9973 197.149 63.5173 197.171 63.24C197.299 60.9787 198.099 59.2187 199.571 57.96C201.064 56.68 203.112 56.04 205.715 56.04C208.317 56.04 210.355 56.68 211.827 57.96C213.32 59.2187 214.131 60.9787 214.259 63.24C214.301 63.7947 214.323 64.2747 214.323 64.68C214.323 65.0853 214.301 65.5653 214.259 66.12C214.131 68.424 213.341 70.2053 211.891 71.464C210.461 72.7013 208.403 73.32 205.715 73.32ZM205.715 69.288C206.589 69.288 207.24 69.0213 207.667 68.488C208.093 67.9333 208.339 67.0907 208.403 65.96C208.424 65.7467 208.435 65.32 208.435 64.68C208.435 64.04 208.424 63.6133 208.403 63.4C208.339 62.2907 208.093 61.4587 207.667 60.904C207.24 60.3493 206.589 60.072 205.715 60.072C204.84 60.072 204.189 60.3493 203.763 60.904C203.336 61.4587 203.091 62.2907 203.027 63.4L202.995 64.68L203.027 65.96C203.091 67.0907 203.336 67.9333 203.763 68.488C204.189 69.0213 204.84 69.288 205.715 69.288ZM218.171 73C217.958 73 217.766 72.9253 217.595 72.776C217.446 72.6053 217.371 72.4133 217.371 72.2V57.16C217.371 56.9253 217.446 56.7333 217.595 56.584C217.766 56.4347 217.958 56.36 218.171 56.36H222.107C222.342 56.36 222.534 56.4347 222.683 56.584C222.832 56.7333 222.907 56.9253 222.907 57.16V58.376C223.483 57.672 224.219 57.1067 225.115 56.68C226.032 56.2533 227.078 56.04 228.251 56.04C229.467 56.04 230.544 56.3173 231.483 56.872C232.443 57.4267 233.19 58.248 233.723 59.336C234.278 60.424 234.555 61.736 234.555 63.272V72.2C234.555 72.4133 234.48 72.6053 234.331 72.776C234.182 72.9253 233.99 73 233.755 73H229.499C229.264 73 229.062 72.9253 228.891 72.776C228.742 72.6267 228.667 72.4347 228.667 72.2V63.464C228.667 62.504 228.432 61.768 227.963 61.256C227.515 60.744 226.854 60.488 225.979 60.488C225.126 60.488 224.454 60.7547 223.963 61.288C223.472 61.8 223.227 62.5253 223.227 63.464V72.2C223.227 72.4133 223.152 72.6053 223.003 72.776C222.854 72.9253 222.662 73 222.427 73H218.171Z" fill="#940000"/>
<path d="M101.799 102.2C99.892 102.2 98.392 101.74 97.2987 100.82C96.2187 99.9 95.6453 98.5533 95.5787 96.78C95.5653 96.42 95.5587 95.8333 95.5587 95.02C95.5587 94.1933 95.5653 93.5933 95.5787 93.22C95.6453 91.4867 96.2253 90.1533 97.3187 89.22C98.4253 88.2733 99.9187 87.8 101.799 87.8C102.985 87.8 104.045 87.9933 104.979 88.38C105.925 88.7667 106.672 89.3267 107.219 90.06C107.765 90.7933 108.052 91.66 108.079 92.66C108.079 92.78 108.032 92.88 107.939 92.96C107.859 93.04 107.759 93.08 107.639 93.08H104.799C104.612 93.08 104.472 93.0467 104.379 92.98C104.299 92.9 104.225 92.76 104.159 92.56C103.972 91.9067 103.685 91.4533 103.299 91.2C102.925 90.9333 102.425 90.8 101.799 90.8C100.292 90.8 99.512 91.64 99.4587 93.32C99.4453 93.68 99.4387 94.2333 99.4387 94.98C99.4387 95.7267 99.4453 96.2933 99.4587 96.68C99.512 98.36 100.292 99.2 101.799 99.2C102.412 99.2 102.912 99.0667 103.299 98.8C103.699 98.5333 103.985 98.08 104.159 97.44C104.212 97.24 104.285 97.1067 104.379 97.04C104.472 96.96 104.612 96.92 104.799 96.92H107.639C107.759 96.92 107.859 96.96 107.939 97.04C108.032 97.12 108.079 97.22 108.079 97.34C108.052 98.34 107.765 99.2067 107.219 99.94C106.672 100.673 105.925 101.233 104.979 101.62C104.045 102.007 102.985 102.2 101.799 102.2ZM114.9 102.2C113.22 102.2 111.926 101.813 111.02 101.04C110.126 100.253 109.64 99.14 109.56 97.7C109.546 97.5267 109.54 97.2267 109.54 96.8C109.54 96.3733 109.546 96.0733 109.56 95.9C109.64 94.4867 110.14 93.3867 111.06 92.6C111.993 91.8 113.273 91.4 114.9 91.4C116.526 91.4 117.8 91.8 118.72 92.6C119.653 93.3867 120.16 94.4867 120.24 95.9C120.266 96.2467 120.28 96.5467 120.28 96.8C120.28 97.0533 120.266 97.3533 120.24 97.7C120.16 99.14 119.666 100.253 118.76 101.04C117.866 101.813 116.58 102.2 114.9 102.2ZM114.9 99.68C115.446 99.68 115.853 99.5133 116.12 99.18C116.386 98.8333 116.54 98.3067 116.58 97.6C116.593 97.4667 116.6 97.2 116.6 96.8C116.6 96.4 116.593 96.1333 116.58 96C116.54 95.3067 116.386 94.7867 116.12 94.44C115.853 94.0933 115.446 93.92 114.9 93.92C114.353 93.92 113.946 94.0933 113.68 94.44C113.413 94.7867 113.26 95.3067 113.22 96L113.2 96.8L113.22 97.6C113.26 98.3067 113.413 98.8333 113.68 99.18C113.946 99.5133 114.353 99.68 114.9 99.68ZM111.44 90.1C111.24 90.1 111.14 90.0067 111.14 89.82C111.14 89.7 111.186 89.5933 111.28 89.5L113.36 87.32C113.493 87.1867 113.606 87.0933 113.7 87.04C113.806 86.9867 113.926 86.96 114.06 86.96H115.72C115.866 86.96 115.986 86.9867 116.08 87.04C116.186 87.08 116.306 87.1733 116.44 87.32L118.5 89.5C118.606 89.6067 118.66 89.7133 118.66 89.82C118.66 90.0067 118.553 90.1 118.34 90.1H117.36C117.066 90.1 116.833 90.0533 116.66 89.96L114.9 89L113.14 89.96C112.966 90.0533 112.733 90.1 112.44 90.1H111.44ZM127.606 102C124.779 102 123.366 100.673 123.366 98.02V94.32H121.786C121.653 94.32 121.533 94.2733 121.426 94.18C121.333 94.0733 121.286 93.9533 121.286 93.82V92.1C121.286 91.9533 121.333 91.8333 121.426 91.74C121.533 91.6467 121.653 91.6 121.786 91.6H123.366V88.3C123.366 88.1533 123.413 88.0333 123.506 87.94C123.613 87.8467 123.733 87.8 123.866 87.8H126.326C126.473 87.8 126.593 87.8467 126.686 87.94C126.779 88.0333 126.826 88.1533 126.826 88.3V91.6H129.326C129.473 91.6 129.593 91.6467 129.686 91.74C129.793 91.8333 129.846 91.9533 129.846 92.1V93.82C129.846 93.9667 129.793 94.0867 129.686 94.18C129.593 94.2733 129.473 94.32 129.326 94.32H126.826V97.72C126.826 98.1867 126.913 98.54 127.086 98.78C127.259 99.02 127.539 99.14 127.926 99.14H129.506C129.653 99.14 129.773 99.1933 129.866 99.3C129.959 99.3933 130.006 99.5133 130.006 99.66V101.5C130.006 101.633 129.959 101.753 129.866 101.86C129.773 101.953 129.653 102 129.506 102H127.606ZM136.499 102.2C134.872 102.2 133.592 101.767 132.659 100.9C131.725 100.02 131.245 98.7467 131.219 97.08V96.46C131.272 94.8733 131.765 93.6333 132.699 92.74C133.632 91.8467 134.892 91.4 136.479 91.4C137.625 91.4 138.592 91.6333 139.379 92.1C140.179 92.5533 140.772 93.1867 141.159 94C141.559 94.8 141.759 95.7133 141.759 96.74V97.24C141.759 97.3867 141.705 97.5133 141.599 97.62C141.505 97.7133 141.385 97.76 141.239 97.76H134.899V97.88C134.912 98.48 135.052 98.9667 135.319 99.34C135.585 99.7 135.965 99.88 136.459 99.88C136.779 99.88 137.032 99.82 137.219 99.7C137.419 99.5667 137.605 99.4 137.779 99.2C137.899 99.0667 137.992 98.9867 138.059 98.96C138.139 98.92 138.259 98.9 138.419 98.9H141.039C141.159 98.9 141.259 98.94 141.339 99.02C141.432 99.0867 141.479 99.1733 141.479 99.28C141.479 99.6267 141.279 100.033 140.879 100.5C140.492 100.967 139.919 101.367 139.159 101.7C138.412 102.033 137.525 102.2 136.499 102.2ZM138.079 95.72V95.68C138.079 95.04 137.939 94.5467 137.659 94.2C137.379 93.84 136.985 93.66 136.479 93.66C135.972 93.66 135.579 93.84 135.299 94.2C135.032 94.5467 134.899 95.04 134.899 95.68V95.72H138.079ZM151.651 102.2C150.358 102.2 149.338 101.793 148.591 100.98C147.858 100.167 147.465 99.0067 147.411 97.5L147.391 96.8L147.411 96.08C147.465 94.6267 147.865 93.4867 148.611 92.66C149.358 91.82 150.371 91.4 151.651 91.4C152.851 91.4 153.818 91.7867 154.551 92.56V88.3C154.551 88.1533 154.598 88.0333 154.691 87.94C154.798 87.8467 154.918 87.8 155.051 87.8H157.631C157.778 87.8 157.898 87.8467 157.991 87.94C158.098 88.0333 158.151 88.1533 158.151 88.3V101.5C158.151 101.647 158.098 101.767 157.991 101.86C157.898 101.953 157.778 102 157.631 102H155.251C155.118 102 154.998 101.953 154.891 101.86C154.798 101.753 154.751 101.633 154.751 101.5V100.88C154.031 101.76 152.998 102.2 151.651 102.2ZM152.811 99.42C153.385 99.42 153.811 99.24 154.091 98.88C154.371 98.5067 154.525 98.04 154.551 97.48C154.578 97.1067 154.591 96.8533 154.591 96.72C154.591 96.5733 154.578 96.3267 154.551 95.98C154.525 95.46 154.365 95.0333 154.071 94.7C153.791 94.3533 153.371 94.18 152.811 94.18C152.211 94.18 151.778 94.36 151.511 94.72C151.258 95.0667 151.111 95.5533 151.071 96.18L151.051 96.8L151.071 97.42C151.111 98.0467 151.258 98.54 151.511 98.9C151.778 99.2467 152.211 99.42 152.811 99.42ZM161.127 93.18C160.794 93.18 160.6 92.9933 160.547 92.62L160.087 88.42C160.074 88.2333 160.107 88.0867 160.187 87.98C160.28 87.86 160.407 87.8 160.567 87.8H162.907C163.067 87.8 163.187 87.86 163.267 87.98C163.36 88.0867 163.4 88.2333 163.387 88.42L162.927 92.62C162.874 92.9933 162.68 93.18 162.347 93.18H161.127ZM171.349 102.2C169.456 102.2 167.963 101.74 166.869 100.82C165.776 99.9 165.196 98.5467 165.129 96.76C165.116 96.3867 165.109 95.8133 165.109 95.04C165.109 94.2667 165.116 93.6867 165.129 93.3C165.183 91.54 165.763 90.1867 166.869 89.24C167.989 88.28 169.483 87.8 171.349 87.8C173.203 87.8 174.683 88.28 175.789 89.24C176.909 90.1867 177.496 91.54 177.549 93.3C177.576 94.0733 177.589 94.6533 177.589 95.04C177.589 95.44 177.576 96.0133 177.549 96.76C177.483 98.5467 176.903 99.9 175.809 100.82C174.729 101.74 173.243 102.2 171.349 102.2ZM171.349 99.2C172.043 99.2 172.596 98.9933 173.009 98.58C173.423 98.1533 173.643 97.5067 173.669 96.64C173.696 95.8667 173.709 95.3133 173.709 94.98C173.709 94.6467 173.696 94.1067 173.669 93.36C173.643 92.4933 173.423 91.8533 173.009 91.44C172.596 91.0133 172.043 90.8 171.349 90.8C170.643 90.8 170.083 91.0133 169.669 91.44C169.256 91.8533 169.036 92.4933 169.009 93.36C168.996 93.7333 168.989 94.2733 168.989 94.98C168.989 95.7 168.996 96.2533 169.009 96.64C169.036 97.5067 169.256 98.1533 169.669 98.58C170.083 98.9933 170.643 99.2 171.349 99.2ZM180.126 102C179.993 102 179.873 101.953 179.766 101.86C179.673 101.753 179.626 101.633 179.626 101.5V92.12C179.626 91.9733 179.673 91.8533 179.766 91.76C179.86 91.6533 179.98 91.6 180.126 91.6H182.566C182.713 91.6 182.833 91.6533 182.926 91.76C183.033 91.8533 183.086 91.9733 183.086 92.12V92.88C183.46 92.4667 183.893 92.1533 184.386 91.94C184.893 91.7133 185.453 91.6 186.066 91.6H186.966C187.113 91.6 187.233 91.6467 187.326 91.74C187.42 91.8333 187.466 91.9533 187.466 92.1V94.28C187.466 94.4133 187.42 94.5333 187.326 94.64C187.233 94.7333 187.113 94.78 186.966 94.78H184.946C184.413 94.78 184 94.9267 183.706 95.22C183.426 95.5133 183.286 95.9267 183.286 96.46V101.5C183.286 101.647 183.233 101.767 183.126 101.86C183.033 101.953 182.913 102 182.766 102H180.126ZM187.67 103.5C187.55 103.5 187.45 103.453 187.37 103.36C187.304 103.28 187.277 103.18 187.29 103.06L187.91 99.04C187.937 98.8533 188.01 98.6933 188.13 98.56C188.25 98.4133 188.424 98.34 188.65 98.34H191.07C191.177 98.34 191.27 98.38 191.35 98.46C191.43 98.54 191.47 98.6333 191.47 98.74C191.47 98.82 191.457 98.8933 191.43 98.96L189.87 102.94C189.724 103.313 189.477 103.5 189.13 103.5H187.67ZM198.335 102C198.201 102 198.081 101.953 197.975 101.86C197.881 101.753 197.835 101.633 197.835 101.5V88.52C197.835 88.3733 197.881 88.2533 197.975 88.16C198.068 88.0533 198.188 88 198.335 88H204.515C206.208 88 207.468 88.3467 208.295 89.04C209.121 89.7333 209.535 90.72 209.535 92C209.535 92.64 209.361 93.1933 209.015 93.66C208.681 94.1267 208.308 94.4667 207.895 94.68C208.441 94.92 208.901 95.32 209.275 95.88C209.648 96.4267 209.835 97.0467 209.835 97.74C209.835 99.0867 209.388 100.133 208.495 100.88C207.615 101.627 206.348 102 204.695 102H198.335ZM204.095 93.54C204.588 93.54 204.968 93.4067 205.235 93.14C205.501 92.8733 205.635 92.5267 205.635 92.1C205.635 91.6867 205.501 91.3533 205.235 91.1C204.981 90.8333 204.601 90.7 204.095 90.7H201.595V93.54H204.095ZM204.275 99.3C204.795 99.3 205.195 99.1533 205.475 98.86C205.768 98.5533 205.915 98.18 205.915 97.74C205.915 97.2867 205.768 96.9133 205.475 96.62C205.181 96.3133 204.781 96.16 204.275 96.16H201.595V99.3H204.275ZM215.575 102.2C214.402 102.2 213.455 101.807 212.735 101.02C212.015 100.233 211.655 99.12 211.655 97.68V92.1C211.655 91.9533 211.702 91.8333 211.795 91.74C211.902 91.6467 212.022 91.6 212.155 91.6H214.815C214.962 91.6 215.082 91.6467 215.175 91.74C215.282 91.8333 215.335 91.9533 215.335 92.1V97.56C215.335 98.8 215.889 99.42 216.995 99.42C217.529 99.42 217.942 99.26 218.235 98.94C218.542 98.6067 218.695 98.1467 218.695 97.56V92.1C218.695 91.9533 218.742 91.8333 218.835 91.74C218.942 91.6467 219.069 91.6 219.215 91.6H221.855C222.002 91.6 222.122 91.6467 222.215 91.74C222.309 91.8333 222.355 91.9533 222.355 92.1V101.5C222.355 101.633 222.309 101.753 222.215 101.86C222.122 101.953 222.002 102 221.855 102H219.415C219.269 102 219.142 101.953 219.035 101.86C218.942 101.767 218.895 101.647 218.895 101.5V100.74C218.202 101.713 217.095 102.2 215.575 102.2ZM225.126 102C224.993 102 224.873 101.953 224.766 101.86C224.673 101.753 224.626 101.633 224.626 101.5V92.12C224.626 91.9733 224.673 91.8533 224.766 91.76C224.86 91.6533 224.98 91.6 225.126 91.6H227.566C227.713 91.6 227.833 91.6533 227.926 91.76C228.033 91.8533 228.086 91.9733 228.086 92.12V92.88C228.46 92.4667 228.893 92.1533 229.386 91.94C229.893 91.7133 230.453 91.6 231.066 91.6H231.966C232.113 91.6 232.233 91.6467 232.326 91.74C232.42 91.8333 232.466 91.9533 232.466 92.1V94.28C232.466 94.4133 232.42 94.5333 232.326 94.64C232.233 94.7333 232.113 94.78 231.966 94.78H229.946C229.413 94.78 229 94.9267 228.706 95.22C228.426 95.5133 228.286 95.9267 228.286 96.46V101.5C228.286 101.647 228.233 101.767 228.126 101.86C228.033 101.953 227.913 102 227.766 102H225.126ZM238.967 106.4C237.687 106.4 236.647 106.193 235.847 105.78C235.047 105.367 234.474 104.887 234.127 104.34C233.78 103.807 233.607 103.36 233.607 103C233.607 102.867 233.66 102.753 233.767 102.66C233.874 102.567 233.994 102.52 234.127 102.52H236.807C236.94 102.52 237.047 102.547 237.127 102.6C237.207 102.667 237.28 102.773 237.347 102.92C237.48 103.213 237.654 103.44 237.867 103.6C238.08 103.773 238.414 103.86 238.867 103.86C239.44 103.86 239.867 103.713 240.147 103.42C240.427 103.14 240.567 102.667 240.567 102V100.66C239.86 101.393 238.894 101.76 237.667 101.76C236.32 101.76 235.287 101.373 234.567 100.6C233.86 99.8133 233.474 98.66 233.407 97.14L233.387 96.6C233.387 94.9733 233.747 93.7 234.467 92.78C235.2 91.86 236.267 91.4 237.667 91.4C238.347 91.4 238.947 91.5333 239.467 91.8C239.987 92.0533 240.42 92.4 240.767 92.84V92.12C240.767 91.9733 240.814 91.8533 240.907 91.76C241 91.6533 241.12 91.6 241.267 91.6H243.707C243.854 91.6 243.974 91.6533 244.067 91.76C244.174 91.8533 244.227 91.9733 244.227 92.12V101.7C244.227 103.233 243.767 104.4 242.847 105.2C241.927 106 240.634 106.4 238.967 106.4ZM238.807 99.06C239.38 99.06 239.807 98.8867 240.087 98.54C240.367 98.1933 240.527 97.7533 240.567 97.22C240.58 97.1267 240.587 96.9267 240.587 96.62C240.587 96.3 240.58 96.1 240.567 96.02C240.527 95.4733 240.367 95.0333 240.087 94.7C239.807 94.3533 239.38 94.18 238.807 94.18C238.22 94.18 237.794 94.36 237.527 94.72C237.26 95.0667 237.114 95.5533 237.087 96.18L237.067 96.62C237.067 97.38 237.194 97.98 237.447 98.42C237.7 98.8467 238.154 99.06 238.807 99.06ZM250.341 102.2C249.168 102.2 248.221 101.807 247.501 101.02C246.781 100.233 246.421 99.12 246.421 97.68V92.1C246.421 91.9533 246.468 91.8333 246.561 91.74C246.668 91.6467 246.788 91.6 246.921 91.6H249.581C249.728 91.6 249.848 91.6467 249.941 91.74C250.048 91.8333 250.101 91.9533 250.101 92.1V97.56C250.101 98.8 250.654 99.42 251.761 99.42C252.294 99.42 252.708 99.26 253.001 98.94C253.308 98.6067 253.461 98.1467 253.461 97.56V92.1C253.461 91.9533 253.508 91.8333 253.601 91.74C253.708 91.6467 253.834 91.6 253.981 91.6H256.621C256.768 91.6 256.888 91.6467 256.981 91.74C257.074 91.8333 257.121 91.9533 257.121 92.1V101.5C257.121 101.633 257.074 101.753 256.981 101.86C256.888 101.953 256.768 102 256.621 102H254.181C254.034 102 253.908 101.953 253.801 101.86C253.708 101.767 253.661 101.647 253.661 101.5V100.74C252.968 101.713 251.861 102.2 250.341 102.2ZM259.892 102C259.759 102 259.639 101.953 259.532 101.86C259.439 101.753 259.392 101.633 259.392 101.5V92.1C259.392 91.9533 259.439 91.8333 259.532 91.74C259.639 91.6467 259.759 91.6 259.892 91.6H262.352C262.499 91.6 262.619 91.6467 262.712 91.74C262.805 91.8333 262.852 91.9533 262.852 92.1V92.86C263.212 92.42 263.672 92.0667 264.232 91.8C264.805 91.5333 265.459 91.4 266.192 91.4C266.952 91.4 267.625 91.5733 268.212 91.92C268.812 92.2667 269.279 92.78 269.612 93.46C269.959 94.14 270.132 94.96 270.132 95.92V101.5C270.132 101.633 270.085 101.753 269.992 101.86C269.899 101.953 269.779 102 269.632 102H266.972C266.825 102 266.699 101.953 266.592 101.86C266.499 101.767 266.452 101.647 266.452 101.5V96.04C266.452 95.44 266.305 94.98 266.012 94.66C265.732 94.34 265.319 94.18 264.772 94.18C264.239 94.18 263.819 94.3467 263.512 94.68C263.205 95 263.052 95.4533 263.052 96.04V101.5C263.052 101.633 263.005 101.753 262.912 101.86C262.819 101.953 262.699 102 262.552 102H259.892ZM276.222 102.2C274.928 102.2 273.908 101.793 273.162 100.98C272.428 100.167 272.035 99.0067 271.982 97.5L271.962 96.8L271.982 96.08C272.035 94.6267 272.435 93.4867 273.182 92.66C273.928 91.82 274.942 91.4 276.222 91.4C277.422 91.4 278.388 91.7867 279.122 92.56V88.3C279.122 88.1533 279.168 88.0333 279.262 87.94C279.368 87.8467 279.488 87.8 279.622 87.8H282.202C282.348 87.8 282.468 87.8467 282.562 87.94C282.668 88.0333 282.722 88.1533 282.722 88.3V101.5C282.722 101.647 282.668 101.767 282.562 101.86C282.468 101.953 282.348 102 282.202 102H279.822C279.688 102 279.568 101.953 279.462 101.86C279.368 101.753 279.322 101.633 279.322 101.5V100.88C278.602 101.76 277.568 102.2 276.222 102.2ZM277.382 99.42C277.955 99.42 278.382 99.24 278.662 98.88C278.942 98.5067 279.095 98.04 279.122 97.48C279.148 97.1067 279.162 96.8533 279.162 96.72C279.162 96.5733 279.148 96.3267 279.122 95.98C279.095 95.46 278.935 95.0333 278.642 94.7C278.362 94.3533 277.942 94.18 277.382 94.18C276.782 94.18 276.348 94.36 276.082 94.72C275.828 95.0667 275.682 95.5533 275.642 96.18L275.622 96.8L275.642 97.42C275.682 98.0467 275.828 98.54 276.082 98.9C276.348 99.2467 276.782 99.42 277.382 99.42ZM286.957 105.8C286.837 105.8 286.737 105.76 286.657 105.68C286.577 105.6 286.537 105.5 286.537 105.38C286.537 105.287 286.551 105.2 286.577 105.12L288.157 101.36L284.317 92.28C284.277 92.1733 284.257 92.1 284.257 92.06C284.284 91.9267 284.337 91.82 284.417 91.74C284.511 91.6467 284.617 91.6 284.737 91.6H287.117C287.397 91.6 287.591 91.74 287.697 92.02L289.917 97.7L292.197 92.02C292.331 91.74 292.531 91.6 292.797 91.6H295.157C295.277 91.6 295.377 91.6467 295.457 91.74C295.551 91.82 295.597 91.9133 295.597 92.02C295.597 92.1133 295.584 92.2 295.557 92.28L289.897 105.38C289.764 105.66 289.557 105.8 289.277 105.8H286.957ZM114.78 126C114.647 126 114.527 125.953 114.42 125.86C114.327 125.753 114.28 125.633 114.28 125.5V112.52C114.28 112.373 114.327 112.253 114.42 112.16C114.513 112.053 114.633 112 114.78 112H124.08C124.227 112 124.347 112.053 124.44 112.16C124.547 112.253 124.6 112.373 124.6 112.52V114.64C124.6 114.787 124.547 114.907 124.44 115C124.347 115.093 124.227 115.14 124.08 115.14H117.96V117.92H123.68C123.827 117.92 123.947 117.973 124.04 118.08C124.147 118.173 124.2 118.293 124.2 118.44V120.56C124.2 120.707 124.147 120.827 124.04 120.92C123.947 121.013 123.827 121.06 123.68 121.06H117.96V125.5C117.96 125.633 117.913 125.753 117.82 125.86C117.727 125.953 117.607 126 117.46 126H114.78ZM126.806 126C126.673 126 126.553 125.953 126.446 125.86C126.353 125.753 126.306 125.633 126.306 125.5V116.12C126.306 115.973 126.353 115.853 126.446 115.76C126.539 115.653 126.659 115.6 126.806 115.6H129.246C129.393 115.6 129.513 115.653 129.606 115.76C129.713 115.853 129.766 115.973 129.766 116.12V116.88C130.139 116.467 130.573 116.153 131.066 115.94C131.573 115.713 132.133 115.6 132.746 115.6H133.646C133.793 115.6 133.913 115.647 134.006 115.74C134.099 115.833 134.146 115.953 134.146 116.1V118.28C134.146 118.413 134.099 118.533 134.006 118.64C133.913 118.733 133.793 118.78 133.646 118.78H131.626C131.093 118.78 130.679 118.927 130.386 119.22C130.106 119.513 129.966 119.927 129.966 120.46V125.5C129.966 125.647 129.913 125.767 129.806 125.86C129.713 125.953 129.593 126 129.446 126H126.806ZM138.489 126.2C137.782 126.2 137.136 126.067 136.549 125.8C135.976 125.52 135.522 125.14 135.189 124.66C134.869 124.18 134.709 123.653 134.709 123.08C134.709 122.173 135.082 121.44 135.829 120.88C136.589 120.307 137.629 119.913 138.949 119.7L141.429 119.32V119.08C141.429 118.587 141.329 118.227 141.129 118C140.929 117.773 140.589 117.66 140.109 117.66C139.842 117.66 139.616 117.707 139.429 117.8C139.256 117.893 139.056 118.033 138.829 118.22C138.656 118.367 138.502 118.473 138.369 118.54C138.316 118.633 138.249 118.68 138.169 118.68H135.849C135.716 118.68 135.602 118.64 135.509 118.56C135.429 118.467 135.396 118.36 135.409 118.24C135.422 117.88 135.602 117.48 135.949 117.04C136.296 116.587 136.822 116.2 137.529 115.88C138.236 115.56 139.109 115.4 140.149 115.4C141.802 115.4 143.029 115.767 143.829 116.5C144.629 117.22 145.029 118.2 145.029 119.44V125.5C145.029 125.633 144.982 125.753 144.889 125.86C144.796 125.953 144.676 126 144.529 126H142.069C141.936 126 141.816 125.953 141.709 125.86C141.616 125.753 141.569 125.633 141.569 125.5V124.8C141.276 125.213 140.869 125.553 140.349 125.82C139.829 126.073 139.209 126.2 138.489 126.2ZM139.489 123.84C140.076 123.84 140.549 123.647 140.909 123.26C141.282 122.873 141.469 122.313 141.469 121.58V121.34L139.809 121.62C138.689 121.833 138.129 122.233 138.129 122.82C138.129 123.127 138.256 123.373 138.509 123.56C138.776 123.747 139.102 123.84 139.489 123.84ZM147.704 126C147.571 126 147.451 125.953 147.344 125.86C147.251 125.753 147.204 125.633 147.204 125.5V116.1C147.204 115.953 147.251 115.833 147.344 115.74C147.451 115.647 147.571 115.6 147.704 115.6H150.164C150.311 115.6 150.431 115.647 150.524 115.74C150.618 115.833 150.664 115.953 150.664 116.1V116.86C151.024 116.42 151.484 116.067 152.044 115.8C152.618 115.533 153.271 115.4 154.004 115.4C154.764 115.4 155.438 115.573 156.024 115.92C156.624 116.267 157.091 116.78 157.424 117.46C157.771 118.14 157.944 118.96 157.944 119.92V125.5C157.944 125.633 157.898 125.753 157.804 125.86C157.711 125.953 157.591 126 157.444 126H154.784C154.638 126 154.511 125.953 154.404 125.86C154.311 125.767 154.264 125.647 154.264 125.5V120.04C154.264 119.44 154.118 118.98 153.824 118.66C153.544 118.34 153.131 118.18 152.584 118.18C152.051 118.18 151.631 118.347 151.324 118.68C151.018 119 150.864 119.453 150.864 120.04V125.5C150.864 125.633 150.818 125.753 150.724 125.86C150.631 125.953 150.511 126 150.364 126H147.704ZM164.974 126.2C163.454 126.2 162.221 125.8 161.274 125C160.341 124.187 159.841 123.06 159.774 121.62L159.754 120.82L159.774 120C159.827 118.56 160.327 117.433 161.274 116.62C162.221 115.807 163.454 115.4 164.974 115.4C166.134 115.4 167.107 115.607 167.894 116.02C168.681 116.433 169.267 116.927 169.654 117.5C170.041 118.06 170.247 118.573 170.274 119.04C170.287 119.187 170.241 119.313 170.134 119.42C170.027 119.513 169.901 119.56 169.754 119.56H167.074C166.927 119.56 166.814 119.527 166.734 119.46C166.654 119.393 166.581 119.287 166.514 119.14C166.367 118.767 166.174 118.493 165.934 118.32C165.707 118.147 165.414 118.06 165.054 118.06C164.027 118.06 163.494 118.74 163.454 120.1L163.434 120.86L163.454 121.52C163.467 122.213 163.607 122.727 163.874 123.06C164.141 123.38 164.534 123.54 165.054 123.54C165.441 123.54 165.741 123.46 165.954 123.3C166.181 123.127 166.367 122.847 166.514 122.46C166.581 122.313 166.654 122.207 166.734 122.14C166.814 122.073 166.927 122.04 167.074 122.04H169.754C169.887 122.04 170.007 122.087 170.114 122.18C170.221 122.273 170.274 122.387 170.274 122.52C170.274 122.933 170.087 123.433 169.714 124.02C169.354 124.593 168.774 125.1 167.974 125.54C167.174 125.98 166.174 126.2 164.974 126.2ZM172.51 126C172.363 126 172.236 125.953 172.13 125.86C172.036 125.767 171.99 125.647 171.99 125.5V112.3C171.99 112.153 172.036 112.033 172.13 111.94C172.236 111.847 172.363 111.8 172.51 111.8H175.21C175.356 111.8 175.476 111.847 175.57 111.94C175.676 112.033 175.73 112.153 175.73 112.3V116.76C176.503 115.853 177.55 115.4 178.87 115.4C179.63 115.4 180.316 115.573 180.93 115.92C181.543 116.267 182.023 116.78 182.37 117.46C182.716 118.14 182.89 118.96 182.89 119.92V125.5C182.89 125.647 182.836 125.767 182.73 125.86C182.636 125.953 182.516 126 182.37 126H179.65C179.516 126 179.396 125.953 179.29 125.86C179.196 125.753 179.15 125.633 179.15 125.5V120.04C179.15 119.453 179.003 119 178.71 118.68C178.416 118.347 177.996 118.18 177.45 118.18C176.916 118.18 176.496 118.347 176.19 118.68C175.883 119 175.73 119.453 175.73 120.04V125.5C175.73 125.647 175.676 125.767 175.57 125.86C175.476 125.953 175.356 126 175.21 126H172.51ZM189.956 126.2C188.329 126.2 187.049 125.767 186.116 124.9C185.182 124.02 184.702 122.747 184.676 121.08V120.46C184.729 118.873 185.222 117.633 186.156 116.74C187.089 115.847 188.349 115.4 189.936 115.4C191.082 115.4 192.049 115.633 192.836 116.1C193.636 116.553 194.229 117.187 194.616 118C195.016 118.8 195.216 119.713 195.216 120.74V121.24C195.216 121.387 195.162 121.513 195.056 121.62C194.962 121.713 194.842 121.76 194.696 121.76H188.356V121.88C188.369 122.48 188.509 122.967 188.776 123.34C189.042 123.7 189.422 123.88 189.916 123.88C190.236 123.88 190.489 123.82 190.676 123.7C190.876 123.567 191.062 123.4 191.236 123.2C191.356 123.067 191.449 122.987 191.516 122.96C191.596 122.92 191.716 122.9 191.876 122.9H194.496C194.616 122.9 194.716 122.94 194.796 123.02C194.889 123.087 194.936 123.173 194.936 123.28C194.936 123.627 194.736 124.033 194.336 124.5C193.949 124.967 193.376 125.367 192.616 125.7C191.869 126.033 190.982 126.2 189.956 126.2ZM191.536 119.72V119.68C191.536 119.04 191.396 118.547 191.116 118.2C190.836 117.84 190.442 117.66 189.936 117.66C189.429 117.66 189.036 117.84 188.756 118.2C188.489 118.547 188.356 119.04 188.356 119.68V119.72H191.536ZM197.489 121.5C197.342 121.5 197.216 121.453 197.109 121.36C197.016 121.267 196.969 121.147 196.969 121V119C196.969 118.853 197.016 118.733 197.109 118.64C197.216 118.547 197.342 118.5 197.489 118.5H203.789C203.936 118.5 204.056 118.547 204.149 118.64C204.242 118.733 204.289 118.853 204.289 119V121C204.289 121.133 204.242 121.253 204.149 121.36C204.056 121.453 203.936 121.5 203.789 121.5H197.489ZM212.541 126.2C210.634 126.2 209.134 125.74 208.041 124.82C206.961 123.9 206.388 122.553 206.321 120.78C206.308 120.42 206.301 119.833 206.301 119.02C206.301 118.193 206.308 117.593 206.321 117.22C206.388 115.487 206.968 114.153 208.061 113.22C209.168 112.273 210.661 111.8 212.541 111.8C213.728 111.8 214.788 111.993 215.721 112.38C216.668 112.767 217.414 113.327 217.961 114.06C218.508 114.793 218.794 115.66 218.821 116.66C218.821 116.78 218.774 116.88 218.681 116.96C218.601 117.04 218.501 117.08 218.381 117.08H215.541C215.354 117.08 215.214 117.047 215.121 116.98C215.041 116.9 214.968 116.76 214.901 116.56C214.714 115.907 214.428 115.453 214.041 115.2C213.668 114.933 213.168 114.8 212.541 114.8C211.034 114.8 210.254 115.64 210.201 117.32C210.188 117.68 210.181 118.233 210.181 118.98C210.181 119.727 210.188 120.293 210.201 120.68C210.254 122.36 211.034 123.2 212.541 123.2C213.154 123.2 213.654 123.067 214.041 122.8C214.441 122.533 214.728 122.08 214.901 121.44C214.954 121.24 215.028 121.107 215.121 121.04C215.214 120.96 215.354 120.92 215.541 120.92H218.381C218.501 120.92 218.601 120.96 218.681 121.04C218.774 121.12 218.821 121.22 218.821 121.34C218.794 122.34 218.508 123.207 217.961 123.94C217.414 124.673 216.668 125.233 215.721 125.62C214.788 126.007 213.728 126.2 212.541 126.2ZM225.642 126.2C223.962 126.2 222.669 125.813 221.762 125.04C220.869 124.253 220.382 123.14 220.302 121.7C220.289 121.527 220.282 121.227 220.282 120.8C220.282 120.373 220.289 120.073 220.302 119.9C220.382 118.487 220.882 117.387 221.802 116.6C222.735 115.8 224.015 115.4 225.642 115.4C227.269 115.4 228.542 115.8 229.462 116.6C230.395 117.387 230.902 118.487 230.982 119.9C231.009 120.247 231.022 120.547 231.022 120.8C231.022 121.053 231.009 121.353 230.982 121.7C230.902 123.14 230.409 124.253 229.502 125.04C228.609 125.813 227.322 126.2 225.642 126.2ZM225.642 123.68C226.189 123.68 226.595 123.513 226.862 123.18C227.129 122.833 227.282 122.307 227.322 121.6C227.335 121.467 227.342 121.2 227.342 120.8C227.342 120.4 227.335 120.133 227.322 120C227.282 119.307 227.129 118.787 226.862 118.44C226.595 118.093 226.189 117.92 225.642 117.92C225.095 117.92 224.689 118.093 224.422 118.44C224.155 118.787 224.002 119.307 223.962 120L223.942 120.8L223.962 121.6C224.002 122.307 224.155 122.833 224.422 123.18C224.689 123.513 225.095 123.68 225.642 123.68ZM233.427 126C233.294 126 233.174 125.953 233.067 125.86C232.974 125.753 232.927 125.633 232.927 125.5V116.1C232.927 115.953 232.974 115.833 233.067 115.74C233.174 115.647 233.294 115.6 233.427 115.6H235.747C235.894 115.6 236.014 115.647 236.107 115.74C236.2 115.833 236.247 115.953 236.247 116.1V116.78C236.567 116.393 236.98 116.067 237.487 115.8C237.994 115.533 238.567 115.4 239.207 115.4C240.674 115.4 241.68 115.973 242.227 117.12C242.547 116.613 242.994 116.2 243.567 115.88C244.14 115.56 244.754 115.4 245.407 115.4C246.5 115.4 247.387 115.773 248.067 116.52C248.76 117.253 249.107 118.353 249.107 119.82V125.5C249.107 125.633 249.06 125.753 248.967 125.86C248.874 125.953 248.754 126 248.607 126H246.147C246 126 245.874 125.953 245.767 125.86C245.674 125.767 245.627 125.647 245.627 125.5V119.96C245.627 119.347 245.494 118.9 245.227 118.62C244.974 118.327 244.627 118.18 244.187 118.18C243.774 118.18 243.434 118.327 243.167 118.62C242.914 118.9 242.787 119.347 242.787 119.96V125.5C242.787 125.633 242.74 125.753 242.647 125.86C242.554 125.953 242.434 126 242.287 126H239.827C239.68 126 239.554 125.953 239.447 125.86C239.354 125.767 239.307 125.647 239.307 125.5V119.96C239.307 119.347 239.174 118.9 238.907 118.62C238.64 118.327 238.294 118.18 237.867 118.18C237.454 118.18 237.114 118.327 236.847 118.62C236.58 118.9 236.447 119.34 236.447 119.94V125.5C236.447 125.633 236.4 125.753 236.307 125.86C236.214 125.953 236.094 126 235.947 126H233.427ZM256.649 126C253.822 126 252.409 124.673 252.409 122.02V118.32H250.829C250.695 118.32 250.575 118.273 250.469 118.18C250.375 118.073 250.329 117.953 250.329 117.82V116.1C250.329 115.953 250.375 115.833 250.469 115.74C250.575 115.647 250.695 115.6 250.829 115.6H252.409V112.3C252.409 112.153 252.455 112.033 252.549 111.94C252.655 111.847 252.775 111.8 252.909 111.8H255.369C255.515 111.8 255.635 111.847 255.729 111.94C255.822 112.033 255.869 112.153 255.869 112.3V115.6H258.369C258.515 115.6 258.635 115.647 258.729 115.74C258.835 115.833 258.889 115.953 258.889 116.1V117.82C258.889 117.967 258.835 118.087 258.729 118.18C258.635 118.273 258.515 118.32 258.369 118.32H255.869V121.72C255.869 122.187 255.955 122.54 256.129 122.78C256.302 123.02 256.582 123.14 256.969 123.14H258.549C258.695 123.14 258.815 123.193 258.909 123.3C259.002 123.393 259.049 123.513 259.049 123.66V125.5C259.049 125.633 259.002 125.753 258.909 125.86C258.815 125.953 258.695 126 258.549 126H256.649ZM265.541 126.2C263.915 126.2 262.635 125.767 261.701 124.9C260.768 124.02 260.288 122.747 260.261 121.08V120.46C260.315 118.873 260.808 117.633 261.741 116.74C262.675 115.847 263.935 115.4 265.521 115.4C266.668 115.4 267.635 115.633 268.421 116.1C269.221 116.553 269.815 117.187 270.201 118C270.601 118.8 270.801 119.713 270.801 120.74V121.24C270.801 121.387 270.748 121.513 270.641 121.62C270.548 121.713 270.428 121.76 270.281 121.76H263.941V121.88C263.955 122.48 264.095 122.967 264.361 123.34C264.628 123.7 265.008 123.88 265.501 123.88C265.821 123.88 266.075 123.82 266.261 123.7C266.461 123.567 266.648 123.4 266.821 123.2C266.941 123.067 267.035 122.987 267.101 122.96C267.181 122.92 267.301 122.9 267.461 122.9H270.081C270.201 122.9 270.301 122.94 270.381 123.02C270.475 123.087 270.521 123.173 270.521 123.28C270.521 123.627 270.321 124.033 269.921 124.5C269.535 124.967 268.961 125.367 268.201 125.7C267.455 126.033 266.568 126.2 265.541 126.2ZM267.121 119.72V119.68C267.121 119.04 266.981 118.547 266.701 118.2C266.421 117.84 266.028 117.66 265.521 117.66C265.015 117.66 264.621 117.84 264.341 118.2C264.075 118.547 263.941 119.04 263.941 119.68V119.72H267.121ZM264.341 114.1C264.128 114.1 264.021 113.993 264.021 113.78C264.021 113.673 264.055 113.587 264.121 113.52L265.901 111.34C266.035 111.18 266.148 111.08 266.241 111.04C266.348 110.987 266.481 110.96 266.641 110.96H269.401C269.521 110.96 269.615 111 269.681 111.08C269.748 111.147 269.781 111.24 269.781 111.36C269.781 111.453 269.748 111.533 269.681 111.6L267.001 113.8C266.868 113.907 266.748 113.987 266.641 114.04C266.535 114.08 266.395 114.1 266.221 114.1H264.341ZM272.475 127.5C272.355 127.5 272.255 127.453 272.175 127.36C272.108 127.28 272.082 127.18 272.095 127.06L272.715 123.04C272.742 122.853 272.815 122.693 272.935 122.56C273.055 122.413 273.228 122.34 273.455 122.34H275.875C275.982 122.34 276.075 122.38 276.155 122.46C276.235 122.54 276.275 122.633 276.275 122.74C276.275 122.82 276.262 122.893 276.235 122.96L274.675 126.94C274.528 127.313 274.282 127.5 273.935 127.5H272.475ZM161.928 150C161.795 150 161.675 149.953 161.568 149.86C161.475 149.753 161.428 149.633 161.428 149.5V136.52C161.428 136.373 161.475 136.253 161.568 136.16C161.662 136.053 161.782 136 161.928 136H171.228C171.375 136 171.495 136.053 171.588 136.16C171.695 136.253 171.748 136.373 171.748 136.52V138.64C171.748 138.787 171.695 138.907 171.588 139C171.495 139.093 171.375 139.14 171.228 139.14H165.108V141.92H170.828C170.975 141.92 171.095 141.973 171.188 142.08C171.295 142.173 171.348 142.293 171.348 142.44V144.56C171.348 144.707 171.295 144.827 171.188 144.92C171.095 145.013 170.975 145.06 170.828 145.06H165.108V149.5C165.108 149.633 165.062 149.753 164.968 149.86C164.875 149.953 164.755 150 164.608 150H161.928ZM173.954 150C173.821 150 173.701 149.953 173.594 149.86C173.501 149.753 173.454 149.633 173.454 149.5V140.12C173.454 139.973 173.501 139.853 173.594 139.76C173.688 139.653 173.808 139.6 173.954 139.6H176.394C176.541 139.6 176.661 139.653 176.754 139.76C176.861 139.853 176.914 139.973 176.914 140.12V140.88C177.288 140.467 177.721 140.153 178.214 139.94C178.721 139.713 179.281 139.6 179.894 139.6H180.794C180.941 139.6 181.061 139.647 181.154 139.74C181.248 139.833 181.294 139.953 181.294 140.1V142.28C181.294 142.413 181.248 142.533 181.154 142.64C181.061 142.733 180.941 142.78 180.794 142.78H178.774C178.241 142.78 177.828 142.927 177.534 143.22C177.254 143.513 177.114 143.927 177.114 144.46V149.5C177.114 149.647 177.061 149.767 176.954 149.86C176.861 149.953 176.741 150 176.594 150H173.954ZM185.637 150.2C184.931 150.2 184.284 150.067 183.697 149.8C183.124 149.52 182.671 149.14 182.337 148.66C182.017 148.18 181.857 147.653 181.857 147.08C181.857 146.173 182.231 145.44 182.977 144.88C183.737 144.307 184.777 143.913 186.097 143.7L188.577 143.32V143.08C188.577 142.587 188.477 142.227 188.277 142C188.077 141.773 187.737 141.66 187.257 141.66C186.991 141.66 186.764 141.707 186.577 141.8C186.404 141.893 186.204 142.033 185.977 142.22C185.804 142.367 185.651 142.473 185.517 142.54C185.464 142.633 185.397 142.68 185.317 142.68H182.997C182.864 142.68 182.751 142.64 182.657 142.56C182.577 142.467 182.544 142.36 182.557 142.24C182.571 141.88 182.751 141.48 183.097 141.04C183.444 140.587 183.971 140.2 184.677 139.88C185.384 139.56 186.257 139.4 187.297 139.4C188.951 139.4 190.177 139.767 190.977 140.5C191.777 141.22 192.177 142.2 192.177 143.44V149.5C192.177 149.633 192.131 149.753 192.037 149.86C191.944 149.953 191.824 150 191.677 150H189.217C189.084 150 188.964 149.953 188.857 149.86C188.764 149.753 188.717 149.633 188.717 149.5V148.8C188.424 149.213 188.017 149.553 187.497 149.82C186.977 150.073 186.357 150.2 185.637 150.2ZM186.637 147.84C187.224 147.84 187.697 147.647 188.057 147.26C188.431 146.873 188.617 146.313 188.617 145.58V145.34L186.957 145.62C185.837 145.833 185.277 146.233 185.277 146.82C185.277 147.127 185.404 147.373 185.657 147.56C185.924 147.747 186.251 147.84 186.637 147.84ZM194.853 150C194.72 150 194.6 149.953 194.493 149.86C194.4 149.753 194.353 149.633 194.353 149.5V140.1C194.353 139.953 194.4 139.833 194.493 139.74C194.6 139.647 194.72 139.6 194.853 139.6H197.313C197.46 139.6 197.58 139.647 197.673 139.74C197.766 139.833 197.813 139.953 197.813 140.1V140.86C198.173 140.42 198.633 140.067 199.193 139.8C199.766 139.533 200.42 139.4 201.153 139.4C201.913 139.4 202.586 139.573 203.173 139.92C203.773 140.267 204.24 140.78 204.573 141.46C204.92 142.14 205.093 142.96 205.093 143.92V149.5C205.093 149.633 205.046 149.753 204.953 149.86C204.86 149.953 204.74 150 204.593 150H201.933C201.786 150 201.66 149.953 201.553 149.86C201.46 149.767 201.413 149.647 201.413 149.5V144.04C201.413 143.44 201.266 142.98 200.973 142.66C200.693 142.34 200.28 142.18 199.733 142.18C199.2 142.18 198.78 142.347 198.473 142.68C198.166 143 198.013 143.453 198.013 144.04V149.5C198.013 149.633 197.966 149.753 197.873 149.86C197.78 149.953 197.66 150 197.513 150H194.853ZM212.123 150.2C210.603 150.2 209.369 149.8 208.423 149C207.489 148.187 206.989 147.06 206.923 145.62L206.903 144.82L206.923 144C206.976 142.56 207.476 141.433 208.423 140.62C209.369 139.807 210.603 139.4 212.123 139.4C213.283 139.4 214.256 139.607 215.043 140.02C215.829 140.433 216.416 140.927 216.803 141.5C217.189 142.06 217.396 142.573 217.423 143.04C217.436 143.187 217.389 143.313 217.283 143.42C217.176 143.513 217.049 143.56 216.903 143.56H214.223C214.076 143.56 213.963 143.527 213.883 143.46C213.803 143.393 213.729 143.287 213.663 143.14C213.516 142.767 213.323 142.493 213.083 142.32C212.856 142.147 212.563 142.06 212.203 142.06C211.176 142.06 210.643 142.74 210.603 144.1L210.583 144.86L210.603 145.52C210.616 146.213 210.756 146.727 211.023 147.06C211.289 147.38 211.683 147.54 212.203 147.54C212.589 147.54 212.889 147.46 213.103 147.3C213.329 147.127 213.516 146.847 213.663 146.46C213.729 146.313 213.803 146.207 213.883 146.14C213.963 146.073 214.076 146.04 214.223 146.04H216.903C217.036 146.04 217.156 146.087 217.263 146.18C217.369 146.273 217.423 146.387 217.423 146.52C217.423 146.933 217.236 147.433 216.863 148.02C216.503 148.593 215.923 149.1 215.123 149.54C214.323 149.98 213.323 150.2 212.123 150.2ZM224.018 150.2C222.391 150.2 221.111 149.767 220.178 148.9C219.245 148.02 218.765 146.747 218.738 145.08V144.46C218.791 142.873 219.285 141.633 220.218 140.74C221.151 139.847 222.411 139.4 223.998 139.4C225.145 139.4 226.111 139.633 226.898 140.1C227.698 140.553 228.291 141.187 228.678 142C229.078 142.8 229.278 143.713 229.278 144.74V145.24C229.278 145.387 229.225 145.513 229.118 145.62C229.025 145.713 228.905 145.76 228.758 145.76H222.418V145.88C222.431 146.48 222.571 146.967 222.838 147.34C223.105 147.7 223.485 147.88 223.978 147.88C224.298 147.88 224.551 147.82 224.738 147.7C224.938 147.567 225.125 147.4 225.298 147.2C225.418 147.067 225.511 146.987 225.578 146.96C225.658 146.92 225.778 146.9 225.938 146.9H228.558C228.678 146.9 228.778 146.94 228.858 147.02C228.951 147.087 228.998 147.173 228.998 147.28C228.998 147.627 228.798 148.033 228.398 148.5C228.011 148.967 227.438 149.367 226.678 149.7C225.931 150.033 225.045 150.2 224.018 150.2ZM225.598 143.72V143.68C225.598 143.04 225.458 142.547 225.178 142.2C224.898 141.84 224.505 141.66 223.998 141.66C223.491 141.66 223.098 141.84 222.818 142.2C222.551 142.547 222.418 143.04 222.418 143.68V143.72H225.598Z" fill="#303030"/>
<g filter="url(#filter1_d_1235_380)">
<rect x="25" y="21" width="340" height="10" fill="#940000"/>
</g>
<defs>
<filter id="filter0_d_1235_380" x="0" y="0" width="390" height="190" filterUnits="userSpaceOnUse" color-interpolation-filters="sRGB">
<feFlood flood-opacity="0" result="BackgroundImageFix"/>
<feColorMatrix in="SourceAlpha" type="matrix" values="0 0 0 0 0 0 0 0 0 0 0 0 0 0 0 0 0 0 127 0" result="hardAlpha"/>
<feMorphology radius="15" operator="dilate" in="SourceAlpha" result="effect1_dropShadow_1235_380"/>
<feOffset dy="4"/>
<feGaussianBlur stdDeviation="5"/>
<feComposite in2="hardAlpha" operator="out"/>
<feColorMatrix type="matrix" values="0 0 0 0 0 0 0 0 0 0 0 0 0 0 0 0 0 0 0.25 0"/>
<feBlend mode="normal" in2="BackgroundImageFix" result="effect1_dropShadow_1235_380"/>
<feBlend mode="normal" in="SourceGraphic" in2="effect1_dropShadow_1235_380" result="shape"/>
</filter>
<filter id="filter1_d_1235_380" x="21" y="21" width="348" height="18" filterUnits="userSpaceOnUse" color-interpolation-filters="sRGB">
<feFlood flood-opacity="0" result="BackgroundImageFix"/>
<feColorMatrix in="SourceAlpha" type="matrix" values="0 0 0 0 0 0 0 0 0 0 0 0 0 0 0 0 0 0 127 0" result="hardAlpha"/>
<feOffset dy="4"/>
<feGaussianBlur stdDeviation="2"/>
<feComposite in2="hardAlpha" operator="out"/>
<feColorMatrix type="matrix" values="0 0 0 0 0 0 0 0 0 0 0 0 0 0 0 0 0 0 0.25 0"/>
<feBlend mode="normal" in2="BackgroundImageFix" result="effect1_dropShadow_1235_380"/>
<feBlend mode="normal" in="SourceGraphic" in2="effect1_dropShadow_1235_380" result="shape"/>
</filter>
</defs>
</svg>
